<?xml version="1.0" encoding="utf-8"?>
<!-- Generator: Adobe Illustrator 21.0.0, SVG Export Plug-In . SVG Version: 6.00 Build 0)  -->
<svg version="1.1" id="Layer_1" xmlns="http://www.w3.org/2000/svg" xmlns:xlink="http://www.w3.org/1999/xlink" x="0px" y="0px"
	 viewBox="0 0 2000 2000" style="enable-background:new 0 0 2000 2000;" xml:space="preserve">
<style type="text/css">
	.st0{fill:#FFFFFF;}
</style>
<g>
	<g>
		<path class="st0" d="M575.5,474.3c-4.6,4.6-9.3,9.3-13.9,13.9c-12.6,12.6-25.2,25.2-37.8,37.8c-18.6,18.6-37.3,37.3-55.9,55.9
			c-22.9,22.9-45.7,45.7-68.6,68.6c-24.9,24.9-49.9,49.9-74.8,74.8c-25.2,25.2-50.3,50.3-75.5,75.5c-23.5,23.5-46.9,46.9-70.4,70.4
			c-19.8,19.8-39.7,39.7-59.5,59.5c-14.3,14.3-28.5,28.5-42.8,42.8c-6.8,6.8-13.6,13.5-20.3,20.3c-0.3,0.3-0.6,0.6-0.9,0.9
			c-15.3,15.3-15.3,41.3,0,56.6c4.6,4.6,9.3,9.3,13.9,13.9c12.6,12.6,25.2,25.2,37.8,37.8c18.6,18.6,37.3,37.3,55.9,55.9
			c22.9,22.9,45.7,45.7,68.6,68.6c24.9,24.9,49.9,49.9,74.8,74.8c25.2,25.2,50.3,50.3,75.5,75.5c23.5,23.5,46.9,46.9,70.4,70.4
			c19.8,19.8,39.7,39.7,59.5,59.5c14.3,14.3,28.5,28.5,42.8,42.8c6.8,6.8,13.5,13.6,20.3,20.3c0.3,0.3,0.6,0.6,0.9,0.9
			c14.8,14.8,42,15.9,56.6,0c14.7-16,15.8-40.8,0-56.6c-4.6-4.6-9.3-9.3-13.9-13.9c-12.6-12.6-25.2-25.2-37.8-37.8
			c-18.6-18.6-37.3-37.3-55.9-55.9c-22.9-22.9-45.7-45.7-68.6-68.6c-24.9-24.9-49.9-49.9-74.8-74.8c-25.2-25.2-50.3-50.3-75.5-75.5
			c-23.5-23.5-46.9-46.9-70.4-70.4c-19.8-19.8-39.7-39.7-59.5-59.5c-14.3-14.3-28.5-28.5-42.8-42.8c-6.8-6.8-13.4-13.7-20.3-20.3
			c-0.3-0.3-0.6-0.6-0.9-0.9c0,18.9,0,37.7,0,56.6c4.6-4.6,9.3-9.3,13.9-13.9c12.6-12.6,25.2-25.2,37.8-37.8
			c18.6-18.6,37.3-37.3,55.9-55.9c22.9-22.9,45.7-45.7,68.6-68.6c24.9-24.9,49.9-49.9,74.8-74.8c25.2-25.2,50.3-50.3,75.5-75.5
			c23.5-23.5,46.9-46.9,70.4-70.4c19.8-19.8,39.7-39.7,59.5-59.5c14.3-14.3,28.5-28.5,42.8-42.8c6.8-6.8,13.6-13.5,20.3-20.3
			c0.3-0.3,0.6-0.6,0.9-0.9c14.8-14.8,15.9-42,0-56.6C616.1,459.7,591.3,458.5,575.5,474.3L575.5,474.3z"/>
		<path class="st0" d="M768.2,1865.7c4.4-15.3,8.9-30.7,13.3-46c12-41.4,23.9-82.8,35.9-124.1c17.8-61.6,35.6-123.1,53.4-184.7
			c21.6-74.6,43.1-149.2,64.7-223.9c23.7-82,47.4-164,71.1-246c23.9-82.8,47.8-165.5,71.7-248.3c22.3-77.2,44.6-154.3,66.9-231.5
			c18.8-65.2,37.7-130.4,56.5-195.6c13.5-46.9,27.1-93.8,40.6-140.6c6.4-22.2,13.1-44.3,19.2-66.6c0.3-0.9,0.5-1.9,0.8-2.8
			c5.8-20.1-7.1-44.4-27.9-49.2c-21.4-4.9-43,6.4-49.2,27.9c-4.4,15.3-8.9,30.7-13.3,46c-12,41.4-23.9,82.8-35.9,124.1
			c-17.8,61.6-35.6,123.1-53.4,184.7c-21.6,74.6-43.1,149.2-64.7,223.9c-23.7,82-47.4,164-71.1,246
			c-23.9,82.8-47.8,165.5-71.7,248.3c-22.3,77.2-44.6,154.3-66.9,231.5c-18.8,65.2-37.7,130.4-56.5,195.6
			c-13.5,46.9-27.1,93.8-40.6,140.6c-6.4,22.2-13.1,44.3-19.2,66.6c-0.3,0.9-0.5,1.9-0.8,2.8c-5.8,20.1,7.1,44.4,27.9,49.2
			C740.3,1898.5,762,1887.2,768.2,1865.7L768.2,1865.7z"/>
		<path class="st0" d="M1418.9,1548.9c4.6-4.6,9.3-9.3,13.9-13.9c12.6-12.6,25.2-25.2,37.8-37.8c18.6-18.6,37.3-37.3,55.9-55.9
			c22.9-22.9,45.7-45.7,68.6-68.6c24.9-24.9,49.9-49.9,74.8-74.8c25.2-25.2,50.3-50.3,75.5-75.5c23.5-23.5,46.9-46.9,70.4-70.4
			c19.8-19.8,39.7-39.7,59.5-59.5c14.3-14.3,28.5-28.5,42.8-42.8c6.8-6.8,13.6-13.5,20.3-20.3c0.3-0.3,0.6-0.6,0.9-0.9
			c15.3-15.3,15.3-41.3,0-56.6c-4.6-4.6-9.3-9.3-13.9-13.9c-12.6-12.6-25.2-25.2-37.8-37.8c-18.6-18.6-37.3-37.3-55.9-55.9
			c-22.9-22.9-45.7-45.7-68.6-68.6c-24.9-24.9-49.9-49.9-74.8-74.8c-25.2-25.2-50.3-50.3-75.5-75.5c-23.5-23.5-46.9-46.9-70.4-70.4
			c-19.8-19.8-39.7-39.7-59.5-59.5c-14.3-14.3-28.5-28.5-42.8-42.8c-6.8-6.8-13.5-13.6-20.3-20.3c-0.3-0.3-0.6-0.6-0.9-0.9
			c-14.8-14.8-42-15.9-56.6,0c-14.7,16-15.8,40.8,0,56.6c4.6,4.6,9.3,9.3,13.9,13.9c12.6,12.6,25.2,25.2,37.8,37.8
			c18.6,18.6,37.3,37.3,55.9,55.9c22.9,22.9,45.7,45.7,68.6,68.6c24.9,24.9,49.9,49.9,74.8,74.8c25.2,25.2,50.3,50.3,75.5,75.5
			c23.5,23.5,46.9,46.9,70.4,70.4c19.8,19.8,39.7,39.7,59.5,59.5c14.3,14.3,28.5,28.5,42.8,42.8c6.8,6.8,13.4,13.7,20.3,20.3
			c0.3,0.3,0.6,0.6,0.9,0.9c0-18.9,0-37.7,0-56.6c-4.6,4.6-9.3,9.3-13.9,13.9c-12.6,12.6-25.2,25.2-37.8,37.8
			c-18.6,18.6-37.3,37.3-55.9,55.9c-22.9,22.9-45.7,45.7-68.6,68.6c-24.9,24.9-49.9,49.9-74.8,74.8c-25.2,25.2-50.3,50.3-75.5,75.5
			c-23.5,23.5-46.9,46.9-70.4,70.4c-19.8,19.8-39.7,39.7-59.5,59.5c-14.3,14.3-28.5,28.5-42.8,42.8c-6.8,6.8-13.6,13.5-20.3,20.3
			c-0.3,0.3-0.6,0.6-0.9,0.9c-14.8,14.8-15.9,42,0,56.6C1378.3,1563.5,1403.1,1564.7,1418.9,1548.9L1418.9,1548.9z"/>
	</g>
</g>
</svg>
