<?xml version="1.0" encoding="utf-8"?>
<!-- Generator: Adobe Illustrator 21.0.0, SVG Export Plug-In . SVG Version: 6.00 Build 0)  -->
<svg version="1.1" id="Layer_1" xmlns="http://www.w3.org/2000/svg" xmlns:xlink="http://www.w3.org/1999/xlink" x="0px" y="0px"
	 viewBox="0 0 1792 1792" style="enable-background:new 0 0 1792 1792;" xml:space="preserve">
<style type="text/css">
	.st0{fill:none;stroke:#FFFFFF;stroke-width:80;stroke-miterlimit:10;}
</style>
<path class="st0" d="M1120,576c0,8.7-3.2,16.2-9.5,22.5s-13.8,9.5-22.5,9.5s-16.2-3.2-22.5-9.5s-9.5-13.8-9.5-22.5
	c0-30.7-18-54.3-54-71c-36-16.7-71.3-25-106-25c-8.7,0-16.2-3.2-22.5-9.5S864,456.7,864,448s3.2-16.2,9.5-22.5s13.8-9.5,22.5-9.5
	c33.3,0,66.5,5.3,99.5,16s62,28.7,87,54S1120,541.3,1120,576z"/>
<path class="st0" d="M652.8,1171h486.9 M1408,627c0,103.3-34.3,192.7-103,268c-30,32.7-54.8,61.7-74.5,87s-39.5,57.2-59.5,95.5
	c-20,38.3-31.3,74.2-34,107.5c31.3,18.7,47,46,47,82c0,24.7-8.3,46-25,64c16.7,18,25,39.3,25,64c0,34.7-15,61.7-45,81
	c8.7,15.3,13,31,13,47c0,30.7-10.5,54.3-31.5,71s-46.8,25-77.5,25c-13.3,29.3-33.3,52.7-60,70s-55.7,26-87,26s-60.3-8.7-87-26
	s-46.7-40.7-60-70c-30.7,0-56.5-8.3-77.5-25s-31.5-40.3-31.5-71c0-16,4.3-31.7,13-47c-30-19.3-45-46.3-45-81c0-24.7,8.3-46,25-64
	c-16.7-18-25-39.3-25-64c0-36,15.7-63.3,47-82c-2.7-33.3-14-69.2-34-107.5c-20-38.3-39.8-70.2-59.5-95.5S517,927.7,487,895
	c-68.7-75.3-103-164.7-103-268c0-66,14.8-127.5,44.5-184.5s68.7-104.3,117-142s103-67.3,164-89S832.7,179,896,179
	s125.5,10.8,186.5,32.5s115.7,51.3,164,89s87.3,85,117,142S1408,561,1408,627z"/>
</svg>
