<?xml version="1.0" encoding="utf-8"?>
<!-- Generator: Adobe Illustrator 21.0.0, SVG Export Plug-In . SVG Version: 6.00 Build 0)  -->
<svg version="1.1" id="Layer_1" xmlns="http://www.w3.org/2000/svg" xmlns:xlink="http://www.w3.org/1999/xlink" x="0px" y="0px"
	 viewBox="0 0 1800 1800" style="enable-background:new 0 0 1800 1800;" xml:space="preserve">
<style type="text/css">
	.st0{fill:none;stroke:#FFFFFF;stroke-width:70;stroke-miterlimit:10;}
</style>
<path class="st0" d="M596.7,899.9c-89.3,2.7-162.3,38-219.1,105.8H266.8c-45.2,0-83.2-11.2-114.1-33.5s-46.3-55-46.3-98
	c0-194.5,34.1-291.8,102.5-291.8c3.3,0,15.3,5.8,36,17.4c20.7,11.6,47.5,23.3,80.6,35.1s65.9,17.8,98.4,17.8c37,0,73.6-6.4,109.9-19
	c-2.7,20.4-4.1,38.6-4.1,54.6C529.7,764.9,552,835.4,596.7,899.9z M1482,1426.5c0,66.1-20.1,118.4-60.3,156.7
	c-40.3,38.3-93.7,57.5-160.4,57.5H538.8c-66.7,0-120.1-19.2-160.4-57.5s-60.3-90.5-60.3-156.7c0-29.2,1-57.7,2.9-85.6
	c1.9-27.9,5.8-57.9,11.6-90.1s13.1-62.2,21.9-89.7s20.7-54.4,35.5-80.6c14.9-26.2,32-48.5,51.3-67c19.3-18.4,42.8-33.2,70.7-44.2
	s58.5-16.5,92.2-16.5c5.5,0,17.4,6,35.5,17.8c18.2,11.8,38.3,25,60.3,39.7c22.1,14.6,51.5,27.9,88.5,39.7
	c37,11.8,74.2,17.8,111.6,17.8c37.4,0,74.6-6,111.6-17.8c37-11.8,66.4-25,88.5-39.7c22.1-14.6,42.2-27.9,60.3-39.7
	c18.2-11.8,30-17.8,35.5-17.8c33.6,0,64.3,5.5,92.2,16.5s51.4,25.8,70.7,44.2c19.3,18.4,36.4,40.8,51.3,67
	c14.9,26.2,26.7,53.1,35.5,80.6s16.1,57.5,21.9,89.7s9.7,62.2,11.6,90.1C1481,1368.8,1482,1397.3,1482,1426.5z M635.5,370.9
	c0,58.4-20.7,108.3-62,149.6c-41.3,41.3-91.2,62-149.6,62s-108.3-20.7-149.6-62s-62-91.2-62-149.6s20.7-108.3,62-149.6
	s91.2-62,149.6-62s108.3,20.7,149.6,62S635.5,312.4,635.5,370.9z M1217.5,688.3c0,87.6-31,162.4-93,224.4s-136.8,93-224.4,93
	s-162.4-31-224.4-93s-93-136.8-93-224.4s31-162.4,93-224.4s136.8-93,224.4-93s162.4,31,224.4,93S1217.5,600.7,1217.5,688.3z
	 M1693.6,874.3c0,43-15.5,75.6-46.3,98s-68.9,33.5-114.1,33.5h-110.8c-56.8-67.8-129.8-103.1-219.1-105.8c44.6-64.5,67-135,67-211.6
	c0-16-1.4-34.1-4.1-54.6c36.4,12.6,73,19,109.9,19c32.5,0,65.3-6,98.4-17.8s59.9-23.6,80.6-35.1c20.7-11.6,32.7-17.4,36-17.4
	C1659.5,582.5,1693.6,679.8,1693.6,874.3z M1587.8,370.9c0,58.4-20.7,108.3-62,149.6c-41.3,41.3-91.2,62-149.6,62
	s-108.3-20.7-149.6-62s-62-91.2-62-149.6s20.7-108.3,62-149.6s91.2-62,149.6-62s108.3,20.7,149.6,62S1587.8,312.4,1587.8,370.9z"/>
</svg>
