<?xml version="1.0" encoding="utf-8"?>
<!-- Generator: Adobe Illustrator 24.0.1, SVG Export Plug-In . SVG Version: 6.00 Build 0)  -->
<svg version="1.1" id="Layer_1" xmlns="http://www.w3.org/2000/svg" xmlns:xlink="http://www.w3.org/1999/xlink" x="0px" y="0px"
	 viewBox="0 0 1076.1 264.5" style="enable-background:new 0 0 1076.1 264.5;" xml:space="preserve">
<style type="text/css">
	.st0{fill:#F8EC24;}
	.st1{clip-path:url(#SVGID_2_);}
	.st2{fill:#4899D4;}
	.st3{fill:#32358C;}
</style>
<title>bplogo</title>
<path class="st0" d="M22.5,206.1c-2.7,0-5.4-0.5-7.9-1.5c-2.3-0.9-4.4-2-6.3-3.5c-2.2-1.6-4.1-3.7-5.6-6c-1.7-2.6-2.6-5.7-2.6-8.9
	V14.4c0-2.1,0.5-4.2,1.5-6.1C2.4,6.5,3.6,5,5.1,3.7c1.1-1,2.4-1.8,3.7-2.5c1.9-1,4-1.5,6.1-1.5h12.5c1.8,0,3.6,0.4,5.2,1.1
	c1.1,0.5,2.1,1,3.1,1.7c1.5,1,2.8,2.3,3.8,3.8c1.3,2,2,4.4,2,6.8v46.2c2-0.4,4.1-0.6,6.2-0.6h70.9c2.4,0,4.7,0.5,6.9,1.5
	c2.3,1,4.3,2.4,6,4.1c1.4,1.4,2.7,3.1,3.7,4.8c1.4,2.4,2.1,5.1,2.1,7.9v108.2c0,2.8-0.7,5.6-1.9,8.1c-1.1,2.4-2.6,4.6-4.5,6.4
	c-1.8,1.8-3.8,3.3-6.1,4.4c-2.5,1.3-5.3,2-8.1,2H22.5z M94.9,166.9V98.1H57.4v68.8L94.9,166.9z"/>
<path class="st0" d="M165.8,206.1c-1.6,0-3.3-0.3-4.8-0.7c-2.2-0.6-4.3-1.7-6-3.2c-1.1-1-2.2-2.1-3.1-3.3c-1.7-2.2-2.6-4.9-2.6-7.7
	V13.6c0-1.5,0.2-3,0.7-4.4c0.6-1.8,1.7-3.5,3-4.9c0.6-0.6,1.3-1.3,2-1.8c2-1.6,4.5-2.5,7-2.5h15.4c1.9,0,3.8,0.5,5.5,1.3
	c1.6,0.8,3.1,2,4.2,3.4c0.8,0.9,1.4,2,2,3.1c0.9,1.7,1.3,3.6,1.3,5.6v95.2c0.1,0.2,0.1,0.4,0.2,0.7c0.4,1.1,0.8,2.2,1.3,3.2
	c0.6,1.4,1.4,2.8,2.2,4.3c0.8,1.5,1.6,2.9,2.5,4.3c1,1.6,1.9,3.1,2.9,4.7c1.1,1.8,2,3.5,2.8,5.1c0.8,1.7,1.5,3.2,2,4.6
	c0.8,1.9,1.2,3.9,1.2,5.9v49.8c0,2.1-0.5,4.2-1.5,6.1c-0.7,1.4-1.5,2.6-2.5,3.8c-1.1,1.3-2.5,2.5-4,3.4c-1.9,1.1-4.1,1.7-6.4,1.7
	H165.8z"/>
<path class="st0" d="M231.7,206.1c-3.6,0-7.1-1.1-10-3.1c-1.6-1.1-3-2.4-4.2-4c-1.5-2.2-2.3-4.7-2.3-7.4v-120c0-0.9,0.1-1.9,0.3-2.8
	c0.3-2,1.2-3.9,2.5-5.5c0.8-1,1.7-1.9,2.7-2.6c1.8-1.4,4.1-2.1,6.4-2.2h19.3c3.4,0,6.6,1.6,8.7,4.2c2.1,2.2,3.3,5.1,3.3,8.1v45.1
	c0,0.1,0,0.2,0.1,0.3c0.2,0.5,0.4,1,0.7,1.4c0.6,1,1.2,2,2,3c0.8,1.2,1.7,2.4,2.6,3.8c0.9,1.4,1.9,2.9,2.9,4.6
	c1.2,2,2.2,4.2,2.9,6.4c0.8,2.2,1.4,4.4,1.9,6.7c0.6,2.8,0.9,5.7,0.9,8.5V168h39.6V71.5c0-1.4,0.3-2.8,0.7-4.1
	c0.6-1.9,1.7-3.5,3.1-4.9c0.9-0.9,1.9-1.7,3-2.4c1.8-1.1,3.9-1.7,6-1.7h16.2c2.3,0,4.5,0.8,6.4,2.1c0.7,0.5,1.4,1.1,2,1.7l0.1,0.1
	c1.2,1.2,2.1,2.6,2.7,4.1c0.6,1.4,0.9,3,0.9,4.5v121c0,2.6-0.8,5-2.3,7.1c-0.9,1.2-1.9,2.3-3,3.3c-1.5,1.3-3.2,2.2-5.1,2.9
	c-1.6,0.6-3.3,0.8-5,0.8L231.7,206.1z"/>
<path class="st0" d="M383.6,206.1c-2.5,0-4.9-0.5-7.2-1.5c-1.9-0.8-3.8-1.9-5.4-3.3c-1.9-1.5-3.4-3.4-4.5-5.5
	c-1.3-2.3-1.9-4.9-2-7.5V75.7c0-2.7,0.7-5.3,2.1-7.6c1.2-2.1,2.9-3.9,4.8-5.4c1.7-1.2,3.5-2.3,5.4-3c2.1-0.8,4.4-1.2,6.7-1.2h99.9
	c2.4,0,4.7,0.5,6.9,1.5c1.9,0.8,3.8,1.9,5.4,3.2c1.7,1.4,3.2,3.2,4.4,5.1c1.5,2.5,2.4,5.3,2.4,8.2v50.9c0,2.6-0.8,5.2-2.3,7.4
	c-2,2.9-4.7,5.3-7.9,6.9c-2,1-4.3,1.6-6.6,1.6h-66.2v23.9h41.1v-6.7c0.2-6.5,5.5-11.8,12-12h17c1.6,0,3.2,0.3,4.7,0.9l0.1,0
	c1.5,0.6,2.9,1.5,4.1,2.7l0.1,0.1c0.8,0.9,1.6,1.8,2.2,2.8c1.1,1.8,1.7,3.9,1.7,6v28.7c0,2.5-0.7,5-2.1,7.2
	c-0.8,1.3-1.7,2.6-2.8,3.8c-1.4,1.6-3.1,2.9-5,3.9c-2,1-4.3,1.6-6.6,1.6L383.6,206.1z M460.3,105.1v-8.5h-40.6v8.5H460.3z"/>
<path class="st0" d="M526.4,264.5c-2.1,0-4.2-0.5-6.1-1.5c-1.4-0.7-2.6-1.5-3.8-2.5c-1.5-1.3-2.7-2.8-3.6-4.6c-1-1.9-1.5-4-1.5-6.1
	V78.3c0-3.3,1-6.5,2.8-9.3c1.4-2.1,3.1-4,5.1-5.5c2-1.6,4.2-2.9,6.6-3.8c2.4-1,5-1.5,7.7-1.5h89.5c3,0,5.9,0.8,8.5,2.3
	c2.1,1.2,4,2.6,5.7,4.3c1.9,1.9,3.4,4,4.5,6.4c1.2,2.4,1.9,5.1,1.9,7.8v108.2c0,2.7-0.7,5.4-2,7.7c-1.1,2-2.5,3.8-4.2,5.4
	c-1.6,1.4-3.4,2.6-5.3,3.6c-2.3,1.2-4.8,1.8-7.4,1.9h-59.7v45.3c0,2.3-0.7,4.6-2,6.5c-1,1.5-2.2,2.7-3.7,3.7c-1.1,0.8-2.3,1.5-3.5,2
	c-1.6,0.7-3.4,1.1-5.2,1.1L526.4,264.5z M603.3,166.9V97.6h-50.8v69.3H603.3z"/>
<path class="st0" d="M671.3,206.1c-2.6,0-5.2-0.8-7.4-2.3c-1.4-1-2.7-2.1-3.9-3.4c-1.3-1.4-2.3-3.1-3-4.9c-0.8-1.9-1.1-3.9-1.2-5.9
	V77.5c0-2.7,0.7-5.4,2-7.7c1.1-2,2.6-3.9,4.3-5.5c1.6-1.5,3.4-2.8,5.4-3.7c2.4-1.2,5-1.8,7.6-1.9h78c2.5,0,4.9,0.6,7.1,1.7
	c1.7,0.8,3.2,1.8,4.7,3c1.9,1.5,3.4,3.5,4.5,5.6c1.1,2.2,1.7,4.6,1.7,7.1V101c0,1.4-0.2,2.8-0.5,4.2c-0.4,1.5-0.9,2.9-1.7,4.2
	c-1,1.8-2.4,3.3-4.1,4.4c-2,1.3-4.4,2-6.8,2h-15.4c-1.8,0-3.6-0.4-5.2-1.1c-1.1-0.5-2.1-1-3.1-1.7c-3.4-2.3-5.5-6.1-5.5-10.3v-6.2
	h-31.2v13c0,0.8,0.1,1.7,0.3,2.5c0.2,0.9,0.5,1.8,1,2.7c0.6,1.2,1.2,2.5,2,3.7c0.9,1.5,1.7,3,2.6,4.4s1.7,2.8,2.5,4.1
	c1.1,1.8,2.1,3.7,2.9,5.6c0.7,1.8,1.4,3.7,1.9,5.6c0.6,2.3,1,4.7,1,7.1v45.4c0,2.3-0.6,4.5-1.8,6.5c-0.8,1.5-1.9,2.9-3.1,4.1
	c-1.2,1.2-2.6,2.2-4.1,3.1c-2.1,1.2-4.4,1.8-6.8,1.8L671.3,206.1z"/>
<path class="st0" d="M790.7,206.1c-1.6,0-3.3-0.3-4.8-0.7c-2.2-0.6-4.3-1.7-6-3.2c-1.1-1-2.2-2.1-3.1-3.3c-1.7-2.2-2.6-4.9-2.6-7.7
	V72.3c0-1.5,0.2-3,0.7-4.4c0.6-1.6,1.4-3.1,2.5-4.4c1-1.2,2.2-2.3,3.6-3.1c1.8-1.1,3.9-1.7,6-1.7h5.8c-2.5-0.2-5-0.8-7.4-1.9
	c-5.3-2.3-9.6-6.6-11.9-11.9c-1.3-2.8-1.9-5.8-2-8.9c0-3.1,0.7-6.3,2-9.1c2.3-5.3,6.6-9.6,11.9-11.9c2.9-1.3,6-2,9.1-2
	c3.1,0,6.1,0.7,8.9,2c5.3,2.3,9.6,6.6,11.9,11.9c1.3,2.9,2,6,2,9.1c0,3.1-0.7,6.1-2,8.9c-2.3,5.3-6.6,9.6-11.9,11.9
	c-2.3,1-4.7,1.7-7.2,1.9h6.1c1.9,0,3.8,0.5,5.6,1.3c1.6,0.8,3.1,2,4.2,3.4c0.8,0.9,1.4,2,2,3.1c0.9,1.7,1.3,3.6,1.3,5.5v36.5
	c0,0.1,0.1,0.3,0.2,0.7c0.4,1.1,0.8,2.2,1.3,3.2c0.6,1.4,1.4,2.8,2.2,4.3c0.8,1.5,1.6,2.9,2.5,4.3c1,1.6,1.9,3.1,2.9,4.7
	c1.1,1.8,2,3.5,2.8,5.1c0.8,1.7,1.5,3.2,2,4.6c0.8,1.9,1.2,3.9,1.3,5.9v49.8c0,2.1-0.5,4.2-1.5,6.1c-0.7,1.4-1.5,2.6-2.5,3.8
	c-1.1,1.3-2.5,2.5-4,3.4c-1.9,1.1-4.1,1.7-6.4,1.7H790.7z"/>
<path class="st0" d="M949.1,206.1c-1.4,0-2.8-0.3-4.1-0.7c-1.9-0.6-3.6-1.7-4.9-3.1c-0.9-0.9-1.7-1.9-2.3-3c-1.1-1.8-1.7-3.9-1.7-6
	V97.1h-54.4v23.7c0,0.2,0.1,0.4,0.1,0.6c0.1,0.3,0.3,0.7,0.5,1c0.5,0.8,1.1,1.6,1.7,2.3c0.7,0.9,1.4,1.7,2.2,2.5
	c1,1.1,1.9,2.2,2.8,3.2c1.1,1.3,2,2.7,2.9,4.1c0.8,1.3,1.5,2.7,2.1,4.2c0.9,2.2,1.4,4.5,1.3,6.8v47.7c0,2.1-0.6,4.2-1.7,6
	c-0.7,1.1-1.5,2.1-2.4,3c-1.2,1.3-2.7,2.2-4.3,2.9c-1.5,0.6-3.1,0.9-4.7,0.9h-30.3c-1.5,0-3.1-0.3-4.5-0.9c-1.6-0.6-3-1.6-4.2-2.8
	c-1.2-1.2-2.1-2.6-2.7-4.1c-0.6-1.5-0.9-3.1-0.9-4.7V75.7c0-5.4,1.5-9.7,4.6-12.7c3.1-3.1,7.6-4.6,13.7-4.6h98.6
	c2.2,0,4.4,0.2,6.6,0.5c2.4,0.4,4.6,1.3,6.7,2.5c2.6,1.6,4.5,4.1,5.6,6.9c0.8,2,1.2,4.1,1.5,6.3l0.1,0.5l0.3,117.6
	c0,2.1-0.3,4.1-1.1,6c-0.4,0.9-0.8,1.8-1.4,2.7l-0.1,0.1c-1.2,1.9-3.1,3.3-5.2,4c-1.1,0.4-2.3,0.6-3.5,0.6L949.1,206.1z"/>
<path class="st0" d="M1014.5,206.1c-7.8-0.1-14-6.3-14.1-14.1V97.9h-1.8c-3.4,0-6.7-1.3-9-3.8c-0.9-0.9-1.7-1.9-2.4-3
	c-1.1-1.8-1.7-3.9-1.7-6V71.2c0-1.5,0.3-3.1,0.9-4.5c0.5-1.1,1-2.2,1.8-3.2c1-1.3,2.2-2.4,3.6-3.2c1.7-1.1,3.7-1.6,5.7-1.7h2.8V34.2
	c0.1-7.8,6.4-14,14.1-14.1h13c3.8,0,7.5,1.5,10.2,4.2c2.7,2.6,4.2,6.2,4.2,9.9v24.5h19.5c2.4,0,4.8,0.7,6.8,2c1.5,0.9,2.8,2,3.9,3.3
	c1,1.1,1.8,2.4,2.5,3.7c1,1.9,1.5,4,1.5,6.1v27.4c0,1.8-0.4,3.6-1.1,5.2c-0.7,1.6-1.7,3.1-2.9,4.3c-0.9,0.9-1.8,1.6-2.8,2.3
	c-1.9,1.3-4.2,2-6.5,2h-20.8V168h9.1c1.9,0,3.8,0.5,5.5,1.3c1.4,0.7,2.6,1.6,3.7,2.7c1.2,1.3,2.3,2.7,3,4.4c0.7,1.6,1.1,3.4,1.1,5.2
	v10.2c0,3.5-1.1,6.9-3.4,9.6c-2.5,3.1-6.3,4.8-10.2,4.8L1014.5,206.1z"/>
<g>
	<defs>
		<path id="SVGID_1_" d="M6.1,9c0-0.7,0.2-1.4,0.5-2.1C7,6.2,7.5,5.6,8.1,5.1c0.6-0.5,1.3-1,2-1.3c0.6-0.3,1.4-0.5,2.1-0.5h12.5
			c0.6,0,1.2,0.1,1.7,0.4c0.6,0.3,1.2,0.6,1.7,0.9c0.5,0.3,1,0.8,1.3,1.3c0.4,0.5,0.5,1.2,0.5,1.8v59.5c2.2-1.5,4.6-2.6,7.2-3.5
			c2.5-0.9,5.2-1.4,8-1.4h70.9c1.2,0,2.3,0.3,3.4,0.8c1.2,0.5,2.3,1.3,3.3,2.2c0.9,0.9,1.7,1.9,2.3,3c0.6,1,0.9,2.2,0.9,3.4v108.2
			c0,1.5-0.4,3-1,4.3c-0.7,1.5-1.6,2.8-2.7,3.9c-1.1,1.1-2.4,2-3.8,2.7c-1.3,0.7-2.7,1-4.2,1H19.7c-1.6,0-3.2-0.3-4.7-0.9
			c-1.5-0.6-3-1.4-4.3-2.3c-1.3-1-2.4-2.1-3.3-3.5c-0.8-1.2-1.3-2.7-1.3-4.2L6.1,9z M51,83.9c-2.9,0.1-5.1,2.4-5.2,5.2V165
			c0,1.5,0.5,2.9,1.6,3.9c0.9,1,2.3,1.6,3.7,1.6h44.6c3,0.1,5.4-2.3,5.5-5.2c0-0.1,0-0.2,0-0.3V89.1c0-1.4-0.6-2.7-1.6-3.7
			c-1-1-2.4-1.6-3.9-1.6L51,83.9z M159.4,3.5h15.4c0.5,0,1.1,0.1,1.6,0.4c0.5,0.3,0.9,0.6,1.3,1c0.4,0.4,0.7,0.9,0.9,1.4
			c0.3,0.5,0.4,1,0.4,1.6v95.5c0,1.1,0.3,2.2,0.7,3.3c0.5,1.4,1.1,2.8,1.7,4.2c0.7,1.5,1.5,3,2.3,4.7c0.9,1.7,1.8,3.3,2.7,4.8
			c1,1.6,1.9,3.1,2.9,4.7c1,1.6,1.8,3,2.5,4.4c0.7,1.4,1.3,2.7,1.7,3.8c0.4,0.9,0.6,1.8,0.7,2.7v49.8c0,0.7-0.2,1.4-0.5,2.1
			c-0.4,0.7-0.8,1.4-1.3,2c-0.5,0.6-1.1,1.1-1.7,1.4c-0.6,0.3-1.3,0.5-2,0.5H163c-0.8,0-1.7-0.2-2.5-0.4c-0.9-0.2-1.8-0.7-2.5-1.3
			c-0.7-0.6-1.3-1.2-1.8-2c-0.5-0.7-0.8-1.5-0.8-2.3V8.2c0-0.5,0.1-1.1,0.3-1.6c0.2-0.5,0.5-1,0.9-1.4c0.4-0.4,0.8-0.8,1.3-1.2
			C158.3,3.7,158.8,3.5,159.4,3.5z M221.3,66.4c0-0.4,0.1-0.9,0.1-1.3c0.1-0.5,0.3-1,0.7-1.4c0.3-0.4,0.7-0.7,1-1
			c0.3-0.2,0.7-0.4,1-0.4h19.3c0.8,0.1,1.6,0.5,2.1,1.2c0.6,0.6,1,1.4,1,2.2v45.1c0,1.1,0.2,2.1,0.5,3.1c0.4,1.1,0.9,2.2,1.6,3.3
			c0.7,1.1,1.4,2.3,2.2,3.4s1.6,2.3,2.5,3.7c0.9,1.3,1.7,2.7,2.6,4.2c0.9,1.5,1.6,3.1,2.2,4.8c0.6,1.8,1.2,3.7,1.6,5.6
			c0.5,2.2,0.7,4.4,0.7,6.6v23.7c0.1,0.6,0.4,1.2,0.9,1.6c0.5,0.5,1.1,0.7,1.7,0.8h51.6c1.6-0.2,2.9-1.5,3.1-3.1V66.1
			c0-0.4,0.1-0.9,0.3-1.3c0.2-0.5,0.5-1,0.9-1.4c0.4-0.4,0.8-0.8,1.3-1c0.4-0.3,0.9-0.4,1.4-0.4h16.2c0.4,0,0.7,0.1,1,0.4
			c0.4,0.3,0.7,0.6,1,0.9c0.3,0.3,0.6,0.7,0.8,1.2c0.2,0.4,0.2,0.8,0.3,1.2v121c0,0.7-0.2,1.4-0.7,2c-0.5,0.6-1,1.2-1.6,1.7
			c-0.6,0.5-1.3,0.9-2.1,1.2c-0.7,0.2-1.5,0.4-2.2,0.4H228.9c-0.9,0-1.8-0.1-2.6-0.4c-0.9-0.3-1.7-0.7-2.5-1.2
			c-0.7-0.4-1.3-1-1.8-1.7c-0.4-0.7-0.7-1.4-0.7-2.2V66.4z M370.7,70.3c0-1.1,0.3-2.2,0.9-3.1c0.6-1.1,1.5-2,2.5-2.7
			c1-0.8,2.1-1.4,3.3-1.8c1.1-0.4,2.3-0.7,3.5-0.7h99.9c1.2,0,2.3,0.3,3.4,0.8c1.2,0.5,2.3,1.2,3.3,2c1,0.8,1.8,1.8,2.5,2.9
			c0.7,1.1,1,2.3,1,3.5v50.9c0,0.9-0.3,1.8-0.8,2.5c-0.6,0.8-1.2,1.6-2,2.2c-0.7,0.7-1.6,1.2-2.5,1.7c-0.8,0.4-1.7,0.6-2.6,0.7
			h-71.7c-1.8,0.1-3.3,1.6-3.4,3.4v35.7c0,0.6,0.3,1.2,0.7,1.7c0.4,0.6,1,0.9,1.7,0.9h54c1.3-0.3,2.3-1.3,2.6-2.6v-13
			c0.2-1.6,1.5-2.9,3.1-3.1h17c0.5,0,1,0.1,1.4,0.3c0.4,0.2,0.8,0.4,1.2,0.8c0.3,0.4,0.7,0.7,0.9,1.2c0.3,0.4,0.4,0.9,0.4,1.4v28.7
			c0,0.9-0.3,1.8-0.8,2.6c-0.5,0.9-1.1,1.7-1.8,2.5c-0.7,0.8-1.5,1.4-2.3,1.8c-0.8,0.4-1.7,0.6-2.6,0.7H380.8
			c-1.3,0-2.5-0.3-3.7-0.8c-1.2-0.5-2.3-1.2-3.3-2c-1-0.8-1.8-1.8-2.3-2.9c-0.6-1-0.9-2.1-0.9-3.3V70.3z M410.3,82.3
			c-0.7,0-1.3,0.3-1.7,0.8c-0.4,0.4-0.6,1-0.7,1.6v21.6c-0.1,1.2,0.9,2.3,2.1,2.3c0.1,0,0.2,0,0.2,0H464c0.6,0,1.1-0.3,1.6-0.7
			c0.5-0.4,0.8-1,0.8-1.7V84.6c-0.2-1.2-1.1-2.2-2.3-2.3L410.3,82.3z M517.7,244.5V72.9c0-1.5,0.4-3,1.3-4.3c0.9-1.3,2-2.5,3.3-3.5
			c1.3-1,2.7-1.9,4.3-2.5c1.4-0.6,2.9-0.9,4.4-0.9h89.5c1.5,0,2.9,0.4,4.2,1.2c1.4,0.8,2.7,1.7,3.8,2.9c1.1,1.1,2.1,2.5,2.7,3.9
			c0.6,1.3,1,2.6,1,4v108.2c0,1.2-0.3,2.4-0.9,3.5c-0.6,1.1-1.4,2.1-2.3,3c-1,0.9-2.1,1.6-3.3,2.2c-1,0.6-2.2,0.9-3.4,0.9h-60.8
			c-0.9,0-1.7,0-2.6,0.1c-0.9,0.1-1.7,0.4-2.5,0.9c-0.7,0.5-1.4,1-2,1.7c-0.5,0.6-0.8,1.4-0.8,2.2v49.3c0,0.6-0.2,1.1-0.5,1.6
			c-0.4,0.6-0.9,1-1.4,1.4c-0.6,0.4-1.2,0.8-1.8,1c-0.5,0.2-1.1,0.4-1.7,0.4h-24.5c-0.7,0-1.4-0.2-2.1-0.5c-0.7-0.4-1.4-0.8-2-1.3
			c-0.6-0.5-1.1-1.1-1.4-1.8C517.8,246,517.7,245.2,517.7,244.5z M546.1,170.4H604c3,0.1,5.4-2.3,5.5-5.2c0-0.1,0-0.2,0-0.3V88.6
			c0-1.4-0.6-2.7-1.6-3.7c-1-1-2.4-1.6-3.9-1.6h-57.9c-2.9,0.1-5.1,2.4-5.2,5.2V165c0,1.5,0.5,2.9,1.6,3.9
			C543.4,169.9,544.7,170.5,546.1,170.4z M662,72.1c0-1.2,0.3-2.4,0.9-3.5c0.6-1.2,1.5-2.2,2.5-3.1c1-0.9,2.2-1.7,3.4-2.3
			c1.1-0.6,2.4-0.9,3.7-0.9h78c1.1,0,2.2,0.3,3.1,0.8c1.1,0.5,2.1,1.2,3,2c0.9,0.7,1.7,1.7,2.2,2.7c0.5,1,0.8,2,0.8,3.1v24.8
			c0,0.7-0.1,1.4-0.3,2.1c-0.2,0.7-0.4,1.3-0.8,2c-0.3,0.6-0.8,1.1-1.3,1.4c-0.5,0.4-1.2,0.5-1.8,0.5H740c-0.6,0-1.2-0.1-1.7-0.4
			c-0.6-0.2-1.2-0.6-1.7-0.9c-0.5-0.3-0.9-0.8-1.2-1.3c-0.3-0.5-0.4-1-0.4-1.6V85.2c-0.1-0.8-0.5-1.5-1.2-2
			c-0.7-0.6-1.6-0.9-2.5-0.9h-42.2c-0.5,0-0.9,0.1-1.3,0.4c-0.7,0.6-1.3,1.3-1.6,2.2c-0.2,0.4-0.2,0.9-0.3,1.3v18
			c0,1.5,0.2,3.1,0.5,4.6c0.4,1.5,0.9,3,1.6,4.4c0.7,1.5,1.5,3,2.3,4.4c0.9,1.5,1.7,3,2.6,4.4c0.9,1.5,1.7,2.9,2.6,4.3
			c0.9,1.4,1.6,2.8,2.2,4.3c0.6,1.5,1.1,3,1.6,4.6c0.4,1.5,0.6,3.1,0.7,4.7v45.4c0,0.8-0.3,1.5-0.7,2.2c-0.4,0.8-0.9,1.5-1.6,2.1
			c-0.6,0.6-1.3,1.1-2.1,1.6c-0.8,0.4-1.6,0.7-2.5,0.7h-24.8c-0.9,0-1.7-0.3-2.5-0.8c-0.8-0.5-1.5-1.1-2.1-1.8
			c-0.6-0.7-1.1-1.5-1.4-2.3c-0.3-0.8-0.5-1.7-0.5-2.6V72.1z M791.8,44.5c-1.9,0-3.8-0.4-5.5-1.2c-3.3-1.4-6-4.1-7.4-7.4
			c-0.8-1.6-1.2-3.4-1.2-5.2c0-1.9,0.4-3.8,1.2-5.5c1.4-3.3,4.1-6,7.4-7.4c1.7-0.8,3.6-1.2,5.5-1.2c1.8,0,3.6,0.4,5.2,1.2
			c3.3,1.4,6,4.1,7.4,7.4c0.8,1.7,1.2,3.6,1.2,5.5c0,1.8-0.4,3.6-1.2,5.2c-1.4,3.3-4.1,6-7.4,7.4C795.4,44.1,793.6,44.5,791.8,44.5
			L791.8,44.5z M784.2,62.2h15.4c0.5,0,1.1,0.1,1.6,0.4c0.5,0.2,0.9,0.6,1.3,1c0.4,0.4,0.7,0.9,0.9,1.4c0.3,0.5,0.4,1,0.4,1.6v36.8
			c0,1.1,0.3,2.2,0.7,3.3c0.5,1.4,1,2.8,1.7,4.2c0.7,1.5,1.5,3,2.3,4.7c0.9,1.7,1.8,3.3,2.7,4.8c1,1.6,1.9,3.1,2.9,4.7
			c1,1.6,1.8,3,2.5,4.4c0.7,1.4,1.3,2.7,1.7,3.8c0.4,0.9,0.6,1.8,0.7,2.7v49.8c0,0.7-0.2,1.4-0.5,2.1c-0.4,0.7-0.8,1.4-1.3,2
			c-0.5,0.6-1.1,1.1-1.7,1.4c-0.6,0.3-1.3,0.5-2,0.5h-25.6c-0.8,0-1.7-0.2-2.5-0.4c-0.9-0.2-1.8-0.7-2.5-1.3c-0.7-0.6-1.3-1.2-1.8-2
			c-0.5-0.7-0.8-1.5-0.8-2.3V66.9c0-0.5,0.1-1.1,0.3-1.6c0.2-0.6,0.5-1.1,0.9-1.6c0.4-0.5,0.8-0.9,1.3-1.2
			C783.2,62.3,783.7,62.2,784.2,62.2L784.2,62.2z M845.7,70.3c0-3,0.7-5.1,2-6.4c1.3-1.3,3.8-2,7.4-2h98.6c1.7,0,3.3,0.1,5,0.4
			c1.2,0.2,2.4,0.6,3.5,1.3c1,0.6,1.7,1.5,2.1,2.6c0.5,1.3,0.8,2.7,0.9,4l0.3,117.1c0,0.8-0.1,1.7-0.4,2.5c-0.2,0.5-0.4,0.9-0.7,1.3
			c-0.2,0.2-0.4,0.4-0.7,0.5c-0.2,0.1-0.4,0.1-0.7,0.1h-16.7c-0.4,0-0.9-0.1-1.3-0.3c-0.5-0.2-1-0.5-1.4-0.9c-0.4-0.4-0.8-0.8-1-1.3
			c-0.3-0.4-0.4-0.9-0.4-1.4V87.3c0-0.8,0-1.7-0.1-2.5c0-0.5-0.2-0.9-0.5-1.3c-0.3-0.3-0.7-0.5-1-0.5c-0.6-0.1-1.1-0.1-1.7-0.1
			h-65.2c-0.7,0-1.5,0-2.2,0.1c-0.4,0.1-0.8,0.2-1,0.5c-0.3,0.3-0.4,0.7-0.4,1.2v30.8c0,1.1,0.2,2.2,0.5,3.3
			c0.4,1.2,0.9,2.3,1.6,3.3c0.7,1,1.4,2,2.2,3s1.6,1.9,2.5,2.9s1.7,1.9,2.5,2.9c0.8,0.9,1.5,1.9,2.1,3c0.6,1,1.1,2.1,1.6,3.1
			c0.4,1.1,0.7,2.2,0.7,3.4v47.7c0,0.5-0.1,1-0.4,1.4c-0.3,0.5-0.6,0.9-1,1.3c-0.4,0.4-0.8,0.7-1.3,0.9c-0.5,0.2-0.9,0.3-1.4,0.3
			h-30.3c-0.4,0-0.8-0.1-1.2-0.3c-0.4-0.2-0.8-0.4-1.2-0.8c-0.3-0.3-0.6-0.7-0.8-1.2c-0.2-0.5-0.3-0.9-0.3-1.4L845.7,70.3z
			 M1011.7,23.6h13c1.5,0,2.9,0.5,3.9,1.6c1,0.9,1.6,2.3,1.6,3.7v33.4h28.4c0.7,0,1.5,0.2,2.1,0.7c0.7,0.4,1.3,1,1.8,1.6
			c0.5,0.6,0.9,1.3,1.3,2c0.3,0.6,0.5,1.4,0.5,2.1v27.4c0,0.6-0.1,1.2-0.4,1.7c-0.2,0.6-0.6,1.1-1,1.6c-0.4,0.4-0.9,0.8-1.4,1.2
			c-0.5,0.3-1,0.5-1.6,0.5h-29.7v66.5c0,0.4,0.1,0.9,0.3,1.3c0.2,0.5,0.5,1,0.9,1.4c0.4,0.4,0.8,0.8,1.3,1c0.4,0.3,0.9,0.4,1.4,0.4
			h14.1c0.5,0,1.1,0.1,1.6,0.4c0.5,0.3,1,0.6,1.4,1c0.4,0.5,0.8,1,1,1.6c0.2,0.5,0.4,1.1,0.4,1.7v10.2c0.1,1.4-0.4,2.8-1.3,3.9
			c-0.8,1-2.1,1.6-3.4,1.6h-36.3c-2.9-0.1-5.1-2.4-5.2-5.2v-103h-10.7c-0.5,0-1-0.1-1.4-0.3c-0.5-0.2-0.9-0.5-1.3-0.9
			c-0.4-0.4-0.8-0.8-1-1.3c-0.3-0.4-0.4-0.9-0.4-1.4V65.9c0-0.4,0.1-0.8,0.3-1.2c0.2-0.4,0.4-0.8,0.7-1.2c0.3-0.4,0.6-0.7,1-0.9
			c0.3-0.2,0.8-0.4,1.2-0.4h11.7V28.8C1006.6,26,1008.9,23.7,1011.7,23.6L1011.7,23.6z"/>
	</defs>
	<clipPath id="SVGID_2_">
		<use xlink:href="#SVGID_1_"  style="overflow:visible;"/>
	</clipPath>
	<g class="st1">
		<rect x="-155" y="-2.6" class="st2" width="1309.5" height="206.5"/>
		<rect x="-155" y="143.4" class="st3" width="1309.5" height="206.5"/>
	</g>
</g>
</svg>
