<svg id="Layer_1" data-name="Layer 1" xmlns="http://www.w3.org/2000/svg" xmlns:xlink="http://www.w3.org/1999/xlink" viewBox="0 0 2612.569 937.424"><defs><style>.cls-1,.cls-10,.cls-100,.cls-101,.cls-102,.cls-103,.cls-104,.cls-105,.cls-106,.cls-107,.cls-108,.cls-109,.cls-11,.cls-110,.cls-111,.cls-112,.cls-113,.cls-114,.cls-115,.cls-116,.cls-117,.cls-118,.cls-119,.cls-12,.cls-120,.cls-121,.cls-122,.cls-123,.cls-13,.cls-14,.cls-15,.cls-16,.cls-17,.cls-18,.cls-19,.cls-20,.cls-21,.cls-22,.cls-23,.cls-24,.cls-25,.cls-26,.cls-27,.cls-28,.cls-29,.cls-30,.cls-31,.cls-32,.cls-33,.cls-34,.cls-35,.cls-36,.cls-37,.cls-38,.cls-39,.cls-4,.cls-40,.cls-41,.cls-42,.cls-43,.cls-44,.cls-45,.cls-46,.cls-47,.cls-48,.cls-49,.cls-5,.cls-50,.cls-51,.cls-52,.cls-53,.cls-54,.cls-55,.cls-56,.cls-57,.cls-58,.cls-59,.cls-6,.cls-60,.cls-61,.cls-62,.cls-63,.cls-64,.cls-65,.cls-66,.cls-67,.cls-68,.cls-69,.cls-7,.cls-70,.cls-71,.cls-72,.cls-73,.cls-74,.cls-75,.cls-76,.cls-77,.cls-78,.cls-79,.cls-8,.cls-80,.cls-81,.cls-82,.cls-83,.cls-84,.cls-85,.cls-86,.cls-87,.cls-88,.cls-89,.cls-9,.cls-90,.cls-91,.cls-92,.cls-93,.cls-94,.cls-95,.cls-96,.cls-97,.cls-98,.cls-99{fill:none;}.cls-2{fill:url(#linear-gradient);}.cls-3{clip-path:url(#clip-path);}.cls-10,.cls-100,.cls-101,.cls-102,.cls-103,.cls-104,.cls-105,.cls-106,.cls-107,.cls-108,.cls-109,.cls-11,.cls-110,.cls-111,.cls-112,.cls-113,.cls-114,.cls-115,.cls-116,.cls-117,.cls-118,.cls-119,.cls-12,.cls-120,.cls-121,.cls-122,.cls-123,.cls-13,.cls-14,.cls-15,.cls-16,.cls-17,.cls-18,.cls-19,.cls-20,.cls-21,.cls-22,.cls-23,.cls-24,.cls-25,.cls-26,.cls-27,.cls-28,.cls-29,.cls-30,.cls-31,.cls-32,.cls-33,.cls-34,.cls-35,.cls-36,.cls-37,.cls-38,.cls-39,.cls-4,.cls-40,.cls-41,.cls-42,.cls-43,.cls-44,.cls-45,.cls-46,.cls-47,.cls-48,.cls-49,.cls-5,.cls-50,.cls-51,.cls-52,.cls-53,.cls-54,.cls-55,.cls-56,.cls-57,.cls-58,.cls-59,.cls-6,.cls-60,.cls-61,.cls-62,.cls-63,.cls-64,.cls-65,.cls-66,.cls-67,.cls-68,.cls-69,.cls-7,.cls-70,.cls-71,.cls-72,.cls-73,.cls-74,.cls-75,.cls-76,.cls-77,.cls-78,.cls-79,.cls-8,.cls-80,.cls-81,.cls-82,.cls-83,.cls-84,.cls-85,.cls-86,.cls-87,.cls-88,.cls-89,.cls-9,.cls-90,.cls-91,.cls-92,.cls-93,.cls-94,.cls-95,.cls-96,.cls-97,.cls-98,.cls-99{stroke-miterlimit:10;stroke-width:0.85px;}.cls-4{stroke:url(#linear-gradient-2);}.cls-5{stroke:url(#linear-gradient-3);}.cls-6{stroke:url(#linear-gradient-4);}.cls-7{stroke:url(#linear-gradient-5);}.cls-8{stroke:url(#linear-gradient-6);}.cls-9{stroke:url(#linear-gradient-7);}.cls-10{stroke:url(#linear-gradient-8);}.cls-11{stroke:url(#linear-gradient-9);}.cls-12{stroke:url(#linear-gradient-10);}.cls-13{stroke:url(#linear-gradient-11);}.cls-14{stroke:url(#linear-gradient-12);}.cls-15{stroke:url(#linear-gradient-13);}.cls-16{stroke:url(#linear-gradient-14);}.cls-17{stroke:url(#linear-gradient-15);}.cls-18{stroke:url(#linear-gradient-16);}.cls-19{stroke:url(#linear-gradient-17);}.cls-20{stroke:url(#linear-gradient-18);}.cls-21{stroke:url(#linear-gradient-19);}.cls-22{stroke:url(#linear-gradient-20);}.cls-23{stroke:url(#linear-gradient-21);}.cls-24{stroke:url(#linear-gradient-22);}.cls-25{stroke:url(#linear-gradient-23);}.cls-26{stroke:url(#linear-gradient-24);}.cls-27{stroke:url(#linear-gradient-25);}.cls-28{stroke:url(#linear-gradient-26);}.cls-29{stroke:url(#linear-gradient-27);}.cls-30{stroke:url(#linear-gradient-28);}.cls-31{stroke:url(#linear-gradient-29);}.cls-32{stroke:url(#linear-gradient-30);}.cls-33{stroke:url(#linear-gradient-31);}.cls-34{stroke:url(#linear-gradient-32);}.cls-35{stroke:url(#linear-gradient-33);}.cls-36{stroke:url(#linear-gradient-34);}.cls-37{stroke:url(#linear-gradient-35);}.cls-38{stroke:url(#linear-gradient-36);}.cls-39{stroke:url(#linear-gradient-37);}.cls-40{stroke:url(#linear-gradient-38);}.cls-41{stroke:url(#linear-gradient-39);}.cls-42{stroke:url(#linear-gradient-40);}.cls-43{stroke:url(#linear-gradient-41);}.cls-44{stroke:url(#linear-gradient-42);}.cls-45{stroke:url(#linear-gradient-43);}.cls-46{stroke:url(#linear-gradient-44);}.cls-47{stroke:url(#linear-gradient-45);}.cls-48{stroke:url(#linear-gradient-46);}.cls-49{stroke:url(#linear-gradient-47);}.cls-50{stroke:url(#linear-gradient-48);}.cls-51{stroke:url(#linear-gradient-49);}.cls-52{stroke:url(#linear-gradient-50);}.cls-53{stroke:url(#linear-gradient-51);}.cls-54{stroke:url(#linear-gradient-52);}.cls-55{stroke:url(#linear-gradient-53);}.cls-56{stroke:url(#linear-gradient-54);}.cls-57{stroke:url(#linear-gradient-55);}.cls-58{stroke:url(#linear-gradient-56);}.cls-59{stroke:url(#linear-gradient-57);}.cls-60{stroke:url(#linear-gradient-58);}.cls-61{stroke:url(#linear-gradient-59);}.cls-62{stroke:url(#linear-gradient-60);}.cls-63{stroke:url(#linear-gradient-61);}.cls-64{stroke:url(#linear-gradient-62);}.cls-65{stroke:url(#linear-gradient-63);}.cls-66{stroke:url(#linear-gradient-64);}.cls-67{stroke:url(#linear-gradient-65);}.cls-68{stroke:url(#linear-gradient-66);}.cls-69{stroke:url(#linear-gradient-67);}.cls-70{stroke:url(#linear-gradient-68);}.cls-71{stroke:url(#linear-gradient-69);}.cls-72{stroke:url(#linear-gradient-70);}.cls-73{stroke:url(#linear-gradient-71);}.cls-74{stroke:url(#linear-gradient-72);}.cls-75{stroke:url(#linear-gradient-73);}.cls-76{stroke:url(#linear-gradient-74);}.cls-77{stroke:url(#linear-gradient-75);}.cls-78{stroke:url(#linear-gradient-76);}.cls-79{stroke:url(#linear-gradient-77);}.cls-80{stroke:url(#linear-gradient-78);}.cls-81{stroke:url(#linear-gradient-79);}.cls-82{stroke:url(#linear-gradient-80);}.cls-83{stroke:url(#linear-gradient-81);}.cls-84{stroke:url(#linear-gradient-82);}.cls-85{stroke:url(#linear-gradient-83);}.cls-86{stroke:url(#linear-gradient-84);}.cls-87{stroke:url(#linear-gradient-85);}.cls-88{stroke:url(#linear-gradient-86);}.cls-89{stroke:url(#linear-gradient-87);}.cls-90{stroke:url(#linear-gradient-88);}.cls-91{stroke:url(#linear-gradient-89);}.cls-92{stroke:url(#linear-gradient-90);}.cls-93{stroke:url(#linear-gradient-91);}.cls-94{stroke:url(#linear-gradient-92);}.cls-95{stroke:url(#linear-gradient-93);}.cls-96{stroke:url(#linear-gradient-94);}.cls-97{stroke:url(#linear-gradient-95);}.cls-98{stroke:url(#linear-gradient-96);}.cls-99{stroke:url(#linear-gradient-97);}.cls-100{stroke:url(#linear-gradient-98);}.cls-101{stroke:url(#linear-gradient-99);}.cls-102{stroke:url(#linear-gradient-100);}.cls-103{stroke:url(#linear-gradient-101);}.cls-104{stroke:url(#linear-gradient-102);}.cls-105{stroke:url(#linear-gradient-103);}.cls-106{stroke:url(#linear-gradient-104);}.cls-107{stroke:url(#linear-gradient-105);}.cls-108{stroke:url(#linear-gradient-106);}.cls-109{stroke:url(#linear-gradient-107);}.cls-110{stroke:url(#linear-gradient-108);}.cls-111{stroke:url(#linear-gradient-109);}.cls-112{stroke:url(#linear-gradient-110);}.cls-113{stroke:url(#linear-gradient-111);}.cls-114{stroke:url(#linear-gradient-112);}.cls-115{stroke:url(#linear-gradient-113);}.cls-116{stroke:url(#linear-gradient-114);}.cls-117{stroke:url(#linear-gradient-115);}.cls-118{stroke:url(#linear-gradient-116);}.cls-119{stroke:url(#linear-gradient-117);}.cls-120{stroke:url(#linear-gradient-118);}.cls-121{stroke:url(#linear-gradient-119);}.cls-122{stroke:url(#linear-gradient-120);}.cls-123{stroke:url(#linear-gradient-121);}</style><linearGradient id="linear-gradient" x1="1311.446" y1="889" x2="1311.446" gradientUnits="userSpaceOnUse"><stop offset="0.001" stop-color="#2670b8"/><stop offset="0.045" stop-color="#2164ac"/><stop offset="0.123" stop-color="#1b539c"/><stop offset="0.183" stop-color="#194d96"/><stop offset="0.191" stop-color="#194c93"/><stop offset="0.283" stop-color="#1c3d75"/><stop offset="0.374" stop-color="#1e335f"/><stop offset="0.461" stop-color="#202d51"/><stop offset="0.54" stop-color="#202b4d"/><stop offset="0.573" stop-color="#212a4a"/><stop offset="0.739" stop-color="#232542"/><stop offset="0.999" stop-color="#24243f"/></linearGradient><clipPath id="clip-path" transform="translate(520.946 3.544)"><rect class="cls-1" x="0.267" y="-3.356" width="1580.733" height="888.812"/></clipPath><linearGradient id="linear-gradient-2" x1="545.034" y1="546.601" x2="545.034" y2="524.823" gradientUnits="userSpaceOnUse"><stop offset="0" stop-color="#fff"/><stop offset="0.185" stop-color="#fff" stop-opacity="0.85"/><stop offset="0.452" stop-color="#fff" stop-opacity="0.657"/><stop offset="0.686" stop-color="#fff" stop-opacity="0.517"/><stop offset="0.877" stop-color="#fff" stop-opacity="0.431"/><stop offset="1" stop-color="#fff" stop-opacity="0.4"/></linearGradient><linearGradient id="linear-gradient-3" x1="683.704" y1="546.601" x2="683.704" y2="524.823" xlink:href="#linear-gradient-2"/><linearGradient id="linear-gradient-4" x1="822.375" y1="546.601" x2="822.375" y2="524.823" xlink:href="#linear-gradient-2"/><linearGradient id="linear-gradient-5" x1="961.047" y1="546.601" x2="961.047" y2="524.823" xlink:href="#linear-gradient-2"/><linearGradient id="linear-gradient-6" x1="1099.721" y1="546.601" x2="1099.721" y2="524.823" xlink:href="#linear-gradient-2"/><linearGradient id="linear-gradient-7" x1="1238.395" y1="546.601" x2="1238.395" y2="524.823" xlink:href="#linear-gradient-2"/><linearGradient id="linear-gradient-8" x1="1379.142" y1="546.601" x2="1379.142" y2="524.823" xlink:href="#linear-gradient-2"/><linearGradient id="linear-gradient-9" x1="1517.885" y1="546.601" x2="1517.885" y2="524.823" xlink:href="#linear-gradient-2"/><linearGradient id="linear-gradient-10" x1="1656.558" y1="546.601" x2="1656.558" y2="524.823" xlink:href="#linear-gradient-2"/><linearGradient id="linear-gradient-11" x1="1795.23" y1="546.601" x2="1795.23" y2="524.823" xlink:href="#linear-gradient-2"/><linearGradient id="linear-gradient-12" x1="1933.901" y1="546.601" x2="1933.901" y2="524.823" xlink:href="#linear-gradient-2"/><linearGradient id="linear-gradient-13" x1="2072.571" y1="546.601" x2="2072.571" y2="524.823" xlink:href="#linear-gradient-2"/><linearGradient id="linear-gradient-14" x1="516.965" y1="576.35" x2="516.965" y2="545.938" xlink:href="#linear-gradient-2"/><linearGradient id="linear-gradient-15" x1="660.632" y1="576.35" x2="660.632" y2="545.938" xlink:href="#linear-gradient-2"/><linearGradient id="linear-gradient-16" x1="804.3" y1="576.35" x2="804.3" y2="545.938" xlink:href="#linear-gradient-2"/><linearGradient id="linear-gradient-17" x1="947.97" y1="576.35" x2="947.97" y2="545.938" xlink:href="#linear-gradient-2"/><linearGradient id="linear-gradient-18" x1="1091.641" y1="576.35" x2="1091.641" y2="545.938" xlink:href="#linear-gradient-2"/><linearGradient id="linear-gradient-19" x1="1235.313" y1="576.35" x2="1235.313" y2="545.938" xlink:href="#linear-gradient-2"/><linearGradient id="linear-gradient-20" x1="1381.878" y1="576.35" x2="1381.878" y2="545.938" xlink:href="#linear-gradient-2"/><linearGradient id="linear-gradient-21" x1="1525.646" y1="576.35" x2="1525.646" y2="545.938" xlink:href="#linear-gradient-2"/><linearGradient id="linear-gradient-22" x1="1669.317" y1="576.35" x2="1669.317" y2="545.938" xlink:href="#linear-gradient-2"/><linearGradient id="linear-gradient-23" x1="1812.986" y1="576.35" x2="1812.986" y2="545.938" xlink:href="#linear-gradient-2"/><linearGradient id="linear-gradient-24" x1="1956.655" y1="576.35" x2="1956.655" y2="545.938" xlink:href="#linear-gradient-2"/><linearGradient id="linear-gradient-25" x1="2100.322" y1="576.35" x2="2100.322" y2="545.938" xlink:href="#linear-gradient-2"/><linearGradient id="linear-gradient-26" x1="515.8" y1="605.912" x2="515.8" y2="512.857" xlink:href="#linear-gradient-2"/><linearGradient id="linear-gradient-27" x1="659.122" y1="605.912" x2="659.122" y2="512.857" xlink:href="#linear-gradient-2"/><linearGradient id="linear-gradient-28" x1="802.444" y1="605.912" x2="802.444" y2="512.857" xlink:href="#linear-gradient-2"/><linearGradient id="linear-gradient-29" x1="945.768" y1="605.912" x2="945.768" y2="512.857" xlink:href="#linear-gradient-2"/><linearGradient id="linear-gradient-30" x1="1089.093" y1="605.912" x2="1089.093" y2="512.857" xlink:href="#linear-gradient-2"/><linearGradient id="linear-gradient-31" x1="1232.42" y1="605.912" x2="1232.42" y2="512.857" xlink:href="#linear-gradient-2"/><linearGradient id="linear-gradient-32" x1="1384.598" y1="605.912" x2="1384.598" y2="512.857" xlink:href="#linear-gradient-2"/><linearGradient id="linear-gradient-33" x1="1528.215" y1="605.912" x2="1528.215" y2="512.857" xlink:href="#linear-gradient-2"/><linearGradient id="linear-gradient-34" x1="1671.541" y1="605.912" x2="1671.541" y2="512.857" xlink:href="#linear-gradient-2"/><linearGradient id="linear-gradient-35" x1="1814.864" y1="605.912" x2="1814.864" y2="512.857" xlink:href="#linear-gradient-2"/><linearGradient id="linear-gradient-36" x1="1958.187" y1="605.912" x2="1958.187" y2="512.857" xlink:href="#linear-gradient-2"/><linearGradient id="linear-gradient-37" x1="2101.509" y1="605.912" x2="2101.509" y2="512.857" xlink:href="#linear-gradient-2"/><linearGradient id="linear-gradient-38" x1="451.445" y1="637.585" x2="451.445" y2="605.061" xlink:href="#linear-gradient-2"/><linearGradient id="linear-gradient-39" x1="606.937" y1="637.585" x2="606.937" y2="605.061" xlink:href="#linear-gradient-2"/><linearGradient id="linear-gradient-40" x1="762.431" y1="637.585" x2="762.431" y2="605.061" xlink:href="#linear-gradient-2"/><linearGradient id="linear-gradient-41" x1="917.926" y1="637.585" x2="917.926" y2="605.061" xlink:href="#linear-gradient-2"/><linearGradient id="linear-gradient-42" x1="1073.422" y1="637.585" x2="1073.422" y2="605.061" xlink:href="#linear-gradient-2"/><linearGradient id="linear-gradient-43" x1="1228.92" y1="637.585" x2="1228.92" y2="605.061" xlink:href="#linear-gradient-2"/><linearGradient id="linear-gradient-44" x1="1387.511" y1="637.585" x2="1387.511" y2="605.061" xlink:href="#linear-gradient-2"/><linearGradient id="linear-gradient-45" x1="1543.11" y1="637.585" x2="1543.11" y2="605.061" xlink:href="#linear-gradient-2"/><linearGradient id="linear-gradient-46" x1="1698.607" y1="637.585" x2="1698.607" y2="605.061" xlink:href="#linear-gradient-2"/><linearGradient id="linear-gradient-47" x1="1854.102" y1="637.585" x2="1854.102" y2="605.061" xlink:href="#linear-gradient-2"/><linearGradient id="linear-gradient-48" x1="2009.596" y1="637.585" x2="2009.596" y2="605.061" xlink:href="#linear-gradient-2"/><linearGradient id="linear-gradient-49" x1="2165.088" y1="637.585" x2="2165.088" y2="605.061" xlink:href="#linear-gradient-2"/><linearGradient id="linear-gradient-50" x1="415.764" y1="671.369" x2="415.764" y2="636.735" xlink:href="#linear-gradient-2"/><linearGradient id="linear-gradient-51" x1="577.688" y1="671.369" x2="577.688" y2="636.735" xlink:href="#linear-gradient-2"/><linearGradient id="linear-gradient-52" x1="739.613" y1="671.369" x2="739.613" y2="636.735" xlink:href="#linear-gradient-2"/><linearGradient id="linear-gradient-53" x1="901.539" y1="671.369" x2="901.539" y2="636.735" xlink:href="#linear-gradient-2"/><linearGradient id="linear-gradient-54" x1="1063.467" y1="671.369" x2="1063.467" y2="636.735" xlink:href="#linear-gradient-2"/><linearGradient id="linear-gradient-55" x1="1225.395" y1="671.369" x2="1225.395" y2="636.735" xlink:href="#linear-gradient-2"/><linearGradient id="linear-gradient-56" x1="1390.619" y1="671.369" x2="1390.619" y2="636.735" xlink:href="#linear-gradient-2"/><linearGradient id="linear-gradient-57" x1="1552.656" y1="671.369" x2="1552.656" y2="636.735" xlink:href="#linear-gradient-2"/><linearGradient id="linear-gradient-58" x1="1714.584" y1="671.369" x2="1714.584" y2="636.735" xlink:href="#linear-gradient-2"/><linearGradient id="linear-gradient-59" x1="1876.51" y1="671.369" x2="1876.51" y2="636.735" xlink:href="#linear-gradient-2"/><linearGradient id="linear-gradient-60" x1="2038.435" y1="671.369" x2="2038.435" y2="636.735" xlink:href="#linear-gradient-2"/><linearGradient id="linear-gradient-61" x1="2200.359" y1="671.369" x2="2200.359" y2="636.735" xlink:href="#linear-gradient-2"/><linearGradient id="linear-gradient-62" x1="374.033" y1="713.6" x2="374.033" y2="670.519" xlink:href="#linear-gradient-2"/><linearGradient id="linear-gradient-63" x1="543.426" y1="713.6" x2="543.426" y2="670.519" xlink:href="#linear-gradient-2"/><linearGradient id="linear-gradient-64" x1="712.819" y1="713.6" x2="712.819" y2="670.519" xlink:href="#linear-gradient-2"/><linearGradient id="linear-gradient-65" x1="882.214" y1="713.6" x2="882.214" y2="670.519" xlink:href="#linear-gradient-2"/><linearGradient id="linear-gradient-66" x1="1051.611" y1="713.6" x2="1051.611" y2="670.519" xlink:href="#linear-gradient-2"/><linearGradient id="linear-gradient-67" x1="1221.008" y1="713.6" x2="1221.008" y2="670.519" xlink:href="#linear-gradient-2"/><linearGradient id="linear-gradient-68" x1="1394.504" y1="713.6" x2="1394.504" y2="670.519" xlink:href="#linear-gradient-2"/><linearGradient id="linear-gradient-69" x1="1564.036" y1="713.6" x2="1564.036" y2="670.519" xlink:href="#linear-gradient-2"/><linearGradient id="linear-gradient-70" x1="1733.432" y1="713.6" x2="1733.432" y2="670.519" xlink:href="#linear-gradient-2"/><linearGradient id="linear-gradient-71" x1="1902.827" y1="713.6" x2="1902.827" y2="670.519" xlink:href="#linear-gradient-2"/><linearGradient id="linear-gradient-72" x1="2072.221" y1="713.6" x2="2072.221" y2="670.519" xlink:href="#linear-gradient-2"/><linearGradient id="linear-gradient-73" x1="2241.614" y1="713.6" x2="2241.614" y2="670.519" xlink:href="#linear-gradient-2"/><linearGradient id="linear-gradient-74" x1="328.127" y1="755.831" x2="328.127" y2="712.75" xlink:href="#linear-gradient-2"/><linearGradient id="linear-gradient-75" x1="505.818" y1="755.831" x2="505.818" y2="712.75" xlink:href="#linear-gradient-2"/><linearGradient id="linear-gradient-76" x1="683.51" y1="755.831" x2="683.51" y2="712.75" xlink:href="#linear-gradient-2"/><linearGradient id="linear-gradient-77" x1="861.203" y1="755.831" x2="861.203" y2="712.75" xlink:href="#linear-gradient-2"/><linearGradient id="linear-gradient-78" x1="1038.898" y1="755.831" x2="1038.898" y2="712.75" xlink:href="#linear-gradient-2"/><linearGradient id="linear-gradient-79" x1="1216.594" y1="755.831" x2="1216.594" y2="712.75" xlink:href="#linear-gradient-2"/><linearGradient id="linear-gradient-80" x1="1398.388" y1="755.831" x2="1398.388" y2="712.75" xlink:href="#linear-gradient-2"/><linearGradient id="linear-gradient-81" x1="1576.219" y1="755.831" x2="1576.219" y2="712.75" xlink:href="#linear-gradient-2"/><linearGradient id="linear-gradient-82" x1="1753.914" y1="755.831" x2="1753.914" y2="712.75" xlink:href="#linear-gradient-2"/><linearGradient id="linear-gradient-83" x1="1931.608" y1="755.831" x2="1931.608" y2="712.75" xlink:href="#linear-gradient-2"/><linearGradient id="linear-gradient-84" x1="2109.3" y1="755.831" x2="2109.3" y2="712.75" xlink:href="#linear-gradient-2"/><linearGradient id="linear-gradient-85" x1="2286.991" y1="755.831" x2="2286.991" y2="712.75" xlink:href="#linear-gradient-2"/><linearGradient id="linear-gradient-86" x1="275.963" y1="808.62" x2="275.963" y2="754.981" xlink:href="#linear-gradient-2"/><linearGradient id="linear-gradient-87" x1="462.99" y1="808.62" x2="462.99" y2="754.981" xlink:href="#linear-gradient-2"/><linearGradient id="linear-gradient-88" x1="650.018" y1="808.62" x2="650.018" y2="754.981" xlink:href="#linear-gradient-2"/><linearGradient id="linear-gradient-89" x1="837.048" y1="808.62" x2="837.048" y2="754.981" xlink:href="#linear-gradient-2"/><linearGradient id="linear-gradient-90" x1="1024.078" y1="808.62" x2="1024.078" y2="754.981" xlink:href="#linear-gradient-2"/><linearGradient id="linear-gradient-91" x1="1211.11" y1="808.62" x2="1211.11" y2="754.981" xlink:href="#linear-gradient-2"/><linearGradient id="linear-gradient-92" x1="1403.244" y1="808.62" x2="1403.244" y2="754.981" xlink:href="#linear-gradient-2"/><linearGradient id="linear-gradient-93" x1="1590.444" y1="808.62" x2="1590.444" y2="754.981" xlink:href="#linear-gradient-2"/><linearGradient id="linear-gradient-94" x1="1777.475" y1="808.62" x2="1777.475" y2="754.981" xlink:href="#linear-gradient-2"/><linearGradient id="linear-gradient-95" x1="1964.504" y1="808.62" x2="1964.504" y2="754.981" xlink:href="#linear-gradient-2"/><linearGradient id="linear-gradient-96" x1="2151.532" y1="808.62" x2="2151.532" y2="754.981" xlink:href="#linear-gradient-2"/><linearGradient id="linear-gradient-97" x1="2338.559" y1="808.62" x2="2338.559" y2="754.981" xlink:href="#linear-gradient-2"/><linearGradient id="linear-gradient-98" x1="216.078" y1="865.632" x2="216.078" y2="807.77" xlink:href="#linear-gradient-2"/><linearGradient id="linear-gradient-99" x1="413.893" y1="865.632" x2="413.893" y2="807.77" xlink:href="#linear-gradient-2"/><linearGradient id="linear-gradient-100" x1="611.709" y1="865.632" x2="611.709" y2="807.77" xlink:href="#linear-gradient-2"/><linearGradient id="linear-gradient-101" x1="809.526" y1="865.632" x2="809.526" y2="807.77" xlink:href="#linear-gradient-2"/><linearGradient id="linear-gradient-102" x1="1007.345" y1="865.632" x2="1007.345" y2="807.77" xlink:href="#linear-gradient-2"/><linearGradient id="linear-gradient-103" x1="1205.165" y1="865.632" x2="1205.165" y2="807.77" xlink:href="#linear-gradient-2"/><linearGradient id="linear-gradient-104" x1="1408.489" y1="865.632" x2="1408.489" y2="807.77" xlink:href="#linear-gradient-2"/><linearGradient id="linear-gradient-105" x1="1606.49" y1="865.632" x2="1606.49" y2="807.77" xlink:href="#linear-gradient-2"/><linearGradient id="linear-gradient-106" x1="1804.308" y1="865.632" x2="1804.308" y2="807.77" xlink:href="#linear-gradient-2"/><linearGradient id="linear-gradient-107" x1="2002.126" y1="865.632" x2="2002.126" y2="807.77" xlink:href="#linear-gradient-2"/><linearGradient id="linear-gradient-108" x1="2199.942" y1="865.632" x2="2199.942" y2="807.77" xlink:href="#linear-gradient-2"/><linearGradient id="linear-gradient-109" x1="2397.757" y1="865.632" x2="2397.757" y2="807.77" xlink:href="#linear-gradient-2"/><linearGradient id="linear-gradient-110" x1="145.345" y1="937.424" x2="145.345" y2="864.782" xlink:href="#linear-gradient-2"/><linearGradient id="linear-gradient-111" x1="355.815" y1="937.424" x2="355.815" y2="864.782" xlink:href="#linear-gradient-2"/><linearGradient id="linear-gradient-112" x1="566.286" y1="937.424" x2="566.286" y2="864.782" xlink:href="#linear-gradient-2"/><linearGradient id="linear-gradient-113" x1="776.759" y1="937.424" x2="776.759" y2="864.782" xlink:href="#linear-gradient-2"/><linearGradient id="linear-gradient-114" x1="987.232" y1="937.424" x2="987.232" y2="864.782" xlink:href="#linear-gradient-2"/><linearGradient id="linear-gradient-115" x1="1197.707" y1="937.424" x2="1197.707" y2="864.782" xlink:href="#linear-gradient-2"/><linearGradient id="linear-gradient-116" x1="1415.093" y1="937.424" x2="1415.093" y2="864.782" xlink:href="#linear-gradient-2"/><linearGradient id="linear-gradient-117" x1="1625.795" y1="937.424" x2="1625.795" y2="864.782" xlink:href="#linear-gradient-2"/><linearGradient id="linear-gradient-118" x1="1836.269" y1="937.424" x2="1836.269" y2="864.782" xlink:href="#linear-gradient-2"/><linearGradient id="linear-gradient-119" x1="2046.742" y1="937.424" x2="2046.742" y2="864.782" xlink:href="#linear-gradient-2"/><linearGradient id="linear-gradient-120" x1="2257.213" y1="937.424" x2="2257.213" y2="864.782" xlink:href="#linear-gradient-2"/><linearGradient id="linear-gradient-121" x1="2467.683" y1="937.424" x2="2467.683" y2="864.782" xlink:href="#linear-gradient-2"/></defs><title>bpbkg</title><rect class="cls-2" x="520.946" width="1581" height="889"/><g class="cls-3"><polygon class="cls-4" points="489.205 525.248 625.815 525.248 605.122 546.176 464.399 546.176 489.205 525.248"/><polygon class="cls-5" points="625.815 525.248 762.426 525.248 745.845 546.176 605.122 546.176 625.815 525.248"/><polygon class="cls-6" points="762.426 525.248 899.036 525.248 886.568 546.176 745.845 546.176 762.426 525.248"/><polygon class="cls-7" points="899.036 525.248 1035.647 525.248 1027.291 546.176 886.568 546.176 899.036 525.248"/><polygon class="cls-8" points="1035.647 525.248 1172.258 525.248 1168.014 546.176 1027.291 546.176 1035.647 525.248"/><polygon class="cls-9" points="1172.258 525.248 1308.868 525.248 1308.737 546.176 1168.014 546.176 1172.258 525.248"/><polygon class="cls-10" points="1308.868 525.248 1445.479 525.248 1449.46 546.176 1308.737 546.176 1308.868 525.248"/><polygon class="cls-11" points="1445.479 525.248 1582.09 525.248 1590.183 546.176 1449.46 546.176 1445.479 525.248"/><polygon class="cls-12" points="1582.09 525.248 1718.7 525.248 1730.907 546.176 1590.183 546.176 1582.09 525.248"/><polygon class="cls-13" points="1718.7 525.248 1855.311 525.248 1871.63 546.176 1730.907 546.176 1718.7 525.248"/><polygon class="cls-14" points="1855.311 525.248 1991.922 525.248 2012.353 546.176 1871.63 546.176 1855.311 525.248"/><polygon class="cls-15" points="1991.922 525.248 2128.532 525.248 2153.076 546.176 2012.353 546.176 1991.922 525.248"/><polygon class="cls-16" points="464.177 546.363 604.937 546.363 575.707 575.925 429.138 575.925 464.177 546.363"/><polygon class="cls-17" points="604.937 546.363 745.697 546.363 722.276 575.925 575.707 575.925 604.937 546.363"/><polygon class="cls-18" points="745.697 546.363 886.456 546.363 868.844 575.925 722.276 575.925 745.697 546.363"/><polygon class="cls-19" points="886.456 546.363 1027.216 546.363 1015.413 575.925 868.844 575.925 886.456 546.363"/><polygon class="cls-20" points="1027.216 546.363 1167.976 546.363 1161.982 575.925 1015.413 575.925 1027.216 546.363"/><polygon class="cls-21" points="1167.976 546.363 1308.736 546.363 1308.551 575.925 1161.982 575.925 1167.976 546.363"/><polygon class="cls-22" points="1308.736 546.363 1449.496 546.363 1455.12 575.925 1308.551 575.925 1308.736 546.363"/><polygon class="cls-23" points="1449.496 546.363 1590.256 546.363 1601.689 575.925 1455.12 575.925 1449.496 546.363"/><polygon class="cls-24" points="1590.256 546.363 1731.016 546.363 1748.257 575.925 1601.689 575.925 1590.256 546.363"/><polygon class="cls-25" points="1731.016 546.363 1871.776 546.363 1894.826 575.925 1748.257 575.925 1731.016 546.363"/><polygon class="cls-26" points="1871.776 546.363 2012.536 546.363 2041.395 575.925 1894.826 575.925 1871.776 546.363"/><polygon class="cls-27" points="2012.536 546.363 2153.295 546.363 2187.964 575.925 2041.395 575.925 2012.536 546.363"/><polygon class="cls-28" points="503.387 513.282 637.646 513.282 546.477 605.486 394.099 605.486 503.387 513.282"/><polygon class="cls-29" points="637.646 513.282 771.906 513.282 698.855 605.486 546.477 605.486 637.646 513.282"/><polygon class="cls-30" points="771.906 513.282 906.165 513.282 851.232 605.486 698.855 605.486 771.906 513.282"/><polygon class="cls-31" points="906.165 513.282 1040.425 513.282 1003.61 605.486 851.232 605.486 906.165 513.282"/><polygon class="cls-32" points="1040.425 513.282 1174.684 513.282 1155.988 605.486 1003.61 605.486 1040.425 513.282"/><polygon class="cls-33" points="1174.684 513.282 1308.943 513.282 1308.366 605.486 1155.988 605.486 1174.684 513.282"/><polygon class="cls-34" points="1308.943 513.282 1443.203 513.282 1460.744 605.486 1308.366 605.486 1308.943 513.282"/><polygon class="cls-35" points="1443.203 513.282 1577.462 513.282 1613.121 605.486 1460.744 605.486 1443.203 513.282"/><polygon class="cls-36" points="1577.462 513.282 1711.722 513.282 1765.499 605.486 1613.121 605.486 1577.462 513.282"/><polygon class="cls-37" points="1711.722 513.282 1845.981 513.282 1917.877 605.486 1765.499 605.486 1711.722 513.282"/><polygon class="cls-38" points="1845.981 513.282 1980.24 513.282 2070.255 605.486 1917.877 605.486 1845.981 513.282"/><polygon class="cls-39" points="1980.24 513.282 2114.5 513.282 2222.633 605.486 2070.255 605.486 1980.24 513.282"/><polygon class="cls-40" points="394.099 605.486 546.477 605.486 515.159 637.16 356.557 637.16 394.099 605.486"/><polygon class="cls-41" points="546.477 605.486 698.855 605.486 673.761 637.16 515.159 637.16 546.477 605.486"/><polygon class="cls-42" points="698.855 605.486 851.232 605.486 832.362 637.16 673.761 637.16 698.855 605.486"/><polygon class="cls-43" points="851.232 605.486 1003.61 605.486 990.964 637.16 832.362 637.16 851.232 605.486"/><polygon class="cls-44" points="1003.61 605.486 1155.988 605.486 1149.566 637.16 990.964 637.16 1003.61 605.486"/><polygon class="cls-45" points="1155.988 605.486 1308.366 605.486 1308.167 637.16 1149.566 637.16 1155.988 605.486"/><polygon class="cls-46" points="1308.366 605.486 1460.744 605.486 1466.769 637.16 1308.167 637.16 1308.366 605.486"/><polygon class="cls-47" points="1460.744 605.486 1613.121 605.486 1625.371 637.16 1466.769 637.16 1460.744 605.486"/><polygon class="cls-48" points="1613.121 605.486 1765.499 605.486 1783.972 637.16 1625.371 637.16 1613.121 605.486"/><polygon class="cls-49" points="1765.499 605.486 1917.877 605.486 1942.574 637.16 1783.972 637.16 1765.499 605.486"/><polygon class="cls-50" points="1917.877 605.486 2070.255 605.486 2101.176 637.16 1942.574 637.16 1917.877 605.486"/><polygon class="cls-51" points="2070.255 605.486 2222.633 605.486 2259.777 637.16 2101.176 637.16 2070.255 605.486"/><polygon class="cls-52" points="356.557 637.16 515.159 637.16 481.753 670.944 316.513 670.944 356.557 637.16"/><polygon class="cls-53" points="515.159 637.16 673.761 637.16 646.994 670.944 481.753 670.944 515.159 637.16"/><polygon class="cls-54" points="673.761 637.16 832.362 637.16 812.234 670.944 646.994 670.944 673.761 637.16"/><polygon class="cls-55" points="832.362 637.16 990.964 637.16 977.475 670.944 812.234 670.944 832.362 637.16"/><polygon class="cls-56" points="990.964 637.16 1149.566 637.16 1142.715 670.944 977.475 670.944 990.964 637.16"/><polygon class="cls-57" points="1149.566 637.16 1308.167 637.16 1307.956 670.944 1142.715 670.944 1149.566 637.16"/><polygon class="cls-58" points="1308.167 637.16 1466.769 637.16 1473.196 670.944 1307.956 670.944 1308.167 637.16"/><polygon class="cls-59" points="1466.769 637.16 1625.371 637.16 1638.437 670.944 1473.196 670.944 1466.769 637.16"/><polygon class="cls-60" points="1625.371 637.16 1783.972 637.16 1803.677 670.944 1638.437 670.944 1625.371 637.16"/><polygon class="cls-61" points="1783.972 637.16 1942.574 637.16 1968.918 670.944 1803.677 670.944 1783.972 637.16"/><polygon class="cls-62" points="1942.574 637.16 2101.176 637.16 2134.158 670.944 1968.918 670.944 1942.574 637.16"/><polygon class="cls-63" points="2101.176 637.16 2259.777 637.16 2299.399 670.944 2134.158 670.944 2101.176 637.16"/><polygon class="cls-64" points="316.513 670.944 481.753 670.944 439.996 713.175 266.457 713.175 316.513 670.944"/><polygon class="cls-65" points="481.753 670.944 646.994 670.944 613.535 713.175 439.996 713.175 481.753 670.944"/><polygon class="cls-66" points="646.994 670.944 812.234 670.944 787.074 713.175 613.535 713.175 646.994 670.944"/><polygon class="cls-67" points="812.234 670.944 977.475 670.944 960.613 713.175 787.074 713.175 812.234 670.944"/><polygon class="cls-68" points="977.475 670.944 1142.715 670.944 1134.152 713.175 960.613 713.175 977.475 670.944"/><polygon class="cls-69" points="1142.715 670.944 1307.956 670.944 1307.691 713.175 1134.152 713.175 1142.715 670.944"/><polygon class="cls-70" points="1307.956 670.944 1473.196 670.944 1481.23 713.175 1307.691 713.175 1307.956 670.944"/><polygon class="cls-71" points="1473.196 670.944 1638.437 670.944 1654.769 713.175 1481.23 713.175 1473.196 670.944"/><polygon class="cls-72" points="1638.437 670.944 1803.677 670.944 1828.308 713.175 1654.769 713.175 1638.437 670.944"/><polygon class="cls-73" points="1803.677 670.944 1968.918 670.944 2001.847 713.175 1828.308 713.175 1803.677 670.944"/><polygon class="cls-74" points="1968.918 670.944 2134.158 670.944 2175.386 713.175 2001.847 713.175 1968.918 670.944"/><polygon class="cls-75" points="2134.158 670.944 2299.399 670.944 2348.925 713.175 2175.386 713.175 2134.158 670.944"/><polygon class="cls-76" points="266.457 713.175 439.996 713.175 398.239 755.406 216.402 755.406 266.457 713.175"/><polygon class="cls-77" points="439.996 713.175 613.535 713.175 580.077 755.406 398.239 755.406 439.996 713.175"/><polygon class="cls-78" points="613.535 713.175 787.074 713.175 761.914 755.406 580.077 755.406 613.535 713.175"/><polygon class="cls-79" points="787.074 713.175 960.613 713.175 943.752 755.406 761.914 755.406 787.074 713.175"/><polygon class="cls-80" points="960.613 713.175 1134.152 713.175 1125.589 755.406 943.752 755.406 960.613 713.175"/><polygon class="cls-81" points="1134.152 713.175 1307.691 713.175 1307.427 755.406 1125.589 755.406 1134.152 713.175"/><polygon class="cls-82" points="1307.691 713.175 1481.23 713.175 1489.264 755.406 1307.427 755.406 1307.691 713.175"/><polygon class="cls-83" points="1481.23 713.175 1654.769 713.175 1671.102 755.406 1489.264 755.406 1481.23 713.175"/><polygon class="cls-84" points="1654.769 713.175 1828.308 713.175 1852.939 755.406 1671.102 755.406 1654.769 713.175"/><polygon class="cls-85" points="1828.308 713.175 2001.847 713.175 2034.777 755.406 1852.939 755.406 1828.308 713.175"/><polygon class="cls-86" points="2001.847 713.175 2175.386 713.175 2216.614 755.406 2034.777 755.406 2001.847 713.175"/><polygon class="cls-87" points="2175.386 713.175 2348.925 713.175 2398.452 755.406 2216.614 755.406 2175.386 713.175"/><polygon class="cls-88" points="216.402 755.406 398.239 755.406 346.043 808.195 153.832 808.195 216.402 755.406"/><polygon class="cls-89" points="398.239 755.406 580.077 755.406 538.254 808.195 346.043 808.195 398.239 755.406"/><polygon class="cls-90" points="580.077 755.406 761.914 755.406 730.464 808.195 538.254 808.195 580.077 755.406"/><polygon class="cls-91" points="761.914 755.406 943.752 755.406 922.675 808.195 730.464 808.195 761.914 755.406"/><polygon class="cls-92" points="943.752 755.406 1125.589 755.406 1114.885 808.195 922.675 808.195 943.752 755.406"/><polygon class="cls-93" points="1125.589 755.406 1307.427 755.406 1307.096 808.195 1114.885 808.195 1125.589 755.406"/><polygon class="cls-94" points="1307.427 755.406 1489.264 755.406 1499.307 808.195 1307.096 808.195 1307.427 755.406"/><polygon class="cls-95" points="1489.264 755.406 1671.102 755.406 1691.517 808.195 1499.307 808.195 1489.264 755.406"/><polygon class="cls-96" points="1671.102 755.406 1852.939 755.406 1883.728 808.195 1691.517 808.195 1671.102 755.406"/><polygon class="cls-97" points="1852.939 755.406 2034.777 755.406 2075.938 808.195 1883.728 808.195 1852.939 755.406"/><polygon class="cls-98" points="2034.777 755.406 2216.614 755.406 2268.149 808.195 2075.938 808.195 2034.777 755.406"/><polygon class="cls-99" points="2216.614 755.406 2398.452 755.406 2460.36 808.195 2268.149 808.195 2216.614 755.406"/><polygon class="cls-100" points="153.832 808.195 346.043 808.195 289.671 865.207 86.257 865.207 153.832 808.195"/><polygon class="cls-101" points="346.043 808.195 538.254 808.195 493.085 865.207 289.671 865.207 346.043 808.195"/><polygon class="cls-102" points="538.254 808.195 730.464 808.195 696.498 865.207 493.085 865.207 538.254 808.195"/><polygon class="cls-103" points="730.464 808.195 922.675 808.195 899.912 865.207 696.498 865.207 730.464 808.195"/><polygon class="cls-104" points="922.675 808.195 1114.885 808.195 1103.325 865.207 899.912 865.207 922.675 808.195"/><polygon class="cls-105" points="1114.885 808.195 1307.096 808.195 1306.739 865.207 1103.325 865.207 1114.885 808.195"/><polygon class="cls-106" points="1307.096 808.195 1499.307 808.195 1510.152 865.207 1306.739 865.207 1307.096 808.195"/><polygon class="cls-107" points="1499.307 808.195 1691.517 808.195 1713.566 865.207 1510.152 865.207 1499.307 808.195"/><polygon class="cls-108" points="1691.517 808.195 1883.728 808.195 1916.98 865.207 1713.566 865.207 1691.517 808.195"/><polygon class="cls-109" points="1883.728 808.195 2075.938 808.195 2120.393 865.207 1916.98 865.207 1883.728 808.195"/><polygon class="cls-110" points="2075.938 808.195 2268.149 808.195 2323.807 865.207 2120.393 865.207 2075.938 808.195"/><polygon class="cls-111" points="2268.149 808.195 2460.36 808.195 2527.22 865.207 2323.807 865.207 2268.149 808.195"/><polygon class="cls-112" points="86.257 865.207 289.671 865.207 218.684 936.999 1.163 936.999 86.257 865.207"/><polygon class="cls-113" points="289.671 865.207 493.085 865.207 436.205 936.999 218.684 936.999 289.671 865.207"/><polygon class="cls-114" points="493.085 865.207 696.498 865.207 653.726 936.999 436.205 936.999 493.085 865.207"/><polygon class="cls-115" points="696.498 865.207 899.912 865.207 871.247 936.999 653.726 936.999 696.498 865.207"/><polygon class="cls-116" points="899.912 865.207 1103.325 865.207 1088.768 936.999 871.247 936.999 899.912 865.207"/><polygon class="cls-117" points="1103.325 865.207 1306.739 865.207 1306.289 936.999 1088.768 936.999 1103.325 865.207"/><polygon class="cls-118" points="1306.739 865.207 1510.152 865.207 1523.81 936.999 1306.289 936.999 1306.739 865.207"/><polygon class="cls-119" points="1510.152 865.207 1713.566 865.207 1741.331 936.999 1523.81 936.999 1510.152 865.207"/><polygon class="cls-120" points="1713.566 865.207 1916.98 865.207 1958.852 936.999 1741.331 936.999 1713.566 865.207"/><polygon class="cls-121" points="1916.98 865.207 2120.393 865.207 2176.373 936.999 1958.852 936.999 1916.98 865.207"/><polygon class="cls-122" points="2120.393 865.207 2323.807 865.207 2393.894 936.999 2176.373 936.999 2120.393 865.207"/><polygon class="cls-123" points="2323.807 865.207 2527.22 865.207 2611.415 936.999 2393.894 936.999 2323.807 865.207"/></g></svg>