<?xml version="1.0" encoding="utf-8"?>
<!-- Generator: Adobe Illustrator 19.1.0, SVG Export Plug-In . SVG Version: 6.00 Build 0)  -->
<!DOCTYPE svg PUBLIC "-//W3C//DTD SVG 1.1//EN" "http://www.w3.org/Graphics/SVG/1.1/DTD/svg11.dtd">
<svg version="1.1" id="Layer_1" xmlns="http://www.w3.org/2000/svg" xmlns:xlink="http://www.w3.org/1999/xlink" x="0px" y="0px"
	 viewBox="2 -2 324 324" style="enable-background:new 2 -2 324 324;" xml:space="preserve">
<style type="text/css">
	.st0{fill:#0E95D4;stroke:#FFFFFF;stroke-width:4;stroke-miterlimit:10;}
	.st1{fill:#0E95D4;stroke:#FFFFFF;stroke-width:6;stroke-miterlimit:10;}
	.st2{fill:#0E95D4;stroke:#FFFFFF;stroke-width:2;stroke-miterlimit:10;}
	.st3{fill:none;stroke:#FFFFFF;stroke-width:2;stroke-linecap:round;stroke-linejoin:round;}
	.st4{fill:none;stroke:#FFFFFF;stroke-width:6;stroke-linecap:round;stroke-miterlimit:10;}
	.st5{fill:#0E95D4;stroke:#FFD946;stroke-width:6;stroke-miterlimit:10;}
	.st6{fill:none;stroke:#FFD946;stroke-width:9;stroke-linecap:round;stroke-miterlimit:10;}
	.st7{fill:none;stroke:#FFFFFF;stroke-width:16;stroke-linecap:round;stroke-miterlimit:10;}
	.st8{fill:#0E95D4;stroke:#FFFFFF;stroke-width:6;stroke-linecap:round;stroke-miterlimit:10;}
</style>
<g id="Background">
	<circle class="st0" cx="164" cy="160" r="160"/>
</g>
<g id="Hand_Below">
	<path class="st1" d="M178.4,198.2l-10.8,10.1c-1,1-1.7,2.2-2,3.6l-2.1,9.4c-2.6,11.6-19.5,10-19.9-1.9l-0.4-13.2
		c-0.2-7.2,4.3-14.4,9.1-19.8l11.6-11.1L178.4,198.2z"/>
</g>
<g id="iPhone">
	<path id="phone" class="st1" d="M210.6,215.8h-72c-5.5,0-10-4.5-10-10v-150c0-5.5,4.5-10,10-10h72c5.5,0,10,4.5,10,10v150
		C220.6,211.4,216.1,215.8,210.6,215.8z"/>
	<path id="screen" class="st2" d="M203.6,186.8h-58c-2.2,0-4-1.8-4-4v-112c0-2.2,1.8-4,4-4h58c2.2,0,4,1.8,4,4v112
		C207.6,185,205.8,186.8,203.6,186.8z"/>
	<g id="scribble">
		<g>
			<path class="st3" d="M142.2,68.8c0.1,0.1,3.3-2.1,3.3-1.9c0.4,0.6-4.3,15-3.9,15.6c0.5,0.9,26.3-16.7,27-15.6
				c0.6,1.1-27.9,28.4-27,30c1.2,2,51.1-31.6,52-30c1.1,1.9-53.1,40.5-52,42.3c1.6,2.7,64.5-40.6,65.9-38.1s-67.5,50.7-65.9,53.3
				c1.4,2.4,64.3-40.9,65.9-38.1c1.7,2.9-67.2,48.4-65.9,50.6c1.4,2.4,64.3-40.9,65.9-38.1c1.9,3.4-67.8,48.3-65.9,51.5
				c1.4,2.3,64.3-40.9,65.9-38.1c1.6,2.8-67.3,50.5-65.9,52.8c1.2,2.1,64.4-40.7,65.9-38.1c1.8,3.1-67.4,48.7-65.9,51.3
				c1.6,2.8,64.5-40.6,65.9-38.1s-54.7,43.5-52.9,46.5c1.2,2.1,51.5-32.9,52.9-30.5c0.9,1.5-27.2,29.5-26.6,30.5
				c0.7,1.1,25.9-16.4,26.6-15.3c0.3,0.5-4.2,14.8-3.9,15.3c0.1,0.1,3.3-2.1,3.3-1.9"/>
		</g>
	</g>
	<line id="speaker" class="st4" x1="167" y1="58" x2="182" y2="58"/>
	<circle id="touch" class="st5" cx="174.6" cy="146.8" r="16"/>
	<g id="light">
		<path id="XMLID_23_" class="st6" d="M82.8,85.3c6.3,5.5,16.2,12.9,22.8,17.1"/>
		<path id="XMLID_22_" class="st6" d="M64.2,132.3c7.7,0.5,21.4,2.1,28.9,3.6"/>
		<path id="XMLID_2_" class="st6" d="M71.5,182.3c6.7-2.5,18.2-7.9,24.5-10.9"/>
	</g>
	<line class="st7" x1="174.5" y1="201" x2="174.5" y2="201"/>
</g>
<g id="Hand_Above">
	<path class="st8" d="M263.8,242.8l-1.4-50.8c-0.3-9.2-2.5-18.4-6.6-26.7l-15.6-31.7c-2.7-5.5-6.9-10.3-12-13.7l-6.5-4.4l1,57.3
		l-4.1,13.6c-0.4,1.4-2.4,1.5-2.9,0.2l-7.1-16.1c-1.9-4.2-5.3-7.6-9.6-9.2l-12.8-9.2c-10.5-7.6-24,4.5-17.6,15.8l13.8,24.1
		c0.6,2.6,1,5.2,1.1,7.8l1.2,30.3c0.4,10.9,4.2,21.6,10.8,30.2l0,0c3.7,4.9,8.4,8.9,13.9,11.8l4,2.1"/>
</g>
</svg>
