<?xml version="1.0" encoding="utf-8"?>
<!-- Generator: Adobe Illustrator 19.1.0, SVG Export Plug-In . SVG Version: 6.00 Build 0)  -->
<!DOCTYPE svg PUBLIC "-//W3C//DTD SVG 1.1//EN" "http://www.w3.org/Graphics/SVG/1.1/DTD/svg11.dtd">
<svg version="1.1" xmlns="http://www.w3.org/2000/svg" xmlns:xlink="http://www.w3.org/1999/xlink" x="0px" y="0px"
	 viewBox="0 0 400 400" style="enable-background:new 0 0 400 400;" xml:space="preserve">
<style type="text/css">
	.st0{display:none;}
	.st1{display:inline;fill:#0E95D4;}
	.st2{fill:none;stroke:#FFFFFF;stroke-width:12;stroke-miterlimit:10;}
	.st3{fill:#FFFFFF;}
</style>
<g id="Background" class="st0">
	<rect class="st1" width="400" height="400"/>
</g>
<g id="Layer_4">
	<circle id="Circle_2_" class="st2" cx="200" cy="200" r="194"/>
	<path class="st3" d="M157.6,142.2v67.4c6.2-5.8,12.6-10,19.2-12.7c6.6-2.7,14.2-4.1,22.8-4.1c8.9,0,16.9,1.6,24.1,4.9
		c7.2,3.2,13.3,7.7,18.5,13.3c5.1,5.6,9.1,12.2,11.8,19.9c2.8,7.7,4.1,15.9,4.1,24.7c0,9.9-1.5,19-4.5,27c-3,8.1-7.1,14.9-12.5,20.6
		c-5.3,5.7-11.5,10.1-18.7,13.2c-7.1,3.1-14.8,4.6-23,4.6c-4,0-7.9-0.4-11.9-1.2c-4-0.8-7.8-1.9-11.5-3.4c-3.7-1.5-7.1-3.4-10.3-5.6
		c-3.2-2.2-5.9-4.8-8.3-7.7l-0.1,15.1H108v-20.4h20.7V162.5h-21.3v-20.3H157.6z M228.1,257.5c0-6.1-0.8-11.7-2.5-16.8
		c-1.7-5.1-4.1-9.6-7.2-13.3c-3.1-3.8-7-6.7-11.5-8.8c-4.5-2.1-9.7-3.2-15.5-3.2c-4.5,0-8.7,0.7-12.5,2.2c-3.8,1.5-7.2,3.2-10.1,5.2
		c-2.9,2-5.3,4-7.2,5.9c-1.9,2-3.2,3.5-3.9,4.4v48.4c0.8,0.9,2.1,2.2,4.1,4.1c2,1.9,4.4,3.8,7.4,5.6c2.9,1.9,6.3,3.5,10.1,4.9
		c3.8,1.4,7.9,2.1,12.5,2.1c5.8,0,10.9-1,15.4-3c4.5-2,8.3-4.8,11.4-8.4c3.1-3.6,5.5-7.9,7.2-13C227.3,269,228.1,263.5,228.1,257.5z
		"/>
</g>
</svg>
