<svg xmlns="http://www.w3.org/2000/svg" viewBox="0 0 25.88 20.42"><defs><style>.cls-1{fill:#fffaf1;}</style></defs><g id="Layer_2" data-name="Layer 2"><g id="Layer_1-2" data-name="Layer 1"><path class="cls-1" d="M13,19.88a30.39,30.39,0,0,1-8.09-4.44,10.48,10.48,0,0,1-3.31-3.32C0,9.14-.26,3.62,3.45,1.39,6.25-.29,10.4.46,13,3.52A7.29,7.29,0,0,1,21.47,1a7.14,7.14,0,0,1,3.77,4.77A7.94,7.94,0,0,1,24,11.38a13.89,13.89,0,0,1-3.68,4.06A29.09,29.09,0,0,1,13,19.88Z"/><path class="cls-1" d="M13,20.42l-.18-.07a30.6,30.6,0,0,1-8.22-4.51,10.87,10.87,0,0,1-3.45-3.49c-1.7-3.14-1.95-9,2-11.39,3-1.79,7.1-1,9.81,1.8A7.67,7.67,0,0,1,21.67.56a7.72,7.72,0,0,1,4.06,5.13,8.48,8.48,0,0,1-1.25,5.92,15.15,15.15,0,0,1-3.8,4.22,29.64,29.64,0,0,1-7.48,4.51ZM6.76,1a5.82,5.82,0,0,0-3,.82C.26,3.89.54,9.08,2.05,11.88c.65,1.21,1.49,1.88,3.17,3.17A30.13,30.13,0,0,0,13,19.34a28.7,28.7,0,0,0,7.05-4.28,14.3,14.3,0,0,0,3.55-3.92A7.47,7.47,0,0,0,24.75,5.9a6.6,6.6,0,0,0-3.48-4.42A6.77,6.77,0,0,0,13.4,3.83L13,4.31l-.39-.47A7.87,7.87,0,0,0,6.76,1Z"/></g></g></svg>