<svg xmlns="http://www.w3.org/2000/svg" viewBox="0 0 28.08 20.21"><defs><style>.cls-1{fill:none;stroke:#fffaf1;stroke-linecap:round;stroke-miterlimit:10;stroke-width:3px;}.cls-2{fill:#fffaf1;}</style></defs><g id="Layer_2" data-name="Layer 2"><g id="Layer_1-2" data-name="Layer 1"><path class="cls-1" d="M22.05,3.42H8.59a7.1,7.1,0,0,0-7.09,7.1"/><path class="cls-2" d="M23.67,1.22,22.07.3a2.2,2.2,0,0,0-3.3,1.9V4A2.2,2.2,0,0,0,22.07,6L23.67,5A2.2,2.2,0,0,0,23.67,1.22Z"/><path class="cls-1" d="M6,16.79H19.49A7.09,7.09,0,0,0,26.58,9.7"/><path class="cls-2" d="M4.42,19,6,19.91A2.2,2.2,0,0,0,9.31,18V16.17A2.2,2.2,0,0,0,6,14.26l-1.59.93A2.19,2.19,0,0,0,4.42,19Z"/></g></g></svg>