<svg xmlns="http://www.w3.org/2000/svg" viewBox="0 0 31.14 18.74"><defs><style>.cls-1{fill:#fffaf1;}.cls-2{fill:none;stroke:#fffaf1;stroke-linecap:round;stroke-miterlimit:10;stroke-width:3px;}</style></defs><g id="Layer_2" data-name="Layer 2"><g id="Layer_1-2" data-name="Layer 1"><path class="cls-1" d="M29.58,5,28,6A2.2,2.2,0,0,1,24.69,4V2.2A2.19,2.19,0,0,1,28,.3l1.6.92A2.2,2.2,0,0,1,29.58,5Z"/><path class="cls-2" d="M25.24,15.47c-.38,0-.93,0-1.59,0A14.56,14.56,0,0,1,20,15.05a9.27,9.27,0,0,1-4.75-3.85c-1.33-1.78-.84-2-2.11-3.85a13.4,13.4,0,0,0-5.28-4.7A12.79,12.79,0,0,0,2,1.79"/><path class="cls-1" d="M30,13.71l-1.59-.92a2.2,2.2,0,0,0-3.3,1.9v1.85a2.2,2.2,0,0,0,3.3,1.9L30,17.52A2.2,2.2,0,0,0,30,13.71Z"/><path class="cls-2" d="M24.72,3.35c-.38,0-.93,0-1.58,0a15.1,15.1,0,0,0-3.7.41,9.12,9.12,0,0,0-4.75,3.7c-1.33,1.7-.84,1.87-2.11,3.69a13.39,13.39,0,0,1-5.27,4.52,13.31,13.31,0,0,1-5.81.82"/></g></g></svg>