<?xml version="1.0" encoding="utf-8"?>
<!-- Generator: Adobe Illustrator 22.1.0, SVG Export Plug-In . SVG Version: 6.00 Build 0)  -->
<svg version="1.1" id="Layer_1" xmlns="http://www.w3.org/2000/svg" xmlns:xlink="http://www.w3.org/1999/xlink" x="0px" y="0px"
	 viewBox="0 0 587.4 624.9" style="enable-background:new 0 0 587.4 624.9;" xml:space="preserve">
<style type="text/css">
	.st0{fill:#34BAC8;}
	.st1{fill:#EC5760;}
	.st2{fill:#F6C55E;}
</style>
<g>
	<path class="st0" d="M138.3,51.2h34.8v211c11.8-22.3,55.7-78,137.9-78c101.7,0,172.7,79.4,172.7,190.8
		c0,110-73.1,188.7-176.2,188.7c-87.1,0-126.1-62-134.4-75.9v66.9h-34.8V51.2z M308.9,531c77.3,0,138.6-61.3,138.6-156
		c0-92.6-58.5-158.1-137.2-158.1c-75.2,0-138.6,57.8-138.6,158.1C171.7,460,224.7,531,308.9,531z"/>
</g>
<g>
	<path class="st1" d="M406.3,515.4H352l42.1-251.8h58.2l-13.9,82.9c4.5-4.5,24-18.5,51.9-18.5c46,0,72.1,32,72.1,78.3
		c0,65.5-47.7,113.5-107.3,113.5c-26.8,0-42.1-12.9-46.3-18.8L406.3,515.4z M455.4,469.1c26.8,0,47.7-21.6,47.7-52.9
		c0-21.9-12.2-36.9-32.7-36.9c-26.5,0-47.7,20.5-47.7,53.3C422.7,452.8,433.8,469.1,455.4,469.1z"/>
</g>
<g>
	<path class="st2" d="M136.4,267.5c29.1-43.6,105.7-92,193.5-54.7c89.7,38.1,122.7,136.9,79.3,238.8
		c-42.8,100.6-135.4,147.5-227,108.6C89.3,520.7,78.5,426.8,89.5,377.7l-48,112.8l-6.4-2.7l197-463.4l6.4,2.7L136.4,267.5z
		 M184.9,553.8c82.7,35.2,175.4-4.9,217.9-104.9c41.7-98.1,8.3-194-75.7-229.7c-78.8-33.5-171-0.1-216,105.7
		C73,414.6,96.5,516.2,184.9,553.8z"/>
</g>
</svg>
