<?xml version="1.0" standalone="no"?>
<!DOCTYPE svg PUBLIC "-//W3C//DTD SVG 20010904//EN"
 "http://www.w3.org/TR/2001/REC-SVG-20010904/DTD/svg10.dtd">
<svg version="1.0" xmlns="http://www.w3.org/2000/svg"
 width="658.000000pt" height="658.000000pt" viewBox="0 0 658.000000 658.000000"
 preserveAspectRatio="xMidYMid meet">
<metadata>
Created by potrace 1.11, written by Peter Selinger 2001-2013
</metadata>
<g transform="translate(0.000000,658.000000) scale(0.100000,-0.100000)"
fill="#000000" stroke="none">
<path d="M1575 6341 c-3 -5 -2 -12 3 -15 5 -3 9 1 9 9 0 17 -3 19 -12 6z"/>
<path d="M2590 6340 c0 -5 5 -10 11 -10 5 0 7 5 4 10 -3 6 -8 10 -11 10 -2 0
-4 -4 -4 -10z"/>
<path d="M1915 6330 c-7 -12 12 -40 26 -40 5 0 9 5 9 10 0 6 -6 9 -12 8 -7 -2
-12 5 -12 15 2 19 -2 22 -11 7z"/>
<path d="M2549 6323 c-13 -16 -12 -17 4 -4 16 13 21 21 13 21 -2 0 -10 -8 -17
-17z"/>
<path d="M1300 6320 c-12 -7 -10 -9 7 -7 12 0 19 5 17 9 -6 10 -6 10 -24 -2z"/>
<path d="M1396 6322 c-2 -4 -1 -14 4 -22 7 -11 9 -9 7 8 -1 24 -3 26 -11 14z"/>
<path d="M1670 6321 c0 -6 4 -13 10 -16 6 -3 7 1 4 9 -7 18 -14 21 -14 7z"/>
<path d="M1799 6328 c-5 -18 -6 -38 -1 -34 7 8 12 36 6 36 -2 0 -4 -1 -5 -2z"/>
<path d="M1830 6321 c0 -6 4 -13 10 -16 6 -3 7 1 4 9 -7 18 -14 21 -14 7z"/>
<path d="M2030 6319 c0 -5 5 -7 10 -4 6 3 10 8 10 11 0 2 -4 4 -10 4 -5 0 -10
-5 -10 -11z"/>
<path d="M2186 6322 c-3 -5 1 -9 9 -9 8 0 15 4 15 9 0 4 -4 8 -9 8 -6 0 -12
-4 -15 -8z"/>
<path d="M1536 6306 c3 -9 10 -16 15 -16 5 0 9 -4 9 -10 0 -12 -22 -9 -31 4
-4 5 -13 5 -20 0 -18 -11 -60 -13 -53 -2 6 9 -32 5 -42 -5 -13 -12 -24 -7 -24
11 0 10 -3 13 -8 6 -9 -15 -52 -28 -52 -16 0 5 -7 9 -15 9 -8 0 -12 -4 -9 -9
3 -4 0 -8 -5 -8 -6 0 -11 6 -11 13 0 9 -3 8 -9 -2 -7 -11 -10 -11 -15 0 -5 11
-7 11 -12 1 -3 -6 -10 -10 -15 -6 -10 6 -10 9 -11 -143 0 -62 -5 -110 -9 -107
-5 3 -9 0 -9 -5 0 -6 4 -11 9 -11 5 0 9 -22 9 -50 1 -32 -3 -50 -11 -50 -8 0
-8 -3 -2 -8 14 -10 19 -46 6 -37 -6 3 -11 1 -11 -4 0 -6 7 -11 16 -11 8 0 13
-4 9 -10 -3 -5 -13 -7 -23 -4 -14 5 -14 4 -2 -4 15 -11 28 -78 12 -68 -5 3 -9
-1 -9 -9 0 -8 4 -12 7 -10 4 3 8 -6 8 -20 0 -14 -4 -22 -9 -19 -5 3 -9 0 -9
-5 0 -6 7 -11 16 -11 8 0 13 -4 9 -10 -3 -5 -13 -7 -23 -4 -15 5 -15 4 -2 -5
20 -12 26 -81 8 -81 -8 0 -9 -3 -3 -8 14 -10 19 -46 6 -37 -6 3 -11 1 -11 -4
0 -6 7 -11 16 -11 8 0 13 -4 9 -10 -3 -5 -13 -7 -23 -4 -14 5 -14 4 -2 -4 15
-11 28 -78 12 -68 -5 3 -9 -1 -9 -9 0 -8 4 -12 7 -10 4 3 8 -6 8 -20 0 -14 -4
-22 -9 -19 -5 3 -9 0 -9 -5 0 -6 7 -11 16 -11 8 0 13 -4 9 -10 -3 -5 -13 -7
-23 -4 -14 5 -14 4 -3 -4 19 -13 26 -56 9 -46 -10 6 -11 4 0 -7 6 -7 12 -26
12 -41 0 -16 -6 -28 -12 -28 -8 0 -9 -3 -3 -8 16 -11 19 -45 3 -37 -10 6 -11
5 0 -6 15 -16 16 -43 1 -33 -6 3 -4 -5 6 -19 12 -19 13 -27 4 -33 -8 -5 -9 -3
-4 6 5 9 4 11 -4 6 -7 -5 -9 -12 -3 -19 15 -20 15 -97 0 -97 -8 0 -9 -3 -3 -8
16 -11 19 -45 3 -37 -10 6 -11 5 0 -6 15 -16 16 -43 1 -33 -6 3 -4 -5 6 -19
12 -19 13 -27 4 -33 -8 -5 -9 -3 -4 6 5 9 4 11 -4 6 -7 -5 -9 -12 -3 -19 15
-20 15 -97 0 -97 -8 0 -9 -3 -3 -8 16 -11 19 -45 3 -37 -10 6 -11 5 0 -6 15
-16 16 -43 1 -33 -6 3 -4 -5 6 -19 12 -19 13 -27 4 -33 -8 -5 -10 -3 -4 7 5 8
4 11 0 6 -13 -11 -16 -45 -5 -52 6 -3 10 -17 10 -31 0 -14 -4 -23 -8 -20 -5 3
-9 -1 -9 -9 0 -8 4 -12 7 -10 4 3 8 -6 8 -20 0 -15 -5 -22 -12 -18 -6 3 -6 0
2 -8 15 -16 16 -43 1 -33 -6 3 -4 -5 6 -19 12 -19 13 -27 4 -33 -8 -5 -9 -3
-4 6 5 9 4 11 -4 6 -7 -5 -9 -12 -3 -19 15 -20 15 -97 0 -97 -8 0 -9 -3 -3 -8
16 -11 19 -45 3 -37 -10 6 -11 5 0 -6 15 -16 16 -43 1 -33 -6 3 -4 -5 6 -19
12 -19 13 -27 4 -33 -8 -5 -9 -3 -4 6 5 9 4 11 -4 6 -7 -5 -9 -12 -3 -19 15
-20 15 -97 0 -97 -8 0 -9 -3 -3 -8 16 -11 19 -45 3 -37 -10 6 -11 5 0 -6 15
-16 16 -43 1 -33 -6 3 -4 -5 6 -19 12 -19 13 -27 4 -33 -8 -5 -9 -3 -4 6 5 9
4 11 -4 6 -7 -5 -9 -12 -3 -19 15 -20 15 -97 0 -97 -8 0 -9 -3 -3 -8 16 -11
19 -45 3 -37 -10 6 -11 5 0 -6 15 -16 16 -43 1 -33 -6 3 -4 -5 6 -19 12 -19
13 -27 4 -33 -8 -5 -10 -3 -4 7 5 8 4 11 0 6 -13 -11 -16 -45 -5 -52 6 -3 10
-17 10 -31 0 -14 -4 -23 -8 -20 -5 3 -9 -1 -9 -9 0 -8 4 -12 7 -10 4 3 8 -6 8
-20 0 -15 -5 -22 -12 -18 -6 3 -6 0 2 -8 15 -16 16 -43 1 -33 -6 3 -4 -5 6
-19 12 -19 13 -27 4 -33 -8 -5 -9 -3 -4 6 5 9 4 11 -4 6 -7 -5 -9 -12 -3 -19
15 -20 15 -97 0 -97 -8 0 -9 -3 -3 -8 16 -11 19 -45 3 -37 -10 6 -11 5 0 -6
15 -16 16 -43 1 -33 -6 3 -4 -5 6 -19 12 -19 13 -27 4 -33 -8 -5 -9 -3 -4 6 5
9 4 11 -4 6 -7 -5 -9 -12 -3 -19 15 -20 15 -97 0 -97 -8 0 -9 -3 -3 -8 16 -11
19 -45 3 -37 -10 6 -11 5 0 -6 15 -16 16 -43 1 -33 -6 3 -4 -5 6 -19 12 -19
13 -27 4 -33 -8 -5 -9 -3 -4 6 5 9 4 11 -4 6 -8 -5 -9 -12 -2 -19 5 -7 8 -27
7 -45 -1 -17 3 -32 8 -32 6 0 2 -7 -8 -15 -11 -8 -15 -15 -10 -15 5 0 10 -9
11 -20 1 -12 -3 -18 -8 -14 -6 3 -5 -3 2 -14 10 -17 10 -23 -1 -36 -11 -14
-10 -16 6 -10 18 5 18 5 2 -9 -19 -15 -25 -32 -8 -22 6 4 10 -12 10 -39 l0
-46 58 0 c33 0 64 -5 71 -12 8 -8 11 -8 8 -2 -4 7 3 12 18 12 14 0 23 -4 20
-8 -2 -3 2 -7 10 -7 8 0 12 5 8 10 -3 5 10 7 31 4 21 -3 36 -1 36 6 0 5 8 3
18 -6 10 -10 23 -17 28 -17 5 0 2 5 -6 10 -11 8 -8 9 13 6 15 -3 27 0 27 6 0
7 4 7 13 -1 8 -6 17 -8 20 -4 4 3 7 0 7 -8 1 -10 4 -9 14 4 9 12 16 14 21 7 3
-5 11 -8 16 -5 5 4 9 0 9 -7 0 -8 3 -9 8 -3 11 16 52 18 52 3 1 -8 5 -7 14 5
8 11 17 14 20 8 4 -5 2 -12 -3 -16 -5 -3 -9 -14 -8 -25 1 -23 12 -16 12 8 0 9
6 16 13 14 8 -1 11 2 7 8 -4 7 6 10 29 8 20 -1 36 -7 36 -13 0 -5 8 -1 17 10
15 20 15 19 10 -5 -5 -22 -5 -23 7 -7 15 20 71 25 60 5 -6 -10 -4 -10 7 0 7 6
21 12 31 12 10 0 18 5 18 11 0 6 7 8 16 5 8 -3 12 -2 9 4 -9 15 54 73 72 66
13 -5 14 -4 3 9 -15 18 0 20 20 3 12 -11 12 -10 1 5 -8 9 -11 21 -7 24 4 4 12
1 17 -7 8 -12 10 -10 6 8 -4 18 -2 22 9 18 9 -3 12 -1 9 4 -3 6 -3 15 1 22 5
8 10 6 15 -8 7 -18 8 -17 8 3 1 30 55 87 75 80 8 -3 18 -2 21 4 4 5 3 9 -2 8
-20 -4 -23 2 -8 18 14 14 18 14 27 2 7 -11 9 -8 5 9 -6 25 2 28 23 10 12 -11
12 -10 1 5 -8 9 -11 21 -7 24 4 4 12 1 17 -7 8 -12 9 -10 4 6 -6 23 17 50 34
39 6 -3 9 0 6 7 -6 14 37 58 54 58 6 0 13 5 17 12 5 7 3 8 -7 3 -8 -5 -1 4 14
18 15 15 33 27 39 27 6 0 9 3 5 6 -9 9 95 114 106 107 6 -3 7 -1 3 5 -5 8 -13
9 -24 3 -28 -15 -138 -9 -134 7 1 8 -2 11 -8 7 -6 -3 -8 -11 -5 -16 4 -5 -1
-9 -10 -9 -10 0 -14 5 -9 13 6 10 4 10 -7 0 -17 -17 -32 -17 -23 0 6 10 4 10
-7 0 -15 -15 -43 -18 -34 -4 3 5 1 13 -5 16 -6 4 -9 1 -8 -6 2 -6 -3 -14 -11
-17 -8 -3 -11 0 -7 7 4 6 2 11 -3 11 -6 0 -11 -4 -11 -10 0 -5 -4 -10 -10 -10
-11 0 -9 27 4 50 7 12 7 13 -5 2 -8 -7 -15 -17 -15 -22 -1 -6 -2 -14 -3 -19
-1 -12 -41 -10 -41 1 0 4 -5 8 -11 8 -5 0 -7 -4 -4 -10 3 -5 -1 -10 -9 -10 -9
0 -16 6 -16 13 0 9 -2 9 -8 1 -7 -12 -92 -15 -92 -4 0 3 5 11 12 18 7 7 8 12
4 12 -4 0 -17 -10 -28 -22 -16 -19 -19 -20 -14 -4 4 10 1 25 -5 32 -7 8 -12
24 -13 36 0 12 -8 23 -16 25 -13 4 -13 3 0 -6 25 -17 5 -22 -26 -6 -19 10 -23
15 -11 15 9 0 17 5 17 11 0 5 -4 8 -9 4 -5 -3 -12 -1 -16 5 -3 5 1 10 9 10 9
0 16 5 16 11 0 5 -5 7 -12 3 -8 -5 -9 -2 -5 9 3 10 3 17 -1 17 -4 0 -7 23 -7
51 0 47 2 50 23 46 28 -5 29 1 0 12 -29 11 -32 51 -4 52 20 0 20 1 2 8 -12 5
-20 18 -20 34 -2 30 -1 31 22 18 14 -7 17 -4 17 15 0 20 -2 22 -11 10 -5 -8
-15 -12 -20 -8 -13 9 -12 105 1 114 6 5 6 8 -2 8 -18 0 -11 40 7 40 13 0 13 2
1 9 -8 5 -15 21 -16 35 -1 27 10 35 18 14 4 -10 6 -10 6 0 1 7 5 10 11 7 6 -3
7 1 3 10 -3 10 -8 13 -12 6 -14 -23 -26 8 -27 70 0 62 1 66 20 62 16 -3 15 -1
-4 7 -23 10 -23 12 -7 21 19 11 23 29 6 29 -5 0 -7 -6 -3 -12 4 -7 4 -10 -1
-6 -14 13 -10 173 5 170 6 -1 10 3 7 10 -2 7 -10 12 -16 10 -6 -1 -11 2 -11 8
0 10 14 14 39 11 8 -2 10 2 5 11 -6 10 -4 10 9 -1 12 -9 17 -10 17 -2 0 7 5 9
11 6 13 -9 6 -16 -18 -19 -10 -2 -18 -9 -19 -17 -3 -40 -4 -42 -17 -30 -10 8
-14 7 -14 -4 0 -8 4 -12 9 -9 5 3 7 0 6 -7 -2 -6 3 -13 10 -14 7 -2 8 -1 2 2
-5 2 -7 9 -4 15 4 7 15 1 27 -13 l19 -24 -16 27 c-19 33 -21 44 -3 30 10 -9
18 -6 31 10 15 17 16 20 3 15 -9 -3 -19 -2 -22 3 -4 6 -2 10 4 10 5 0 16 7 25
15 9 9 17 11 21 5 3 -5 1 -10 -5 -10 -6 0 -8 -5 -4 -11 5 -8 10 -6 18 7 14 24
36 29 36 8 0 -9 -5 -12 -12 -8 -7 5 -8 3 -3 -6 6 -10 13 -7 27 11 11 13 17 19
14 13 -3 -7 1 -14 9 -18 9 -3 12 -12 9 -23 -5 -15 -4 -15 5 -3 6 9 7 18 1 24
-14 14 -12 23 5 23 8 0 12 -4 9 -9 -3 -4 0 -8 5 -8 6 0 11 5 11 11 0 8 6 7 17
-2 9 -8 14 -9 10 -3 -7 13 31 13 52 0 10 -6 12 -5 7 2 -4 7 -2 12 3 12 6 0 11
-5 11 -11 0 -6 5 -7 13 -2 17 11 41 10 50 -2 4 -6 11 -4 17 5 7 11 10 11 10 2
0 -7 5 -10 12 -6 19 12 78 10 83 -3 2 -7 10 -13 17 -13 10 0 10 2 0 9 -10 6
-9 10 7 14 12 3 24 1 27 -5 3 -5 12 -7 20 -4 7 3 16 1 19 -4 4 -6 -2 -10 -11
-10 -10 0 -15 -3 -11 -6 9 -9 48 6 42 17 -3 5 1 6 9 3 9 -3 13 -11 9 -18 -4
-8 -3 -8 6 0 14 13 81 -2 81 -18 0 -4 5 -8 11 -8 5 0 8 4 5 9 -4 5 3 7 13 4
13 -3 18 -10 13 -21 -5 -14 -3 -15 9 -6 11 9 25 7 64 -11 28 -13 50 -29 50
-35 0 -6 7 -17 16 -23 9 -7 18 -19 22 -27 4 -12 6 -12 6 2 1 10 -8 22 -20 28
-11 7 -19 14 -16 16 2 2 16 -2 30 -9 15 -8 24 -17 20 -20 -3 -4 0 -7 8 -7 19
0 91 -78 78 -85 -14 -9 -11 -22 7 -29 14 -5 15 -4 4 9 -7 8 -8 15 -2 15 5 0
13 -7 16 -16 9 -24 7 -36 -6 -28 -7 4 -8 3 -4 -4 4 -7 2 -12 -5 -12 -7 0 -9
-3 -6 -6 4 -4 13 -1 22 6 9 7 18 10 22 6 4 -3 -2 -13 -13 -21 -14 -11 -15 -14
-3 -9 16 5 31 -8 35 -31 1 -5 5 -23 9 -40 7 -33 12 -70 14 -99 1 -13 20 1 70
53 73 75 94 89 67 44 l-17 -28 20 24 c12 12 18 27 15 33 -7 11 52 73 70 73 6
1 10 7 8 14 -2 8 3 11 12 8 11 -4 13 -1 9 11 -6 15 -5 15 10 3 15 -12 17 -12
11 4 -6 14 -4 16 6 10 10 -6 12 -4 7 7 -3 9 2 23 13 33 17 15 19 15 23 -2 4
-15 5 -14 6 4 2 32 55 87 77 79 15 -6 15 -4 3 11 -12 15 -12 16 3 10 12 -4 15
-2 11 9 -3 8 -2 14 3 12 5 -2 9 0 9 3 0 13 38 48 46 43 5 -3 9 0 9 6 0 6 7 18
15 26 14 14 19 11 16 -9 -1 -5 3 -6 8 -2 6 3 8 12 5 19 -7 19 36 68 54 61 7
-2 10 -1 7 5 -6 10 89 110 105 110 5 0 9 3 8 8 -2 4 16 26 39 49 29 29 49 41
63 38 11 -2 18 0 15 6 -4 5 -11 7 -16 4 -17 -11 -9 11 11 28 11 9 28 14 37 11
14 -5 15 -4 4 4 -11 8 -9 14 8 31 24 24 51 30 32 8 -8 -10 -7 -14 4 -14 8 0
13 3 10 5 -3 3 0 11 7 19 6 8 7 13 2 12 -26 -5 -20 6 31 56 54 54 97 77 59 33
-17 -21 -16 -21 9 1 28 25 32 32 20 30 -24 -4 -23 4 3 28 16 15 32 26 37 25 4
-1 7 3 7 8 0 14 103 116 113 112 5 -1 6 1 3 6 -3 5 4 16 15 26 17 14 23 15 37
4 15 -11 15 -11 5 3 -11 13 -9 21 10 42 23 27 45 37 31 15 -4 -7 -3 -8 4 -4 6
4 9 13 5 21 -6 18 13 20 21 3 3 -7 3 -3 1 8 -4 15 2 28 18 41 24 19 29 55 10
74 -5 5 -21 12 -36 14 -19 4 -31 -2 -46 -21 -12 -15 -21 -23 -21 -18 0 4 -11
-7 -25 -26 -14 -19 -25 -31 -25 -27 0 4 -12 -6 -27 -22 -16 -16 -48 -50 -72
-76 -33 -35 -50 -45 -65 -41 -18 4 -19 3 -6 -7 14 -11 14 -14 -1 -28 -16 -16
-18 -15 -28 5 -10 20 -10 20 -6 -4 4 -20 -6 -37 -49 -82 -30 -31 -57 -54 -60
-50 -3 3 2 15 11 26 14 15 14 18 2 8 -9 -6 -19 -9 -22 -6 -3 4 -4 -5 -2 -18 6
-32 -54 -94 -82 -84 -16 5 -15 4 2 -10 20 -16 20 -16 -4 -11 -16 4 -21 3 -14
-4 7 -7 -8 -27 -45 -62 -31 -29 -69 -67 -85 -85 -16 -18 -36 -31 -45 -30 -8 2
-17 -4 -19 -12 -4 -12 -3 -12 5 -1 7 9 12 10 16 2 4 -6 3 -11 -2 -11 -4 0 -39
-31 -78 -70 -38 -38 -74 -70 -81 -70 -6 0 -24 15 -39 33 -15 17 -30 31 -33 29
-3 -2 -7 2 -10 9 -2 7 1 9 9 4 9 -5 11 -4 6 4 -6 9 -11 9 -22 0 -17 -14 -17
-9 -4 25 5 14 7 26 5 26 -3 0 -10 -12 -15 -26 -10 -26 -30 -25 -30 2 0 8 -5
14 -11 14 -5 0 -7 -4 -4 -10 3 -6 -1 -7 -9 -4 -19 7 -21 24 -4 24 14 0 -22 29
-36 30 -6 0 -1 -7 10 -15 14 -11 15 -14 4 -14 -19 0 -43 18 -59 44 -11 19 -12
18 -7 -5 3 -14 3 -19 0 -12 -3 6 -10 10 -15 6 -5 -3 -12 2 -15 10 -3 9 -10 14
-14 11 -5 -3 -14 1 -22 8 -7 8 -22 13 -32 11 -13 -2 -15 1 -8 8 6 6 8 17 5 24
-3 8 0 14 6 14 6 0 11 5 11 11 0 5 -5 7 -12 3 -7 -4 -8 -3 -4 5 4 6 11 9 15 6
5 -2 16 4 26 15 14 16 20 17 27 8 12 -19 9 -35 -3 -18 -8 12 -9 10 -4 -7 5
-18 3 -22 -9 -17 -9 3 -13 11 -9 17 3 6 1 7 -6 3 -6 -4 -9 -12 -6 -17 4 -5 1
-9 -6 -9 -8 0 -7 -5 2 -17 12 -15 12 -16 -1 -8 -13 8 -13 7 -1 -8 8 -10 19
-16 25 -14 6 2 17 -5 24 -17 13 -20 13 -20 6 3 -3 13 -2 21 3 18 12 -8 39 10
30 20 -5 4 -12 1 -16 -6 -6 -8 -11 -9 -15 -3 -3 6 -1 14 5 17 6 4 8 18 4 33
-5 22 -4 24 9 13 11 -9 16 -10 16 -2 0 6 -5 11 -12 11 -9 0 -9 3 0 12 7 7 12
16 12 21 0 5 -8 -1 -18 -13 -14 -18 -19 -19 -19 -7 0 14 19 29 40 31 4 1 12 8
17 16 5 8 10 12 10 8 0 -3 20 14 45 38 25 24 50 44 55 44 6 0 9 3 9 8 -3 19 2
25 11 12 8 -12 10 -11 10 7 0 12 5 25 12 29 7 5 8 3 3 -6 -6 -9 -4 -11 4 -6 7
5 10 15 7 23 -3 8 -1 11 4 8 6 -3 10 2 10 11 0 16 1 16 15 -2 13 -16 14 -16 9
-1 -7 20 14 77 28 77 5 0 6 5 3 11 -4 6 0 9 10 7 10 -2 20 4 22 12 4 12 3 12
-5 1 -6 -8 -12 -9 -16 -3 -3 6 -2 13 2 16 5 3 15 26 22 51 13 47 19 52 36 35
7 -7 11 -6 11 4 0 8 -3 14 -6 13 -8 -3 -11 8 -11 33 0 12 7 20 18 21 14 0 14
2 -3 9 -12 5 -15 9 -6 9 12 1 12 4 3 13 -9 9 -8 16 6 32 9 11 11 16 5 12 -19
-11 -16 5 5 21 9 8 11 12 5 8 -9 -4 -13 3 -13 24 0 18 5 31 13 31 8 0 8 3 -2
9 -8 5 -12 19 -9 35 3 15 1 26 -6 26 -6 0 -3 7 7 14 18 14 24 32 7 21 -5 -3
-10 2 -11 12 -1 10 -2 29 -3 43 0 14 -4 30 -7 35 -3 6 -5 24 -5 42 1 17 -3 29
-8 25 -5 -3 -7 2 -3 10 3 9 0 21 -6 27 -9 9 -8 14 3 21 13 8 13 10 -2 10 -15
0 -36 50 -30 73 1 4 -2 7 -6 7 -8 0 -32 41 -38 63 -1 4 -3 10 -4 15 -1 4 -2
11 -1 15 1 5 -3 6 -8 3 -13 -8 -23 10 -27 47 -4 27 -2 28 14 16 15 -13 16 -12
3 3 -15 20 -35 14 -27 -8 3 -8 1 -14 -4 -14 -6 0 -10 3 -10 8 0 4 -12 20 -27
36 -25 27 -25 30 -9 42 17 12 17 13 -2 11 -11 0 -18 -5 -16 -9 11 -17 -9 -7
-36 20 -44 41 -58 52 -69 52 -5 0 -11 7 -14 15 -5 11 -1 12 18 5 14 -5 25 -7
25 -4 0 13 -46 21 -59 10 -10 -7 -13 -8 -8 0 6 11 -39 40 -56 35 -5 -1 -6 3
-2 9 3 5 -2 10 -13 10 -10 0 -33 7 -51 16 l-31 16 21 31 21 32 -25 -29 -25
-29 -59 22 c-32 13 -66 27 -76 32 -10 5 -23 7 -29 3 -8 -5 -9 -1 -5 10 4 9 3
15 -2 11 -5 -3 -11 -2 -14 2 -2 5 -2 2 -1 -4 4 -16 -22 -17 -31 -2 -4 6 -14 8
-22 5 -9 -4 -13 -1 -10 6 2 7 11 13 18 12 8 -1 15 7 15 17 0 12 -4 15 -12 9
-6 -6 -15 -6 -19 -2 -5 4 -5 2 -1 -5 6 -12 -8 -26 -32 -29 -6 -1 -9 3 -5 9 4
6 0 8 -10 4 -25 -10 -78 3 -70 17 4 6 0 5 -9 -2 -10 -8 -19 -9 -22 -3 -3 5 0
12 6 14 10 4 10 6 0 6 -7 1 -15 -6 -18 -14 -4 -8 -10 -12 -15 -9 -5 3 -31 8
-57 11 -26 3 -50 10 -54 16 -6 9 -8 9 -8 -1 0 -18 -60 -12 -92 11 -30 20 -39
13 -10 -9 18 -14 15 -14 -33 -4 -5 1 -12 1 -15 0 -16 -6 -58 -4 -54 2 6 9 -32
5 -42 -5 -4 -3 -15 -2 -25 4 -13 7 -19 6 -19 -1 0 -7 -5 -8 -12 -3 -7 4 -17 8
-23 8 -5 1 -9 7 -7 15 2 8 0 12 -4 8 -4 -4 -13 -3 -21 4 -11 8 -12 7 -7 -6 3
-9 10 -16 15 -16 5 0 9 -4 9 -8 0 -5 -7 -9 -15 -9 -8 0 -15 5 -15 11 0 6 -5 4
-11 -4 -8 -12 -10 -10 -5 10 5 24 4 24 -9 6 -8 -11 -15 -16 -15 -11 0 5 -5 4
-12 -3 -7 -7 -17 -8 -30 -1 -12 7 -18 6 -18 -1 0 -7 -6 -8 -19 -1 -10 6 -21 7
-25 4 -10 -10 -56 -11 -50 -1 6 9 -32 5 -42 -5 -12 -12 -24 -8 -24 9 0 8 4 13
9 9 5 -3 12 -1 15 4 4 5 -1 8 -10 7 -8 -1 -19 -8 -23 -15 -5 -7 -11 -12 -15
-12 -3 1 -9 0 -13 0 -27 -4 -39 -3 -44 5 -4 4 -16 3 -28 -3 -20 -11 -21 -10
-16 16 3 15 2 21 -1 13 -13 -29 -27 -42 -34 -30 -5 8 -15 8 -35 0 -25 -9 -27
-9 -22 10 3 11 1 18 -4 14 -5 -3 -9 -13 -9 -22 0 -13 -2 -14 -9 -3 -7 10 -13
11 -30 2 -20 -11 -21 -10 -16 16 3 15 2 21 -1 13 -13 -29 -27 -42 -34 -30 -5
7 -15 8 -33 1 -22 -9 -27 -8 -27 5 0 8 4 13 8 10 5 -3 9 2 9 11 0 13 -3 13
-16 -3 -19 -22 -48 -25 -43 -4 2 8 0 12 -4 8 -4 -4 -13 -3 -21 4 -11 8 -12 7
-7 -6z m483 -633 c-3 -20 2 -27 11 -13 6 10 27 15 64 15 30 0 52 -4 49 -9 -4
-5 0 -5 8 0 17 11 89 12 82 2 -2 -5 1 -8 6 -8 6 0 11 4 11 8 0 4 19 8 41 8 35
1 39 -1 25 -11 -15 -12 -15 -13 0 -19 9 -4 19 -4 22 -1 3 3 -1 5 -8 5 -11 0
-12 2 -1 13 14 14 121 17 121 2 0 -5 5 -3 10 5 8 12 10 12 10 -5 1 -20 1 -20
15 -1 11 15 15 16 15 5 0 -8 -6 -21 -12 -28 -11 -10 -10 -11 5 -6 9 4 17 13
17 21 0 17 21 14 37 -6 7 -10 8 -17 1 -21 -5 -3 0 -9 12 -12 20 -5 21 -5 5 19
-16 24 -16 25 12 18 26 -7 38 -16 47 -39 2 -6 9 -4 17 4 8 8 9 11 2 7 -6 -3
-14 -2 -18 4 -9 15 12 12 48 -7 18 -9 36 -17 41 -18 5 0 11 -6 14 -14 3 -8 0
-11 -5 -8 -5 3 -10 -3 -10 -14 -2 -18 0 -18 18 3 11 13 17 17 13 9 -5 -11 -3
-13 11 -7 15 5 16 4 6 -8 -10 -12 -9 -14 7 -9 25 6 36 -11 17 -27 -10 -9 -15
-9 -15 -1 0 6 5 11 12 11 6 0 8 3 5 6 -7 8 -37 -14 -37 -26 0 -10 26 -7 36 3
13 12 34 7 41 -9 3 -9 16 -27 29 -41 13 -14 22 -28 22 -32 -1 -3 3 -16 10 -28
9 -16 9 -24 0 -29 -7 -5 -8 -3 -3 7 5 8 5 11 0 7 -5 -5 -23 3 -41 17 -21 16
-31 20 -28 11 3 -8 15 -18 27 -22 20 -6 20 -7 2 -20 -10 -8 -14 -14 -8 -14 7
0 14 4 17 9 4 5 16 4 30 -2 16 -8 21 -14 13 -19 -9 -6 -9 -8 -1 -8 7 0 14 -7
18 -15 4 -13 2 -13 -14 -5 -25 13 -27 13 -34 -6 -5 -14 -4 -15 7 -5 11 9 17 8
27 -4 15 -18 23 -115 10 -115 -5 0 -7 9 -5 20 3 17 1 18 -14 10 -10 -5 -21 -7
-24 -4 -3 3 -8 0 -13 -7 -4 -8 -3 -10 4 -5 7 4 12 1 13 -6 0 -10 2 -10 6 0 2
6 9 12 14 12 6 0 8 -4 4 -9 -3 -5 -1 -12 5 -16 13 -8 13 -45 0 -45 -5 0 -10
-5 -10 -11 0 -5 5 -7 12 -3 7 4 8 3 4 -5 -6 -9 -11 -9 -21 -1 -10 8 -15 8 -20
0 -4 -6 -4 -14 -1 -17 3 -4 6 -1 6 7 0 10 3 10 16 -1 13 -11 12 -14 -13 -24
-18 -7 -23 -14 -15 -19 7 -4 12 -2 12 3 0 6 5 11 11 11 6 0 7 -5 2 -12 -4 -7
-8 -19 -9 -26 -4 -22 -13 -27 -26 -14 -7 7 -17 12 -23 12 -5 0 -4 -4 4 -9 8
-5 16 -17 17 -25 1 -9 -2 -14 -7 -10 -5 3 -9 0 -9 -6 0 -34 -147 -139 -167
-119 -8 8 -13 7 -18 -2 -5 -8 -4 -10 3 -5 7 4 12 3 12 -1 0 -8 -54 -32 -85
-39 -52 -11 -75 -13 -75 -6 0 4 10 9 23 9 46 3 65 7 61 15 -3 4 -15 4 -27 -1
-12 -5 -30 -7 -40 -5 -9 1 -22 -7 -29 -19 -11 -21 -11 -21 -18 -3 -3 11 -14
20 -23 22 -10 1 -15 -2 -11 -7 3 -5 10 -6 16 -3 6 4 9 1 6 -6 -2 -7 -12 -14
-21 -16 -9 -1 -15 2 -11 7 3 5 0 9 -5 9 -6 0 -11 -4 -11 -9 0 -4 -20 -8 -45
-8 -24 0 -42 3 -40 8 3 4 0 11 -6 15 -7 4 -9 3 -5 -4 3 -6 2 -13 -4 -17 -5 -3
-10 -1 -10 4 0 6 -5 11 -11 11 -5 0 -8 -4 -5 -8 3 -5 -8 -9 -24 -10 -17 0 -30
4 -30 9 0 5 -5 9 -11 9 -5 0 -8 -4 -5 -8 3 -5 -1 -9 -9 -9 -8 0 -15 4 -15 9 0
4 -5 8 -11 8 -5 0 -8 -4 -5 -8 3 -5 -1 -9 -9 -9 -16 0 -19 9 -8 21 4 3 8 14 9
22 1 9 0 13 -3 10 -4 -3 -13 0 -22 6 -10 8 -9 4 3 -9 17 -20 17 -23 2 -29 -9
-3 -14 -9 -12 -13 3 -4 -6 -7 -20 -7 -27 0 -30 6 -12 24 9 9 9 12 0 12 -7 0
-12 -4 -12 -9 0 -5 -13 -7 -30 -6 -16 1 -27 -1 -25 -6 3 -4 1 -10 -4 -13 -5
-4 -13 -1 -17 5 -4 8 -9 7 -15 -2 -7 -11 -9 -10 -9 5 0 12 5 16 16 12 8 -3 13
-2 10 2 -3 5 0 9 7 10 39 3 69 10 75 17 4 4 -4 4 -17 0 -15 -5 -21 -4 -17 3 4
6 -2 15 -11 21 -10 5 -17 13 -15 18 2 4 -2 9 -10 11 -8 2 -9 1 -3 -5 6 -4 10
-14 9 -20 -1 -7 -2 -20 -3 -29 0 -8 -6 -12 -11 -9 -6 4 -10 12 -9 18 3 27 -2
37 -18 38 -17 1 -17 2 0 6 9 2 17 9 17 14 0 6 -4 8 -9 4 -5 -3 -12 -1 -16 5
-3 5 1 10 9 10 9 0 16 5 16 11 0 5 -5 7 -12 3 -8 -5 -9 -2 -5 9 3 10 2 17 -3
17 -19 0 -10 16 10 17 13 1 18 -2 14 -9 -4 -7 -2 -8 5 -4 15 10 3 29 -15 22
-7 -3 -16 -1 -19 4 -4 6 -1 10 5 10 6 0 8 5 3 13 -10 17 -11 67 0 67 4 0 5 5
1 12 -11 18 -13 68 -2 68 5 0 6 6 1 13 -13 21 -12 37 3 37 8 0 14 5 14 11 0 5
-4 8 -9 4 -5 -3 -12 -1 -16 5 -3 5 -1 10 6 10 8 0 7 5 -2 17 -10 11 -10 14 -1
9 6 -4 12 -2 12 3 0 6 -4 11 -8 11 -4 0 -8 18 -7 39 0 23 4 37 10 33 6 -3 4 2
-4 11 -12 15 -11 17 10 18 21 0 22 1 5 8 -28 11 -29 51 -2 52 17 1 18 2 4 6
-10 2 -18 14 -19 26 0 12 -2 30 -4 39 -3 14 0 16 15 8 14 -7 17 -6 16 7 0 9
10 23 24 30 14 7 26 17 26 23 1 5 2 15 3 21 0 5 5 8 9 5 15 -9 31 9 22 24 -8
13 -10 13 -10 0 0 -9 -9 -16 -21 -17 -16 -1 -18 1 -10 11 8 9 7 13 -4 13 -8 0
-12 -4 -10 -8 3 -4 -2 -10 -11 -13 -8 -3 -12 -11 -8 -17 5 -8 3 -9 -6 -4 -9 6
-11 4 -5 -5 6 -9 4 -11 -5 -5 -8 5 -11 4 -6 -3 10 -16 38 -2 32 15 -4 9 -1 13
6 11 20 -7 16 -32 -7 -44 -27 -14 -61 1 -45 21 8 10 8 15 0 20 -8 5 -6 13 6
26 18 20 25 24 23 12z m-12 -99 c-3 -3 -12 -4 -19 -1 -8 3 -5 6 6 6 11 1 17
-2 13 -5z m-7 -699 c-8 -9 -8 -15 0 -18 6 -3 5 -4 -2 -3 -7 2 -13 9 -14 17 -1
21 6 30 17 23 6 -4 6 -11 -1 -19z m60 1 c0 -3 -4 -8 -10 -11 -5 -3 -10 -1 -10
4 0 6 5 11 10 11 6 0 10 -2 10 -4z m1256 -272 c-3 -9 -13 -14 -21 -11 -9 4
-12 1 -8 -9 3 -7 1 -14 -4 -14 -5 0 -9 9 -10 21 -1 15 3 19 13 15 8 -3 17 1
21 10 3 8 8 13 10 10 3 -3 3 -13 -1 -22z m-101 -4 c-1 -11 -5 -23 -10 -27 -4
-5 -5 -3 -2 4 4 6 1 14 -5 16 -10 4 -9 8 2 16 8 6 15 11 16 11 0 0 0 -9 -1
-20z m-1157 -396 c-4 -3 -12 5 -18 18 -12 22 -12 22 6 6 10 -10 15 -20 12 -24z
m-24 -930 c14 -15 26 -29 26 -33 -1 -16 -18 -27 -42 -27 -17 0 -24 4 -19 11
13 16 9 46 -5 41 -10 -4 -12 8 -5 32 3 8 22 -2 45 -24z m-34 -28 c0 -3 -4 -8
-10 -11 -5 -3 -10 -1 -10 4 0 6 5 11 10 11 6 0 10 -2 10 -4z"/>
<path d="M2176 5657 c3 -10 9 -15 12 -12 3 3 0 11 -7 18 -10 9 -11 8 -5 -6z"/>
<path d="M2206 5657 c3 -10 9 -15 12 -12 3 3 0 11 -7 18 -10 9 -11 8 -5 -6z"/>
<path d="M2279 5668 c-6 -21 -5 -38 1 -38 5 0 8 9 7 20 -1 17 -5 26 -8 18z"/>
<path d="M2350 5658 c0 -4 6 -8 14 -8 8 0 17 4 20 8 2 4 -4 8 -15 8 -10 0 -19
-4 -19 -8z"/>
<path d="M2420 5661 c0 -5 9 -13 21 -16 15 -5 17 -10 10 -19 -8 -9 -7 -13 3
-13 8 0 13 6 12 14 -3 16 -46 49 -46 34z"/>
<path d="M1996 5651 c-4 -5 -2 -12 3 -15 5 -4 12 -2 15 3 4 5 2 12 -3 15 -5 4
-12 2 -15 -3z"/>
<path d="M2136 5641 c-3 -4 4 -17 17 -27 l22 -19 -20 24 c-18 21 -18 24 -2 18
9 -4 17 -2 17 3 0 12 -27 13 -34 1z"/>
<path d="M2394 5635 c3 -23 12 -26 13 -5 1 11 -2 20 -7 20 -4 0 -7 -7 -6 -15z"/>
<path d="M2092 5621 c-11 -7 -10 -9 3 -14 11 -5 14 -3 9 5 -5 8 -2 9 10 5 10
-4 15 -3 11 3 -7 12 -16 12 -33 1z"/>
<path d="M2315 5619 c-3 -4 2 -6 10 -5 21 3 28 13 10 13 -9 0 -18 -4 -20 -8z"/>
<path d="M2655 5610 c-4 -6 -3 -10 2 -9 19 3 34 -2 28 -10 -3 -5 -1 -12 4 -15
5 -4 8 1 7 10 -3 21 -32 38 -41 24z"/>
<path d="M2210 5599 c0 -5 5 -7 10 -4 6 3 10 8 10 11 0 2 -4 4 -10 4 -5 0 -10
-5 -10 -11z"/>
<path d="M2593 5595 c0 -8 4 -12 9 -9 4 3 8 9 8 15 0 5 -4 9 -8 9 -5 0 -9 -7
-9 -15z"/>
<path d="M2636 5587 c3 -10 9 -15 12 -12 3 3 0 11 -7 18 -10 9 -11 8 -5 -6z"/>
<path d="M2035 5569 c-4 -6 -5 -12 -2 -15 2 -3 7 2 10 11 7 17 1 20 -8 4z"/>
<path d="M2615 5571 c-3 -5 -2 -12 3 -15 5 -3 9 1 9 9 0 17 -3 19 -12 6z"/>
<path d="M2055 5559 c-3 -4 2 -6 10 -5 21 3 28 13 10 13 -9 0 -18 -4 -20 -8z"/>
<path d="M2726 5543 c-6 -14 -5 -15 5 -6 7 7 10 15 7 18 -3 3 -9 -2 -12 -12z"/>
<path d="M2007 5524 c-7 -8 3 -34 13 -34 9 0 8 26 -1 35 -3 3 -8 2 -12 -1z"/>
<path d="M2790 5500 c0 -6 7 -10 15 -10 8 0 15 2 15 4 0 2 -7 6 -15 10 -8 3
-15 1 -15 -4z"/>
<path d="M2035 5479 c-3 -4 2 -6 10 -5 21 3 28 13 10 13 -9 0 -18 -4 -20 -8z"/>
<path d="M2830 5465 c5 -7 7 -15 3 -18 -3 -4 -1 -7 5 -7 6 0 10 8 9 18 0 10
-7 19 -14 19 -9 0 -10 -4 -3 -12z"/>
<path d="M2850 5426 c0 -2 7 -7 16 -10 8 -3 12 -2 9 4 -6 10 -25 14 -25 6z"/>
<path d="M2030 5359 c0 -5 5 -7 10 -4 6 3 10 8 10 11 0 2 -4 4 -10 4 -5 0 -10
-5 -10 -11z"/>
<path d="M1993 5345 c0 -8 4 -15 9 -15 4 0 8 4 8 9 0 6 -4 12 -8 15 -5 3 -9
-1 -9 -9z"/>
<path d="M2013 5315 c-3 -9 -3 -18 -1 -21 3 -3 8 4 11 16 6 23 -1 27 -10 5z"/>
<path d="M2835 5300 c-3 -5 -1 -10 4 -10 6 0 11 5 11 10 0 6 -2 10 -4 10 -3 0
-8 -4 -11 -10z"/>
<path d="M2880 5307 c0 -5 5 -17 10 -28 9 -16 7 -19 -9 -19 -11 0 -22 -4 -25
-9 -3 -4 6 -6 19 -3 33 6 36 12 19 42 -7 14 -13 21 -14 17z"/>
<path d="M2000 5220 c-9 -6 -10 -10 -3 -10 6 0 15 5 18 10 8 12 4 12 -15 0z"/>
<path d="M2013 5197 c-3 -6 -1 -7 5 -3 5 3 12 1 14 -6 3 -8 6 -7 10 3 7 17
-19 22 -29 6z"/>
<path d="M2831 5167 c-13 -21 -12 -21 5 -5 10 10 16 20 13 22 -3 3 -11 -5 -18
-17z"/>
<path d="M2883 5183 c4 -3 1 -13 -6 -22 -11 -14 -10 -14 5 -2 16 12 16 31 1
31 -4 0 -3 -3 0 -7z"/>
<path d="M1990 5176 c0 -2 9 -6 20 -9 11 -3 18 -1 14 4 -5 9 -34 13 -34 5z"/>
<path d="M2833 5112 c-1 -22 0 -24 9 -8 6 10 6 22 2 26 -5 5 -10 -3 -11 -18z"/>
<path d="M2053 5089 c-2 -23 3 -25 10 -4 4 8 3 16 -1 19 -4 3 -9 -4 -9 -15z"/>
<path d="M1996 5083 c-6 -14 -5 -15 5 -6 7 7 10 15 7 18 -3 3 -9 -2 -12 -12z"/>
<path d="M2755 5089 c-4 -6 -5 -12 -2 -15 2 -3 7 2 10 11 7 17 1 20 -8 4z"/>
<path d="M2836 5065 c10 -8 23 -15 28 -15 6 0 1 7 -10 15 -10 8 -23 15 -28 15
-6 0 -1 -7 10 -15z"/>
<path d="M2000 5060 c-9 -6 -10 -10 -3 -10 6 0 15 5 18 10 8 12 4 12 -15 0z"/>
<path d="M2013 5036 c-3 -6 -3 -8 2 -4 4 4 13 1 19 -8 10 -13 12 -13 12 4 0
20 -23 26 -33 8z"/>
<path d="M2756 5027 c3 -10 9 -15 12 -12 3 3 0 11 -7 18 -10 9 -11 8 -5 -6z"/>
<path d="M2815 5020 c3 -5 8 -10 11 -10 2 0 4 5 4 10 0 6 -5 10 -11 10 -5 0
-7 -4 -4 -10z"/>
<path d="M2796 5001 c-4 -5 -2 -12 3 -15 5 -4 12 -2 15 3 4 5 2 12 -3 15 -5 4
-12 2 -15 -3z"/>
<path d="M2034 4989 c-3 -6 -2 -15 3 -20 5 -5 9 -1 9 11 0 23 -2 24 -12 9z"/>
<path d="M2770 4986 c0 -2 8 -10 18 -17 15 -13 16 -12 3 4 -13 16 -21 21 -21
13z"/>
<path d="M2756 4967 c3 -10 9 -15 12 -12 3 3 0 11 -7 18 -10 9 -11 8 -5 -6z"/>
<path d="M2067 4959 c7 -7 15 -10 18 -7 3 3 -2 9 -12 12 -14 6 -15 5 -6 -5z"/>
<path d="M2021 4944 c0 -11 3 -14 6 -6 3 7 2 16 -1 19 -3 4 -6 -2 -5 -13z"/>
<path d="M2737 4941 c-4 -15 -10 -20 -18 -15 -8 5 -10 3 -4 -5 10 -17 39 11
33 30 -3 8 -7 4 -11 -10z"/>
<path d="M2090 4920 c0 -5 5 -10 11 -10 5 0 7 5 4 10 -3 6 -8 10 -11 10 -2 0
-4 -4 -4 -10z"/>
<path d="M2666 4921 c-4 -5 3 -7 14 -4 23 6 26 13 6 13 -8 0 -17 -4 -20 -9z"/>
<path d="M2436 4907 c3 -10 9 -15 12 -12 3 3 0 11 -7 18 -10 9 -11 8 -5 -6z"/>
<path d="M2554 4898 c-4 -7 -4 -10 1 -6 4 4 15 2 24 -5 14 -11 14 -10 2 6 -16
20 -18 21 -27 5z"/>
<path d="M2625 4900 c-3 -5 -2 -10 4 -10 5 0 13 5 16 10 3 6 2 10 -4 10 -5 0
-13 -4 -16 -10z"/>
<path d="M2690 4899 c0 -5 5 -7 10 -4 6 3 10 8 10 11 0 2 -4 4 -10 4 -5 0 -10
-5 -10 -11z"/>
<path d="M2510 4882 c0 -5 7 -9 15 -9 8 0 12 4 9 9 -3 4 -9 8 -15 8 -5 0 -9
-4 -9 -8z"/>
<path d="M2196 4855 c-3 -8 -1 -15 4 -15 6 0 10 7 10 15 0 8 -2 15 -4 15 -2 0
-6 -7 -10 -15z"/>
<path d="M2334 4854 c1 -8 4 -15 7 -16 2 -2 3 -1 2 1 -2 2 2 9 7 16 7 8 5 12
-4 12 -8 0 -13 -6 -12 -13z"/>
<path d="M2470 4860 c0 -5 5 -10 10 -10 6 0 10 5 10 10 0 6 -4 10 -10 10 -5 0
-10 -4 -10 -10z"/>
<path d="M2595 4860 c3 -5 8 -10 11 -10 2 0 4 5 4 10 0 6 -5 10 -11 10 -5 0
-7 -4 -4 -10z"/>
<path d="M2365 4839 c-4 -6 -5 -12 -2 -15 2 -3 7 2 10 11 7 17 1 20 -8 4z"/>
<path d="M2398 4843 c7 -3 16 -2 19 1 4 3 -2 6 -13 5 -11 0 -14 -3 -6 -6z"/>
<path d="M2245 4830 c-3 -6 1 -7 9 -4 18 7 21 14 7 14 -6 0 -13 -4 -16 -10z"/>
<path d="M2011 3269 c15 -15 18 -24 9 -34 -9 -10 -8 -13 4 -11 9 1 18 5 21 8
7 7 -34 58 -47 58 -4 0 1 -9 13 -21z"/>
<path d="M2110 6316 c0 -2 7 -9 15 -16 13 -11 14 -10 9 4 -5 14 -24 23 -24 12z"/>
<path d="M2455 6310 c-4 -6 -11 -7 -17 -4 -7 4 -8 2 -4 -4 10 -16 23 -15 30 3
6 17 0 20 -9 5z"/>
<path d="M2593 6300 c-1 -11 2 -20 7 -20 4 0 7 7 6 15 -3 23 -12 26 -13 5z"/>
<path d="M2693 6305 c0 -8 4 -15 9 -15 4 0 8 4 8 9 0 6 -4 12 -8 15 -5 3 -9
-1 -9 -9z"/>
<path d="M2070 6300 c0 -6 7 -10 15 -10 8 0 15 2 15 4 0 2 -7 6 -15 10 -8 3
-15 1 -15 -4z"/>
<path d="M2350 6296 c4 -4 16 -4 26 2 16 9 14 10 -8 9 -15 -1 -23 -6 -18 -11z"/>
<path d="M2645 6299 c-4 -6 -5 -12 -2 -15 2 -3 7 2 10 11 7 17 1 20 -8 4z"/>
<path d="M2775 6300 c-3 -5 -1 -10 4 -10 6 0 11 5 11 10 0 6 -2 10 -4 10 -3 0
-8 -4 -11 -10z"/>
<path d="M1478 6293 c7 -3 16 -2 19 1 4 3 -2 6 -13 5 -11 0 -14 -3 -6 -6z"/>
<path d="M2555 6290 c3 -5 8 -10 11 -10 2 0 4 5 4 10 0 6 -5 10 -11 10 -5 0
-7 -4 -4 -10z"/>
<path d="M2734 6292 c3 -6 -2 -13 -11 -15 -16 -4 -16 -5 -1 -6 21 -1 32 15 17
25 -7 4 -9 3 -5 -4z"/>
<path d="M5446 6218 c-43 -42 -81 -77 -84 -77 -4 -1 -7 -4 -7 -8 0 -5 -4 -13
-8 -20 -8 -12 1 -42 17 -58 24 -22 49 -10 113 54 36 36 70 65 75 63 5 -1 7 2
4 7 -4 5 -2 11 3 13 8 3 15 37 12 66 -1 6 -10 12 -20 12 -11 0 -21 5 -23 12
-2 6 -39 -22 -82 -64z"/>
<path d="M2820 6260 c18 -12 30 -13 30 -2 0 4 -10 9 -22 9 -18 2 -20 0 -8 -7z"/>
<path d="M1193 6235 c0 -8 4 -12 9 -9 5 3 6 10 3 15 -9 13 -12 11 -12 -6z"/>
<path d="M5415 6240 c3 -5 8 -10 11 -10 2 0 4 5 4 10 0 6 -5 10 -11 10 -5 0
-7 -4 -4 -10z"/>
<path d="M3055 6231 c-3 -6 -14 -8 -25 -6 -12 2 -18 0 -15 -6 4 -5 10 -7 15
-4 4 3 10 1 12 -5 2 -6 9 -1 16 10 7 11 10 20 8 20 -3 0 -7 -4 -11 -9z"/>
<path d="M3070 6210 c0 -5 5 -10 11 -10 5 0 7 5 4 10 -3 6 -8 10 -11 10 -2 0
-4 -4 -4 -10z"/>
<path d="M3226 6198 c3 -5 10 -6 15 -3 13 9 11 12 -6 12 -8 0 -12 -4 -9 -9z"/>
<path d="M5376 6202 c-3 -5 1 -9 9 -9 8 0 12 4 9 9 -3 4 -7 8 -9 8 -2 0 -6 -4
-9 -8z"/>
<path d="M3134 6189 c-3 -6 -2 -15 3 -20 5 -5 9 -1 9 11 0 23 -2 24 -12 9z"/>
<path d="M3225 6160 c-3 -6 1 -7 9 -4 18 7 21 14 7 14 -6 0 -13 -4 -16 -10z"/>
<path d="M1185 6140 c-3 -6 1 -7 9 -4 18 7 21 14 7 14 -6 0 -13 -4 -16 -10z"/>
<path d="M3230 6130 c8 -5 20 -10 25 -10 6 0 3 5 -5 10 -8 5 -19 10 -25 10 -5
0 -3 -5 5 -10z"/>
<path d="M3285 6120 c-3 -6 1 -7 9 -4 18 7 21 14 7 14 -6 0 -13 -4 -16 -10z"/>
<path d="M5535 6120 c3 -5 8 -10 11 -10 2 0 4 5 4 10 0 6 -5 10 -11 10 -5 0
-7 -4 -4 -10z"/>
<path d="M3300 6105 c0 -2 6 -8 13 -14 10 -8 14 -7 14 2 0 8 -6 14 -14 14 -7
0 -13 -1 -13 -2z"/>
<path d="M1190 6081 c0 -6 4 -13 10 -16 6 -3 7 1 4 9 -7 18 -14 21 -14 7z"/>
<path d="M1156 6067 c3 -10 9 -15 12 -12 3 3 0 11 -7 18 -10 9 -11 8 -5 -6z"/>
<path d="M3450 6040 c0 -5 5 -10 11 -10 5 0 7 5 4 10 -3 6 -8 10 -11 10 -2 0
-4 -4 -4 -10z"/>
<path d="M1145 6020 c-3 -6 1 -7 9 -4 18 7 21 14 7 14 -6 0 -13 -4 -16 -10z"/>
<path d="M3395 6020 c3 -5 11 -10 16 -10 6 0 7 5 4 10 -3 6 -11 10 -16 10 -6
0 -7 -4 -4 -10z"/>
<path d="M1190 5959 c0 -5 5 -7 10 -4 6 3 10 8 10 11 0 2 -4 4 -10 4 -5 0 -10
-5 -10 -11z"/>
<path d="M3516 5947 c3 -10 9 -15 12 -12 3 3 0 11 -7 18 -10 9 -11 8 -5 -6z"/>
<path d="M1205 5939 c-4 -6 -5 -12 -2 -15 2 -3 7 2 10 11 7 17 1 20 -8 4z"/>
<path d="M3496 5937 c3 -10 9 -15 12 -12 3 3 0 11 -7 18 -10 9 -11 8 -5 -6z"/>
<path d="M3546 5938 c3 -5 10 -6 15 -3 13 9 11 12 -6 12 -8 0 -12 -4 -9 -9z"/>
<path d="M5133 5911 c3 -10 -96 -100 -104 -95 -4 2 -11 -1 -15 -7 -4 -8 -3 -9
4 -5 21 13 13 -2 -19 -33 -35 -36 -38 -37 -34 -13 1 9 7 16 12 15 5 -1 10 5
10 12 0 10 -4 12 -12 5 -7 -5 -14 -7 -17 -4 -3 3 -4 -11 -2 -31 2 -21 -1 -33
-6 -30 -6 4 -10 1 -10 -5 0 -12 -48 -60 -61 -60 -4 0 -11 -9 -14 -20 -4 -11
-11 -18 -16 -14 -5 3 -7 9 -5 13 3 4 -1 8 -8 8 -11 0 -12 -4 -3 -19 10 -15 9
-21 -3 -28 -8 -5 -18 -6 -24 -3 -5 3 -6 1 -2 -5 3 -6 -3 -17 -14 -25 -11 -7
-17 -17 -12 -22 4 -4 -1 -5 -11 -2 -10 4 -16 3 -12 -3 3 -5 -5 -18 -17 -30
-30 -28 -32 -75 -4 -87 12 -5 27 -8 34 -7 6 1 19 2 27 3 8 0 14 5 13 9 -5 14
63 73 75 65 6 -3 7 -1 3 6 -9 14 12 43 25 36 4 -3 6 -14 4 -25 -2 -12 0 -18 5
-15 5 3 7 17 4 30 -5 28 27 72 45 61 5 -4 13 -1 17 5 4 8 3 9 -4 5 -25 -15
-10 5 40 56 28 29 48 45 45 35 -4 -11 -3 -16 3 -12 6 3 10 13 10 22 0 8 29 45
65 81 65 65 79 98 53 119 -15 12 -68 23 -65 14z"/>
<path d="M1184 5891 c0 -11 5 -17 13 -14 10 4 11 9 2 19 -15 18 -15 18 -15 -5z"/>
<path d="M3561 5854 c0 -11 3 -14 6 -6 3 7 2 16 -1 19 -3 4 -6 -2 -5 -13z"/>
<path d="M3610 5840 c0 -5 5 -10 11 -10 5 0 7 5 4 10 -3 6 -8 10 -11 10 -2 0
-4 -4 -4 -10z"/>
<path d="M4973 5829 c-2 -23 3 -25 10 -4 4 8 3 16 -1 19 -4 3 -9 -4 -9 -15z"/>
<path d="M5015 5839 c-3 -4 2 -6 10 -5 21 3 28 13 10 13 -9 0 -18 -4 -20 -8z"/>
<path d="M3590 5823 c0 -6 8 -17 18 -24 16 -13 16 -13 2 6 -8 11 -16 22 -17
24 -2 2 -3 0 -3 -6z"/>
<path d="M1190 5799 c0 -5 5 -7 10 -4 6 3 10 8 10 11 0 2 -4 4 -10 4 -5 0 -10
-5 -10 -11z"/>
<path d="M4895 5761 c-3 -5 -2 -12 3 -15 5 -3 9 1 9 9 0 17 -3 19 -12 6z"/>
<path d="M3635 5740 c3 -5 8 -10 11 -10 2 0 4 5 4 10 0 6 -5 10 -11 10 -5 0
-7 -4 -4 -10z"/>
<path d="M1193 5725 c0 -8 4 -12 9 -9 5 3 6 10 3 15 -9 13 -12 11 -12 -6z"/>
<path d="M4904 5698 l-19 -23 23 19 c12 11 22 21 22 23 0 8 -8 2 -26 -19z"/>
<path d="M4836 5682 c-3 -5 1 -9 9 -9 8 0 12 4 9 9 -3 4 -7 8 -9 8 -2 0 -6 -4
-9 -8z"/>
<path d="M1190 5639 c0 -5 5 -7 10 -4 6 3 10 8 10 11 0 2 -4 4 -10 4 -5 0 -10
-5 -10 -11z"/>
<path d="M3677 5636 c-17 -13 -17 -14 0 -20 10 -4 14 -4 10 0 -4 4 -2 13 4 21
14 17 9 16 -14 -1z"/>
<path d="M5086 5638 c3 -5 10 -6 15 -3 13 9 11 12 -6 12 -8 0 -12 -4 -9 -9z"/>
<path d="M1205 5619 c-4 -6 -5 -12 -2 -15 2 -3 7 2 10 11 7 17 1 20 -8 4z"/>
<path d="M5030 5599 c0 -5 5 -7 10 -4 6 3 10 8 10 11 0 2 -4 4 -10 4 -5 0 -10
-5 -10 -11z"/>
<path d="M3693 5577 c0 -12 1 -16 4 -9 3 6 9 10 13 7 5 -3 12 0 16 7 4 7 4 10
-1 6 -4 -4 -13 -4 -19 2 -8 6 -12 2 -13 -13z"/>
<path d="M4684 5578 l-19 -23 23 19 c21 18 27 26 19 26 -2 0 -12 -10 -23 -22z"/>
<path d="M1184 5571 c0 -11 5 -17 13 -14 10 4 11 9 2 19 -15 18 -15 18 -15 -5z"/>
<path d="M4950 5576 c0 -2 8 -10 18 -17 15 -13 16 -12 3 4 -13 16 -21 21 -21
13z"/>
<path d="M3696 5501 c-3 -4 6 -7 19 -7 14 0 22 2 19 5 -8 8 -34 10 -38 2z"/>
<path d="M1190 5479 c0 -5 5 -7 10 -4 6 3 10 8 10 11 0 2 -4 4 -10 4 -5 0 -10
-5 -10 -11z"/>
<path d="M4893 5435 c0 -8 4 -12 9 -9 5 3 6 10 3 15 -9 13 -12 11 -12 -6z"/>
<path d="M3726 5418 c3 -5 10 -6 15 -3 13 9 11 12 -6 12 -8 0 -12 -4 -9 -9z"/>
<path d="M1193 5405 c0 -8 4 -12 9 -9 5 3 6 10 3 15 -9 13 -12 11 -12 -6z"/>
<path d="M3711 5384 c0 -11 3 -14 6 -6 3 7 2 16 -1 19 -3 4 -6 -2 -5 -13z"/>
<path d="M3735 5389 c-4 -6 -5 -12 -2 -15 2 -3 7 2 10 11 7 17 1 20 -8 4z"/>
<path d="M3736 5347 c3 -10 9 -15 12 -12 3 3 0 11 -7 18 -10 9 -11 8 -5 -6z"/>
<path d="M1190 5319 c0 -5 5 -7 10 -4 6 3 10 8 10 11 0 2 -4 4 -10 4 -5 0 -10
-5 -10 -11z"/>
<path d="M1193 5255 c0 -8 4 -15 9 -15 4 0 8 4 8 9 0 6 -4 12 -8 15 -5 3 -9
-1 -9 -9z"/>
<path d="M1165 5220 c-3 -6 1 -7 9 -4 18 7 21 14 7 14 -6 0 -13 -4 -16 -10z"/>
<path d="M3710 5214 c0 -9 -5 -12 -12 -8 -7 4 -8 3 -4 -4 10 -16 14 -15 26 8
7 14 7 20 0 20 -5 0 -10 -7 -10 -16z"/>
<path d="M1173 5157 c-4 -6 -1 -7 7 -2 9 6 10 2 5 -16 -8 -27 -3 -24 13 7 9
16 8 21 -4 21 -8 0 -18 -5 -21 -10z"/>
<path d="M4296 5121 c-3 -5 2 -15 12 -22 15 -12 16 -12 5 2 -7 9 -10 19 -6 22
3 4 4 7 0 7 -3 0 -8 -4 -11 -9z"/>
<path d="M4253 5095 c0 -8 4 -12 9 -9 5 3 6 10 3 15 -9 13 -12 11 -12 -6z"/>
<path d="M1169 5063 c-13 -16 -12 -17 4 -4 9 7 17 15 17 17 0 8 -8 3 -21 -13z"/>
<path d="M1190 5046 c0 -2 7 -7 16 -10 8 -3 12 -2 9 4 -6 10 -25 14 -25 6z"/>
<path d="M4176 5042 c-3 -5 1 -9 9 -9 8 0 12 4 9 9 -3 4 -7 8 -9 8 -2 0 -6 -4
-9 -8z"/>
<path d="M4240 5035 c-7 -9 -10 -18 -7 -21 3 -3 10 4 17 15 13 25 8 27 -10 6z"/>
<path d="M1156 5027 c3 -10 9 -15 12 -12 3 3 0 11 -7 18 -10 9 -11 8 -5 -6z"/>
<path d="M1196 5017 c3 -10 9 -15 12 -12 3 3 0 11 -7 18 -10 9 -11 8 -5 -6z"/>
<path d="M4195 4989 c-4 -6 -5 -12 -2 -15 2 -3 7 2 10 11 7 17 1 20 -8 4z"/>
<path d="M1150 4985 c0 -7 30 -13 34 -7 3 4 -4 9 -15 9 -10 1 -19 0 -19 -2z"/>
<path d="M3604 4944 c-18 -14 -18 -15 4 -4 12 6 22 13 22 15 0 8 -5 6 -26 -11z"/>
<path d="M4366 4942 c-3 -5 1 -9 9 -9 8 0 12 4 9 9 -3 4 -7 8 -9 8 -2 0 -6 -4
-9 -8z"/>
<path d="M3630 4916 c0 -2 8 -10 18 -17 15 -13 16 -12 3 4 -13 16 -21 21 -21
13z"/>
<path d="M1193 4892 c0 -12 5 -22 9 -22 11 0 10 12 -2 30 -7 12 -9 10 -7 -8z"/>
<path d="M3593 4885 c0 -8 4 -12 9 -9 5 3 6 10 3 15 -9 13 -12 11 -12 -6z"/>
<path d="M1156 4882 c-3 -5 1 -9 9 -9 8 0 12 4 9 9 -3 4 -7 8 -9 8 -2 0 -6 -4
-9 -8z"/>
<path d="M4016 4882 c-3 -5 1 -9 9 -9 8 0 12 4 9 9 -3 4 -7 8 -9 8 -2 0 -6 -4
-9 -8z"/>
<path d="M4080 4875 c-7 -9 -10 -18 -7 -21 3 -3 10 4 17 15 13 25 8 27 -10 6z"/>
<path d="M4239 4833 c-13 -16 -12 -17 4 -4 16 13 21 21 13 21 -2 0 -10 -8 -17
-17z"/>
<path d="M1179 4813 c-13 -16 -12 -17 4 -4 9 7 17 15 17 17 0 8 -8 3 -21 -13z"/>
<path d="M3565 4819 c-3 -4 2 -6 10 -5 21 3 28 13 10 13 -9 0 -18 -4 -20 -8z"/>
<path d="M3488 4792 c-17 -7 -17 -8 0 -18 15 -10 18 -8 18 7 0 11 0 19 -1 18
0 0 -8 -4 -17 -7z"/>
<path d="M1193 4775 c0 -8 4 -15 9 -15 4 0 8 4 8 9 0 6 -4 12 -8 15 -5 3 -9
-1 -9 -9z"/>
<path d="M3530 4766 c0 -2 7 -7 16 -10 8 -3 12 -2 9 4 -6 10 -25 14 -25 6z"/>
<path d="M3964 4755 c-5 -13 -9 -13 -23 -3 -14 12 -15 11 -2 -4 17 -22 18 -22
31 2 6 11 8 20 5 20 -3 0 -8 -7 -11 -15z"/>
<path d="M1165 4740 c-3 -6 1 -7 9 -4 18 7 21 14 7 14 -6 0 -13 -4 -16 -10z"/>
<path d="M3415 4740 c-3 -5 -1 -10 4 -10 6 0 11 5 11 10 0 6 -2 10 -4 10 -3 0
-8 -4 -11 -10z"/>
<path d="M3397 4707 c-3 -8 1 -14 8 -14 7 0 11 6 8 14 -3 7 -6 13 -8 13 -2 0
-5 -6 -8 -13z"/>
<path d="M3830 4700 c0 -5 5 -10 11 -10 5 0 7 5 4 10 -3 6 -8 10 -11 10 -2 0
-4 -4 -4 -10z"/>
<path d="M3875 4702 c3 -3 1 -10 -5 -16 -6 -8 -2 -12 13 -13 12 0 16 1 9 4 -9
3 -10 9 -3 17 8 9 6 13 -4 13 -8 0 -13 -3 -10 -5z"/>
<path d="M1173 4677 c-3 -6 -1 -7 5 -3 5 3 12 1 14 -6 3 -8 6 -7 10 3 7 17
-19 22 -29 6z"/>
<path d="M3453 4675 c0 -8 4 -12 9 -9 5 3 6 10 3 15 -9 13 -12 11 -12 -6z"/>
<path d="M3416 4667 c3 -10 9 -15 12 -12 3 3 0 11 -7 18 -10 9 -11 8 -5 -6z"/>
<path d="M3829 4663 c-13 -16 -12 -17 4 -4 16 13 21 21 13 21 -2 0 -10 -8 -17
-17z"/>
<path d="M3360 4659 c0 -5 5 -7 10 -4 6 3 10 8 10 11 0 2 -4 4 -10 4 -5 0 -10
-5 -10 -11z"/>
<path d="M3844 4635 c-5 -13 -9 -13 -23 -3 -14 12 -15 11 -2 -4 17 -22 18 -22
31 2 6 11 8 20 5 20 -3 0 -8 -7 -11 -15z"/>
<path d="M3435 4629 c-4 -6 -5 -12 -2 -15 2 -3 7 2 10 11 7 17 1 20 -8 4z"/>
<path d="M3350 4610 c0 -6 7 -10 15 -10 8 0 15 2 15 4 0 2 -7 6 -15 10 -8 3
-15 1 -15 -4z"/>
<path d="M3735 4601 c-3 -5 -2 -12 3 -15 5 -3 9 1 9 9 0 17 -3 19 -12 6z"/>
<path d="M4013 4565 c0 -8 4 -12 9 -9 5 3 6 10 3 15 -9 13 -12 11 -12 -6z"/>
<path d="M3765 4559 c-4 -6 -5 -12 -2 -15 2 -3 7 2 10 11 7 17 1 20 -8 4z"/>
<path d="M3350 4555 c0 -5 5 -17 10 -25 5 -8 10 -10 10 -5 0 6 -5 17 -10 25
-5 8 -10 11 -10 5z"/>
<path d="M1198 4543 c7 -3 16 -2 19 1 4 3 -2 6 -13 5 -11 0 -14 -3 -6 -6z"/>
<path d="M3705 4540 c-3 -6 1 -7 9 -4 18 7 21 14 7 14 -6 0 -13 -4 -16 -10z"/>
<path d="M3486 4518 c3 -5 10 -6 15 -3 13 9 11 12 -6 12 -8 0 -12 -4 -9 -9z"/>
<path d="M3428 4513 c7 -3 16 -2 19 1 4 3 -2 6 -13 5 -11 0 -14 -3 -6 -6z"/>
<path d="M3694 4500 c0 -13 4 -16 10 -10 7 7 7 13 0 20 -6 6 -10 3 -10 -10z"/>
<path d="M3934 4506 c1 -8 5 -18 8 -22 4 -3 5 1 4 10 -1 8 -5 18 -8 22 -4 3
-5 -1 -4 -10z"/>
<path d="M3899 4493 c-13 -16 -12 -17 4 -4 9 7 17 15 17 17 0 8 -8 3 -21 -13z"/>
<path d="M3617 4465 c2 -7 10 -12 17 -12 7 0 13 5 13 12 0 6 -8 11 -18 11 -9
0 -15 -5 -12 -11z"/>
<path d="M3515 4460 c3 -5 8 -10 11 -10 2 0 4 5 4 10 0 6 -5 10 -11 10 -5 0
-7 -4 -4 -10z"/>
<path d="M3537 4443 c-11 -11 25 -73 42 -73 12 0 62 52 56 58 -3 3 -12 -4 -21
-16 -8 -12 -20 -22 -26 -22 -7 0 -6 6 2 15 7 8 9 15 4 15 -5 0 -2 4 6 10 8 5
11 12 7 17 -9 8 -28 -17 -21 -28 2 -4 -3 -12 -11 -19 -12 -10 -16 -9 -21 6 -4
11 -9 23 -12 28 -3 5 2 7 11 3 9 -3 18 -3 21 1 5 9 -29 13 -37 5z"/>
<path d="M1193 4412 c0 -12 5 -22 9 -22 11 0 10 12 -2 30 -7 12 -9 10 -7 -8z"/>
<path d="M3819 4413 c-13 -16 -12 -17 4 -4 16 13 21 21 13 21 -2 0 -10 -8 -17
-17z"/>
<path d="M1156 4402 c-3 -5 1 -9 9 -9 8 0 12 4 9 9 -3 4 -7 8 -9 8 -2 0 -6 -4
-9 -8z"/>
<path d="M1179 4333 c-13 -16 -12 -17 4 -4 9 7 17 15 17 17 0 8 -8 3 -21 -13z"/>
<path d="M1193 4295 c0 -8 4 -15 9 -15 4 0 8 4 8 9 0 6 -4 12 -8 15 -5 3 -9
-1 -9 -9z"/>
<path d="M3719 4308 c-5 -18 -6 -38 -1 -34 7 8 12 36 6 36 -2 0 -4 -1 -5 -2z"/>
<path d="M3676 4282 c-3 -5 1 -9 9 -9 8 0 12 4 9 9 -3 4 -7 8 -9 8 -2 0 -6 -4
-9 -8z"/>
<path d="M1165 4260 c-3 -6 1 -7 9 -4 18 7 21 14 7 14 -6 0 -13 -4 -16 -10z"/>
<path d="M2277 4249 c7 -7 15 -10 18 -7 3 3 -2 9 -12 12 -14 6 -15 5 -6 -5z"/>
<path d="M2346 4243 c-6 -14 -5 -15 5 -6 7 7 10 15 7 18 -3 3 -9 -2 -12 -12z"/>
<path d="M3693 4245 c0 -8 4 -12 9 -9 5 3 6 10 3 15 -9 13 -12 11 -12 -6z"/>
<path d="M2373 4243 c4 -3 1 -13 -6 -22 -11 -14 -10 -14 5 -2 16 12 16 31 1
31 -4 0 -3 -3 0 -7z"/>
<path d="M2480 4246 c0 -2 7 -7 16 -10 8 -3 12 -2 9 4 -6 10 -25 14 -25 6z"/>
<path d="M2554 4215 c0 -13 3 -22 7 -19 8 4 6 30 -2 38 -3 3 -5 -5 -5 -19z"/>
<path d="M2104 4214 c-18 -15 -18 -15 2 -5 12 6 25 7 29 3 5 -4 5 -1 1 6 -9
15 -8 15 -32 -4z"/>
<path d="M2470 4219 c0 -5 5 -7 10 -4 6 3 10 8 10 11 0 2 -4 4 -10 4 -5 0 -10
-5 -10 -11z"/>
<path d="M2627 4219 c7 -7 15 -10 18 -7 3 3 -2 9 -12 12 -14 6 -15 5 -6 -5z"/>
<path d="M2662 4224 c3 -3 12 -6 20 -8 23 -3 37 -16 32 -30 -3 -8 -1 -16 4
-20 13 -8 8 32 -6 46 -6 6 -22 13 -34 15 -12 2 -19 1 -16 -3z"/>
<path d="M3646 4221 c-3 -4 6 -7 19 -7 14 0 22 2 19 5 -8 8 -34 10 -38 2z"/>
<path d="M3595 4209 c-4 -6 -5 -12 -2 -15 2 -3 7 2 10 11 7 17 1 20 -8 4z"/>
<path d="M1173 4197 c-4 -6 -1 -7 7 -2 9 6 10 2 5 -16 -8 -27 -3 -24 13 7 9
16 8 21 -4 21 -8 0 -18 -5 -21 -10z"/>
<path d="M2295 4200 c3 -5 8 -10 11 -10 2 0 4 5 4 10 0 6 -5 10 -11 10 -5 0
-7 -4 -4 -10z"/>
<path d="M2586 4198 c3 -4 9 -8 15 -8 5 0 9 4 9 8 0 5 -7 9 -15 9 -8 0 -12 -4
-9 -9z"/>
<path d="M3615 4201 c-3 -5 -2 -12 3 -15 5 -3 9 1 9 9 0 17 -3 19 -12 6z"/>
<path d="M2073 4170 c1 -21 10 -18 13 5 1 8 -2 15 -6 15 -5 0 -8 -9 -7 -20z"/>
<path d="M2260 4180 c-9 -6 -10 -10 -3 -10 6 0 15 5 18 10 8 12 4 12 -15 0z"/>
<path d="M2780 4180 c-8 -5 -10 -10 -5 -10 6 0 17 5 25 10 8 5 11 10 5 10 -5
0 -17 -5 -25 -10z"/>
<path d="M2796 4153 c-6 -14 -5 -15 5 -6 7 7 10 15 7 18 -3 3 -9 -2 -12 -12z"/>
<path d="M2850 4145 c0 -8 4 -15 10 -15 5 0 7 7 4 15 -4 8 -8 15 -10 15 -2 0
-4 -7 -4 -15z"/>
<path d="M3571 4144 c0 -11 3 -14 6 -6 3 7 2 16 -1 19 -3 4 -6 -2 -5 -13z"/>
<path d="M2020 4146 c0 -2 7 -7 16 -10 8 -3 12 -2 9 4 -6 10 -25 14 -25 6z"/>
<path d="M2010 4110 c-7 -14 -7 -20 0 -20 5 0 10 7 10 16 0 9 5 12 12 8 7 -4
8 -3 4 4 -10 16 -14 15 -26 -8z"/>
<path d="M2776 4113 c-6 -14 -5 -15 5 -6 7 7 10 15 7 18 -3 3 -9 -2 -12 -12z"/>
<path d="M1169 4103 c-13 -16 -12 -17 4 -4 9 7 17 15 17 17 0 8 -8 3 -21 -13z"/>
<path d="M2053 4105 c0 -8 4 -12 9 -9 5 3 6 10 3 15 -9 13 -12 11 -12 -6z"/>
<path d="M2911 4094 c0 -11 3 -14 6 -6 3 7 2 16 -1 19 -3 4 -6 -2 -5 -13z"/>
<path d="M3504 4102 c8 -7 66 -10 70 -3 2 3 -13 7 -35 7 -22 1 -37 -1 -35 -4z"/>
<path d="M2954 4089 c-3 -6 -1 -16 5 -22 9 -9 10 -7 5 8 -7 18 -6 18 9 6 9 -7
17 -9 17 -3 0 14 -28 23 -36 11z"/>
<path d="M1190 4086 c0 -2 7 -7 16 -10 8 -3 12 -2 9 4 -6 10 -25 14 -25 6z"/>
<path d="M1156 4067 c3 -10 9 -15 12 -12 3 3 0 11 -7 18 -10 9 -11 8 -5 -6z"/>
<path d="M1196 4057 c3 -10 9 -15 12 -12 3 3 0 11 -7 18 -10 9 -11 8 -5 -6z"/>
<path d="M2988 4053 c6 -2 10 -9 7 -14 -4 -5 2 -6 11 -2 13 5 15 3 9 -7 -6 -9
-4 -11 5 -5 10 6 9 11 -5 22 -11 7 -24 13 -29 12 -6 0 -5 -3 2 -6z"/>
<path d="M3434 4006 c1 -24 3 -42 6 -40 7 8 8 58 1 72 -4 7 -7 -7 -7 -32z"/>
<path d="M3470 4038 c0 -4 4 -8 9 -8 6 0 12 4 15 8 3 5 -1 9 -9 9 -8 0 -15 -4
-15 -9z"/>
<path d="M1150 4025 c0 -7 30 -13 34 -7 3 4 -4 9 -15 9 -10 1 -19 0 -19 -2z"/>
<path d="M2955 4020 c3 -5 8 -10 11 -10 2 0 4 5 4 10 0 6 -5 10 -11 10 -5 0
-7 -4 -4 -10z"/>
<path d="M2033 3996 c1 -6 -4 -10 -11 -8 -8 1 -11 -2 -7 -8 5 -8 13 -6 26 6
23 21 23 21 5 21 -8 0 -14 -5 -13 -11z"/>
<path d="M3010 3986 c0 -2 7 -7 16 -10 8 -3 12 -2 9 4 -6 10 -25 14 -25 6z"/>
<path d="M1994 3966 c1 -7 8 -23 16 -35 l15 -22 0 24 c0 17 -4 23 -14 19 -9
-3 -12 -1 -7 6 3 6 2 13 -3 16 -5 4 -8 0 -7 -8z"/>
<path d="M3010 3965 c0 -5 5 -17 10 -25 5 -8 10 -10 10 -5 0 6 -5 17 -10 25
-5 8 -10 11 -10 5z"/>
<path d="M3388 3963 c7 -3 16 -2 19 1 4 3 -2 6 -13 5 -11 0 -14 -3 -6 -6z"/>
<path d="M1193 3932 c0 -12 5 -22 9 -22 11 0 10 12 -2 30 -7 12 -9 10 -7 -8z"/>
<path d="M3330 3946 c0 -2 7 -7 16 -10 8 -3 12 -2 9 4 -6 10 -25 14 -25 6z"/>
<path d="M4500 3946 c0 -2 8 -10 18 -17 15 -13 16 -12 3 4 -13 16 -21 21 -21
13z"/>
<path d="M1156 3922 c-3 -5 1 -9 9 -9 8 0 12 4 9 9 -3 4 -7 8 -9 8 -2 0 -6 -4
-9 -8z"/>
<path d="M1993 3905 c0 -8 4 -15 9 -15 4 0 8 4 8 9 0 6 -4 12 -8 15 -5 3 -9
-1 -9 -9z"/>
<path d="M3070 3909 c0 -5 5 -7 10 -4 6 3 10 8 10 11 0 2 -4 4 -10 4 -5 0 -10
-5 -10 -11z"/>
<path d="M3295 3911 c-3 -5 -2 -12 3 -15 5 -3 9 1 9 9 0 17 -3 19 -12 6z"/>
<path d="M3050 3901 c0 -6 4 -13 10 -16 6 -3 7 1 4 9 -7 18 -14 21 -14 7z"/>
<path d="M4506 3886 c-4 -18 -11 -24 -23 -19 -10 4 -14 2 -10 -4 9 -14 -21
-45 -34 -37 -5 3 -8 1 -7 -3 4 -13 -54 -73 -69 -73 -7 0 -13 -5 -13 -11 0 -5
6 -7 13 -3 6 3 -1 -5 -18 -20 -16 -14 -34 -25 -40 -25 -5 -1 -4 3 3 8 11 6 10
10 -4 15 -10 4 -15 4 -11 0 4 -4 -1 -13 -11 -21 -15 -11 -15 -12 -1 -7 10 3
20 1 24 -5 3 -6 1 -11 -5 -11 -17 0 -40 -26 -32 -35 4 -5 3 -6 -3 -3 -13 6
-46 -28 -37 -38 4 -4 2 -4 -4 -1 -7 4 -14 0 -18 -8 -3 -8 -10 -15 -16 -15 -6
0 -9 4 -5 9 3 5 0 13 -6 17 -8 5 -9 3 -4 -6 6 -10 2 -12 -17 -8 -15 3 -25 0
-25 -7 0 -7 10 -10 22 -7 13 2 26 -2 30 -9 6 -9 2 -11 -12 -7 -16 4 -19 2 -16
-13 4 -13 -2 -20 -20 -24 -14 -4 -30 -4 -35 -1 -5 3 -9 -1 -9 -8 0 -8 6 -12
14 -9 9 4 11 0 7 -11 -3 -9 -9 -14 -13 -13 -6 3 -44 -33 -48 -46 -3 -12 -71
-76 -76 -71 -2 2 -4 -2 -4 -9 0 -9 16 -13 45 -14 25 -1 49 -7 53 -15 7 -10 9
-10 9 0 0 6 7 12 15 12 8 0 15 -5 15 -11 0 -5 5 -7 10 -4 10 6 14 -6 11 -35
-2 -13 0 -13 8 -1 5 8 7 20 4 28 -4 10 0 11 18 5 13 -5 30 -7 38 -4 9 3 11 0
6 -7 -4 -8 -2 -12 6 -10 8 1 22 1 33 0 16 -1 17 -3 5 -18 -13 -15 -12 -15 8
-5 28 15 33 15 33 -2 0 -8 7 -17 16 -20 14 -5 15 -4 5 8 -9 11 -1 9 28 -5 23
-11 41 -22 41 -25 0 -3 -4 -3 -9 0 -4 3 -17 -2 -27 -10 -10 -9 -13 -12 -6 -9
20 10 62 13 62 4 0 -4 -6 -10 -12 -13 -7 -3 0 -4 17 -3 22 1 30 -3 33 -17 3
-11 0 -16 -7 -11 -6 3 -8 11 -5 17 4 7 2 8 -5 4 -6 -4 -8 -12 -5 -18 5 -7 2
-9 -7 -6 -11 4 -15 -1 -15 -17 0 -13 4 -21 8 -19 5 3 6 10 3 15 -4 5 -1 10 4
10 20 3 26 4 36 10 6 4 21 -5 35 -19 14 -13 18 -21 10 -18 -9 5 -8 2 3 -7 9
-8 17 -17 17 -21 0 -4 9 -17 20 -29 11 -12 19 -28 17 -37 -1 -8 3 -20 10 -25
21 -16 25 -61 7 -79 -18 -19 -4 -22 15 -3 11 10 12 8 6 -10 -4 -16 -2 -23 7
-23 7 0 2 -9 -12 -20 l-25 -19 25 6 c25 5 25 5 5 -11 -11 -10 -15 -15 -9 -12
7 3 14 -5 16 -19 5 -24 -5 -31 -35 -26 -5 1 -6 -3 -3 -8 3 -5 16 -7 29 -4 22
5 22 5 2 -11 -11 -10 -14 -15 -7 -11 7 4 12 -1 12 -12 0 -11 -6 -25 -12 -32
-10 -11 -10 -13 0 -7 14 8 17 -20 3 -29 -6 -3 -8 -14 -6 -25 2 -11 -1 -20 -6
-20 -6 0 -8 -4 -4 -9 3 -5 1 -12 -5 -16 -6 -4 -8 -11 -5 -16 4 -5 1 -9 -4 -9
-14 0 -14 12 -1 28 5 7 2 6 -7 -2 -13 -12 -14 -18 -4 -29 9 -12 9 -18 -3 -30
-8 -8 -12 -17 -9 -21 4 -3 1 -6 -5 -6 -7 0 -12 -6 -12 -12 0 -16 -76 -89 -84
-81 -3 4 -6 1 -6 -6 0 -7 -4 -9 -10 -6 -6 3 -7 -1 -4 -9 4 -9 1 -16 -6 -16 -7
0 -25 -10 -42 -21 -16 -12 -40 -21 -54 -21 -13 0 -21 -4 -18 -9 3 -5 -3 -12
-12 -16 -10 -4 -19 -2 -22 5 -2 7 -8 12 -13 12 -4 0 -6 -7 -3 -15 4 -8 2 -15
-2 -16 -5 0 -19 -2 -31 -5 -14 -2 -22 1 -20 7 1 7 -8 12 -20 14 -14 1 -19 -3
-16 -12 3 -7 9 -10 14 -7 5 3 9 0 9 -5 0 -10 -24 -15 -60 -13 -8 0 -23 -4 -34
-10 -15 -8 -18 -7 -13 5 4 11 2 14 -8 10 -8 -3 -13 -8 -11 -12 8 -12 -288 -8
-296 3 -5 7 -8 7 -8 -1 0 -8 -13 -12 -35 -11 -19 1 -35 6 -35 12 0 6 -5 5 -12
-2 -18 -18 -25 -15 -30 13 -4 18 -1 25 11 26 11 0 12 2 3 6 -7 3 -19 -1 -28
-7 -8 -7 -18 -9 -22 -5 -4 4 -1 10 6 12 6 3 12 9 12 15 0 6 -7 4 -17 -3 -15
-12 -16 -12 -9 6 4 11 4 16 0 13 -4 -4 -15 -3 -25 2 -12 7 -20 6 -25 -2 -4 -6
-3 -8 3 -5 6 4 9 -6 8 -23 -1 -16 2 -27 6 -25 4 3 9 -2 13 -10 3 -8 0 -17 -6
-21 -7 -4 -8 -3 -4 4 9 14 -6 16 -19 3 -13 -13 -13 399 -1 418 6 9 5 12 -2 7
-6 -3 -13 -2 -16 3 -3 5 1 12 9 15 10 4 19 -2 25 -17 6 -15 9 -17 9 -6 1 16
-22 43 -30 35 -2 -3 -4 11 -5 29 0 22 3 32 10 28 7 -5 7 -2 0 8 -6 8 -10 22
-9 32 2 9 -2 17 -8 17 -8 0 -7 3 2 9 10 6 10 10 1 16 -6 4 -19 0 -29 -9 -12
-11 -21 -12 -27 -6 -7 7 -11 6 -11 -4 0 -8 4 -13 9 -10 19 12 6 -6 -33 -44
-29 -30 -42 -37 -46 -27 -7 20 -49 12 -45 -8 2 -11 -3 -14 -17 -10 -13 3 -18
11 -14 21 4 14 3 15 -5 2 -13 -17 -6 -30 14 -30 8 0 14 -4 14 -10 0 -15 -21
-12 -40 5 -14 13 -17 13 -17 0 0 -8 4 -12 9 -9 4 3 11 -2 14 -10 8 -20 40 -5
48 22 6 18 36 27 36 10 0 -4 -7 -8 -17 -8 -9 0 -14 -3 -10 -6 6 -7 -34 -49
-48 -49 -5 -1 -9 -6 -7 -13 3 -15 -34 -16 -43 -2 -4 6 -11 8 -16 5 -5 -4 -9 1
-9 9 0 9 -5 16 -11 16 -7 0 -6 -8 3 -22 8 -13 14 -31 12 -40 -1 -10 2 -18 8
-18 6 0 7 7 4 16 -4 10 -2 13 6 8 7 -5 8 -2 3 7 -6 11 -5 12 5 2 11 -11 10
-17 -8 -36 -12 -13 -28 -24 -35 -25 -6 -1 -23 -3 -37 -5 -17 -3 -29 3 -38 17
-8 13 -11 14 -8 4 3 -9 -2 -22 -10 -28 -11 -10 -14 -10 -14 0 0 8 -3 11 -6 8
-3 -4 -1 -15 5 -26 10 -19 -2 -42 -23 -42 -6 0 -5 5 2 12 7 7 12 17 12 23 0 5
-5 2 -11 -8 -6 -9 -16 -14 -22 -11 -7 4 -9 4 -5 -1 4 -4 3 -14 -3 -21 -7 -9
-5 -20 8 -40 12 -19 13 -25 4 -19 -11 6 -13 4 -8 -7 3 -9 -3 -24 -14 -34 -10
-9 -19 -12 -19 -6 0 6 6 13 13 15 9 4 9 6 0 6 -7 1 -17 -8 -23 -19 -6 -11 -8
-20 -4 -20 4 0 -3 -11 -16 -25 -12 -13 -27 -23 -33 -22 -6 1 -11 -3 -12 -10 0
-19 -22 -37 -29 -25 -3 6 0 17 8 25 8 8 12 18 8 22 -4 5 -1 5 7 0 10 -6 12 -4
6 5 -6 9 -4 11 5 5 9 -6 11 -4 5 5 -6 9 -4 11 4 5 10 -6 11 -3 2 13 -7 14 -8
23 -1 27 5 3 11 1 11 -4 3 -26 4 -30 11 -37 8 -8 2 31 -7 46 -3 6 1 10 9 10
10 0 13 -6 9 -17 -5 -15 -3 -14 10 2 8 11 13 23 11 27 -3 4 3 5 12 1 14 -5 16
-3 11 11 -5 12 -3 15 6 11 6 -4 4 0 -5 8 -10 8 -16 17 -13 20 3 4 2 4 -2 1 -4
-3 -8 -13 -8 -22 0 -9 -10 -21 -21 -27 -12 -6 -28 -16 -36 -23 -10 -7 -18 -8
-26 -2 -9 7 -9 7 -2 -2 14 -17 12 -31 -2 -22 -10 6 -10 4 0 -8 11 -14 10 -18
-3 -26 -9 -5 -16 -12 -16 -15 3 -20 0 -28 -9 -22 -5 3 -7 13 -4 23 5 15 4 15
-9 -1 -8 -10 -19 -19 -24 -20 -4 -1 -8 -7 -8 -14 0 -18 -19 -34 -43 -36 -11 0
-18 -5 -15 -9 2 -5 13 -6 24 -3 14 5 17 2 13 -8 -3 -8 0 -18 7 -23 9 -5 10 -2
6 9 -3 9 -2 19 4 22 5 4 7 11 4 16 -3 5 0 6 8 3 8 -3 17 2 20 10 4 9 1 15 -5
13 -6 -1 -12 3 -15 10 -7 18 28 8 39 -12 8 -13 7 -16 -1 -10 -8 4 -11 2 -9 -7
2 -8 -17 -35 -41 -61 -35 -36 -48 -44 -61 -37 -10 5 -20 6 -24 3 -3 -3 -6 1
-6 10 0 10 -5 17 -10 17 -7 0 -7 -6 0 -20 7 -14 7 -20 0 -20 -5 0 -10 5 -10
10 0 6 -5 10 -10 10 -6 0 -3 -11 5 -24 11 -16 13 -26 6 -31 -6 -3 -11 -1 -11
4 0 6 -7 11 -15 11 -12 0 -12 -3 3 -18 15 -16 18 -16 27 -3 5 9 10 21 10 26 1
6 7 9 14 7 7 -1 10 2 5 10 -5 10 -4 10 6 1 9 -9 1 -23 -42 -67 -30 -31 -60
-56 -66 -56 -7 0 -12 -5 -12 -11 0 -5 6 -7 13 -3 17 10 -1 -8 -37 -34 -16 -12
-26 -22 -23 -22 3 0 -17 -22 -45 -50 -28 -27 -54 -50 -60 -50 -5 0 -6 -4 -3
-10 6 -9 -8 -14 -28 -11 -5 1 -6 -2 -3 -7 6 -9 -47 -65 -59 -62 -4 1 -10 -2
-13 -6 -4 -4 -1 -4 6 0 22 13 13 -3 -19 -34 -18 -16 -36 -30 -41 -30 -5 0 -6
-4 -3 -10 6 -9 -8 -14 -28 -11 -4 0 -6 -2 -6 -6 3 -19 -2 -36 -8 -30 -3 4 -13
-2 -20 -13 -8 -11 -18 -18 -23 -15 -5 3 -12 0 -16 -6 -4 -8 -3 -9 4 -5 7 4 12
3 12 -3 0 -5 -9 -13 -20 -16 -11 -4 -17 -11 -14 -17 5 -7 1 -9 -9 -5 -10 4
-16 2 -14 -6 1 -7 -3 -11 -10 -10 -8 2 -10 -4 -6 -14 4 -10 2 -14 -4 -10 -5 3
-16 -5 -23 -18 -7 -13 -17 -22 -22 -19 -4 3 -8 1 -8 -5 0 -18 -30 -40 -50 -36
-12 2 -18 0 -15 -6 4 -5 11 -7 16 -4 5 4 9 1 9 -4 0 -6 -7 -11 -16 -11 -8 0
-13 -4 -10 -8 3 -5 -3 -14 -13 -21 -20 -15 -18 -45 5 -72 8 -9 11 -19 7 -23
-5 -5 13 3 38 18 26 14 50 22 54 18 5 -4 5 -1 1 5 -10 17 62 86 82 78 13 -5
13 -3 1 12 -12 15 -12 16 4 10 10 -4 16 -3 13 1 -3 5 13 27 35 50 21 23 39 39
39 35 0 -5 5 0 11 10 6 9 15 14 21 11 6 -4 8 -3 5 3 -8 12 21 55 33 48 5 -3
11 4 15 15 6 18 17 25 38 21 5 -1 6 2 3 7 -8 13 113 134 126 126 6 -4 8 -3 4
4 -3 6 4 18 16 26 12 9 19 16 16 16 -4 0 4 11 18 25 14 14 27 25 29 25 2 0 2
-16 0 -35 -2 -23 2 -38 14 -47 13 -10 14 -10 4 2 -18 20 -16 35 2 20 10 -9 15
-9 15 -1 0 6 -4 11 -9 11 -14 0 -20 37 -7 51 8 9 8 10 -1 5 -7 -4 -13 -3 -13
2 0 10 29 26 43 24 4 -1 7 4 7 11 0 7 9 20 20 30 11 9 20 13 20 8 0 -5 -7 -14
-15 -21 -8 -7 -12 -16 -9 -21 3 -5 0 -9 -6 -9 -7 0 -10 -7 -6 -15 4 -12 2 -13
-12 -6 -15 8 -18 5 -17 -17 0 -17 6 -26 14 -24 9 2 11 -3 7 -13 -3 -9 1 -18 9
-21 8 -4 12 -11 8 -17 -3 -6 -1 -7 6 -3 6 4 9 12 6 17 -4 5 -2 9 3 9 5 0 10
-11 10 -24 0 -15 -5 -23 -13 -20 -6 3 -18 -3 -26 -13 -13 -16 -12 -17 3 -5 23
19 35 9 36 -30 1 -31 0 -32 -14 -14 -11 16 -11 22 -1 28 7 4 8 8 1 8 -6 0 -13
-3 -17 -6 -6 -7 13 -54 22 -54 4 0 8 -11 9 -26 1 -14 -2 -23 -7 -19 -5 3 -13
0 -17 -6 -4 -8 -3 -9 5 -5 17 11 25 -22 10 -41 -8 -10 -9 -14 -2 -10 19 12 12
-181 -7 -194 -13 -9 -12 -10 3 -5 13 4 17 0 17 -20 0 -14 -4 -22 -10 -19 -5 3
-10 1 -10 -4 0 -6 5 -11 10 -11 17 0 11 -28 -7 -33 -16 -4 -16 -5 -2 -6 14 -1
17 -11 16 -51 0 -31 -4 -46 -8 -38 -7 10 -9 10 -9 -1 0 -8 7 -19 17 -26 13 -9
13 -14 3 -20 -8 -5 -11 -4 -7 1 3 6 -3 11 -14 11 -10 1 -19 -3 -19 -8 0 -6 3
-8 8 -5 4 2 16 -2 27 -10 10 -8 13 -14 7 -14 -8 0 -10 -9 -6 -24 4 -17 0 -28
-13 -36 -16 -10 -16 -11 0 -6 13 4 17 0 17 -20 0 -14 -4 -22 -10 -19 -5 3 -10
1 -10 -4 0 -6 5 -11 10 -11 17 0 11 -28 -7 -33 -16 -4 -16 -5 -2 -6 14 -1 17
-11 16 -51 0 -31 -4 -46 -8 -38 -7 10 -9 10 -9 -1 0 -8 7 -19 17 -26 13 -9 13
-14 3 -20 -8 -5 -11 -4 -7 1 3 6 -3 11 -14 11 -10 1 -19 -3 -19 -8 0 -6 3 -8
8 -5 4 2 16 -2 27 -10 10 -8 14 -14 8 -14 -7 0 -10 -11 -7 -27 3 -15 0 -30 -8
-34 -8 -6 -9 -9 -2 -9 8 0 11 -41 10 -140 0 -85 3 -142 9 -145 6 -3 -1 -2 -15
1 -21 4 -22 3 -8 -6 20 -12 22 -76 4 -99 -8 -11 -8 -13 1 -8 8 5 13 -3 15 -25
2 -24 8 -33 21 -32 16 2 22 -8 18 -29 -1 -5 3 -6 8 -2 6 3 8 11 5 19 -3 7 2
13 10 13 8 0 12 -5 9 -10 -4 -6 -1 -7 8 -2 11 8 40 10 65 6 4 -1 2 -7 -4 -14
-8 -10 -6 -13 7 -13 10 0 17 6 14 12 -2 7 1 15 8 20 8 5 10 3 4 -7 -7 -11 -6
-12 6 -4 16 12 39 13 57 2 7 -5 12 -3 12 3 0 6 5 8 10 5 6 -4 8 -12 4 -18 -3
-7 0 -5 8 3 9 11 34 15 93 15 44 0 86 -4 93 -8 7 -5 12 -3 13 5 0 7 4 4 9 -7
6 -15 9 -16 9 -4 1 16 27 19 49 5 7 -4 12 -2 13 6 0 7 4 4 9 -7 7 -17 9 -17 9
-3 1 19 21 20 33 3 5 -6 8 -5 8 3 0 7 5 10 10 7 8 -5 7 -11 -1 -21 -10 -12 -9
-13 5 -8 9 3 16 12 16 20 0 8 6 11 15 8 9 -4 12 -11 8 -18 -5 -7 0 -3 10 7 12
13 17 15 17 6 0 -9 3 -10 8 -4 8 13 22 13 41 1 10 -6 12 -5 7 2 -4 7 -3 12 2
12 4 0 8 15 7 33 -1 36 12 60 28 50 6 -3 7 -1 3 6 -6 8 -12 9 -20 2 -10 -8
-13 -4 -13 19 0 17 5 27 10 23 6 -4 7 -1 1 8 -13 21 -13 82 0 98 6 9 7 12 1 9
-7 -4 -11 7 -12 28 0 21 3 31 10 27 6 -4 7 -1 1 8 -14 23 -10 83 6 97 13 12
13 13 -2 8 -12 -3 -16 0 -13 14 2 11 -1 22 -6 25 -5 4 -6 11 -2 18 10 17 11
210 0 224 -6 9 1 22 25 44 28 27 29 29 6 14 -31 -19 -38 -10 -10 12 13 11 13
13 2 10 -14 -4 -15 26 -15 242 0 224 2 247 17 247 9 0 14 -4 12 -8 -3 -4 0 -8
5 -8 6 0 11 7 11 16 0 10 -6 14 -15 11 -16 -7 -28 7 -32 38 -2 16 -1 17 6 5 5
-8 8 -17 6 -21 -3 -4 9 -9 26 -13 20 -4 28 -10 23 -18 -4 -6 7 -2 24 11 18 12
32 28 32 34 0 8 -3 7 -9 -2 -5 -8 -14 -10 -21 -6 -8 5 -11 4 -6 -3 3 -6 2 -13
-3 -16 -5 -3 -12 1 -15 10 -9 23 -8 26 12 22 9 -1 22 0 27 4 6 4 17 3 25 -2
12 -7 11 -12 -5 -30 -18 -20 -18 -21 0 -38 18 -16 18 -16 5 2 -12 16 -12 20 3
31 9 7 17 19 17 27 0 8 6 15 14 15 8 0 12 -8 9 -21 -4 -21 -4 -21 9 -1 10 16
24 20 64 20 46 0 50 -2 47 -20 l-4 -20 13 20 c12 18 24 20 148 19 74 0 144 3
155 7 13 4 25 0 33 -10 7 -9 11 -10 7 -3 -3 6 -3 12 2 13 4 0 19 2 32 5 13 2
31 -1 39 -8 13 -11 14 -11 7 1 -6 11 -4 13 8 8 10 -3 17 -2 17 4 0 5 12 2 28
-7 24 -14 25 -14 8 0 -20 16 -20 16 0 17 10 0 29 2 42 5 17 3 21 1 16 -8 -5
-7 5 -3 20 10 24 18 32 20 45 10 9 -7 12 -8 8 -3 -5 5 10 14 35 20 29 7 45 7
50 0 5 -6 8 -2 8 8 0 10 4 16 10 12 5 -3 7 -13 4 -23 -5 -14 -4 -14 4 -2 6 8
9 17 6 21 -2 4 3 10 12 13 10 4 13 2 9 -7 -4 -6 0 -4 8 5 11 14 16 15 26 5 10
-9 12 -9 9 3 -2 9 3 14 11 12 8 -2 18 3 22 10 5 7 13 14 19 14 5 1 12 3 15 4
3 1 8 3 13 4 14 4 67 31 72 37 8 9 44 22 58 20 7 -1 11 4 10 11 -2 7 3 12 10
10 6 -1 12 2 12 8 0 5 7 10 16 10 8 0 12 4 9 10 -4 6 1 7 11 3 13 -5 15 -3 9
7 -6 10 -4 12 9 7 9 -4 15 -3 12 2 -8 13 31 44 45 35 8 -5 11 -2 6 8 -3 10 4
24 19 37 13 11 24 18 24 13 0 -4 9 8 20 26 25 41 42 42 30 2 -5 -19 -5 -28 1
-25 5 4 9 15 9 25 0 14 5 18 18 13 14 -5 13 -3 -3 10 -13 11 -16 19 -9 24 6 5
13 16 17 26 3 9 12 17 19 17 9 0 9 -3 0 -12 -7 -7 -12 -17 -12 -22 1 -16 24
27 25 44 0 8 5 14 11 13 6 -1 10 8 10 20 -1 12 4 21 11 20 8 -2 10 4 6 14 -4
10 -2 14 4 10 6 -4 14 0 17 9 4 10 2 13 -7 9 -6 -4 -3 1 7 9 11 9 16 16 12 16
-4 0 1 15 12 33 12 17 21 35 21 40 1 4 1 10 1 15 1 4 8 -4 16 -18 10 -17 13
-18 8 -5 -14 42 -16 65 -5 65 7 0 11 6 10 13 -1 6 -1 20 0 31 1 16 3 17 18 5
15 -13 15 -12 6 5 -7 12 -7 32 -1 55 5 20 11 47 14 61 3 13 11 28 17 32 9 6 9
8 0 8 -7 0 -13 5 -13 11 0 6 7 8 16 5 14 -5 15 -4 4 9 -7 8 -9 15 -5 15 4 0 2
6 -4 14 -7 9 -8 17 -2 20 5 3 11 1 13 -6 2 -6 12 -12 21 -14 9 -1 14 2 11 8
-3 5 -8 7 -12 4 -5 -6 -31 24 -32 37 0 4 5 7 11 7 5 0 7 -5 3 -12 -4 -7 -3 -8
4 -4 6 4 9 13 6 21 -4 8 -9 13 -13 10 -4 -2 -8 2 -8 10 0 8 4 15 9 15 4 0 8 5
8 11 0 5 -4 8 -8 5 -5 -3 -9 1 -9 9 0 8 4 15 8 15 4 0 10 7 13 16 3 8 2 12 -4
9 -6 -4 -10 8 -11 27 0 18 -2 41 -4 51 -2 11 1 15 8 11 8 -5 8 -3 0 6 -10 11
-9 16 5 27 16 14 16 14 0 9 -13 -4 -18 0 -19 17 0 12 -2 38 -4 57 -3 38 11 63
29 53 6 -3 5 0 -3 8 -10 11 -15 11 -18 2 -6 -18 -20 -16 -20 2 0 8 5 15 11 15
6 0 3 5 -6 11 -9 5 -15 16 -12 23 3 8 0 17 -5 21 -6 3 -9 10 -6 15 3 5 -2 21
-12 36 -17 27 -17 27 7 20 l25 -7 -23 14 c-12 7 -19 16 -16 20 4 4 2 7 -4 7
-7 0 -12 6 -12 14 0 8 -9 31 -21 51 -16 26 -18 39 -10 49 11 14 5 26 -13 26
-6 0 -4 -5 4 -11 10 -7 11 -9 2 -7 -8 2 -13 7 -12 12 1 5 -4 13 -12 18 -9 7
-7 8 10 5 12 -3 20 -1 16 4 -3 5 -14 9 -25 9 -10 0 -19 7 -19 15 0 8 -5 15
-11 15 -6 0 -9 7 -5 15 3 8 0 15 -7 15 -11 1 -77 80 -77 93 0 4 7 7 16 7 9 0
12 -5 8 -12 -4 -7 -3 -10 1 -5 5 4 9 16 10 27 1 14 -2 17 -10 10 -7 -5 -15 -7
-18 -3 -4 3 -7 1 -7 -5 0 -7 -5 -12 -11 -12 -6 0 -9 6 -6 13 3 6 8 20 12 30 4
10 3 17 -4 17 -6 0 -10 -3 -10 -7 3 -19 -2 -33 -12 -33 -6 0 -8 9 -4 23 5 17
4 18 -4 7 -15 -22 -63 25 -56 54 5 18 5 19 -5 4 -9 -15 -12 -15 -34 5 -12 12
-26 29 -29 37 -4 10 -6 11 -6 2 -1 -7 -6 -10 -11 -7 -8 5 -7 12 2 23 12 15 11
16 -5 3 -16 -13 -20 -13 -27 -1 -5 8 -6 19 -2 25 4 6 1 6 -9 -1 -11 -8 -22 -6
-46 11 -18 12 -29 26 -25 30 4 5 -1 5 -10 2 -10 -3 -20 -2 -23 3 -4 6 -1 10 6
10 7 0 9 3 6 6 -4 4 -14 1 -24 -7 -15 -12 -16 -12 -10 4 4 11 3 16 -3 12 -6
-3 -26 -1 -45 6 -25 10 -34 18 -30 29 5 11 3 12 -6 3 -8 -8 -20 -8 -43 -1 -51
16 -56 17 -62 17 -4 0 -10 5 -14 11 -5 8 -10 3 -14 -14z m-1330 -1317 c1 -19
-36 -59 -53 -59 -8 0 -12 -4 -9 -9 3 -5 0 -14 -8 -20 -10 -8 -17 -6 -30 8 -19
21 -12 51 7 32 13 -13 30 -15 23 -2 -3 5 1 14 10 21 8 7 13 19 10 26 -6 17 3
24 28 20 12 -2 21 -9 22 -17z m34 17 c0 -3 -4 -8 -10 -11 -5 -3 -10 -1 -10 4
0 6 5 11 10 11 6 0 10 -2 10 -4z m369 -262 c7 -17 17 -24 26 -20 11 4 15 -1
14 -17 0 -12 -3 -16 -6 -9 -4 9 -8 10 -18 2 -10 -8 -15 -6 -21 12 -4 13 -7 26
-6 31 1 4 -2 7 -8 7 -5 0 -10 5 -10 10 0 19 17 10 29 -16z m-813 -402 c-3 -37
-13 -51 -36 -49 -23 1 -21 22 1 22 8 0 15 6 15 13 1 6 3 15 4 20 1 4 2 10 1
15 0 4 3 7 8 7 5 0 8 -12 7 -28z m14 -46 c0 -10 -32 -36 -43 -36 -7 1 -1 10
12 20 23 20 31 24 31 16z m793 -260 c4 -10 1 -13 -9 -9 -15 6 -19 23 -5 23 5
0 11 -7 14 -14z"/>
<path d="M3142 2571 c2 -23 -4 -41 -11 -36 -5 3 -12 1 -16 -5 -10 -17 21 -11
36 6 18 22 20 41 3 41 -7 0 -13 -3 -12 -6z"/>
<path d="M3080 2502 c9 -19 30 -23 30 -5 0 4 -3 3 -7 0 -3 -4 -12 1 -20 11
-13 15 -13 15 -3 -6z"/>
<path d="M4604 3899 c-4 -7 -3 -9 4 -5 5 3 13 0 15 -6 4 -9 6 -10 6 -1 1 17
-16 25 -25 12z"/>
<path d="M2050 3880 c0 -5 5 -10 11 -10 5 0 7 5 4 10 -3 6 -8 10 -11 10 -2 0
-4 -4 -4 -10z"/>
<path d="M4677 3871 c3 -11 11 -22 19 -25 11 -4 11 0 -2 19 -20 30 -24 31 -17
6z"/>
<path d="M3295 3869 c-4 -6 -5 -12 -2 -15 2 -3 7 2 10 11 7 17 1 20 -8 4z"/>
<path d="M1179 3853 c-13 -16 -12 -17 4 -4 9 7 17 15 17 17 0 8 -8 3 -21 -13z"/>
<path d="M2040 3835 c-7 -8 -15 -13 -19 -11 -4 3 -13 1 -21 -4 -11 -7 -9 -9 8
-7 19 1 67 37 50 37 -3 0 -11 -7 -18 -15z"/>
<path d="M3034 3842 c4 -3 14 -7 22 -8 9 -1 13 0 10 4 -4 3 -14 7 -22 8 -9 1
-13 0 -10 -4z"/>
<path d="M4375 3840 c-3 -5 -1 -10 4 -10 6 0 11 5 11 10 0 6 -2 10 -4 10 -3 0
-8 -4 -11 -10z"/>
<path d="M4438 3843 c7 -3 16 -2 19 1 4 3 -2 6 -13 5 -11 0 -14 -3 -6 -6z"/>
<path d="M1193 3815 c0 -8 4 -15 9 -15 4 0 8 4 8 9 0 6 -4 12 -8 15 -5 3 -9
-1 -9 -9z"/>
<path d="M4389 3803 c-13 -17 -13 -17 6 -3 11 8 22 16 24 17 2 2 0 3 -6 3 -6
0 -17 -8 -24 -17z"/>
<path d="M4875 3809 c-4 -6 -5 -12 -2 -15 2 -3 7 2 10 11 7 17 1 20 -8 4z"/>
<path d="M3253 3795 c0 -8 4 -12 9 -9 5 3 6 10 3 15 -9 13 -12 11 -12 -6z"/>
<path d="M4833 3785 c0 -30 6 -28 12 4 2 11 0 21 -4 21 -5 0 -8 -11 -8 -25z"/>
<path d="M1165 3780 c-3 -6 1 -7 9 -4 18 7 21 14 7 14 -6 0 -13 -4 -16 -10z"/>
<path d="M4893 3775 c0 -8 4 -12 9 -9 5 3 6 10 3 15 -9 13 -12 11 -12 -6z"/>
<path d="M1995 3770 c-3 -5 -1 -10 4 -10 6 0 11 5 11 10 0 6 -2 10 -4 10 -3 0
-8 -4 -11 -10z"/>
<path d="M2047 3759 c7 -7 15 -10 18 -7 3 3 -2 9 -12 12 -14 6 -15 5 -6 -5z"/>
<path d="M4295 3760 c-2 -3 7 -7 20 -8 13 -1 26 2 29 6 2 4 -7 7 -21 7 -14 0
-26 -2 -28 -5z"/>
<path d="M4953 3745 c0 -8 4 -12 9 -9 5 3 6 10 3 15 -9 13 -12 11 -12 -6z"/>
<path d="M2010 3740 c0 -5 5 -10 10 -10 6 0 10 5 10 10 0 6 -4 10 -10 10 -5 0
-10 -4 -10 -10z"/>
<path d="M1173 3717 c-3 -6 -1 -7 5 -3 5 3 12 1 14 -6 3 -8 6 -7 10 3 7 17
-19 22 -29 6z"/>
<path d="M2046 3722 c-3 -5 1 -9 9 -9 8 0 12 4 9 9 -3 4 -7 8 -9 8 -2 0 -6 -4
-9 -8z"/>
<path d="M4318 3723 c7 -3 16 -2 19 1 4 3 -2 6 -13 5 -11 0 -14 -3 -6 -6z"/>
<path d="M2000 3714 c0 -6 7 -19 16 -30 14 -18 14 -18 3 6 -14 31 -19 36 -19
24z"/>
<path d="M4946 3697 c3 -10 9 -15 12 -12 3 3 0 11 -7 18 -10 9 -11 8 -5 -6z"/>
<path d="M4999 3693 c-13 -16 -12 -17 4 -4 9 7 17 15 17 17 0 8 -8 3 -21 -13z"/>
<path d="M1993 3665 c0 -8 4 -15 9 -15 4 0 8 4 8 9 0 6 -4 12 -8 15 -5 3 -9
-1 -9 -9z"/>
<path d="M4233 3653 c0 -10 4 -10 16 -1 9 7 18 13 20 15 2 1 -5 1 -16 0 -11 0
-20 -7 -20 -14z"/>
<path d="M4985 3660 c-3 -5 0 -7 8 -4 8 3 18 1 22 -5 3 -6 1 -11 -6 -11 -7 0
-10 -3 -6 -6 3 -3 11 -3 17 1 8 5 8 11 -1 21 -13 16 -25 18 -34 4z"/>
<path d="M2035 3631 c-3 -5 -2 -12 3 -15 5 -3 9 1 9 9 0 17 -3 19 -12 6z"/>
<path d="M4158 3628 c12 -15 55 -18 68 -5 4 3 -7 4 -22 3 -16 -2 -36 1 -44 8
-13 9 -13 9 -2 -6z"/>
<path d="M1198 3583 c7 -3 16 -2 19 1 4 3 -2 6 -13 5 -11 0 -14 -3 -6 -6z"/>
<path d="M2015 3579 c-3 -4 2 -6 10 -5 21 3 28 13 10 13 -9 0 -18 -4 -20 -8z"/>
<path d="M4095 3549 c-4 -6 -5 -12 -2 -15 2 -3 7 2 10 11 7 17 1 20 -8 4z"/>
<path d="M2071 3533 c7 -12 15 -20 18 -17 3 2 -3 12 -13 22 -17 16 -18 16 -5
-5z"/>
<path d="M4133 3535 c0 -8 4 -12 9 -9 5 3 6 10 3 15 -9 13 -12 11 -12 -6z"/>
<path d="M5105 3540 c-7 -12 2 -30 16 -30 5 0 9 5 9 11 0 5 -5 7 -12 3 -8 -5
-9 -2 -5 9 7 19 2 23 -8 7z"/>
<path d="M2014 3518 c-4 -7 -4 -10 1 -6 4 4 15 2 24 -5 14 -11 14 -10 2 6 -16
20 -18 21 -27 5z"/>
<path d="M5140 3500 c0 -5 5 -10 11 -10 5 0 7 5 4 10 -3 6 -8 10 -11 10 -2 0
-4 -4 -4 -10z"/>
<path d="M4040 3480 c-9 -6 -10 -10 -3 -10 6 0 15 5 18 10 8 12 4 12 -15 0z"/>
<path d="M5174 3466 c1 -8 5 -18 8 -22 4 -3 5 1 4 10 -1 8 -5 18 -8 22 -4 3
-5 -1 -4 -10z"/>
<path d="M1193 3452 c0 -12 5 -22 9 -22 11 0 10 12 -2 30 -7 12 -9 10 -7 -8z"/>
<path d="M2014 3459 c-10 -17 9 -30 26 -18 12 9 12 10 -4 5 -13 -5 -17 -2 -12
9 6 17 0 20 -10 4z"/>
<path d="M5227 3459 c7 -7 15 -10 18 -7 3 3 -2 9 -12 12 -14 6 -15 5 -6 -5z"/>
<path d="M1156 3442 c-3 -5 1 -9 9 -9 8 0 12 4 9 9 -3 4 -7 8 -9 8 -2 0 -6 -4
-9 -8z"/>
<path d="M1995 3420 c-3 -5 -1 -10 4 -10 6 0 11 5 11 10 0 6 -2 10 -4 10 -3 0
-8 -4 -11 -10z"/>
<path d="M5230 3420 c0 -5 5 -10 11 -10 5 0 7 5 4 10 -3 6 -8 10 -11 10 -2 0
-4 -4 -4 -10z"/>
<path d="M1179 3373 c-13 -16 -12 -17 4 -4 9 7 17 15 17 17 0 8 -8 3 -21 -13z"/>
<path d="M5270 3360 c0 -5 5 -10 11 -10 5 0 7 5 4 10 -3 6 -8 10 -11 10 -2 0
-4 -4 -4 -10z"/>
<path d="M2021 3344 c0 -11 3 -14 6 -6 3 7 2 16 -1 19 -3 4 -6 -2 -5 -13z"/>
<path d="M1193 3335 c0 -8 4 -15 9 -15 4 0 8 4 8 9 0 6 -4 12 -8 15 -5 3 -9
-1 -9 -9z"/>
<path d="M5226 3342 c-2 -4 4 -8 14 -8 10 0 16 4 14 8 -3 4 -9 8 -14 8 -5 0
-11 -4 -14 -8z"/>
<path d="M2090 3320 c0 -5 5 -10 11 -10 5 0 7 5 4 10 -3 6 -8 10 -11 10 -2 0
-4 -4 -4 -10z"/>
<path d="M5290 3321 c0 -6 4 -13 10 -16 6 -3 7 1 4 9 -7 18 -14 21 -14 7z"/>
<path d="M2215 3309 c-4 -6 -5 -12 -2 -15 2 -3 7 2 10 11 7 17 1 20 -8 4z"/>
<path d="M5236 3307 c3 -10 9 -15 12 -12 3 3 0 11 -7 18 -10 9 -11 8 -5 -6z"/>
<path d="M1165 3300 c-3 -6 1 -7 9 -4 18 7 21 14 7 14 -6 0 -13 -4 -16 -10z"/>
<path d="M4075 3291 c-3 -5 -2 -12 3 -15 5 -3 9 1 9 9 0 17 -3 19 -12 6z"/>
<path d="M2067 3273 c3 -7 13 -13 22 -12 10 0 11 2 3 6 -6 2 -10 8 -8 12 3 4
-1 8 -8 8 -8 0 -12 -6 -9 -14z"/>
<path d="M2330 3279 c0 -5 5 -7 10 -4 6 3 10 8 10 11 0 2 -4 4 -10 4 -5 0 -10
-5 -10 -11z"/>
<path d="M5264 3270 c0 -18 19 -21 33 -5 5 4 2 5 -6 0 -10 -6 -13 -4 -9 7 4 8
1 15 -6 15 -6 0 -12 -8 -12 -17z"/>
<path d="M2143 3263 c13 -15 15 -22 6 -25 -10 -3 -9 -6 2 -10 11 -4 15 1 15
18 0 13 -2 21 -5 19 -2 -3 -11 1 -20 7 -11 9 -10 6 2 -9z"/>
<path d="M2230 3276 c0 -2 8 -10 18 -17 15 -13 16 -12 3 4 -13 16 -21 21 -21
13z"/>
<path d="M4195 3269 c-4 -6 -5 -12 -2 -15 2 -3 7 2 10 11 7 17 1 20 -8 4z"/>
<path d="M2187 3253 c3 -7 8 -13 12 -13 4 0 8 6 8 13 0 8 -6 14 -13 14 -7 0
-10 -6 -7 -14z"/>
<path d="M2354 3258 c-4 -7 -4 -10 1 -6 4 4 15 2 24 -5 14 -11 14 -10 2 6 -16
20 -18 21 -27 5z"/>
<path d="M4255 3250 c-3 -6 1 -7 9 -4 18 7 21 14 7 14 -6 0 -13 -4 -16 -10z"/>
<path d="M1173 3237 c-4 -6 -1 -7 7 -2 9 6 10 2 5 -16 -8 -27 -3 -24 13 7 9
16 8 21 -4 21 -8 0 -18 -5 -21 -10z"/>
<path d="M2487 3239 c7 -7 15 -10 18 -7 3 3 -2 9 -12 12 -14 6 -15 5 -6 -5z"/>
<path d="M4227 3223 c-3 -5 6 -9 20 -10 19 -1 22 1 12 8 -17 11 -26 11 -32 2z"/>
<path d="M4336 3178 c3 -4 11 -5 19 -1 21 7 19 12 -4 10 -11 0 -18 -5 -15 -9z"/>
<path d="M4360 3160 c-9 -6 -10 -10 -3 -10 6 0 15 5 18 10 8 12 4 12 -15 0z"/>
<path d="M1169 3143 c-13 -16 -12 -17 4 -4 16 13 21 21 13 21 -2 0 -10 -8 -17
-17z"/>
<path d="M4460 3119 c-6 -11 -10 -25 -8 -30 2 -5 8 4 15 21 13 34 9 40 -7 9z"/>
<path d="M1190 3126 c0 -2 7 -7 16 -10 8 -3 12 -2 9 4 -6 10 -25 14 -25 6z"/>
<path d="M1156 3107 c3 -10 9 -15 12 -12 3 3 0 11 -7 18 -10 9 -11 8 -5 -6z"/>
<path d="M5324 3102 c23 -26 23 -26 23 -7 0 8 -3 13 -5 10 -3 -3 -12 1 -21 7
-10 8 -9 4 3 -10z"/>
<path d="M1196 3097 c3 -10 9 -15 12 -12 3 3 0 11 -7 18 -10 9 -11 8 -5 -6z"/>
<path d="M4485 3080 c10 -11 20 -20 22 -20 2 0 -2 9 -9 20 -7 11 -17 20 -22
20 -5 0 -1 -9 9 -20z"/>
<path d="M5376 3082 c-3 -5 1 -9 9 -9 8 0 12 4 9 9 -3 4 -7 8 -9 8 -2 0 -6 -4
-9 -8z"/>
<path d="M2471 3067 c-8 -10 -7 -14 2 -14 8 0 14 6 14 14 0 7 -1 13 -2 13 -2
0 -8 -6 -14 -13z"/>
<path d="M1150 3065 c0 -7 30 -13 34 -7 3 4 -4 9 -15 9 -10 1 -19 0 -19 -2z"/>
<path d="M4467 3059 c7 -7 15 -10 18 -7 3 3 -2 9 -12 12 -14 6 -15 5 -6 -5z"/>
<path d="M4500 3046 c0 -2 9 -6 20 -9 11 -3 20 -1 20 4 0 5 -9 9 -20 9 -11 0
-20 -2 -20 -4z"/>
<path d="M5330 3030 c-9 -6 -10 -10 -3 -10 6 0 15 5 18 10 8 12 4 12 -15 0z"/>
<path d="M2519 3013 c-13 -16 -12 -17 4 -4 9 7 17 15 17 17 0 8 -8 3 -21 -13z"/>
<path d="M4490 3019 c0 -5 5 -7 10 -4 6 3 10 8 10 11 0 2 -4 4 -10 4 -5 0 -10
-5 -10 -11z"/>
<path d="M5359 3018 c-5 -18 -6 -38 -1 -34 7 8 12 36 6 36 -2 0 -4 -1 -5 -2z"/>
<path d="M2385 2999 c-3 -4 2 -6 10 -5 21 3 28 13 10 13 -9 0 -18 -4 -20 -8z"/>
<path d="M4513 3003 c4 -3 1 -13 -6 -22 -11 -14 -10 -14 6 -2 20 15 22 31 5
31 -6 0 -8 -3 -5 -7z"/>
<path d="M1193 2972 c0 -12 5 -22 9 -22 11 0 10 12 -2 30 -7 12 -9 10 -7 -8z"/>
<path d="M4543 2983 c4 -3 -2 -12 -13 -20 -11 -8 -20 -18 -20 -24 0 -5 9 0 20
11 11 11 25 20 31 20 5 0 7 5 4 10 -3 6 -11 10 -17 10 -6 0 -8 -3 -5 -7z"/>
<path d="M1156 2962 c-3 -5 1 -9 9 -9 8 0 12 4 9 9 -3 4 -7 8 -9 8 -2 0 -6 -4
-9 -8z"/>
<path d="M2346 2962 c-3 -4 4 -9 15 -9 23 -2 25 3 4 10 -8 4 -16 3 -19 -1z"/>
<path d="M5335 2959 c-4 -6 -4 -13 -1 -16 3 -4 6 -1 6 6 0 7 5 9 12 5 7 -4 8
-3 4 4 -9 15 -13 15 -21 1z"/>
<path d="M5370 2959 c0 -5 5 -7 10 -4 6 3 10 8 10 11 0 2 -4 4 -10 4 -5 0 -10
-5 -10 -11z"/>
<path d="M4555 2949 c-4 -6 -5 -12 -2 -15 2 -3 7 2 10 11 7 17 1 20 -8 4z"/>
<path d="M1180 2900 c-9 -6 -10 -10 -3 -10 6 0 15 5 18 10 8 12 4 12 -15 0z"/>
<path d="M5350 2900 c0 -5 5 -10 10 -10 6 0 10 5 10 10 0 6 -4 10 -10 10 -5 0
-10 -4 -10 -10z"/>
<path d="M4560 2891 c0 -7 -5 -9 -12 -5 -7 5 -8 3 -3 -5 5 -9 10 -10 18 -2 6
6 8 14 4 18 -4 3 -7 1 -7 -6z"/>
<path d="M1193 2855 c0 -8 4 -15 9 -15 4 0 8 4 8 9 0 6 -4 12 -8 15 -5 3 -9
-1 -9 -9z"/>
<path d="M3335 2841 c-3 -5 -2 -12 3 -15 5 -3 9 1 9 9 0 17 -3 19 -12 6z"/>
<path d="M3396 2842 c-2 -4 2 -16 10 -27 12 -16 14 -17 14 -2 0 9 -5 17 -11
17 -5 0 -7 5 -4 10 3 6 4 10 1 10 -3 0 -7 -3 -10 -8z"/>
<path d="M2224 2823 c3 -3 19 -7 36 -8 17 -1 28 0 25 3 -3 3 -19 7 -36 8 -17
2 -28 0 -25 -3z"/>
<path d="M4553 2815 c0 -8 4 -15 9 -15 4 0 8 4 8 9 0 6 -4 12 -8 15 -5 3 -9
-1 -9 -9z"/>
<path d="M5345 2820 c3 -5 8 -10 11 -10 2 0 4 5 4 10 0 6 -5 10 -11 10 -5 0
-7 -4 -4 -10z"/>
<path d="M3380 2811 c0 -6 4 -13 10 -16 6 -3 7 1 4 9 -7 18 -14 21 -14 7z"/>
<path d="M1155 2780 c3 -5 8 -10 11 -10 2 0 4 5 4 10 0 6 -5 10 -11 10 -5 0
-7 -4 -4 -10z"/>
<path d="M1195 2770 c10 -11 20 -20 23 -20 3 0 -3 9 -13 20 -10 11 -20 20 -23
20 -3 0 3 -9 13 -20z"/>
<path d="M2260 2786 c0 -2 8 -10 18 -17 15 -13 16 -12 3 4 -13 16 -21 21 -21
13z"/>
<path d="M3554 2778 c3 -9 0 -19 -7 -22 -7 -2 -2 -4 10 -2 12 1 26 6 30 11 5
4 3 5 -4 1 -6 -3 -17 2 -23 11 -10 16 -11 16 -6 1z"/>
<path d="M2190 2758 c0 -4 4 -8 9 -8 6 0 12 4 15 8 3 5 -1 9 -9 9 -8 0 -15 -4
-15 -9z"/>
<path d="M5390 2759 c0 -5 5 -7 10 -4 6 3 10 8 10 11 0 2 -4 4 -10 4 -5 0 -10
-5 -10 -11z"/>
<path d="M4556 2736 c6 -15 4 -17 -6 -11 -9 6 -11 4 -5 -4 5 -9 10 -10 18 -2
8 8 7 14 -2 24 -10 10 -11 8 -5 -7z"/>
<path d="M5353 2730 c-1 -11 2 -20 5 -20 4 0 8 9 9 20 1 11 -2 20 -5 20 -4 0
-8 -9 -9 -20z"/>
<path d="M2153 2725 c0 -8 4 -12 9 -9 5 3 6 10 3 15 -9 13 -12 11 -12 -6z"/>
<path d="M3246 2721 c-3 -4 3 -16 13 -25 16 -14 20 -15 30 -2 9 11 9 16 0 21
-6 4 -15 1 -20 -6 -8 -13 -13 -6 -10 14 1 10 -7 9 -13 -2z"/>
<path d="M4516 2722 c-2 -4 -1 -14 4 -22 7 -11 9 -9 7 8 -1 24 -3 26 -11 14z"/>
<path d="M3584 2698 l-19 -23 23 19 c12 11 22 21 22 23 0 8 -8 2 -26 -19z"/>
<path d="M1150 2699 c0 -5 5 -7 10 -4 6 3 10 8 10 11 0 2 -4 4 -10 4 -5 0 -10
-5 -10 -11z"/>
<path d="M3188 2693 c6 -2 12 -9 12 -15 0 -6 -7 -7 -16 -4 -9 3 -12 2 -9 -5 4
-6 14 -8 22 -5 10 4 13 2 10 -7 -3 -7 2 -22 10 -32 13 -19 14 -19 9 7 -6 37
-24 68 -39 67 -9 0 -9 -2 1 -6z"/>
<path d="M2075 2679 c-4 -6 -5 -12 -2 -15 2 -3 7 2 10 11 7 17 1 20 -8 4z"/>
<path d="M2130 2679 c0 -5 5 -7 10 -4 6 3 10 8 10 11 0 2 -4 4 -10 4 -5 0 -10
-5 -10 -11z"/>
<path d="M3534 2650 c-1 -26 5 -41 18 -49 23 -14 24 -3 1 15 -17 13 -17 13 0
14 9 0 17 4 17 10 0 5 -6 7 -14 4 -11 -4 -13 0 -9 14 2 11 1 22 -4 25 -4 3 -8
-12 -9 -33z"/>
<path d="M4518 2673 c7 -3 16 -2 19 1 4 3 -2 6 -13 5 -11 0 -14 -3 -6 -6z"/>
<path d="M1159 2653 c-13 -16 -12 -17 4 -4 9 7 17 15 17 17 0 8 -8 3 -21 -13z"/>
<path d="M3139 2652 c-13 -15 -12 -16 3 -4 13 10 17 10 21 0 4 -9 6 -9 6 -1 2
20 -16 24 -30 5z"/>
<path d="M3593 2655 c0 -8 4 -12 9 -9 5 3 6 10 3 15 -9 13 -12 11 -12 -6z"/>
<path d="M4550 2660 c0 -5 5 -10 11 -10 5 0 7 5 4 10 -3 6 -8 10 -11 10 -2 0
-4 -4 -4 -10z"/>
<path d="M3176 2633 c-8 -21 5 -35 23 -23 12 7 12 11 -1 24 -15 14 -17 14 -22
-1z"/>
<path d="M4515 2625 c0 -13 3 -21 8 -18 4 2 7 11 7 19 0 9 5 12 13 8 6 -4 8
-3 4 1 -15 17 -32 12 -32 -10z"/>
<path d="M5375 2609 c-4 -6 -5 -12 -2 -15 2 -3 7 2 10 11 7 17 1 20 -8 4z"/>
<path d="M3593 2595 c0 -8 4 -12 9 -9 5 3 6 10 3 15 -9 13 -12 11 -12 -6z"/>
<path d="M1335 2589 c-4 -6 -5 -12 -2 -15 2 -3 7 2 10 11 7 17 1 20 -8 4z"/>
<path d="M1792 2572 c-11 -25 -11 -25 4 -10 9 9 15 21 13 27 -2 6 -10 -2 -17
-17z"/>
<path d="M3537 2579 c4 -13 8 -18 11 -10 2 7 -1 18 -6 23 -8 8 -9 4 -5 -13z"/>
<path d="M1625 2580 c-3 -6 1 -7 9 -4 18 7 21 14 7 14 -6 0 -13 -4 -16 -10z"/>
<path d="M1976 2578 c3 -5 10 -6 15 -3 13 9 11 12 -6 12 -8 0 -12 -4 -9 -9z"/>
<path d="M4511 2578 c-1 -21 15 -32 25 -17 4 7 3 9 -4 5 -6 -3 -13 2 -15 11
-4 16 -5 16 -6 1z"/>
<path d="M1355 2571 c-3 -5 -2 -12 3 -15 5 -3 9 1 9 9 0 17 -3 19 -12 6z"/>
<path d="M1415 2570 c-3 -6 1 -7 9 -4 18 7 21 14 7 14 -6 0 -13 -4 -16 -10z"/>
<path d="M1290 2566 c0 -2 7 -7 16 -10 8 -3 12 -2 9 4 -6 10 -25 14 -25 6z"/>
<path d="M1513 2553 c0 -9 4 -10 14 -2 7 6 13 12 13 14 0 1 -6 2 -13 2 -8 0
-14 -6 -14 -14z"/>
<path d="M1587 2559 c7 -7 15 -10 18 -7 3 3 -2 9 -12 12 -14 6 -15 5 -6 -5z"/>
<path d="M1700 2560 c-9 -6 -10 -10 -3 -10 6 0 15 5 18 10 8 12 4 12 -15 0z"/>
<path d="M3556 2555 c-3 -9 -11 -13 -17 -9 -8 5 -9 3 -4 -5 6 -10 11 -9 23 3
9 8 13 18 10 21 -3 3 -8 -1 -12 -10z"/>
<path d="M5346 2558 c3 -5 10 -6 15 -3 13 9 11 12 -6 12 -8 0 -12 -4 -9 -9z"/>
<path d="M1453 2545 c0 -8 4 -12 9 -9 5 3 6 10 3 15 -9 13 -12 11 -12 -6z"/>
<path d="M4457 2539 c7 -7 15 -10 18 -7 3 3 -2 9 -12 12 -14 6 -15 5 -6 -5z"/>
<path d="M4490 2540 c0 -5 5 -10 10 -10 6 0 10 5 10 10 0 6 -4 10 -10 10 -5 0
-10 -4 -10 -10z"/>
<path d="M3013 2525 c0 -8 4 -12 9 -9 5 3 6 10 3 15 -9 13 -12 11 -12 -6z"/>
<path d="M2976 2513 c-6 -14 -5 -15 5 -6 7 7 10 15 7 18 -3 3 -9 -2 -12 -12z"/>
<path d="M3555 2508 c25 -15 47 -19 39 -7 -3 5 -9 7 -14 4 -5 -3 -11 -1 -15 5
-3 5 -12 10 -18 10 -7 0 -3 -6 8 -12z"/>
<path d="M4456 2508 c4 -5 13 -7 21 -4 11 5 13 2 9 -9 -3 -10 -2 -13 5 -10 16
11 5 28 -19 30 -11 1 -19 -2 -16 -7z"/>
<path d="M5333 2505 c0 -8 4 -12 9 -9 5 3 6 10 3 15 -9 13 -12 11 -12 -6z"/>
<path d="M5307 2491 c-4 -17 -3 -21 5 -13 5 5 8 16 6 23 -3 8 -7 3 -11 -10z"/>
<path d="M2950 2485 c0 -7 30 -13 34 -7 3 4 -4 9 -15 9 -10 1 -19 0 -19 -2z"/>
<path d="M2996 2473 c-6 -14 -5 -15 5 -6 7 7 10 15 7 18 -3 3 -9 -2 -12 -12z"/>
<path d="M4455 2480 c3 -5 8 -10 11 -10 2 0 4 5 4 10 0 6 -5 10 -11 10 -5 0
-7 -4 -4 -10z"/>
<path d="M2890 2476 c0 -2 8 -10 18 -17 15 -13 16 -12 3 4 -13 16 -21 21 -21
13z"/>
<path d="M3546 2465 c-9 -26 -7 -32 5 -12 6 10 9 21 6 23 -2 3 -7 -2 -11 -11z"/>
<path d="M3576 2467 c3 -10 9 -15 12 -12 3 3 0 11 -7 18 -10 9 -11 8 -5 -6z"/>
<path d="M4430 2460 c-12 -7 -10 -9 7 -7 12 0 19 5 17 9 -6 10 -6 10 -24 -2z"/>
<path d="M3610 2445 c0 -5 5 -17 10 -25 5 -8 10 -10 10 -5 0 6 -5 17 -10 25
-5 8 -10 11 -10 5z"/>
<path d="M4390 2440 c0 -5 5 -10 10 -10 6 0 10 5 10 10 0 6 -4 10 -10 10 -5 0
-10 -4 -10 -10z"/>
<path d="M5310 2430 c6 -11 5 -22 -3 -31 -7 -7 -2 -5 11 5 23 20 30 32 10 20
-7 -5 -9 -2 -6 8 4 8 0 15 -7 15 -10 0 -11 -5 -5 -17z"/>
<path d="M3550 2426 c0 -2 7 -7 16 -10 8 -3 12 -2 9 4 -6 10 -25 14 -25 6z"/>
<path d="M4315 2410 c2 -11 0 -22 -6 -25 -5 -4 -9 -12 -9 -18 1 -14 23 22 26
40 1 7 -2 15 -6 18 -5 3 -7 -3 -5 -15z"/>
<path d="M4375 2410 c6 -10 4 -12 -9 -7 -9 4 -15 3 -12 -2 3 -5 -1 -11 -9 -15
-8 -3 -15 -10 -15 -16 0 -8 4 -8 13 0 6 6 21 17 31 24 15 10 16 15 6 21 -9 6
-11 4 -5 -5z"/>
<path d="M3556 2398 c5 -7 2 -9 -8 -6 -8 4 -15 0 -15 -7 0 -11 5 -11 21 -3 29
15 29 15 11 22 -11 4 -14 2 -9 -6z"/>
<path d="M4265 2399 c-3 -4 2 -6 10 -5 21 3 28 13 10 13 -9 0 -18 -4 -20 -8z"/>
<path d="M2898 2388 c5 -5 16 -8 23 -6 8 3 3 7 -10 11 -17 4 -21 3 -13 -5z"/>
<path d="M2853 2365 c0 -8 4 -12 9 -9 5 3 6 10 3 15 -9 13 -12 11 -12 -6z"/>
<path d="M2814 2356 c1 -8 5 -18 8 -22 4 -3 5 1 4 10 -1 8 -5 18 -8 22 -4 3
-5 -1 -4 -10z"/>
<path d="M4194 2349 c-3 -6 1 -18 10 -27 9 -9 16 -11 16 -5 0 6 -6 14 -12 16
-10 4 -9 8 2 16 9 7 10 11 3 11 -6 0 -15 -5 -19 -11z"/>
<path d="M3739 2333 c-13 -17 -13 -17 6 -3 11 8 22 16 24 17 2 2 0 3 -6 3 -6
0 -17 -8 -24 -17z"/>
<path d="M3800 2335 c-7 -8 -9 -15 -4 -15 5 0 0 -7 -10 -15 -11 -8 -15 -15 -9
-15 6 0 16 7 23 15 7 8 9 15 5 15 -4 0 -2 7 5 15 7 8 10 15 7 15 -2 0 -10 -7
-17 -15z"/>
<path d="M2836 2313 c-6 -14 -5 -15 5 -6 7 7 10 15 7 18 -3 3 -9 -2 -12 -12z"/>
<path d="M3671 2307 c17 -32 22 -35 14 -8 -6 18 -4 22 6 16 8 -5 10 -4 6 0 -4
5 -14 10 -22 11 -12 2 -13 -2 -4 -19z"/>
<path d="M3756 2313 c-6 -14 -5 -15 5 -6 7 7 10 15 7 18 -3 3 -9 -2 -12 -12z"/>
<path d="M4075 2320 c-16 -7 -17 -9 -3 -9 9 -1 20 4 23 9 7 11 7 11 -20 0z"/>
<path d="M4010 2311 c0 -8 -7 -11 -17 -6 -15 5 -16 4 -5 -6 9 -10 15 -10 24
-1 6 6 9 15 5 19 -4 3 -7 1 -7 -6z"/>
<path d="M2779 2293 c-13 -16 -12 -17 4 -4 16 13 21 21 13 21 -2 0 -10 -8 -17
-17z"/>
<path d="M3725 2299 c-4 -6 -5 -12 -2 -15 2 -3 7 2 10 11 7 17 1 20 -8 4z"/>
<path d="M3857 2293 c3 -7 6 -13 8 -13 2 0 5 6 8 13 3 8 -1 14 -8 14 -7 0 -11
-6 -8 -14z"/>
<path d="M3915 2300 c-13 -6 -15 -9 -5 -9 8 0 22 4 30 9 18 12 2 12 -25 0z"/>
<path d="M4110 2296 c7 -7 13 -7 20 0 6 6 3 10 -10 10 -13 0 -16 -4 -10 -10z"/>
<path d="M2874 2274 c-18 -14 -18 -15 4 -4 12 6 22 13 22 15 0 8 -5 6 -26 -11z"/>
<path d="M2773 2254 c0 -8 10 -23 22 -34 21 -20 21 -20 38 0 14 17 14 20 2 20
-8 0 -15 -7 -15 -15 0 -13 -2 -14 -14 -3 -12 11 -11 15 8 26 21 13 21 13 -3 6
-14 -3 -21 -2 -18 3 4 5 0 10 -7 10 -7 0 -13 -6 -13 -13z"/>
<path d="M5221 2254 c0 -11 3 -14 6 -6 3 7 2 16 -1 19 -3 4 -6 -2 -5 -13z"/>
<path d="M2720 2240 c-9 -6 -10 -10 -3 -10 6 0 15 5 18 10 8 12 4 12 -15 0z"/>
<path d="M5215 2221 c-3 -5 -2 -12 3 -15 5 -3 9 1 9 9 0 17 -3 19 -12 6z"/>
<path d="M5253 2209 c-2 -23 3 -25 10 -4 4 8 3 16 -1 19 -4 3 -9 -4 -9 -15z"/>
<path d="M2670 2181 c0 -6 4 -13 10 -16 6 -3 7 1 4 9 -7 18 -14 21 -14 7z"/>
<path d="M5189 2166 c-9 -19 -9 -19 4 -4 8 10 16 15 19 12 4 -3 8 -1 12 4 3 5
-2 9 -10 9 -8 0 -20 -10 -25 -21z"/>
<path d="M2656 2142 c-3 -5 1 -9 9 -9 8 0 12 4 9 9 -3 4 -7 8 -9 8 -2 0 -6 -4
-9 -8z"/>
<path d="M2690 2140 c0 -5 5 -10 10 -10 6 0 10 5 10 10 0 6 -4 10 -10 10 -5 0
-10 -4 -10 -10z"/>
<path d="M2723 2133 c4 -3 -1 -12 -11 -20 -15 -13 -15 -13 6 -3 19 9 23 30 5
30 -4 0 -3 -3 0 -7z"/>
<path d="M2680 2106 c0 -8 4 -17 9 -20 5 -4 7 3 4 14 -6 23 -13 26 -13 6z"/>
<path d="M2650 2080 c-9 -6 -10 -10 -3 -10 6 0 15 5 18 10 8 12 4 12 -15 0z"/>
<path d="M5126 2063 c-6 -14 -5 -15 5 -6 7 7 10 15 7 18 -3 3 -9 -2 -12 -12z"/>
<path d="M2630 2040 c-8 -5 -10 -10 -5 -10 6 0 17 5 25 10 8 5 11 10 5 10 -5
0 -17 -5 -25 -10z"/>
<path d="M2562 1998 c-15 -15 -15 -28 0 -28 6 0 8 3 5 7 -4 3 -2 12 4 20 14
16 7 17 -9 1z"/>
<path d="M2520 1980 c-9 -6 -10 -10 -3 -10 6 0 15 5 18 10 8 12 4 12 -15 0z"/>
<path d="M4990 1961 c0 -6 4 -12 8 -15 5 -3 9 1 9 9 0 8 -4 15 -9 15 -4 0 -8
-4 -8 -9z"/>
<path d="M2533 1935 c0 -8 4 -12 9 -9 4 3 8 9 8 15 0 5 -4 9 -8 9 -5 0 -9 -7
-9 -15z"/>
<path d="M2495 1910 c-4 -6 -11 -8 -16 -5 -5 4 -9 1 -9 -4 0 -16 16 -13 30 4
7 8 10 15 7 15 -3 0 -9 -5 -12 -10z"/>
<path d="M2435 1900 c-3 -5 -1 -10 4 -10 6 0 11 5 11 10 0 6 -2 10 -4 10 -3 0
-8 -4 -11 -10z"/>
<path d="M2650 1865 c-7 -9 -8 -15 -2 -15 5 0 12 7 16 15 3 8 4 15 2 15 -2 0
-9 -7 -16 -15z"/>
<path d="M2414 1858 c-4 -7 -4 -10 1 -6 4 4 15 2 24 -5 14 -11 14 -10 2 6 -16
20 -18 21 -27 5z"/>
<path d="M4933 1845 c0 -8 4 -12 9 -9 5 3 6 10 3 15 -9 13 -12 11 -12 -6z"/>
<path d="M4873 1832 c0 -10 7 -19 14 -19 9 0 10 4 3 12 -5 7 -7 15 -3 18 3 4
1 7 -5 7 -6 0 -10 -8 -9 -18z"/>
<path d="M2356 1822 c-3 -5 1 -9 9 -9 8 0 12 4 9 9 -3 4 -7 8 -9 8 -2 0 -6 -4
-9 -8z"/>
<path d="M2637 1810 c10 -11 19 -20 21 -20 1 0 -2 9 -8 20 -6 11 -15 20 -20
20 -6 0 -2 -9 7 -20z"/>
<path d="M2707 1806 c-4 -10 -1 -13 9 -9 7 3 14 9 14 14 0 14 -17 10 -23 -5z"/>
<path d="M4828 1803 c7 -3 16 -2 19 1 4 3 -2 6 -13 5 -11 0 -14 -3 -6 -6z"/>
<path d="M2377 1781 c-4 -17 -3 -21 5 -13 5 5 8 16 6 23 -3 8 -7 3 -11 -10z"/>
<path d="M2676 1787 c3 -10 9 -15 12 -12 3 3 0 11 -7 18 -10 9 -11 8 -5 -6z"/>
<path d="M4737 1778 c-7 -4 5 -6 26 -4 21 2 40 6 43 9 8 8 -56 3 -69 -5z"/>
<path d="M2549 1763 c-13 -16 -12 -17 4 -4 9 7 17 15 17 17 0 8 -8 3 -21 -13z"/>
<path d="M4685 1760 c-4 -6 -11 -7 -17 -4 -7 4 -8 2 -4 -5 6 -9 11 -9 22 0 14
11 18 19 10 19 -3 0 -8 -5 -11 -10z"/>
<path d="M4750 1756 c0 -2 8 -10 18 -17 15 -13 16 -12 3 4 -13 16 -21 21 -21
13z"/>
<path d="M2280 1740 c-9 -6 -10 -10 -3 -10 6 0 15 5 18 10 8 12 4 12 -15 0z"/>
<path d="M2615 1740 c3 -5 8 -10 11 -10 2 0 4 5 4 10 0 6 -5 10 -11 10 -5 0
-7 -4 -4 -10z"/>
<path d="M4710 1737 c0 -2 6 -10 14 -16 11 -9 16 -9 22 1 4 7 4 10 -1 6 -4 -4
-14 -3 -22 3 -7 6 -13 9 -13 6z"/>
<path d="M2570 1719 c0 -5 5 -7 10 -4 6 3 10 8 10 11 0 2 -4 4 -10 4 -5 0 -10
-5 -10 -11z"/>
<path d="M4630 1718 c0 -4 4 -8 9 -8 6 0 12 4 15 8 3 5 -1 9 -9 9 -8 0 -15 -4
-15 -9z"/>
<path d="M2254 1698 c-4 -7 -4 -10 1 -6 4 4 15 2 24 -5 14 -11 14 -10 2 6 -16
20 -18 21 -27 5z"/>
<path d="M2508 1696 c4 -6 7 -14 7 -18 0 -19 11 -14 11 6 0 12 -6 23 -13 23
-6 0 -9 -5 -5 -11z"/>
<path d="M4590 1701 c0 -6 4 -12 8 -15 5 -3 9 1 9 9 0 8 -4 15 -9 15 -4 0 -8
-4 -8 -9z"/>
<path d="M2720 1672 c-18 -15 -20 -19 -7 -19 10 0 15 3 12 5 -3 3 3 11 13 18
9 7 14 14 11 14 -4 0 -17 -8 -29 -18z"/>
<path d="M4398 1663 c7 -3 16 -2 19 1 4 3 -2 6 -13 5 -11 0 -14 -3 -6 -6z"/>
<path d="M4496 1658 c3 -4 11 -5 19 -1 21 7 19 12 -4 10 -11 0 -18 -5 -15 -9z"/>
<path d="M4430 1650 c0 -5 5 -10 11 -10 5 0 7 5 4 10 -3 6 -8 10 -11 10 -2 0
-4 -4 -4 -10z"/>
<path d="M4386 1642 c-2 -4 4 -8 14 -8 10 0 16 4 14 8 -3 4 -9 8 -14 8 -5 0
-11 -4 -14 -8z"/>
<path d="M2434 1620 c0 -13 4 -16 10 -10 7 7 7 13 0 20 -6 6 -10 3 -10 -10z"/>
<path d="M4201 1624 c0 -11 3 -14 6 -6 3 7 2 16 -1 19 -3 4 -6 -2 -5 -13z"/>
<path d="M2180 1620 c-9 -6 -10 -10 -3 -10 6 0 15 5 18 10 8 12 4 12 -15 0z"/>
<path d="M3740 1620 c-11 -7 -11 -10 -2 -10 7 0 10 -5 6 -12 -4 -7 -3 -8 5 -4
6 4 9 11 6 16 -3 4 1 11 7 13 7 3 9 6 3 6 -5 0 -17 -4 -25 -9z"/>
<path d="M4010 1620 c-9 -6 -10 -10 -3 -10 6 0 15 5 18 10 8 12 4 12 -15 0z"/>
<path d="M4064 1618 c-5 -7 -3 -8 6 -3 9 6 12 4 8 -7 -4 -8 0 -15 7 -15 10 0
11 5 4 19 -11 21 -15 22 -25 6z"/>
<path d="M4115 1619 c-4 -6 -4 -13 -1 -16 3 -4 6 -1 6 6 0 7 5 9 10 6 6 -3 10
-1 10 4 0 14 -17 14 -25 0z"/>
<path d="M2400 1595 c-7 -8 -9 -15 -5 -15 4 0 1 -8 -6 -17 -13 -16 -12 -17 4
-4 9 8 15 16 12 19 -3 3 0 11 6 19 6 7 9 13 6 13 -2 0 -10 -7 -17 -15z"/>
<path d="M3710 1600 c0 -5 5 -10 11 -10 5 0 7 5 4 10 -3 6 -8 10 -11 10 -2 0
-4 -4 -4 -10z"/>
<path d="M3774 1602 c3 -6 -2 -15 -11 -21 -10 -6 -13 -11 -7 -11 20 0 37 27
23 36 -7 4 -9 3 -5 -4z"/>
<path d="M3838 1603 c7 -3 16 -2 19 1 4 3 -2 6 -13 5 -11 0 -14 -3 -6 -6z"/>
<path d="M3896 1601 c-3 -4 6 -6 19 -3 14 2 25 6 25 8 0 8 -39 4 -44 -5z"/>
<path d="M4035 1600 c3 -5 8 -10 11 -10 2 0 4 5 4 10 0 6 -5 10 -11 10 -5 0
-7 -4 -4 -10z"/>
<path d="M2737 1589 c7 -7 15 -10 18 -7 3 3 -2 9 -12 12 -14 6 -15 5 -6 -5z"/>
<path d="M2693 1571 c0 -11 5 -18 9 -15 4 3 5 11 1 19 -7 21 -12 19 -10 -4z"/>
<path d="M3666 1578 c3 -4 9 -8 15 -8 5 0 9 4 9 8 0 5 -7 9 -15 9 -8 0 -12 -4
-9 -9z"/>
<path d="M4146 1578 c3 -4 9 -8 15 -8 5 0 9 4 9 8 0 5 -7 9 -15 9 -8 0 -12 -4
-9 -9z"/>
<path d="M4195 1580 c3 -5 8 -10 11 -10 2 0 4 5 4 10 0 6 -5 10 -11 10 -5 0
-7 -4 -4 -10z"/>
<path d="M2153 1565 c0 -8 4 -12 9 -9 5 3 6 10 3 15 -9 13 -12 11 -12 -6z"/>
<path d="M3590 1560 c-8 -5 -10 -10 -5 -10 6 0 17 5 25 10 8 5 11 10 5 10 -5
0 -17 -5 -25 -10z"/>
<path d="M3534 1535 c0 -14 3 -25 8 -25 4 0 5 -8 2 -17 -5 -14 -4 -15 4 -4 6
8 8 20 5 28 -3 7 0 13 6 13 6 0 11 5 11 12 0 6 -3 8 -7 5 -3 -4 -11 -3 -18 3
-8 6 -11 2 -11 -15z"/>
<path d="M3673 1545 c0 -8 4 -12 9 -9 5 3 6 10 3 15 -9 13 -12 11 -12 -6z"/>
<path d="M3962 1544 c10 -10 20 -16 22 -13 3 3 -5 11 -17 18 -21 13 -21 12 -5
-5z"/>
<path d="M2095 1520 c-3 -5 -1 -10 4 -10 6 0 11 5 11 10 0 6 -2 10 -4 10 -3 0
-8 -4 -11 -10z"/>
<path d="M2306 1521 c-4 -5 3 -7 14 -4 23 6 26 13 6 13 -8 0 -17 -4 -20 -9z"/>
<path d="M3575 1520 c-3 -6 1 -7 9 -4 18 7 21 14 7 14 -6 0 -13 -4 -16 -10z"/>
<path d="M2737 1509 c7 -7 15 -10 18 -7 3 3 -2 9 -12 12 -14 6 -15 5 -6 -5z"/>
<path d="M2716 1482 c-2 -4 -1 -14 4 -22 7 -11 9 -9 7 8 -1 24 -3 26 -11 14z"/>
<path d="M2295 1460 c3 -5 8 -10 11 -10 2 0 4 5 4 10 0 6 -5 10 -11 10 -5 0
-7 -4 -4 -10z"/>
<path d="M3568 1452 c9 -10 19 -17 21 -16 6 5 -20 34 -30 34 -5 0 -1 -8 9 -18z"/>
<path d="M3547 1439 c7 -7 15 -10 18 -7 3 3 -2 9 -12 12 -14 6 -15 5 -6 -5z"/>
<path d="M2673 1425 c0 -8 4 -12 9 -9 5 3 6 10 3 15 -9 13 -12 11 -12 -6z"/>
<path d="M3555 1409 c-4 -6 -5 -12 -2 -15 2 -3 7 2 10 11 7 17 1 20 -8 4z"/>
<path d="M2716 1401 c-3 -5 1 -14 8 -20 10 -9 16 -9 21 -1 4 6 1 9 -7 8 -7 -2
-12 3 -10 10 2 14 -4 16 -12 3z"/>
<path d="M3569 1383 c-13 -16 -12 -17 4 -4 16 13 21 21 13 21 -2 0 -10 -8 -17
-17z"/>
<path d="M3550 1350 c-9 -6 -10 -10 -3 -10 6 0 15 5 18 10 8 12 4 12 -15 0z"/>
<path d="M2726 1342 c-3 -5 1 -9 9 -9 8 0 12 4 9 9 -3 4 -7 8 -9 8 -2 0 -6 -4
-9 -8z"/>
<path d="M2696 1322 c-3 -4 4 -9 15 -9 23 -2 25 3 4 10 -8 4 -16 3 -19 -1z"/>
<path d="M3550 1309 c-22 -18 -22 -19 -3 -10 12 6 25 16 28 21 9 15 3 12 -25
-11z"/>
<path d="M2721 1276 c-8 -10 -9 -16 -1 -21 6 -4 9 -1 8 7 -2 7 3 12 10 10 8
-1 11 2 7 8 -8 13 -10 13 -24 -4z"/>
<path d="M2675 1271 c-3 -5 -2 -12 3 -15 5 -3 9 1 9 9 0 17 -3 19 -12 6z"/>
<path d="M3560 1256 c-6 -6 -10 -15 -10 -20 0 -6 4 -5 9 3 5 8 17 16 26 17 25
4 30 13 6 11 -12 -1 -26 -6 -31 -11z"/>
<path d="M3530 1227 c0 -3 12 -12 26 -22 15 -9 23 -12 20 -6 -7 11 -46 35 -46
28z"/>
<path d="M1802 1184 c4 -8 -88 -104 -95 -98 -1 2 -11 -10 -22 -27 -19 -27 -45
-43 -29 -17 4 7 3 8 -5 4 -6 -4 -9 -11 -7 -15 6 -9 -84 -101 -97 -100 -5 0
-12 -3 -15 -7 -4 -4 -1 -4 6 0 6 4 12 3 12 -2 0 -10 -25 -23 -38 -19 -4 1 -5
7 -4 12 2 6 0 6 -4 2 -11 -11 -14 -38 -3 -31 5 3 9 1 9 -4 0 -13 -29 -24 -43
-16 -9 5 -9 4 -1 -5 9 -10 1 -23 -36 -58 -49 -46 -66 -78 -48 -89 5 -3 7 -12
4 -20 -3 -8 0 -11 8 -8 8 3 17 1 21 -5 10 -17 40 3 107 70 33 33 64 57 69 53
5 -3 7 -9 4 -14 -3 -5 0 -12 7 -16 7 -4 10 -4 6 1 -4 4 -2 15 5 23 8 11 8 14
0 9 -18 -11 -26 11 -9 28 15 16 31 21 22 7 -2 -4 4 -8 15 -8 18 0 19 1 4 12
-14 11 -10 19 39 68 48 49 77 71 62 48 -2 -4 4 -8 15 -8 18 0 18 2 5 12 -20
14 -21 28 -2 21 10 -4 13 -1 9 8 -3 9 4 18 18 24 13 5 20 10 15 10 -5 1 8 16
29 35 49 45 51 102 4 109 -8 2 -20 7 -28 11 -8 5 -12 5 -9 0z"/>
<path d="M3550 1170 c8 -5 20 -10 25 -10 6 0 3 5 -5 10 -8 5 -19 10 -25 10 -5
0 -3 -5 5 -10z"/>
<path d="M2696 1162 c-3 -5 1 -9 9 -9 8 0 12 4 9 9 -3 4 -7 8 -9 8 -2 0 -6 -4
-9 -8z"/>
<path d="M3555 1140 c-3 -5 -1 -10 4 -10 6 0 11 5 11 10 0 6 -2 10 -4 10 -3 0
-8 -4 -11 -10z"/>
<path d="M1670 1120 c0 -5 5 -10 11 -10 5 0 7 5 4 10 -3 6 -8 10 -11 10 -2 0
-4 -4 -4 -10z"/>
<path d="M1705 1120 c-3 -6 1 -7 9 -4 18 7 21 14 7 14 -6 0 -13 -4 -16 -10z"/>
<path d="M3536 1117 c3 -10 9 -15 12 -12 3 3 0 11 -7 18 -10 9 -11 8 -5 -6z"/>
<path d="M3575 1100 c-3 -5 -1 -10 4 -10 6 0 11 5 11 10 0 6 -2 10 -4 10 -3 0
-8 -4 -11 -10z"/>
<path d="M2716 1081 c-3 -5 1 -14 8 -20 10 -9 16 -9 21 -1 4 6 1 9 -7 8 -7 -2
-12 3 -10 10 2 14 -4 16 -12 3z"/>
<path d="M1629 1063 c-13 -16 -12 -17 4 -4 16 13 21 21 13 21 -2 0 -10 -8 -17
-17z"/>
<path d="M3575 1059 c-3 -4 2 -6 10 -5 21 3 28 13 10 13 -9 0 -18 -4 -20 -8z"/>
<path d="M1596 1041 c-3 -5 2 -15 12 -22 15 -12 16 -12 5 2 -7 9 -10 19 -6 22
3 4 4 7 0 7 -3 0 -8 -4 -11 -9z"/>
<path d="M3551 1024 c0 -11 3 -14 6 -6 3 7 2 16 -1 19 -3 4 -6 -2 -5 -13z"/>
<path d="M1556 1013 c-6 -14 -5 -15 5 -6 7 7 10 15 7 18 -3 3 -9 -2 -12 -12z"/>
<path d="M3525 1021 c-3 -5 -1 -12 5 -16 6 -4 8 -10 5 -15 -3 -5 -1 -11 4 -14
8 -5 8 15 1 34 -1 3 -2 8 -1 13 1 10 -7 9 -14 -2z"/>
<path d="M3590 1026 c0 -2 7 -7 16 -10 8 -3 12 -2 9 4 -6 10 -25 14 -25 6z"/>
<path d="M2696 1002 c-3 -4 4 -9 15 -9 23 -2 25 3 4 10 -8 4 -16 3 -19 -1z"/>
<path d="M1533 976 c-3 -6 -3 -8 2 -4 4 4 13 3 20 -2 8 -7 12 -5 12 3 0 16
-25 18 -34 3z"/>
<path d="M1795 960 c3 -5 8 -10 11 -10 2 0 4 5 4 10 0 6 -5 10 -11 10 -5 0 -7
-4 -4 -10z"/>
<path d="M2721 956 c-8 -10 -9 -16 -1 -21 6 -4 9 -1 8 7 -2 7 3 12 10 10 8 -1
11 2 7 8 -8 13 -10 13 -24 -4z"/>
<path d="M3555 960 c-3 -5 -1 -10 4 -10 6 0 11 5 11 10 0 6 -2 10 -4 10 -3 0
-8 -4 -11 -10z"/>
<path d="M1509 943 c-13 -16 -12 -17 4 -4 16 13 21 21 13 21 -2 0 -10 -8 -17
-17z"/>
<path d="M2675 951 c-3 -5 -2 -12 3 -15 5 -3 9 1 9 9 0 17 -3 19 -12 6z"/>
<path d="M3537 933 c-10 -9 -9 -23 1 -23 5 0 9 7 9 15 0 17 -1 18 -10 8z"/>
<path d="M1695 901 c-3 -5 -2 -12 3 -15 5 -3 9 1 9 9 0 17 -3 19 -12 6z"/>
<path d="M3537 885 c-4 -8 -3 -16 1 -19 4 -3 9 4 9 15 2 23 -3 25 -10 4z"/>
<path d="M1690 861 c0 -6 4 -13 10 -16 6 -3 7 1 4 9 -7 18 -14 21 -14 7z"/>
<path d="M1414 842 c4 -3 14 -7 22 -8 9 -1 13 0 10 4 -4 3 -14 7 -22 8 -9 1
-13 0 -10 -4z"/>
<path d="M2696 842 c-3 -5 1 -9 9 -9 8 0 12 4 9 9 -3 4 -7 8 -9 8 -2 0 -6 -4
-9 -8z"/>
<path d="M3530 820 c0 -5 5 -10 10 -10 6 0 10 5 10 10 0 6 -4 10 -10 10 -5 0
-10 -4 -10 -10z"/>
<path d="M2694 798 c-4 -7 -4 -10 1 -6 4 4 15 2 24 -5 14 -11 14 -10 2 6 -16
20 -18 21 -27 5z"/>
<path d="M3550 785 c0 -8 4 -15 8 -15 5 0 9 7 9 15 0 8 -4 15 -9 15 -4 0 -8
-7 -8 -15z"/>
<path d="M3531 763 c7 -12 15 -20 18 -17 3 2 -3 12 -13 22 -17 16 -18 16 -5
-5z"/>
<path d="M2716 758 c3 -5 10 -6 15 -3 13 9 11 12 -6 12 -8 0 -12 -4 -9 -9z"/>
<path d="M3570 756 c0 -2 8 -10 18 -17 15 -13 16 -12 3 4 -13 16 -21 21 -21
13z"/>
<path d="M2740 741 c0 -6 4 -13 10 -16 6 -3 7 1 4 9 -7 18 -14 21 -14 7z"/>
<path d="M2696 713 c-6 -14 -5 -15 5 -6 7 7 10 15 7 18 -3 3 -9 -2 -12 -12z"/>
<path d="M3556 713 c-4 -9 -3 -20 1 -24 4 -4 9 3 9 17 2 28 -1 31 -10 7z"/>
<path d="M2751 694 c0 -11 3 -14 6 -6 3 7 2 16 -1 19 -3 4 -6 -2 -5 -13z"/>
<path d="M2691 687 c2 -1 13 -9 24 -17 19 -14 19 -14 6 3 -7 9 -18 17 -24 17
-6 0 -8 -1 -6 -3z"/>
<path d="M3536 643 c-6 -14 -5 -15 5 -6 7 7 10 15 7 18 -3 3 -9 -2 -12 -12z"/>
<path d="M2695 640 c-2 -3 9 -6 25 -6 17 0 27 2 25 5 -8 7 -45 9 -50 1z"/>
<path d="M3586 638 c3 -5 10 -6 15 -3 13 9 11 12 -6 12 -8 0 -12 -4 -9 -9z"/>
<path d="M3550 616 c0 -8 7 -17 16 -20 13 -5 14 -4 6 7 -7 8 -9 17 -5 20 3 4
1 7 -5 7 -7 0 -12 -6 -12 -14z"/>
<path d="M2715 611 c-3 -5 -2 -12 3 -15 5 -3 9 1 9 9 0 17 -3 19 -12 6z"/>
<path d="M2751 574 c0 -11 3 -14 6 -6 3 7 2 16 -1 19 -3 4 -6 -2 -5 -13z"/>
<path d="M3530 580 c0 -5 5 -10 10 -10 6 0 10 5 10 10 0 6 -4 10 -10 10 -5 0
-10 -4 -10 -10z"/>
<path d="M3563 563 c-16 -6 -17 -33 -1 -33 6 0 8 3 5 7 -4 3 -2 12 4 20 12 14
11 14 -8 6z"/>
<path d="M1119 491 c-40 -39 -77 -67 -83 -64 -6 3 -8 3 -4 -2 4 -4 0 -21 -8
-36 -10 -21 -12 -34 -5 -48 24 -44 59 -34 129 36 24 24 49 40 54 37 6 -4 8 -2
5 3 -4 6 2 21 13 33 11 13 20 27 20 32 0 5 6 6 13 2 9 -6 9 -5 0 7 -6 8 -13
19 -14 24 -1 6 -13 18 -25 28 -23 17 -24 17 -95 -52z"/>
<path d="M2720 540 c-12 -7 -10 -9 8 -7 12 0 22 5 22 9 0 11 -12 10 -30 -2z"/>
<path d="M3534 511 c0 -11 5 -19 11 -18 5 1 9 -3 8 -9 -1 -6 4 -11 12 -11 9 0
7 9 -8 29 -11 15 -21 28 -22 28 0 0 -1 -9 -1 -19z"/>
<path d="M2751 504 c0 -11 3 -14 6 -6 3 7 2 16 -1 19 -3 4 -6 -2 -5 -13z"/>
<path d="M1270 476 c0 -2 8 -10 18 -17 15 -13 16 -12 3 4 -13 16 -21 21 -21
13z"/>
<path d="M1036 458 c3 -5 10 -6 15 -3 13 9 11 12 -6 12 -8 0 -12 -4 -9 -9z"/>
<path d="M2720 440 c-9 -6 -10 -10 -3 -10 6 0 15 5 18 10 8 12 4 12 -15 0z"/>
<path d="M1186 382 c-3 -5 1 -9 9 -9 8 0 12 4 9 9 -3 4 -7 8 -9 8 -2 0 -6 -4
-9 -8z"/>
<path d="M3573 355 c0 -8 4 -12 9 -9 5 3 6 10 3 15 -9 13 -12 11 -12 -6z"/>
<path d="M3110 296 c0 -2 8 -10 18 -17 15 -13 16 -12 3 4 -13 16 -21 21 -21
13z"/>
<path d="M3186 283 c-6 -14 -5 -15 5 -6 7 7 10 15 7 18 -3 3 -9 -2 -12 -12z"/>
<path d="M2870 280 c0 -5 5 -10 11 -10 5 0 7 5 4 10 -3 6 -8 10 -11 10 -2 0
-4 -4 -4 -10z"/>
<path d="M2960 280 c-12 -7 -10 -9 7 -7 12 0 19 5 17 9 -6 10 -6 10 -24 -2z"/>
<path d="M3055 281 c-3 -5 -2 -12 3 -15 5 -3 9 1 9 9 0 17 -3 19 -12 6z"/>
<path d="M3080 286 c0 -2 7 -7 16 -10 8 -3 12 -2 9 4 -6 10 -25 14 -25 6z"/>
<path d="M3353 275 c0 -8 4 -12 9 -9 5 3 6 10 3 15 -9 13 -12 11 -12 -6z"/>
<path d="M3030 261 c0 -6 4 -13 10 -16 6 -3 7 1 4 9 -7 18 -14 21 -14 7z"/>
<path d="M3095 251 c-3 -5 -2 -12 3 -15 5 -3 9 1 9 9 0 17 -3 19 -12 6z"/>
<path d="M3213 245 c0 -8 4 -12 9 -9 5 3 6 10 3 15 -9 13 -12 11 -12 -6z"/>
<path d="M3250 239 c0 -5 5 -7 10 -4 6 3 10 8 10 11 0 2 -4 4 -10 4 -5 0 -10
-5 -10 -11z"/>
<path d="M3415 241 c-3 -5 -2 -12 3 -15 5 -3 9 1 9 9 0 17 -3 19 -12 6z"/>
</g>
</svg>
