<?xml version="1.0" encoding="UTF-8" standalone="no"?>
<!-- Generator: Adobe Illustrator 22.1.0, SVG Export Plug-In . SVG Version: 6.00 Build 0)  -->
<svg id="Layer_1" xmlns:rdf="http://www.w3.org/1999/02/22-rdf-syntax-ns#" xmlns="http://www.w3.org/2000/svg" xml:space="preserve" viewBox="0 0 496 736" height="736" width="496" version="1.1" y="0px" x="0px" xmlns:cc="http://creativecommons.org/ns#" xmlns:dc="http://purl.org/dc/elements/1.1/"><metadata id="metadata171"><rdf:RDF><cc:Work rdf:about=""><dc:format>image/svg+xml</dc:format><dc:type rdf:resource="http://purl.org/dc/dcmitype/StillImage"/><dc:title>assetAsset 11</dc:title></cc:Work></rdf:RDF></metadata><style id="style156" type="text/css">
	.st0{enable-background:new    ;}
	.st1{fill:#34BAC8;}
</style><title id="title158">assetAsset 11</title><g id="Layer_2_1_" transform="translate(-75,-127)"><g id="Layer_2-2"><g id="g162" style="enable-background:new" class="st0"><path id="path160" fill="#34bac8" class="st1" d="m75 127h50v303c17-32 80-112 198-112 146 0 248 114 248 274 0 158-105 271-253 271-125 0-181-89-193-109v96h-50zm245 689c111 0 199-88 199-224 0-133-84-227-197-227-108 0-199 83-199 227 0 122 76 224 197 224z"/></g></g></g></svg>
