<svg width="340" height="390" xmlns="http://www.w3.org/2000/svg">
 <style type="text/css">.st0{enable-background:new    ;}
	.st1{fill:#0B416B;}</style>

 <title>assetAsset 9</title>
 <g>
  <title>background</title>
  <rect fill="none" id="canvas_background" height="392" width="342" y="-1" x="-1"/>
 </g>
 <g>
  <title>Layer 1</title>
  <g id="Layer_2_1_">
   <g id="Layer_2-2">
    <g id="svg_1" class="st0">
     <path id="svg_2" d="m0.000001,16.399997l70.8,-16.4l30.2,130.9c4.5,-10.8 25.3,-42.6 71.5,-53.3c77,-17.8 140.7,28.6 159.9,111.8c19.1,82.7 -21.9,153.2 -98.9,171c-45.7,10.6 -78.3,-8.9 -87.5,-16l6.4,27.7l-66.7,15.4l-85.7,-371.1zm210.4,283.4c40,-9.3 61.9,-45.7 50.9,-93.4c-10.8,-46.7 -46,-72.7 -87.1,-63.2c-39,9 -62.1,44.6 -50.5,95c9.9,42.6 43.6,71.6 86.7,61.6z" class="st1"/>
    </g>
   </g>
  </g>
 </g>
</svg>