<?xml version="1.0" encoding="utf-8"?>
<!-- Generator: Adobe Illustrator 19.1.0, SVG Export Plug-In . SVG Version: 6.00 Build 0)  -->
<!DOCTYPE svg PUBLIC "-//W3C//DTD SVG 1.1//EN" "http://www.w3.org/Graphics/SVG/1.1/DTD/svg11.dtd">
<svg version="1.1" xmlns="http://www.w3.org/2000/svg" xmlns:xlink="http://www.w3.org/1999/xlink" x="0px" y="0px"
	 viewBox="0 0 320 320" style="enable-background:new 0 0 320 320;" xml:space="preserve">
<style type="text/css">
	.st0{fill:#0E95D4;}
	.st1{fill:#0E95D4;stroke:#FFFFFF;stroke-width:6;stroke-miterlimit:10;}
	.st2{fill:#0E95D4;stroke:#FFFFFF;stroke-width:2;stroke-miterlimit:10;}
	.st3{fill:none;stroke:#FFFFFF;stroke-width:2;stroke-linecap:round;stroke-linejoin:round;}
	.st4{fill:none;stroke:#FFFFFF;stroke-width:6;stroke-linecap:round;stroke-miterlimit:10;}
	.st5{fill:#FFFFFF;}
	.st6{fill:#0E95D4;stroke:#FFD946;stroke-width:6;stroke-miterlimit:10;}
	.st7{fill:#FFD946;}
	.st8{fill:#0E95D4;stroke:#FFFFFF;stroke-width:6;stroke-linecap:round;stroke-miterlimit:10;}
</style>
<g id="Background">
	<circle class="st0" cx="160" cy="160" r="160"/>
</g>
<g id="Hand_Below">
	<path class="st1" d="M174.4,198.2l-10.8,10.1c-1,1-1.7,2.2-2,3.6l-2.1,9.4c-2.6,11.6-19.5,10-19.9-1.9l-0.4-13.2
		c-0.2-7.2,4.3-14.4,9.1-19.8l11.6-11.1L174.4,198.2z"/>
</g>
<g id="iPhone">
	<path id="phone" class="st1" d="M206.6,215.8h-72c-5.5,0-10-4.5-10-10v-150c0-5.5,4.5-10,10-10h72c5.5,0,10,4.5,10,10v150
		C216.6,211.4,212.1,215.8,206.6,215.8z"/>
	<path id="screen" class="st2" d="M199.6,186.8h-58c-2.2,0-4-1.8-4-4v-112c0-2.2,1.8-4,4-4h58c2.2,0,4,1.8,4,4v112
		C203.6,185,201.8,186.8,199.6,186.8z"/>
	<g id="scribble">
		<g>
			<path class="st3" d="M138.2,68.8c0.1,0.1,3.3-2.1,3.3-1.9c0.4,0.6-4.3,15-3.9,15.6c0.5,0.9,26.3-16.7,27-15.6
				c0.6,1.1-27.9,28.4-27,30c1.2,2,51.1-31.6,52-30c1.1,1.9-53.1,40.5-52,42.3c1.6,2.7,64.5-40.6,65.9-38.1
				c1.4,2.5-67.5,50.7-65.9,53.3c1.4,2.4,64.3-40.9,65.9-38.1c1.7,2.9-67.2,48.4-65.9,50.6c1.4,2.4,64.3-40.9,65.9-38.1
				c1.9,3.4-67.8,48.3-65.9,51.5c1.4,2.3,64.3-40.9,65.9-38.1c1.6,2.8-67.3,50.5-65.9,52.8c1.2,2.1,64.4-40.7,65.9-38.1
				c1.8,3.1-67.4,48.7-65.9,51.3c1.6,2.8,64.5-40.6,65.9-38.1c1.4,2.5-54.7,43.5-52.9,46.5c1.2,2.1,51.5-32.9,52.9-30.5
				c0.9,1.5-27.2,29.5-26.6,30.5c0.7,1.1,25.9-16.4,26.6-15.3c0.3,0.5-4.2,14.8-3.9,15.3c0.1,0.1,3.3-2.1,3.3-1.9"/>
		</g>
	</g>
	<line id="speaker" class="st4" x1="163" y1="58" x2="178" y2="58"/>
	<circle id="button" class="st5" cx="170.6" cy="200.8" r="8"/>
	<circle id="touch" class="st6" cx="170.6" cy="146.8" r="16"/>
	<g id="light">
		<g id="XMLID_23_">
			<g>
				<path class="st7" d="M75.6,88.5c7.5,6.4,15.4,12.5,23.7,17.8c4.9,3.1,9.4-4.6,4.5-7.8c-7.7-4.9-15-10.5-21.9-16.4
					C77.6,78.4,71.2,84.7,75.6,88.5L75.6,88.5z"/>
			</g>
		</g>
		<g id="XMLID_22_">
			<g>
				<path class="st7" d="M60.2,136.8c9.3,0.7,18.6,1.7,27.7,3.5c5.7,1.1,8.1-7.6,2.4-8.7c-9.9-1.9-20.1-3.1-30.1-3.8
					C54.5,127.4,54.5,136.4,60.2,136.8L60.2,136.8z"/>
			</g>
		</g>
		<g id="XMLID_2_">
			<g>
				<path class="st7" d="M68.7,186.7c8.7-3.3,17.2-7.4,25.6-11.4c5.2-2.5,0.7-10.2-4.5-7.8c-7.7,3.6-15.5,7.4-23.5,10.5
					C60.9,180,63.3,188.7,68.7,186.7L68.7,186.7z"/>
			</g>
		</g>
	</g>
</g>
<g id="Hand_Above">
	<path class="st8" d="M259.8,242.8l-1.4-50.8c-0.3-9.2-2.5-18.4-6.6-26.7l-15.6-31.7c-2.7-5.5-6.9-10.3-12-13.7l-6.5-4.4l1,57.3
		l-4.1,13.6c-0.4,1.4-2.4,1.5-2.9,0.2l-7.1-16.1c-1.9-4.2-5.3-7.6-9.6-9.2l-12.8-9.2c-10.5-7.6-24,4.5-17.6,15.8l13.8,24.1
		c0.6,2.6,1,5.2,1.1,7.8l1.2,30.3c0.4,10.9,4.2,21.6,10.8,30.2l0,0c3.7,4.9,8.4,8.9,13.9,11.8l4,2.1"/>
</g>
</svg>
