<?xml version="1.0" encoding="utf-8"?>
<!-- Generator: Adobe Illustrator 19.1.0, SVG Export Plug-In . SVG Version: 6.00 Build 0)  -->
<!DOCTYPE svg PUBLIC "-//W3C//DTD SVG 1.1//EN" "http://www.w3.org/Graphics/SVG/1.1/DTD/svg11.dtd">
<svg version="1.1" xmlns="http://www.w3.org/2000/svg" xmlns:xlink="http://www.w3.org/1999/xlink" x="0px" y="0px"
	 viewBox="0 0 320 320" style="enable-background:new 0 0 320 320;" xml:space="preserve">
<style type="text/css">
	.st0{fill:#0E95D4;}
	.st1{fill:none;stroke:#FFD946;stroke-width:6;stroke-miterlimit:10;}
	.st2{fill:none;stroke:#FFFFFF;stroke-width:6;stroke-miterlimit:10;}
	.st3{fill:none;stroke:#FFFFFF;stroke-width:2;stroke-linecap:round;stroke-linejoin:round;}
	.st4{fill:#FAFAFA;}
	.st5{fill:#FFD946;}
</style>
<g id="Background">
	<circle class="st0" cx="160" cy="160" r="160"/>
</g>
<g id="lightbulb">
	<path id="circuit" class="st1" d="M153,224c-1.3-17.8-4-34.9-9.6-52.7c-0.7-2.3-2.1-4.5-4-6.1c-0.7-0.6-1.5-1.1-2.4-1.2
		c-1.8-0.2-3.3,1.3-4,2.9c-1.6,3.8,0.2,8.5,3.6,10.8c3.4,2.3,8,2.4,11.9,1.1c3.9-1.3,7.2-4,10.1-6.9c2.8-2.9,5.4-6,7.5-9.4
		c2.4-3.7,4.1-9.1,0.7-12.1c-1.8-1.6-4.5-1.7-6.7-0.5c-3.4,1.9-4.7,5.8-4.5,9.5c0.3,7.1,5.5,13.7,12.4,15.6s14.7-1.2,18.5-7.2
		c0.9-1.5,1.7-3.2,1.5-5c-0.1-0.7-0.6-1.4-1.2-2c-1.1-1.1-2.8-1.2-4-0.3c-1.3,1-2.9,2.5-3.4,3.9c-6.3,18.5-6.7,38.4-7.1,58"/>
	<path id="glass" class="st2" d="M217.4,156.5c0-32.2-26.5-58.2-58.9-57.3c-30.4,0.8-54.8,25.1-55.8,55.6
		c-0.5,17.4,6.7,33.2,18.5,44.1c4.4,4,7.7,9,9.9,14.5l3,7.8c0.4,1,1.3,1.6,2.3,1.6h47c1,0,2-0.6,2.3-1.6l3.1-7.8
		c2.2-5.6,5.7-10.5,10.1-14.6C210.3,188.2,217.4,173.1,217.4,156.5z"/>
	<path id="scribble" class="st2" d="M137.1,233.4c-1.4,0-2.6,1.1-2.6,2.4v16c0,1,14.1,15.6,25.7,15.6s25.3-14.7,25.3-15.6v-16
		c0-1.3-1.2-2.4-2.6-2.4H137.1z"/>
	<g id="bottom">
		<g>
			<path class="st3" d="M133.1,235.9c0.1,0.1,6-3.6,6-3.5c0.3,0.5-6.7,16.1-6.3,16.9c0.5,0.8,28.6-17.8,29.2-16.9
				c0.7,1.2-24.4,24.8-23.8,25.9c0.8,1.3,43.9-27.7,44.9-25.9c1.1,1.9-36.3,30.7-35.1,32.8c0.7,1.2,38.5-24,39.3-22.7
				c0.8,1.3-23.2,23.5-22.5,24.6c0.2,0.3,14.1-8.8,14.3-8.3"/>
		</g>
	</g>
	<g id="sheen">
		<g>
			<path class="st4" d="M121.7,157.6c-1.8-13.2,3.9-26.3,14-34.7c4.5-3.7-1.9-10-6.4-6.4c-12.8,10.6-18.6,27.1-16.3,43.5
				C113.8,165.7,122.5,163.3,121.7,157.6L121.7,157.6z"/>
		</g>
	</g>
	<g id="light">
		<g id="XMLID_13_">
			<g>
				<path class="st5" d="M91.4,75.5c5,6.9,10.6,13.3,16.7,19.1c4.2,4,10.6-2.4,6.4-6.4c-5.6-5.3-10.8-11.1-15.3-17.3
					C95.8,66.3,88,70.8,91.4,75.5L91.4,75.5z"/>
			</g>
		</g>
		<g id="XMLID_14_">
			<g>
				<path class="st5" d="M154.2,52.6c-0.2,7.6-0.3,15.2-0.1,22.8c0.1,5.8,9.1,5.8,9,0c-0.2-7.6-0.1-15.2,0.1-22.8
					C163.4,46.8,154.4,46.8,154.2,52.6L154.2,52.6z"/>
			</g>
		</g>
		<g id="XMLID_15_">
			<g>
				<path class="st5" d="M215.6,95c4-6.1,8.6-11.6,13.7-16.7c4.1-4.1-2.2-10.4-6.4-6.4c-5.7,5.6-10.7,11.8-15.1,18.5
					C204.7,95.3,212.5,99.8,215.6,95L215.6,95z"/>
			</g>
		</g>
		<g id="XMLID_16_">
			<g>
				<path class="st5" d="M58.8,133.5c7.6,1.6,15,3.7,22.3,6.2c5.5,1.9,7.8-6.8,2.4-8.7c-7.3-2.6-14.7-4.7-22.3-6.2
					C55.5,123.7,53.1,132.4,58.8,133.5L58.8,133.5z"/>
			</g>
		</g>
		<g id="XMLID_17_">
			<g>
				<path class="st5" d="M67.9,198.8c7.1-2.4,14-5.1,20.7-8.1c5.3-2.4,0.7-10.1-4.5-7.8c-6.1,2.7-12.3,5.1-18.6,7.2
					C60.1,192,62.4,200.7,67.9,198.8L67.9,198.8z"/>
			</g>
		</g>
		<g id="XMLID_19_">
			<g>
				<path class="st5" d="M235.2,187.1c6,2.2,12,4.4,18,6.7c5.4,2,7.8-6.7,2.4-8.7c-6-2.2-12-4.4-18-6.7
					C232.2,176.4,229.8,185.1,235.2,187.1L235.2,187.1z"/>
			</g>
		</g>
		<g id="XMLID_49_">
			<g>
				<path class="st5" d="M239.6,132c7.2-1,14.4-1.9,21.6-2.9c5.7-0.8,3.3-9.4-2.4-8.7c-7.2,1-14.4,1.9-21.6,2.9
					C231.5,124,233.9,132.7,239.6,132L239.6,132z"/>
			</g>
		</g>
	</g>
</g>
</svg>
