<svg xmlns="http://www.w3.org/2000/svg" viewBox="0 0 32.16 12.69"><defs><style>.cls-1{fill:#1e0a3d;}.cls-2{opacity:0.5;}.cls-3{fill:#fe9;}</style></defs><g id="Layer_2" data-name="Layer 2"><g id="Buildings_L1" data-name="Buildings L1"><path class="cls-1" d="M24.35,3.93C24,2.87,21.76,1,21,.36a1,1,0,0,0-.56-.24,40.74,40.74,0,0,0-8.79.27C7.8.93,4.55,2,2.34,3.93Z"/><path class="cls-1" d="M24.35,3.93a23.64,23.64,0,0,1,4.53.72,23.3,23.3,0,0,1,2.71.89A.67.67,0,0,1,32,5.8a.82.82,0,0,1,.15.47,4.26,4.26,0,0,1,0,.76,3.43,3.43,0,0,0-.08.83,2.08,2.08,0,0,0,.1.44V9.44l-2.63.29a3,3,0,0,0-2.87-1.79,3,3,0,0,0-2.41,1.79L8.53,9.54A3,3,0,0,0,5.71,7.7,3,3,0,0,0,3.25,9.44l-3,0L0,6.86a1.44,1.44,0,0,0,.4-1,3.2,3.2,0,0,0-.25-1c0-.08-.19-.17,0-.45A1.4,1.4,0,0,1,1,4.16l1.39-.23Z"/><ellipse class="cls-1" cx="26.87" cy="10.35" rx="2.58" ry="2.34"/><ellipse class="cls-1" cx="5.84" cy="10.12" rx="2.58" ry="2.34"/><g class="cls-2"><path class="cls-3" d="M32.14,6.46,31.08,6A1.4,1.4,0,0,0,30.2,6l-.69.23,1.19.88a.25.25,0,0,0,.15,0h1.31Z"/></g><g class="cls-2"><path class="cls-3" d="M20.52.82A.74.74,0,0,1,21,1c.59.52,2.4,2,2.71,2.91H16.23L15.14.84A33.38,33.38,0,0,1,20.52.82Z"/><path class="cls-3" d="M7.21,2.47C8.83,1.61,11.06,1.36,13.34,1c.49-.07.76-.11,1.23-.15l.46,3H5.45A10,10,0,0,1,7.21,2.47Z"/></g><g class="cls-2"><path class="cls-3" d="M.56,4.74a4,4,0,0,1-.41.14l.25,1H1a.39.39,0,0,0,.23-.09L2,5.08a.19.19,0,0,0-.1-.33Z"/></g></g></g></svg>