<svg xmlns="http://www.w3.org/2000/svg" viewBox="0 0 32.16 12.69"><defs><style>.cls-1{fill:#1e0a3d;}.cls-2{opacity:0.5;}.cls-3{fill:#fe9;}</style></defs><g id="Layer_2" data-name="Layer 2"><g id="Buildings_L2" data-name="Buildings L2"><path class="cls-1" d="M7.81,3.93C8.18,2.87,10.4,1,11.13.36a1,1,0,0,1,.56-.24,40.74,40.74,0,0,1,8.79.27C24.36.93,27.61,2,29.83,3.93Z"/><path class="cls-1" d="M7.81,3.93A23.53,23.53,0,0,0,.57,5.54a.66.66,0,0,0-.4.26A.76.76,0,0,0,0,6.27,4.26,4.26,0,0,0,0,7a3.43,3.43,0,0,1,.08.83A2.08,2.08,0,0,1,0,8.3V9.44l2.64.29A3,3,0,0,1,5.51,7.94,3,3,0,0,1,7.92,9.73l15.71-.19a2.84,2.84,0,0,1,5.28-.1l3,0,.21-2.54a1.44,1.44,0,0,1-.4-1,3.2,3.2,0,0,1,.25-1c0-.08.19-.17,0-.45a1.37,1.37,0,0,0-.76-.27l-1.39-.23Z"/><ellipse class="cls-1" cx="5.29" cy="10.35" rx="2.58" ry="2.34"/><ellipse class="cls-1" cx="26.33" cy="10.12" rx="2.58" ry="2.34"/><g class="cls-2"><path class="cls-3" d="M0,6.46,1.08,6A1.4,1.4,0,0,1,2,6l.69.23-1.19.88a.24.24,0,0,1-.14,0H0Z"/></g><g class="cls-2"><path class="cls-3" d="M11.65.82a.79.79,0,0,0-.47.2c-.59.52-2.4,2-2.71,2.91h7.46L17,.84A33.25,33.25,0,0,0,11.65.82Z"/><path class="cls-3" d="M25,2.47C23.33,1.61,21.1,1.36,18.83,1c-.5-.07-.77-.11-1.24-.15l-.46,3h9.58A10,10,0,0,0,25,2.47Z"/></g><g class="cls-2"><path class="cls-3" d="M31.6,4.74a4,4,0,0,0,.41.14l-.25,1h-.58A.41.41,0,0,1,31,5.8l-.79-.72a.19.19,0,0,1,.11-.33Z"/></g></g></g></svg>