<svg xmlns="http://www.w3.org/2000/svg" viewBox="0 0 80.14 12.69"><defs><style>.cls-1{fill:#1e0a3d;}.cls-2{opacity:0.5;}.cls-3{fill:#fe9;}</style></defs><g id="Layer_2" data-name="Layer 2"><g id="Buildings_L1" data-name="Buildings L1"><rect class="cls-1" width="25.08" height="12.69" rx="2.36"/><rect class="cls-1" x="27.53" width="25.08" height="12.69" rx="2.36"/><rect class="cls-1" x="55.05" width="25.08" height="12.69" rx="2.36"/><g class="cls-2"><rect class="cls-3" x="11.11" y="2.32" width="2.86" height="2.86"/></g><g class="cls-2"><rect class="cls-3" x="19.71" y="2.32" width="2.86" height="2.86"/></g><g class="cls-2"><rect class="cls-3" x="15.41" y="2.32" width="2.86" height="2.86"/></g><g class="cls-2"><rect class="cls-3" x="6.73" y="2.32" width="2.86" height="2.86"/></g><g class="cls-2"><rect class="cls-3" x="2.43" y="2.32" width="2.86" height="2.86"/></g><g class="cls-2"><rect class="cls-3" y="9.07" width="25.08" height="0.54"/></g><rect class="cls-1" x="25.08" y="9.07" width="2.44" height="0.54"/><g class="cls-2"><rect class="cls-3" x="38.64" y="2.32" width="2.86" height="2.86"/></g><g class="cls-2"><rect class="cls-3" x="47.24" y="2.32" width="2.86" height="2.86"/></g><g class="cls-2"><rect class="cls-3" x="42.94" y="2.32" width="2.86" height="2.86"/></g><g class="cls-2"><rect class="cls-3" x="34.26" y="2.32" width="2.86" height="2.86"/></g><g class="cls-2"><rect class="cls-3" x="29.96" y="2.32" width="2.86" height="2.86"/></g><g class="cls-2"><rect class="cls-3" x="27.53" y="9.07" width="25.08" height="0.54"/></g><g class="cls-2"><rect class="cls-3" x="66.17" y="2.32" width="2.86" height="2.86"/></g><g class="cls-2"><rect class="cls-3" x="74.77" y="2.32" width="2.86" height="2.86"/></g><g class="cls-2"><rect class="cls-3" x="70.47" y="2.32" width="2.86" height="2.86"/></g><g class="cls-2"><rect class="cls-3" x="61.78" y="2.32" width="2.86" height="2.86"/></g><g class="cls-2"><rect class="cls-3" x="57.48" y="2.32" width="2.86" height="2.86"/></g><g class="cls-2"><rect class="cls-3" x="55.05" y="9.07" width="25.08" height="0.54"/></g><rect class="cls-1" x="52.61" y="9.07" width="2.44" height="0.54"/></g></g></svg>