<?xml version="1.0" encoding="UTF-8" standalone="no"?>
<svg id="svg657" stroke-linejoin="round" xmlns:rdf="http://www.w3.org/1999/02/22-rdf-syntax-ns#" xmlns="http://www.w3.org/2000/svg" clip-rule="evenodd" fill-rule="evenodd" xml:space="preserve" height="391" width="352.15" version="1.1" xmlns:serif="http://www.serif.com/" stroke-miterlimit="1.4142" xmlns:cc="http://creativecommons.org/ns#" viewBox="0 0 352.15176 390.99719" xmlns:dc="http://purl.org/dc/elements/1.1/"><metadata id="metadata663"><rdf:RDF><cc:Work rdf:about=""><dc:format>image/svg+xml</dc:format><dc:type rdf:resource="http://purl.org/dc/dcmitype/StillImage"/><dc:title/></cc:Work></rdf:RDF></metadata><path id="Layer_2-2" fill-rule="nonzero" fill="#f6c55e" d="m15.098 16.4 70.8-16.4 30.2 130.9c4.5-10.8 25.3-42.6 71.5-53.3 77-17.8 140.7 28.6 159.9 111.8 19.1 82.7-21.9 153.2-98.9 171-45.7 10.6-78.3-8.9-87.5-16l6.4 27.7-66.7 15.4zm210.4 283.4c40-9.3 61.9-45.7 50.9-93.4-10.8-46.7-46-72.7-87.1-63.2-39 9-62.1 44.6-50.5 95 9.9 42.6 43.6 71.6 86.7 61.6z"/><g id="Layer_2-21" serif:id="Layer_2-2" transform="translate(-42.8 -114.8)"><path id="path654" fill-rule="nonzero" fill="#0b416b" d="m42.8 134.7 70.8-16.4 30.2 130.9c4.5-10.8 25.3-42.6 71.5-53.3 77-17.8 140.7 28.6 159.9 111.8 19.1 82.7-21.9 153.2-98.9 171-45.7 10.6-78.3-8.9-87.5-16l6.4 27.7-66.7 15.4zm210.4 283.4c40-9.3 61.9-45.7 50.9-93.4-10.8-46.7-46-72.7-87.1-63.2-39 9-62.1 44.6-50.5 95 9.9 42.6 43.6 71.6 86.7 61.6z"/></g></svg>
