<?xml version="1.0" encoding="utf-8"?>
<!-- Generator: Adobe Illustrator 22.1.0, SVG Export Plug-In . SVG Version: 6.00 Build 0)  -->
<svg version="1.1" id="Layer_1" xmlns="http://www.w3.org/2000/svg" xmlns:xlink="http://www.w3.org/1999/xlink" x="0px" y="0px"
	 viewBox="0 0 419.2 591.4" style="enable-background:new 0 0 419.2 591.4;" xml:space="preserve">
<style type="text/css">
	.st0{enable-background:new    ;}
	.st1{fill:#0B416B;}
</style>
<g class="st0">
	<path class="st1" d="M52.6,578.2H35.1l84.7-506.1h17.5L98.1,304.6c22.4-39.9,81.2-96.6,167.3-96.6c86.8,0,141.4,66.5,141.4,156.1
		c0,128.1-91,223.3-205.1,223.3c-86.1,0-125.3-63-133.7-102.2L52.6,578.2z M204.5,569.8c96.6,0,184.1-85.4,184.1-201.6
		c0-84.7-51.8-142.8-126.7-142.8c-86.8,0-183.4,76.3-183.4,208.6C78.5,527.1,137.3,569.8,204.5,569.8z"/>
</g>
</svg>
