<svg width="270" height="320" xmlns="http://www.w3.org/2000/svg">
 <style type="text/css">.st0{enable-background:new    ;}
	.st1{fill:#9FDCDF;}</style>

 <title>assetAsset 16</title>
 <g>
  <title>background</title>
  <rect fill="none" id="canvas_background" height="322" width="272" y="-1" x="-1"/>
 </g>
 <g>
  <title>Layer 1</title>
  <g id="Layer_2_1_">
   <g id="Layer_2-2">
    <g id="svg_1" class="st0">
     <path id="svg_2" d="m205.3,0l38.6,39.2l-72.4,71.4c8.8,-1.3 37.5,-0.6 62.7,25c42,42.6 37.4,102.1 -8.7,147.4c-45.7,45.1 -107.5,46.6 -149.5,4c-24.9,-25.3 -25.3,-54 -24.4,-62.8l-15.3,15.1l-36.3,-36.8l205.3,-202.5zm-99.3,248.1c21.8,22.2 54,21.8 80.4,-4.2c25.8,-25.5 28.6,-58.5 6.2,-81.2c-21.3,-21.6 -53.4,-22.4 -81.3,5.1c-23.5,23.2 -28.8,56.4 -5.3,80.3z" class="st1"/>
    </g>
   </g>
  </g>
 </g>
</svg>