<?xml version="1.0" encoding="UTF-8" standalone="no"?>
<!-- Generator: Adobe Illustrator 22.1.0, SVG Export Plug-In . SVG Version: 6.00 Build 0)  -->
<svg id="Layer_1" xmlns:rdf="http://www.w3.org/1999/02/22-rdf-syntax-ns#" xmlns="http://www.w3.org/2000/svg" xml:space="preserve" viewBox="0 0 301.99999 368.00001" height="368" width="302" version="1.1" y="0px" x="0px" xmlns:cc="http://creativecommons.org/ns#" xmlns:dc="http://purl.org/dc/elements/1.1/"><metadata id="metadata3765"><rdf:RDF><cc:Work rdf:about=""><dc:format>image/svg+xml</dc:format><dc:type rdf:resource="http://purl.org/dc/dcmitype/StillImage"/><dc:title/></cc:Work></rdf:RDF></metadata><style id="style3754" type="text/css">
	.st0{enable-background:new    ;}
	.st1{fill:#EC5760;}
</style><g id="g3758" style="enable-background:new" transform="translate(-26.6,-38.4)" class="st0"><path id="path3756" fill="#ec5760" class="st1" d="m104.6 399.9h-78l60.5-361.5h83.5l-20 119c6.5-6.5 34.5-26.5 74.5-26.5 66 0 103.5 46 103.5 112.5 0 94-68.5 163-154 163-38.5 0-60.5-18.5-66.5-27zm70.5-66.5c38.5 0 68.5-31 68.5-76 0-31.5-17.5-53-47-53-38 0-68.5 29.5-68.5 76.5 0 29 16 52.5 47 52.5z"/></g></svg>
