<?xml version="1.0" encoding="UTF-8" standalone="no"?>
<svg id="svg738" stroke-linejoin="round" xmlns:rdf="http://www.w3.org/1999/02/22-rdf-syntax-ns#" xmlns="http://www.w3.org/2000/svg" clip-rule="evenodd" fill-rule="evenodd" xml:space="preserve" height="327.19" width="272.21" version="1.1" xmlns:serif="http://www.serif.com/" stroke-miterlimit="1.4142" xmlns:cc="http://creativecommons.org/ns#" viewBox="0 0 272.20511 327.19141" xmlns:dc="http://purl.org/dc/elements/1.1/"><metadata id="metadata744"><rdf:RDF><cc:Work rdf:about=""><dc:format>image/svg+xml</dc:format><dc:type rdf:resource="http://purl.org/dc/dcmitype/StillImage"/><dc:title/></cc:Work></rdf:RDF></metadata><path id="Layer_2-2" fill-rule="nonzero" fill="#9fdcdf" d="m205.3 0 38.6 39.2-72.4 71.4c8.8-1.3 37.5-0.6 62.7 25 42 42.6 37.4 102.1-8.7 147.4-45.7 45.1-107.5 46.6-149.5 4-24.9-25.3-25.3-54-24.4-62.8l-15.3 15.1-36.3-36.8zm-99.3 248.1c21.8 22.2 54 21.8 80.4-4.2 25.8-25.5 28.6-58.5 6.2-81.2-21.3-21.6-53.4-22.4-81.3 5.1-23.5 23.2-28.8 56.4-5.3 80.3z"/><g id="Layer_2-21" serif:id="Layer_2-2" transform="translate(-88.57 -43.228)"><path id="path735" fill-rule="nonzero" fill="#ec5760" d="m303 52.5 38.6 39.2-72.4 71.4c8.8-1.3 37.5-0.6 62.7 25 42 42.6 37.4 102.1-8.7 147.4-45.7 45.1-107.5 46.6-149.5 4-24.9-25.3-25.3-54-24.4-62.8l-15.3 15.1-36.3-36.8zm-99.3 248.1c21.8 22.2 54 21.8 80.4-4.2 25.8-25.5 28.6-58.5 6.2-81.2-21.3-21.6-53.4-22.4-81.3 5.1-23.5 23.2-28.8 56.4-5.3 80.3z"/></g></svg>
