<svg width="480" height="750" xmlns="http://www.w3.org/2000/svg">
 <style type="text/css">.st0{enable-background:new    ;}
	.st1{fill:#F6C55E;}</style>

 <title>assetAsset 25</title>
 <g>
  <title>background</title>
  <rect fill="none" id="canvas_background" height="752" width="482" y="-1" x="-1"/>
 </g>
 <g>
  <title>Layer 1</title>
  <g id="Layer_2_1_">
   <g id="Layer_2-2">
    <g id="svg_1" class="st0">
     <path id="svg_2" d="m10,375c14,-74 88,-181 225,-181c140,0 239,112 239,271c0,157 -96,271 -239,271c-145,0 -212,-118 -225,-189l0,176l-10,0l0,-723l10,0l0,375zm225,351c129,0 229,-105 229,-261c0,-153 -98,-261 -229,-261c-123,0 -226,96 -226,261c0,140 88,261 226,261z" class="st1"/>
    </g>
   </g>
  </g>
 </g>
</svg>