<?xml version="1.0" encoding="UTF-8" standalone="no"?>
<!-- Generator: Adobe Illustrator 22.1.0, SVG Export Plug-In . SVG Version: 6.00 Build 0)  -->
<svg id="Layer_1" xmlns:rdf="http://www.w3.org/1999/02/22-rdf-syntax-ns#" xmlns="http://www.w3.org/2000/svg" xml:space="preserve" viewBox="0 0 564.37813 788.8972" height="788.9" width="564.38" version="1.1" y="0px" x="0px" xmlns:cc="http://creativecommons.org/ns#" xmlns:dc="http://purl.org/dc/elements/1.1/"><metadata id="metadata80"><rdf:RDF><cc:Work rdf:about=""><dc:format>image/svg+xml</dc:format><dc:type rdf:resource="http://purl.org/dc/dcmitype/StillImage"/><dc:title>assetAsset 1</dc:title></cc:Work></rdf:RDF></metadata><style id="style65" type="text/css">
	.st0{enable-background:new    ;}
	.st1{fill:#F6C55E;}
</style><title id="title67">assetAsset 1</title><g id="Layer_2_1_" transform="translate(-161.4,-149.7)"><g id="Layer_2-2"><g id="g71" style="enable-background:new" class="st0"><path id="path69" fill="#f6c55e" class="st1" d="m306.8 498.7c41.8-62.6 151.8-132.1 277.9-78.6 128.8 54.9 176.1 196.7 113.9 343-61.4 144.5-194.4 211.8-326 155.9-133.4-56.7-148.9-191.5-133.1-262l-68.9 162-9.2-3.9 282.8-665.4 9.2 3.9zm69.7 411.1c118.7 50.5 251.8-7 312.9-150.6 59.9-140.8 11.9-278.5-108.6-329.8-113.2-48.1-245.5-0.1-310.1 151.8-54.8 128.8-21.2 274.6 105.8 328.6z"/></g></g></g></svg>
