<svg xmlns="http://www.w3.org/2000/svg" xmlns:xlink="http://www.w3.org/1999/xlink" viewBox="0 0 1208.86 681"><defs><style>.cls-1,.cls-8,.cls-9{fill:none;}.cls-2{fill:url(#linear-gradient);}.cls-3{fill:url(#linear-gradient-2);}.cls-4{fill:url(#linear-gradient-3);}.cls-5{fill:url(#linear-gradient-4);}.cls-6{clip-path:url(#clip-path);}.cls-7{fill:url(#linear-gradient-5);}.cls-8{stroke:#210d3d;stroke-width:5px;}.cls-8,.cls-9{stroke-miterlimit:10;}.cls-9{stroke:#1f214e;stroke-linecap:round;stroke-width:20px;}.cls-10{clip-path:url(#clip-path-2);}.cls-11{fill:url(#linear-gradient-6);}.cls-12{fill:url(#linear-gradient-7);}.cls-13{fill:url(#linear-gradient-8);}.cls-14{fill:url(#linear-gradient-9);}.cls-15{fill:url(#linear-gradient-10);}.cls-16{fill:url(#linear-gradient-11);}.cls-17{fill:url(#linear-gradient-12);}</style><linearGradient id="linear-gradient" x1="77.79" y1="-42.24" x2="405.28" y2="513.78" gradientUnits="userSpaceOnUse"><stop offset="0" stop-color="#c8e2c9"/><stop offset="1" stop-color="#498773"/></linearGradient><linearGradient id="linear-gradient-2" x1="390.29" y1="263.98" x2="602.59" y2="263.98" xlink:href="#linear-gradient"/><linearGradient id="linear-gradient-3" x1="414.89" y1="132.05" x2="890.46" y2="132.05" xlink:href="#linear-gradient"/><linearGradient id="linear-gradient-4" x1="790.12" y1="357.54" x2="922.06" y2="357.54" xlink:href="#linear-gradient"/><clipPath id="clip-path"><circle class="cls-1" cx="109.17" cy="-599.81" r="434.8"/></clipPath><linearGradient id="linear-gradient-5" x1="-617.42" y1="-1328.5" x2="1825.12" y2="421.66" gradientUnits="userSpaceOnUse"><stop offset="0" stop-color="#c9e4ca"/><stop offset="0.08" stop-color="#a3ccbe"/><stop offset="0.18" stop-color="#7bb2b1"/><stop offset="0.28" stop-color="#589ca6"/><stop offset="0.39" stop-color="#3c8a9d"/><stop offset="0.51" stop-color="#267c97"/><stop offset="0.64" stop-color="#177392"/><stop offset="0.78" stop-color="#0e6d8f"/><stop offset="1" stop-color="#0b6b8e"/></linearGradient><clipPath id="clip-path-2"><circle class="cls-1" cx="584.75" cy="662.9" r="471.97"/></clipPath><linearGradient id="linear-gradient-6" x1="-203.94" y1="-128.08" x2="2447.36" y2="1771.67" gradientUnits="userSpaceOnUse"><stop offset="0" stop-color="#c8e2c9"/><stop offset="0.07" stop-color="#a5ccbe"/><stop offset="0.17" stop-color="#7db2b1"/><stop offset="0.28" stop-color="#5a9ca6"/><stop offset="0.39" stop-color="#3e8a9d"/><stop offset="0.5" stop-color="#287c97"/><stop offset="0.63" stop-color="#197392"/><stop offset="0.78" stop-color="#106d8f"/><stop offset="1" stop-color="#0d6b8e"/></linearGradient><linearGradient id="linear-gradient-7" x1="1057.04" y1="681" x2="1208.86" y2="681" gradientUnits="userSpaceOnUse"><stop offset="0" stop-color="#200c3e"/><stop offset="0.24" stop-color="#1d1c4a" stop-opacity="0.91"/><stop offset="0.61" stop-color="#192c55" stop-opacity="0.83"/><stop offset="1" stop-color="#183159" stop-opacity="0.8"/></linearGradient><linearGradient id="linear-gradient-8" x1="1107.11" y1="476.98" x2="1108.2" y2="1026.26" gradientUnits="userSpaceOnUse"><stop offset="0" stop-color="#183159"/><stop offset="0.22" stop-color="#13486e"/><stop offset="0.47" stop-color="#0e5c80"/><stop offset="0.73" stop-color="#0c678a"/><stop offset="1" stop-color="#0b6b8e"/></linearGradient><linearGradient id="linear-gradient-9" x1="1068.74" y1="680.12" x2="1122.34" y2="680.12" xlink:href="#linear-gradient-7"/><linearGradient id="linear-gradient-10" x1="0" y1="680.98" x2="149.32" y2="680.98" xlink:href="#linear-gradient-7"/><linearGradient id="linear-gradient-11" x1="97.06" y1="352.78" x2="104.92" y2="1128.54" xlink:href="#linear-gradient-8"/><linearGradient id="linear-gradient-12" x1="111.46" y1="512.95" x2="111.46" y2="958.49" xlink:href="#linear-gradient-7"/><symbol id="Earth_2" data-name="Earth 2" viewBox="0 0 922.06 466.59"><path class="cls-2" d="M50.68,24.16,88.79,16,124,23.91a5.49,5.49,0,0,0,2.21.06l21.12-3.57a8.83,8.83,0,0,1,3.51.12l22.25,5.4L183.37,28l8.11-3.53,13.8,3.07a4.12,4.12,0,0,0,3.66-1l1.17-1.08a3.56,3.56,0,0,1,3.42-.78l3.61,1.08a3.63,3.63,0,0,0,2.88-.34l2.87-1.67-1.07-2.15a2.59,2.59,0,0,1,.92-3.35l4.93-3.15a2.21,2.21,0,0,1,3.1.73L233.83,21,236,28l8.34-6.18a2.21,2.21,0,0,1,2.45-.12l5.79,3.48-6,7.06-13.05,2.47-8.12,4.58-8.12,2.47-14.11,7.77-4.59,6.35,1.77,6,10.58,2.47L220.13,68a2.32,2.32,0,0,1,1.2,3.24L219,75.68l2.82,7.76,7.41-5.64-.91-5.23A3.09,3.09,0,0,1,230.69,69l6.39-1.46a4.36,4.36,0,0,0,3.36-3.89l.45-5.64-1.36-1.53a2.36,2.36,0,0,1,.07-3.23l8.28-8.56a2.21,2.21,0,0,1,1.87-.66l8.38,1.08a3.07,3.07,0,0,1,2.22,1.45l5.59,9.33,3.18,2.47L274,54.58a3.17,3.17,0,0,1,4.87,1.25l1.66,3.87a3.8,3.8,0,0,1-.66,4h0a1.75,1.75,0,0,0,.21,2.52l11.28,9.09-1.47,3.92a4.48,4.48,0,0,1-2.32,2.5L274.06,88l-16.59-1.76s-12,8.11-10.94,8.11c.71,0,7.19-1.4,11.45-2.34a2.24,2.24,0,0,1,2.63,2.83l-1,3.4,9.88,2.11-.35,2.47-17.29,5.65,1.76-4.94-5.64.35-.71,2.83-9.53,3.52-1.41,5.65-10.94,3.53-8.12,10.94-3.88-4.59.71,12-20.34,13.67a4.42,4.42,0,0,0-1.93,4.19l1.1,9.31,1.76,6.71-2.53,3.79a1.15,1.15,0,0,1-1.94,0L186,168.6a4,4,0,0,1-.58-1.77l-.63-7.51-2.7.38a4.9,4.9,0,0,1-3.94-1.19l-1.48-1.31-6.82.5a2.37,2.37,0,0,0-2.14,2.85h0a1.48,1.48,0,0,1-1.79,1.76l-8.26-1.95a5.19,5.19,0,0,0-2.87.15l-8.82,3-5,4.76a6,6,0,0,0-1.71,3L137,181a12,12,0,0,0,0,5.31l2.27,10a9.37,9.37,0,0,0,2.84,4.88h0a3.59,3.59,0,0,0,3.8.66l8.38-3.49a6,6,0,0,0,3.2-3.11l.54-1.19a6.46,6.46,0,0,1,5.68-3.82l3.8-.14A1.39,1.39,0,0,1,168.9,192l-3.18,8.65-3.08,5.92A1.7,1.7,0,0,0,164,209L174,210.15a3.05,3.05,0,0,1,2.7,3.31l-1.14,12.2,3.53,7.76,5.65,2.47,6.7-2.82,4.94,2.82,10.3-11.32,14.17.84,13.75,6.24,10.41-2.8,9.58,12.26,9.17,7.63h8.56a7.27,7.27,0,0,1,7,5.41l2,7.59a6.72,6.72,0,0,0,3.32,4.21l9.92,5.29,5,4.71a7.19,7.19,0,0,0,4.92,1.95H316.5a6.91,6.91,0,0,1,4.7,1.85l8.36,7.78a5.44,5.44,0,0,1,1.73,4v9.25a7.27,7.27,0,0,1-1.59,4.54L321,316.25a8.17,8.17,0,0,0-1.68,3.73l-4.43,25.56a7.25,7.25,0,0,1-3.9,5.24l-16.73,8.37-12.7,35.16H264.83l8.73,7.95-16.67,10.32-4,10.33v15.88l-2.38,16.68,16.68,11.12-33.6-13.74-12-52.19L221,334.93l-19.84-13s-16.59-32.82-17.67-32.82S186,278,186,278l-3.61-8.29,13-17.67L191,240.26l-7.87.85L168,231.43l-5.41-12.26-12.27-2.88-7.21-7.94-6.49,2.53-26.83-14L111,187.1,95.14,154.78,89.65,153l5.95,18L99.4,184l-2.31.83-6-7.61L91,171.08l-4.79-4.3-.66-17.85-5-6.61H77.09l-2.32-21L89.4,95.83a5.33,5.33,0,0,0-.52-6.06L85.4,85.56l.11-.25a3.36,3.36,0,0,1,3.91-2h0a1,1,0,0,0,1.18-.84l1.53-18.68a5.08,5.08,0,0,0-3.55-5.26L86.73,58a6.88,6.88,0,0,1-3.38-2.35l-.94-1.2a4.11,4.11,0,0,0-3-1.57l-6.17-.31a5.91,5.91,0,0,1-2.71-.82l-.19-.11a6,6,0,0,0-5.53-.27L61.31,53l-9.16,1.47a.44.44,0,0,1-.37-.76l3-2.66-9.48,2.26a1,1,0,0,0-.73.93h0a4.82,4.82,0,0,1-3.19,4.53L19,66.83l-7.3,1.46L0,70.72l12.65-5.11,17.52-5.84,4.14-3.4-5.11.24-5.84-.24L21.65,50l13.14-8.76h7.3l6.81-3.89L45,36.9l-2.19.73L35,36.17l-.25-2.68,15.57-3.16L47.45,33l5.83-1.46Z"/><path class="cls-3" d="M424.64,140.87l-4.15,4.93a1.15,1.15,0,0,1-.42.31l-5.23,2.29a1.14,1.14,0,0,0-.68,1V159.6a1.15,1.15,0,0,1-.55,1l-13.77,8.33a1.09,1.09,0,0,0-.45.52c-1.17,2.71-9.1,21.11-9.1,19.69v28.2a24,24,0,0,0,6.08,16l6.16,6.9a1.29,1.29,0,0,0,.17.16l14.14,10.47a1.19,1.19,0,0,0,.88.21l12.54-2.15a1.16,1.16,0,0,1,.83.17l2.61,1.75a1.2,1.2,0,0,0,1,.13l20.15-6.84a1.15,1.15,0,0,1,1.34.48c1.46,2.41,5.94,9.55,7.23,9.23s4.84-1.49,6.49-2a1.11,1.11,0,0,1,1.3.45l3.09,4.63a1.11,1.11,0,0,1,.16.9l-1.42,6a20,20,0,0,0,1.19,12.71l13.64,30.78a1.11,1.11,0,0,1,0,.82l-6.11,18.63a15.43,15.43,0,0,0,.52,11L488,350.63a.9.9,0,0,1,.09.32l1.8,14.67a18.1,18.1,0,0,0,2.64,7.46l7.3,11.68a1.17,1.17,0,0,1,.17.61v7.38a1.14,1.14,0,0,0,1.15,1.14h5.17a1.22,1.22,0,0,0,.43-.08l8.06-3.3a1.22,1.22,0,0,1,.43-.08h7a1.14,1.14,0,0,0,.77-.3l17-15.45.07-.07,5.23-5.58a1.14,1.14,0,0,0,.22-1.23l-.64-1.51a6,6,0,0,1,2.79-7.66h0A12.28,12.28,0,0,0,554.19,346l-.05-.35a11.67,11.67,0,0,1,4.93-11.27l7.9-5.45A15.73,15.73,0,0,0,573.48,313l-3.81-19.64a17.24,17.24,0,0,1,3.63-14.26l12.86-15.6.12-.12,8.6-7.77a16,16,0,0,0,4.57-7.16l2.69-8.63a9.79,9.79,0,0,0-11.22-12.52l-7.14,1.38a1.13,1.13,0,0,1-1.32-.8l-1.54-5.32a1.28,1.28,0,0,0-.33-.53c-1.63-1.46-11-10-11.7-11.71s-9.69-20.46-10.68-22.53l-.2-.37L546.24,166.2a1.14,1.14,0,0,1,1.44-1.61h0a1.14,1.14,0,0,0,1.58-1.05v-8.06a1.14,1.14,0,0,0-1-1.13L537.37,153a1.12,1.12,0,0,0-.78.18l-5,3.31a1.17,1.17,0,0,1-1,.14l-23.56-7.5a1.14,1.14,0,0,0-1.48,1l-.53,4.5a1.15,1.15,0,0,1-.7.92L500.89,157a1.14,1.14,0,0,1-1,0l-11.43-6.44a5.13,5.13,0,0,0-.83-.37l-12.46-4.51a1.14,1.14,0,0,1-.73-1.34l2.12-8.76a1.15,1.15,0,0,0-1.11-1.41h-25.2a17.49,17.49,0,0,0-9.71,3l-3.36,2.23a4.44,4.44,0,0,1-3.21.69l-4.69-.78A5,5,0,0,0,424.64,140.87Z"/><path class="cls-4" d="M525.89,32.6l6.87,5.7a3.55,3.55,0,0,0,3.83.47l14.14-6.87c.77-.38,4.65-4,8.12-4.54C561.49,27,572,25.12,572,25.12l12.3-.44c.16,0,.3-.2.4-.42a1.61,1.61,0,0,1,1.08-.92l11.76-2.73c-.44-.28-.32-7.72-.32-7.72,0-.88,9.16-.05,9.16-.05.39.07.9,4.5,1.28,4.75l2.42,1.64c.42.28,5.59,6.27,5.59,6.27.4,0,.1,2.85-.17,4.93a.93.93,0,0,0,1.46.87l2.42-1.75a3.32,3.32,0,0,0,1.2-3.79l-1.17-3.37L615,19.71c.1-.48-4.07-3.54-4.07-3.54a1.42,1.42,0,0,1-.63-1.34l.32-2.89a.46.46,0,0,1,.7-.34l3.76,2.25a2.34,2.34,0,0,0,1.26.34s8.87-1.17,8.39-1.87L622.1,8.41a.36.36,0,0,1,.34-.56L631.33,6,654.79.71A28.73,28.73,0,0,1,665,.27l17.68,2.41a16,16,0,0,1,10.16,5.69h0a1.7,1.7,0,0,0,1.31.62H715l17.62,2L743,14l15.88,1.49,51.13,2,2.14,1.77a11.2,11.2,0,0,0,6.43,2.55L838.47,23a1.24,1.24,0,0,0,1-2.12h0a1.18,1.18,0,0,1,1.05-2l21.74,4.05a14.56,14.56,0,0,1,6,2.58l20.88,15.27a3.42,3.42,0,0,1-.07,5.56L882.31,51a5.5,5.5,0,0,1-3.16,1h-10a2.85,2.85,0,0,0-2.77,3.54l.79,3.15,2.68,1.41a9.33,9.33,0,0,1,4.7,6l2.8,11a2,2,0,0,1-3.2,2L857.63,64.9A7.34,7.34,0,0,1,855.25,61h0a2.1,2.1,0,0,1,1.53-2.49l.69-.17,1.19-7.15a2.63,2.63,0,0,0-2.44-3.06L853.46,48l-2,1.67-3.91-1.84a3,3,0,0,0-3.25.47l-3.32,3a1.26,1.26,0,0,0,.14,2l.6.4a1.34,1.34,0,0,1-.59,2.44l-4,.44a3,3,0,0,1-2.38-.75l-2-1.77-4.11-.88a3.7,3.7,0,0,0-1.15-.06l-13.27,1.38a3.31,3.31,0,0,0-2.83,2.35l-3.57,12.13a2.06,2.06,0,0,0,2.1,2.64l5.31-.3a14.78,14.78,0,0,1,6.67,1.16l7.84,3.32L848.77,90.1h-1.71a.45.45,0,0,0-.35.74l6.63,8a.86.86,0,0,1-.38,1.36h0a4.82,4.82,0,0,1-5.61-1.84l-7.07-10.5a1.41,1.41,0,0,0-2.54.51L837.21,91a4.27,4.27,0,0,0,0,1.47l1.23,9-2,6.38a6.3,6.3,0,0,1-3.92,4l-2.51.87a6.82,6.82,0,0,0-3.5,2.76l-.67,1a8.7,8.7,0,0,0-1.31,3.61l-.42,3.4h0a3.6,3.6,0,0,0,.87,4.07l8.63,7.93a3.9,3.9,0,0,1,1.07,4.12l0,.05a3.13,3.13,0,0,1-2.09,2l-1.42.42a4.11,4.11,0,0,1-4.42-1.42l-8.25-10.57a4.77,4.77,0,0,1-.94-2.1l-.36-2.06a3,3,0,0,0-2.93-2.46h-5.53l-2.53,1.68a5.26,5.26,0,0,1-3.27.89l-6.69-.41a.66.66,0,0,0-.39,1.21l6.74,4.21A3.09,3.09,0,0,0,806,131h0a1.79,1.79,0,0,1,2-.09l3.21,2a1.71,1.71,0,0,1,.14,2.81l-2.92,2.25a3.91,3.91,0,0,0-.41,5.82l8.1,8.28a11.66,11.66,0,0,1,3.29,8.71l-.33,6.47a13.39,13.39,0,0,1-.5,2.95l-2.2,7.51a10.19,10.19,0,0,1-6,6.6l-8.78,3.51-13.48,3.85a1.82,1.82,0,0,1-1.13,0h0a6.36,6.36,0,0,0-7.71,3l-1.76,3.25,10,12,4.35,11.71L788.56,229l-8.37,7.67-2-7.67-7.7-3.7-6-3-.67-3.35-4,8.7,2,7.36,3.35.33,1.34,7.36,9.36,7.7s4.35,14.44,3,13.74-11.38-7.39-11.38-7.39l-2.68-10.37L757.45,235l1-16.06-4.35-12.38-6.36,5-6-1.34,1-10.7L731,184.77l-13.72,5.35-.33,5-21.41,15.39,4.68,12-3.34,9-6,6-9.36-23.09-5.36-5-4.34-19.41-6.69,1.68-8.37-6.7h3.35l-9-9.7H632.62a13,13,0,0,1-7.77-2.56l-4.23-3.12s-5,2-6,1.67-7.53-4.35-7.53-4.35l-5.52-1.34-4-7-4,.33,1,8,9.37,9.37,1.33,4h7.36l2.22-2.34a4.8,4.8,0,0,1,7.47.65l1.35,2,3.73,3a6.84,6.84,0,0,1,1.62,8.82l-4.68,7.93-15,8-.34,4s-25.75,11-25.42,9.7-6.36-17.73-6.69-18.74-10.37-10.7-10.37-10.7L561,175.4l-8.29-11,1-19.94a7.65,7.65,0,0,0-7.45-8l-5.55-.14s-12.37-4.51-12.87-4.43-3.45-4.48-5.13-7a1.68,1.68,0,0,1,.7-2.44l7.47-3.47.27-.1,11.16-3a11.81,11.81,0,0,1,6.79.17l10,3.27a3.64,3.64,0,0,0,3.51-.7L565.5,116a.93.93,0,0,0-.09-1.48l-7-4.67L552,106.36a1.42,1.42,0,0,1-.68-1.62l1.3-4.67c.05-.18-9.2-1.43-9.2-1.43a1.82,1.82,0,0,0-1.64,2.21l3.65,2.23a1.21,1.21,0,0,1,0,2.26L541.63,107a1.64,1.64,0,0,1-2-.64c-1.41-2.25-4.53-6.94-6.31-7.19s-6.3,4.16-7.83,5.78a1.62,1.62,0,0,0-.42,1.33c.3,2.06,1,7.67.22,7.94-.6.21.43,1.25,1.34,2a1.09,1.09,0,0,1-.17,1.76l-8.55,1.35a5.65,5.65,0,0,0-4.18,8.13l1.48,2.94a2.44,2.44,0,0,1-.3,2.65l-15.47-12.32a1.31,1.31,0,0,1,0-1.67c1.15-1.37,3.08-4.06,1.11-4.55-2.68-.67-15.73-11.38-16.73-11.71-.59-.2-2,1.82-3.06,3.51a2.76,2.76,0,0,0,.67,3.66l13.71,10.35a.54.54,0,0,1-.1.92l-1.43.65c-.68.31,1.88,4.12,1.25,4.33-1,.33-4.35,3.68-4.35,3.68l-1.14,3.89a1.28,1.28,0,0,1-2,.65l-.86-6.88s6.69-2.68,2.67-4.69c-3.32-1.66-11.24-7.22-13.86-9.09a3.4,3.4,0,0,1-1.22-1.6l-1.78-4.9a1.87,1.87,0,0,0-2.07-1.2l-2.49.44a2.84,2.84,0,0,0-2.12,1.67c-.29.72-.71,1.47-1.21,1.64-.72.23-11.37,6.35-12.38,6.35s-3.56,1.32-5.61,2.44a5.32,5.32,0,0,0-2.75,4.66v1.16a6.47,6.47,0,0,1-3.74,5.86l-9.8,4.58a7.64,7.64,0,0,1-3.23.71c-3.68,0-12-.19-12-1.43s.91-13.31,1.39-19.6a8.07,8.07,0,0,1,3.31-5.93l.65-.48,14.22,1.34a3.48,3.48,0,0,0,3.81-3.18l.7-8.19-.77-3.87a6.14,6.14,0,0,1,4-7.08,1.48,1.48,0,0,1,.44-.09c1,0,6.69-5,6.69-5l4.16-4.36a10.21,10.21,0,0,1,7-3.14l5.88-.19-1-7.9a1.85,1.85,0,0,1,2.36-2l3.15,1a3.84,3.84,0,0,1,1.47.83l7.05,6.44,11-3,5.35,1L500.53,69l.51-6.88A1.44,1.44,0,0,1,503.12,61l.57.29A2.07,2.07,0,0,0,506.6,60l.07-.24a2.32,2.32,0,0,0-1.05-2.7l-2.42-1.41L515.58,55s3-3,2.38-3.37L514.91,50s-13,1.68-14,1.34-.62-5.35-2.15-5.68a11.84,11.84,0,0,1-2.87-1.38,1.48,1.48,0,0,1,0-2.53l7.89-4.87a1.27,1.27,0,0,0,.14-2.06l-1.72-1.43a2.3,2.3,0,0,0-2.11-.45l-4.32,1.24a2.12,2.12,0,0,0-1.53,2v.39a2,2,0,0,1-.85,1.62L487.77,42a2.62,2.62,0,0,0-1.1,2.47l.36,2.82a2.41,2.41,0,0,0,.86,1.58L492,52.24a1,1,0,0,1,0,1.5l-3.17,2.91-2,.4c-.43.08-2.77,2.93-4.63,5.27a3.14,3.14,0,0,1-4.86,0l-4.4-5.31a4.55,4.55,0,0,0-6.31-.69l-.1.08a4.08,4.08,0,0,1-6.24-1.54l-3.44-7.7a3.35,3.35,0,0,1,1.89-4.51l12.85-4.79a4,4,0,0,0,1.5-1l14.5-15.36c1.24-1.31,11.21-3.82,11.21-3.82a4.76,4.76,0,0,1,3.84-.72l36.54,8.91c1.25.31-2.06,6.56-3.48,6.43l-9.33-.84A.62.62,0,0,0,525.89,32.6Z"/><path class="cls-5" d="M855,321.41h-4s.31-3.67-2.14-3.06-10.72,8-10.72,8l-2.14,4.9L823.18,341l-21.73,6.43-1.23,15.31H795l3.67,12.55v9.49L795,390.29l-4.9,1.84,12.24,4.59,9.49-5.51,8.27.61,4-4.28,25.41-4.6,4.28,5.21-.3,5.74,8.57,2.83,3.06,9.49,6.74,2.76,5.2-3.06V409h4.29l5.81-3.68h4.29l26.63-29.08,4-17.45-16.53-21.12,1.23-15.31-2.15-4.05-3.06,3.13-1.83-15.31L894.2,319l-5.51,13.47L874.92,322l6.12-8L870.63,311l-5.81-2.75,1.83,3.37-4,.91-6.58,7Z"/></symbol></defs><g id="Layer_1" data-name="Layer 1"><g class="cls-6"><rect class="cls-7" x="-710.16" y="-1210.5" width="2394.91" height="1347.14"/></g><path class="cls-8" d="M93.64,611.65c0-301.78,171.28-533.74,483-532,338.43,1.92,531.56,233.18,538.1,532"/><path class="cls-9" d="M218.7,232C282,152,441.52,79.69,576.63,79.69"/><path class="cls-9" d="M956.82,226.64c-63.25-80-237-146.95-372.07-146.95"/><g class="cls-10"><rect class="cls-11" x="-304.61" width="2599.61" height="1462.28"/><use width="922.06" height="466.59" transform="translate(58.87 257.33) scale(2.03)" xlink:href="#Earth_2"/></g><path class="cls-12" d="M1167.75,858.14H1099c-17,0-30.86-15.24-30.86-34l-10.85-135.43a63.24,63.24,0,0,1,0-10l10.87-140.76c0-18.8,13.82-34,30.86-34h68.79c17,0,30.86,15.24,30.86,34l10.12,139.59a48.52,48.52,0,0,1,0,7L1198.61,824.1C1198.61,842.9,1184.79,858.14,1167.75,858.14Z"/><path class="cls-13" d="M1147.62,900.09h-93.84a42.1,42.1,0,0,1-42.1-42.11L1017,681l-5.36-177a42.1,42.1,0,0,1,42.1-42.1h93.84a42.09,42.09,0,0,1,42.1,42.1l13.81,172.64a52.53,52.53,0,0,1,0,8.69L1189.72,858A42.1,42.1,0,0,1,1147.62,900.09Z"/><rect class="cls-14" x="1068.74" y="456.79" width="53.61" height="446.66" rx="1.12"/><path class="cls-15" d="M40.43,855.21h67.66c16.77,0,30.35-15,30.35-33.48l10.68-133.2a63.51,63.51,0,0,0,0-9.85l-10.7-138.45c0-18.49-13.58-33.48-30.35-33.48H40.43c-16.76,0-30.35,15-30.35,33.48L.13,677.52a47,47,0,0,0,0,6.92l10,137.29C10.08,840.22,23.67,855.21,40.43,855.21Z"/><path class="cls-16" d="M60.23,896.47h92.3a41.41,41.41,0,0,0,41.41-41.41L188.66,681l5.28-174.08a41.4,41.4,0,0,0-41.41-41.4H60.23a41.4,41.4,0,0,0-41.41,41.4L5.24,676.71a53.06,53.06,0,0,0,0,8.55l13.58,169.8A41.41,41.41,0,0,0,60.23,896.47Z"/><rect class="cls-17" x="85.1" y="460.46" width="52.72" height="439.31" rx="1.12"/></g></svg>