<svg xmlns="http://www.w3.org/2000/svg" xmlns:xlink="http://www.w3.org/1999/xlink" viewBox="0 0 601.5 244.56"><defs><style>.cls-1{opacity:0.6;fill:url(#linear-gradient);}.cls-2{fill:#261d4f;}.cls-3{fill:#57578c;}.cls-4{fill:#30305e;}.cls-5{fill:#1f0a47;}.cls-6{fill:#4f3d72;}.cls-7{fill:#160133;}.cls-8{fill:#827395;}</style><linearGradient id="linear-gradient" x1="297" y1="59" x2="297" y2="193.13" gradientUnits="userSpaceOnUse"><stop offset="0.39" stop-color="#056a8e"/><stop offset="0.45" stop-color="#0a6b8e"/><stop offset="0.53" stop-color="#1a6d8e"/><stop offset="0.61" stop-color="#33718e"/><stop offset="0.7" stop-color="#57778e"/><stop offset="0.8" stop-color="#857e8e"/><stop offset="0.9" stop-color="#bd878e"/><stop offset="1" stop-color="#fe928e"/><stop offset="1" stop-color="#ff928e"/></linearGradient></defs><g id="Layer_2" data-name="Layer 2"><g id="background"><path class="cls-1" d="M580.33,139.47h-8.75a13.66,13.66,0,0,0-4.25-26.65h8A13.67,13.67,0,0,0,589,99.15h0a13.67,13.67,0,0,0-13.67-13.67H474.4a13.64,13.64,0,0,0,9-12.81h0A13.67,13.67,0,0,0,469.7,59H178.58a13.67,13.67,0,0,0-13.66,13.67h0a13.64,13.64,0,0,0,9,12.81H13.67A13.67,13.67,0,0,0,0,99.15H0a13.67,13.67,0,0,0,13.67,13.67h73a13.67,13.67,0,1,0,0,27.33H130a13.66,13.66,0,0,0-9.43,13h0a13.67,13.67,0,0,0,8.55,12.67H49.67a13.67,13.67,0,1,0,0,27.33H561.33a13.66,13.66,0,0,0,5.12-26.33h13.88A13.67,13.67,0,0,0,594,153.13h0A13.67,13.67,0,0,0,580.33,139.47Z"/></g><g id="buildings"><rect class="cls-2" x="414.85" y="111.16" width="70.08" height="115.74"/><rect class="cls-2" x="428.51" y="101.83" width="43.13" height="9.65"/><rect class="cls-3" x="422.76" y="117.52" width="8.98" height="7.95"/><rect class="cls-3" x="437.49" y="117.52" width="8.98" height="7.95"/><rect class="cls-3" x="452.23" y="117.52" width="8.98" height="7.95"/><rect class="cls-3" x="466.96" y="117.52" width="8.98" height="7.95"/><rect class="cls-3" x="422.76" y="129.93" width="8.98" height="7.95"/><rect class="cls-3" x="437.49" y="129.93" width="8.98" height="7.95"/><rect class="cls-3" x="452.23" y="129.93" width="8.98" height="7.95"/><rect class="cls-3" x="466.96" y="129.93" width="8.98" height="7.95"/><rect class="cls-3" x="422.76" y="142.33" width="8.98" height="7.95"/><rect class="cls-3" x="437.49" y="142.33" width="8.98" height="7.95"/><rect class="cls-3" x="452.23" y="142.33" width="8.98" height="7.95"/><rect class="cls-3" x="466.96" y="142.33" width="8.98" height="7.95"/><rect class="cls-3" x="422.76" y="154.73" width="8.98" height="7.95"/><rect class="cls-3" x="437.49" y="154.73" width="8.98" height="7.95"/><rect class="cls-3" x="452.23" y="154.73" width="8.98" height="7.95"/><rect class="cls-3" x="466.96" y="154.73" width="8.98" height="7.95"/><rect class="cls-3" x="423.12" y="167.13" width="8.98" height="7.95"/><rect class="cls-3" x="437.85" y="167.13" width="8.98" height="7.95"/><rect class="cls-3" x="452.59" y="167.13" width="8.98" height="7.95"/><rect class="cls-3" x="467.32" y="167.13" width="8.98" height="7.95"/><rect class="cls-3" x="423.12" y="179.53" width="8.98" height="7.95"/><rect class="cls-3" x="437.85" y="179.53" width="8.98" height="7.95"/><rect class="cls-3" x="452.59" y="179.53" width="8.98" height="7.95"/><rect class="cls-3" x="467.32" y="179.53" width="8.98" height="7.95"/><rect class="cls-3" x="423.12" y="191.93" width="8.98" height="7.95"/><rect class="cls-3" x="437.85" y="191.93" width="8.98" height="7.95"/><rect class="cls-3" x="452.59" y="191.93" width="8.98" height="7.95"/><rect class="cls-3" x="467.32" y="191.93" width="8.98" height="7.95"/><rect class="cls-3" x="423.12" y="204.33" width="8.98" height="7.95"/><rect class="cls-3" x="437.85" y="204.33" width="8.98" height="7.95"/><rect class="cls-3" x="452.59" y="204.33" width="8.98" height="7.95"/><rect class="cls-3" x="467.32" y="204.33" width="8.98" height="7.95"/><rect class="cls-4" x="414.89" y="105.32" width="16.89" height="1.27"/><rect class="cls-4" x="414.89" y="106.6" width="1.44" height="5.09"/><rect class="cls-4" x="418.49" y="106.6" width="1.44" height="5.09"/><rect class="cls-4" x="421.72" y="106.6" width="1.44" height="5.09"/><rect class="cls-4" x="424.95" y="106.6" width="1.44" height="5.09"/><rect class="cls-4" x="428.19" y="106.6" width="1.44" height="5.09"/><rect class="cls-2" x="467.96" y="104.87" width="16.89" height="1.27" transform="translate(952.81 211.02) rotate(-180)"/><rect class="cls-2" x="483.42" y="106.14" width="1.44" height="5.09" transform="translate(968.27 217.38) rotate(-180)"/><rect class="cls-2" x="479.82" y="106.14" width="1.44" height="5.09" transform="translate(961.08 217.38) rotate(-180)"/><rect class="cls-2" x="476.59" y="106.14" width="1.44" height="5.09" transform="translate(954.61 217.38) rotate(-180)"/><rect class="cls-2" x="473.35" y="106.14" width="1.44" height="5.09" transform="translate(948.14 217.38) rotate(-180)"/><rect class="cls-2" x="470.12" y="106.14" width="1.44" height="5.09" transform="translate(941.67 217.38) rotate(-180)"/><polygon class="cls-5" points="403.56 64.2 403.56 80.63 327.23 80.63 327.23 244.45 455.14 244.45 455.14 80.63 455.14 64.2 403.56 64.2"/><rect class="cls-6" x="410.27" y="69.67" width="8.25" height="7.3"/><rect class="cls-6" x="440.18" y="69.67" width="8.25" height="7.3"/><rect class="cls-6" x="425.22" y="69.67" width="8.25" height="7.3"/><rect class="cls-5" x="379.32" y="71.5" width="24.24" height="1.83"/><rect class="cls-5" x="379.32" y="73.32" width="2.06" height="7.3"/><rect class="cls-5" x="384.48" y="73.32" width="2.06" height="7.3"/><rect class="cls-5" x="389.12" y="73.32" width="2.06" height="7.3"/><rect class="cls-5" x="393.76" y="73.32" width="2.06" height="7.3"/><rect class="cls-5" x="398.4" y="73.32" width="2.06" height="7.3"/><rect class="cls-6" x="333.93" y="86.1" width="10.32" height="5.48"/><rect class="cls-6" x="348.38" y="86.1" width="10.32" height="5.48"/><rect class="cls-6" x="362.82" y="86.1" width="10.32" height="5.48"/><rect class="cls-6" x="377.26" y="86.1" width="10.32" height="5.48"/><rect class="cls-6" x="333.93" y="95.23" width="10.32" height="5.48"/><rect class="cls-6" x="348.38" y="95.23" width="10.32" height="5.48"/><rect class="cls-6" x="362.82" y="95.23" width="10.32" height="5.48"/><rect class="cls-6" x="333.93" y="104.35" width="10.32" height="5.48"/><rect class="cls-6" x="348.38" y="104.35" width="10.32" height="5.48"/><rect class="cls-6" x="333.93" y="113.48" width="10.32" height="5.48"/><rect class="cls-6" x="440.18" y="91.58" width="8.25" height="62.52"/><rect class="cls-6" x="440.18" y="166.87" width="8.25" height="62.52"/><rect class="cls-4" x="489.57" y="44.08" width="73.97" height="200.35"/><rect class="cls-4" x="499.38" y="40.74" width="53.59" height="3.34"/><rect class="cls-4" x="494.1" y="31.39" width="64.91" height="9.35"/><rect class="cls-4" x="519.01" y="26.71" width="15.1" height="5.34"/><rect class="cls-4" x="525.04" width="3.77" height="28.05"/><rect class="cls-3" x="498.63" y="33.72" width="5.28" height="4.67"/><rect class="cls-3" x="507.3" y="33.72" width="5.28" height="4.67"/><rect class="cls-3" x="515.61" y="33.72" width="5.28" height="4.67"/><rect class="cls-3" x="524.28" y="33.72" width="5.28" height="4.67"/><rect class="cls-3" x="532.66" y="33.72" width="5.28" height="4.67"/><rect class="cls-3" x="541.33" y="33.72" width="5.28" height="4.67"/><rect class="cls-3" x="549.2" y="33.72" width="5.28" height="4.67"/><rect class="cls-3" x="521.92" y="50.74" width="7.28" height="6.44" transform="translate(1051.12 107.92) rotate(-180)"/><rect class="cls-3" x="509.97" y="50.74" width="7.28" height="6.44" transform="translate(1027.23 107.92) rotate(-180)"/><rect class="cls-3" x="498.03" y="50.74" width="7.28" height="6.44" transform="translate(1003.33 107.92) rotate(-180)"/><rect class="cls-3" x="521.92" y="60.79" width="7.28" height="6.44" transform="translate(1051.12 128.03) rotate(-180)"/><rect class="cls-3" x="509.97" y="60.79" width="7.28" height="6.44" transform="translate(1027.23 128.03) rotate(-180)"/><rect class="cls-3" x="498.03" y="60.79" width="7.28" height="6.44" transform="translate(1003.33 128.03) rotate(-180)"/><rect class="cls-3" x="521.92" y="70.85" width="7.28" height="6.44" transform="translate(1051.12 148.14) rotate(-180)"/><rect class="cls-3" x="509.97" y="70.85" width="7.28" height="6.44" transform="translate(1027.23 148.14) rotate(-180)"/><rect class="cls-3" x="498.03" y="70.85" width="7.28" height="6.44" transform="translate(1003.33 148.14) rotate(-180)"/><rect class="cls-3" x="521.92" y="80.9" width="7.28" height="6.44" transform="translate(1051.12 168.25) rotate(-180)"/><rect class="cls-3" x="509.97" y="80.9" width="7.28" height="6.44" transform="translate(1027.23 168.25) rotate(-180)"/><rect class="cls-3" x="498.03" y="80.9" width="7.28" height="6.44" transform="translate(1003.33 168.25) rotate(-180)"/><rect class="cls-3" x="521.77" y="95.67" width="7.28" height="6.44" transform="translate(1050.83 197.78) rotate(-180)"/><rect class="cls-3" x="509.83" y="95.67" width="7.28" height="6.44" transform="translate(1026.94 197.78) rotate(-180)"/><rect class="cls-3" x="497.88" y="95.67" width="7.28" height="6.44" transform="translate(1003.04 197.78) rotate(-180)"/><rect class="cls-3" x="521.77" y="105.72" width="7.28" height="6.44" transform="translate(1050.83 217.89) rotate(-180)"/><rect class="cls-3" x="509.83" y="105.72" width="7.28" height="6.44" transform="translate(1026.94 217.89) rotate(-180)"/><rect class="cls-3" x="497.88" y="105.72" width="7.28" height="6.44" transform="translate(1003.04 217.89) rotate(-180)"/><rect class="cls-3" x="521.77" y="115.77" width="7.28" height="6.44" transform="translate(1050.83 237.99) rotate(-180)"/><rect class="cls-3" x="509.83" y="115.77" width="7.28" height="6.44" transform="translate(1026.94 237.99) rotate(-180)"/><rect class="cls-3" x="497.88" y="115.77" width="7.28" height="6.44" transform="translate(1003.04 237.99) rotate(-180)"/><rect class="cls-3" x="521.77" y="125.83" width="7.28" height="6.44" transform="translate(1050.83 258.1) rotate(-180)"/><rect class="cls-3" x="509.83" y="125.83" width="7.28" height="6.44" transform="translate(1026.94 258.1) rotate(-180)"/><rect class="cls-3" x="497.88" y="125.83" width="7.28" height="6.44" transform="translate(1003.04 258.1) rotate(-180)"/><rect class="cls-3" x="521.84" y="140.59" width="7.28" height="6.44" transform="translate(1050.97 287.63) rotate(-180)"/><rect class="cls-3" x="509.9" y="140.59" width="7.28" height="6.44" transform="translate(1027.08 287.63) rotate(-180)"/><rect class="cls-3" x="497.95" y="140.59" width="7.28" height="6.44" transform="translate(1003.19 287.63) rotate(-180)"/><rect class="cls-3" x="521.84" y="150.65" width="7.28" height="6.44" transform="translate(1050.97 307.74) rotate(-180)"/><rect class="cls-3" x="509.9" y="150.65" width="7.28" height="6.44" transform="translate(1027.08 307.74) rotate(-180)"/><rect class="cls-3" x="497.95" y="150.65" width="7.28" height="6.44" transform="translate(1003.19 307.74) rotate(-180)"/><rect class="cls-3" x="521.84" y="160.7" width="7.28" height="6.44" transform="translate(1050.97 327.85) rotate(-180)"/><rect class="cls-3" x="509.9" y="160.7" width="7.28" height="6.44" transform="translate(1027.08 327.85) rotate(-180)"/><rect class="cls-3" x="497.95" y="160.7" width="7.28" height="6.44" transform="translate(1003.19 327.85) rotate(-180)"/><rect class="cls-3" x="521.84" y="170.76" width="7.28" height="6.44" transform="translate(1050.97 347.96) rotate(-180)"/><rect class="cls-3" x="509.9" y="170.76" width="7.28" height="6.44" transform="translate(1027.08 347.96) rotate(-180)"/><rect class="cls-3" x="497.95" y="170.76" width="7.28" height="6.44" transform="translate(1003.19 347.96) rotate(-180)"/><rect class="cls-3" x="521.7" y="185.52" width="7.28" height="6.44" transform="translate(1050.68 377.49) rotate(-180)"/><rect class="cls-3" x="509.75" y="185.52" width="7.28" height="6.44" transform="translate(1026.79 377.49) rotate(-180)"/><rect class="cls-3" x="497.81" y="185.52" width="7.28" height="6.44" transform="translate(1002.9 377.49) rotate(-180)"/><rect class="cls-3" x="521.7" y="195.57" width="7.28" height="6.44" transform="translate(1050.68 397.59) rotate(-180)"/><rect class="cls-3" x="509.75" y="195.57" width="7.28" height="6.44" transform="translate(1026.79 397.59) rotate(-180)"/><rect class="cls-3" x="497.81" y="195.57" width="7.28" height="6.44" transform="translate(1002.9 397.59) rotate(-180)"/><rect class="cls-3" x="509.75" y="205.63" width="7.28" height="6.44" transform="translate(1026.79 417.7) rotate(-180)"/><rect class="cls-3" x="497.81" y="205.63" width="7.28" height="6.44" transform="translate(1002.9 417.7) rotate(-180)"/><rect class="cls-3" x="497.81" y="215.68" width="7.28" height="6.44" transform="translate(1002.9 437.81) rotate(-180)"/><rect class="cls-7" x="442.02" y="183.5" width="76.52" height="61.06"/><rect class="cls-8" x="447.51" y="187.84" width="5.63" height="6.97"/><rect class="cls-8" x="455.16" y="187.84" width="5.63" height="6.97"/><rect class="cls-8" x="485.99" y="187.84" width="5.63" height="6.97"/><rect class="cls-8" x="493.64" y="187.84" width="5.63" height="6.97"/><rect class="cls-8" x="466.86" y="187.84" width="5.63" height="6.97"/><rect class="cls-8" x="474.51" y="187.84" width="5.63" height="6.97"/><rect class="cls-8" x="447.74" y="198.4" width="5.63" height="6.97"/><rect class="cls-8" x="455.39" y="198.4" width="5.63" height="6.97"/><rect class="cls-8" x="486.21" y="198.4" width="5.63" height="6.97"/><rect class="cls-8" x="493.86" y="198.4" width="5.63" height="6.97"/><rect class="cls-8" x="467.09" y="198.4" width="5.63" height="6.97"/><rect class="cls-8" x="474.74" y="198.4" width="5.63" height="6.97"/><rect class="cls-8" x="447.74" y="208.95" width="5.63" height="6.97"/><rect class="cls-8" x="455.39" y="208.95" width="5.63" height="6.97"/><rect class="cls-8" x="486.21" y="208.95" width="5.63" height="6.97"/><rect class="cls-8" x="493.86" y="208.95" width="5.63" height="6.97"/><rect class="cls-8" x="467.09" y="208.95" width="5.63" height="6.97"/><rect class="cls-8" x="474.74" y="208.95" width="5.63" height="6.97"/><rect class="cls-8" x="447.74" y="219.5" width="5.63" height="6.97"/><rect class="cls-8" x="455.39" y="219.5" width="5.63" height="6.97"/><rect class="cls-8" x="486.21" y="219.5" width="5.63" height="6.97"/><rect class="cls-8" x="493.86" y="219.5" width="5.63" height="6.97"/><rect class="cls-8" x="467.09" y="219.5" width="5.63" height="6.97"/><rect class="cls-8" x="474.74" y="219.5" width="5.63" height="6.97"/><rect class="cls-7" x="492.85" y="179.41" width="25.7" height="2.04"/><rect class="cls-7" x="497.18" y="181.46" width="2.02" height="5.11"/><rect class="cls-7" x="512.19" y="181.46" width="2.02" height="5.11"/><rect class="cls-5" x="454" y="126.47" width="147.5" height="7.35"/><rect class="cls-4" x="187.24" y="68.12" width="63.06" height="176.42"/><rect class="cls-3" x="194.79" y="81.04" width="5.34" height="7.47"/><rect class="cls-3" x="194.79" y="92.44" width="5.34" height="7.47"/><rect class="cls-3" x="194.79" y="103.04" width="5.34" height="7.47"/><rect class="cls-3" x="194.79" y="113.63" width="5.34" height="7.47"/><rect class="cls-3" x="194.79" y="124.23" width="5.34" height="7.47"/><rect class="cls-3" x="194.79" y="134.82" width="5.34" height="7.47"/><rect class="cls-3" x="194.79" y="145.42" width="5.34" height="7.47"/><rect class="cls-3" x="194.79" y="156.82" width="5.34" height="7.47"/><rect class="cls-3" x="194.79" y="167.42" width="5.34" height="7.47"/><rect class="cls-3" x="194.79" y="178.01" width="5.34" height="7.47"/><rect class="cls-3" x="194.79" y="188.61" width="5.34" height="7.47"/><rect class="cls-3" x="203.58" y="81.04" width="5.34" height="7.47"/><rect class="cls-3" x="203.58" y="92.44" width="5.34" height="7.47"/><rect class="cls-3" x="203.58" y="103.04" width="5.34" height="7.47"/><rect class="cls-3" x="203.58" y="113.63" width="5.34" height="7.47"/><rect class="cls-3" x="203.58" y="124.23" width="5.34" height="7.47"/><rect class="cls-3" x="203.58" y="134.82" width="5.34" height="7.47"/><rect class="cls-3" x="203.58" y="145.42" width="5.34" height="7.47"/><rect class="cls-3" x="203.58" y="156.82" width="5.34" height="7.47"/><rect class="cls-3" x="203.58" y="167.42" width="5.34" height="7.47"/><rect class="cls-3" x="212.04" y="81.04" width="5.34" height="7.47"/><rect class="cls-3" x="212.04" y="92.44" width="5.34" height="7.47"/><rect class="cls-3" x="212.04" y="103.04" width="5.34" height="7.47"/><rect class="cls-3" x="212.04" y="113.63" width="5.34" height="7.47"/><rect class="cls-3" x="212.04" y="124.23" width="5.34" height="7.47"/><rect class="cls-3" x="212.04" y="134.82" width="5.34" height="7.47"/><rect class="cls-3" x="212.04" y="145.42" width="5.34" height="7.47"/><rect class="cls-3" x="220.92" y="81.04" width="5.34" height="7.47"/><rect class="cls-3" x="220.92" y="92.44" width="5.34" height="7.47"/><rect class="cls-3" x="220.92" y="103.04" width="5.34" height="7.47"/><rect class="cls-3" x="220.92" y="113.63" width="5.34" height="7.47"/><rect class="cls-3" x="220.92" y="124.63" width="5.34" height="7.47"/><rect class="cls-3" x="220.92" y="135.23" width="5.34" height="7.47"/><rect class="cls-3" x="220.92" y="145.82" width="5.34" height="7.47"/><rect class="cls-3" x="212.04" y="156.82" width="5.34" height="7.47"/><rect class="cls-3" x="212.04" y="167.42" width="5.34" height="7.47"/><rect class="cls-3" x="203.58" y="178.01" width="5.34" height="7.47"/><rect class="cls-3" x="203.58" y="188.61" width="5.34" height="7.47"/><rect class="cls-3" x="194.79" y="199.2" width="5.34" height="7.47"/><rect class="cls-3" x="194.79" y="211.07" width="5.34" height="7.47"/><circle class="cls-4" cx="203.49" cy="61.61" r="11.29"/><polygon class="cls-7" points="307.26 147.54 307.26 103.28 216.7 103.28 216.7 147.54 216.7 244.52 407.74 244.52 407.74 147.54 307.26 147.54"/><rect class="cls-8" x="227.52" y="131.28" width="8.11" height="11.36"/><rect class="cls-8" x="238.55" y="131.28" width="8.11" height="11.36"/><rect class="cls-8" x="255.43" y="131.28" width="8.11" height="11.36"/><rect class="cls-8" x="266.46" y="131.28" width="8.11" height="11.36"/><rect class="cls-8" x="227.52" y="148.48" width="8.11" height="11.36"/><rect class="cls-8" x="238.55" y="148.48" width="8.11" height="11.36"/><rect class="cls-8" x="255.43" y="148.48" width="8.11" height="11.36"/><rect class="cls-8" x="266.46" y="148.48" width="8.11" height="11.36"/><rect class="cls-8" x="227.52" y="165.68" width="8.11" height="11.36"/><rect class="cls-8" x="238.55" y="165.68" width="8.11" height="11.36"/><rect class="cls-8" x="255.43" y="165.68" width="8.11" height="11.36"/><rect class="cls-8" x="266.46" y="165.68" width="8.11" height="11.36"/><rect class="cls-8" x="227.52" y="183.33" width="8.11" height="11.36"/><rect class="cls-8" x="238.55" y="183.33" width="8.11" height="11.36"/><rect class="cls-8" x="255.43" y="183.33" width="8.11" height="11.36"/><rect class="cls-8" x="266.46" y="183.33" width="8.11" height="11.36"/><rect class="cls-8" x="227.84" y="200.53" width="8.11" height="11.36"/><rect class="cls-8" x="238.88" y="200.53" width="8.11" height="11.36"/><rect class="cls-8" x="255.75" y="200.53" width="8.11" height="11.36"/><rect class="cls-8" x="266.79" y="200.53" width="8.11" height="11.36"/><rect class="cls-8" x="349.98" y="155.87" width="8.45" height="8.45"/><rect class="cls-8" x="363.83" y="155.87" width="8.45" height="8.45"/><rect class="cls-8" x="310.94" y="155.32" width="8.45" height="8.45"/><rect class="cls-8" x="324.79" y="155.32" width="8.45" height="8.45"/><rect class="cls-8" x="349.98" y="169.04" width="8.45" height="8.45"/><rect class="cls-8" x="363.83" y="169.04" width="8.45" height="8.45"/><rect class="cls-8" x="310.94" y="168.5" width="8.45" height="8.45"/><rect class="cls-8" x="324.79" y="168.5" width="8.45" height="8.45"/><rect class="cls-8" x="349.98" y="182.22" width="8.45" height="8.45"/><rect class="cls-8" x="363.83" y="182.22" width="8.45" height="8.45"/><rect class="cls-8" x="310.94" y="181.68" width="8.45" height="8.45"/><rect class="cls-8" x="324.79" y="181.68" width="8.45" height="8.45"/><rect class="cls-8" x="363.83" y="195.4" width="8.45" height="8.45"/><rect class="cls-8" x="310.94" y="194.86" width="8.45" height="8.45"/><rect class="cls-8" x="324.79" y="194.86" width="8.45" height="8.45"/><rect class="cls-8" x="311.28" y="208.03" width="8.45" height="8.45"/><rect class="cls-8" x="325.13" y="208.03" width="8.45" height="8.45"/><rect class="cls-7" x="306.56" y="135.32" width="46.51" height="4.18"/><rect class="cls-7" x="314.4" y="139.5" width="3.66" height="10.45"/><rect class="cls-7" x="341.58" y="139.5" width="3.66" height="10.45"/></g></g></svg>