<svg xmlns="http://www.w3.org/2000/svg" xmlns:xlink="http://www.w3.org/1999/xlink" viewBox="0 0 2347.88 632.06"><defs><style>.cls-1{font-size:478.83px;fill:none;font-family:bitwise, Bitwise;letter-spacing:0.02em;}.cls-2{fill:#fcf200;}.cls-3{clip-path:url(#clip-path);}.cls-4{fill:#4699d3;}.cls-5{fill:#33328d;}</style><clipPath id="clip-path" transform="translate(0 -59.79)"><text class="cls-1" transform="translate(268.74 408.46)">blueprint</text></clipPath></defs><title>blueprint</title><g id="Layer_2" data-name="Layer 2"><g id="logo"><path class="cls-2" d="M318.15,434a39,39,0,0,1-14.22-2.73,49.44,49.44,0,0,1-11.36-6.21,38.47,38.47,0,0,1-9.94-10.74,29.61,29.61,0,0,1-4.75-15.92V90.28a24.09,24.09,0,0,1,2.63-10.91A26.34,26.34,0,0,1,287,71.13a33.83,33.83,0,0,1,6.7-4.46A24.24,24.24,0,0,1,304.59,64H327a23.54,23.54,0,0,1,9.3,2,35.28,35.28,0,0,1,5.6,3,24.64,24.64,0,0,1,6.76,6.74A21.8,21.8,0,0,1,352.35,88v82.91a56,56,0,0,1,11.16-1.14H490.7a31.32,31.32,0,0,1,12.36,2.69,34.69,34.69,0,0,1,10.83,7.33,43.53,43.53,0,0,1,6.72,8.62,27.8,27.8,0,0,1,3.82,14.15V396.57a34.06,34.06,0,0,1-3.38,14.5A40.81,40.81,0,0,1,513,422.59a42,42,0,0,1-11,7.9,32.46,32.46,0,0,1-14.6,3.55Zm129.94-70.27V240.45H380.88V363.77Z" transform="translate(0 -59.79)"/><path class="cls-2" d="M575.15,434a32.28,32.28,0,0,1-8.65-1.27A26.7,26.7,0,0,1,555.75,427a38.24,38.24,0,0,1-5.53-5.94,22.72,22.72,0,0,1-4.59-13.78V88.88A24.76,24.76,0,0,1,546.91,81a22.54,22.54,0,0,1,5.5-8.83A45.76,45.76,0,0,1,556,69a19.92,19.92,0,0,1,12.58-4.46h27.58a22.08,22.08,0,0,1,9.94,2.39,22.86,22.86,0,0,1,7.6,6.09l.11.13a30.43,30.43,0,0,1,3.41,5.36,22,22,0,0,1,2.39,9.94V259.15a11.53,11.53,0,0,0,.34,1.19,49.62,49.62,0,0,0,2.34,5.73c1.15,2.46,2.45,5.06,3.89,7.78s2.86,5.25,4.41,7.77l4.87,8,.27.44c2,3.2,3.66,6.26,5.1,9.12,1.51,3.06,2.7,5.72,3.66,8.19A29.63,29.63,0,0,1,646.76,318v89.31a24.15,24.15,0,0,1-2.62,10.88,33.75,33.75,0,0,1-4.51,6.78,27.55,27.55,0,0,1-7.24,6A22.94,22.94,0,0,1,621,434Z" transform="translate(0 -59.79)"/><path class="cls-2" d="M693.27,434a32,32,0,0,1-9.27-1.38,32.34,32.34,0,0,1-8.7-4.11,28,28,0,0,1-7.42-7.06,22.6,22.6,0,0,1-4.13-13.23V193.16a30,30,0,0,1,.45-5,21.66,21.66,0,0,1,4.47-9.93,25.75,25.75,0,0,1,4.79-4.68,18.89,18.89,0,0,1,11.39-3.85h34.61a20.79,20.79,0,0,1,15.66,7.45A21.77,21.77,0,0,1,741,191.76v80.89a1.65,1.65,0,0,0,.1.53,12.27,12.27,0,0,0,1.26,2.54c1.08,1.77,2.21,3.5,3.51,5.38,1.46,2.11,3,4.35,4.59,6.76s3.41,5.29,5.15,8.23a65.33,65.33,0,0,1,5.29,11.48,102.8,102.8,0,0,1,3.35,11.95,72.86,72.86,0,0,1,1.53,15.32v30.81h71v-173a23.19,23.19,0,0,1,1.29-7.38,22.37,22.37,0,0,1,5.49-8.82,28.68,28.68,0,0,1,5.43-4.28,21,21,0,0,1,10.77-3h29a19,19,0,0,1,11.4,3.86,32,32,0,0,1,3.56,3.09l.14.13a22.41,22.41,0,0,1,4.84,7.32l.06.16a21.59,21.59,0,0,1,1.57,7.95v217a21.91,21.91,0,0,1-4.12,12.76,33,33,0,0,1-5.41,5.89,27,27,0,0,1-9.1,5.14,28.46,28.46,0,0,1-9,1.52Z" transform="translate(0 -59.79)"/><path class="cls-2" d="M965.7,434a32.41,32.41,0,0,1-12.84-2.7,40.28,40.28,0,0,1-9.68-5.83,32.86,32.86,0,0,1-8.15-9.95,28,28,0,0,1-3.53-13.38v-202a26.79,26.79,0,0,1,3.83-13.68,32.43,32.43,0,0,1,8.64-9.61,40.11,40.11,0,0,1,9.69-5.4,33.62,33.62,0,0,1,12-2.23h179.1a31.35,31.35,0,0,1,12.36,2.69,40.38,40.38,0,0,1,9.66,5.82,36.62,36.62,0,0,1,7.92,9.12,27.7,27.7,0,0,1,4.25,14.7v91.18a23.9,23.9,0,0,1-4.08,13.29,37.55,37.55,0,0,1-14.12,12.46,26.18,26.18,0,0,1-11.79,2.84H1030.29v42.89h73.76V352.15a22.41,22.41,0,0,1,21.57-21.58H1156a23,23,0,0,1,8.4,1.57l.18.07a22.47,22.47,0,0,1,7.31,4.84l.14.14a27.35,27.35,0,0,1,3.94,5.07,21,21,0,0,1,3,10.82v51.44a24.73,24.73,0,0,1-3.68,12.9,46,46,0,0,1-5,6.8,30.07,30.07,0,0,1-9,7,26.21,26.21,0,0,1-11.79,2.84ZM1103.12,253V237.64h-72.83V253Z" transform="translate(0 -59.79)"/><path class="cls-2" d="M1221.77,538.79a24.22,24.22,0,0,1-10.88-2.62,33.54,33.54,0,0,1-6.77-4.51,26.21,26.21,0,0,1-6.45-8.24,24.12,24.12,0,0,1-2.62-10.88V204.85a29.32,29.32,0,0,1,5-16.59,43.6,43.6,0,0,1,9.14-9.9,45.62,45.62,0,0,1,11.88-6.85,37.94,37.94,0,0,1,13.76-2.73h160.39a31,31,0,0,1,15.29,4.15,47.37,47.37,0,0,1,10.24,7.75,41.1,41.1,0,0,1,8.07,11.51,33,33,0,0,1,3.4,14.06V400.31a29,29,0,0,1-3.54,13.87,35.9,35.9,0,0,1-7.52,9.62,41.32,41.32,0,0,1-9.45,6.45,29.43,29.43,0,0,1-13.22,3.32h-107v81.31a21,21,0,0,1-3.6,11.63,26.28,26.28,0,0,1-6.56,6.71l-.09.06a34.14,34.14,0,0,1-6.19,3.51,23.73,23.73,0,0,1-9.34,2Zm137.88-175V239.51h-91.06V363.77Z" transform="translate(0 -59.79)"/><path class="cls-2" d="M1481.57,434a23.9,23.9,0,0,1-13.29-4.08,34.72,34.72,0,0,1-6.9-6,30.26,30.26,0,0,1-5.4-8.83,28.18,28.18,0,0,1-2.06-10.57V203.45a28.9,28.9,0,0,1,3.55-13.89,37.23,37.23,0,0,1,7.7-9.8,42.88,42.88,0,0,1,9.71-6.71,30.34,30.34,0,0,1,13.7-3.33H1628.4a28.3,28.3,0,0,1,12.75,3.08,45.29,45.29,0,0,1,8.34,5.43,31,31,0,0,1,8.15,10.13,28.32,28.32,0,0,1,3.09,12.75v44.42a32.07,32.07,0,0,1-.93,7.57,30.06,30.06,0,0,1-3,7.59,23.41,23.41,0,0,1-7.37,8,21.66,21.66,0,0,1-12.11,3.6H1609.7a23.47,23.47,0,0,1-9.34-2,33.62,33.62,0,0,1-5.64-3.05,22.23,22.23,0,0,1-9.87-18.4V237.64h-56V261a19.76,19.76,0,0,0,.5,4.5,24.86,24.86,0,0,0,1.71,4.82c1,2.24,2.23,4.46,3.52,6.64,1.57,2.68,3.12,5.32,4.68,7.95s3,5.07,4.45,7.35a70.38,70.38,0,0,1,5.2,10.09,88.94,88.94,0,0,1,3.44,10,47.59,47.59,0,0,1,1.75,12.7v81.37a24.1,24.1,0,0,1-3.15,11.69,33.39,33.39,0,0,1-5.49,7.31,32.76,32.76,0,0,1-7.32,5.49A24.7,24.7,0,0,1,1526,434Z" transform="translate(0 -59.79)"/><path class="cls-2" d="M1695.55,434a32.35,32.35,0,0,1-8.66-1.27,26.83,26.83,0,0,1-10.74-5.72,39.34,39.34,0,0,1-5.54-5.95,22.78,22.78,0,0,1-4.58-13.78V194.09a24.37,24.37,0,0,1,5.82-15.85,25.13,25.13,0,0,1,6.39-5.56,20.82,20.82,0,0,1,10.76-3h10.38a39.57,39.57,0,0,1-13.19-3.39A41.22,41.22,0,0,1,1664.86,145a38.43,38.43,0,0,1-3.51-15.89,39.62,39.62,0,0,1,3.51-16.37,41.28,41.28,0,0,1,21.34-21.34,39.66,39.66,0,0,1,16.36-3.51,38.58,38.58,0,0,1,15.9,3.51,41.24,41.24,0,0,1,21.33,21.33,39.55,39.55,0,0,1,3.52,16.38,38.45,38.45,0,0,1-3.52,15.91,41.3,41.3,0,0,1-21.32,21.32,39.3,39.3,0,0,1-12.88,3.39h11a22.14,22.14,0,0,1,10,2.38,23,23,0,0,1,7.59,6.09l.1.13a30.85,30.85,0,0,1,3.42,5.36,22.14,22.14,0,0,1,2.38,9.95v65.52c0,.19.15.58.35,1.19a51.28,51.28,0,0,0,2.33,5.73c1.15,2.46,2.46,5.06,3.89,7.78s2.87,5.25,4.41,7.77l4.82,7.89.33.53c1.95,3.2,3.66,6.26,5.09,9.12,1.52,3.06,2.71,5.72,3.66,8.19a29.45,29.45,0,0,1,2.25,10.66v89.31a24.15,24.15,0,0,1-2.62,10.88A34.18,34.18,0,0,1,1760,425a27.55,27.55,0,0,1-7.24,6,23,23,0,0,1-11.42,3Z" transform="translate(0 -59.79)"/><path class="cls-2" d="M1979.67,434a23.06,23.06,0,0,1-7.37-1.28,22.23,22.23,0,0,1-8.82-5.5,27.61,27.61,0,0,1-4.29-5.43,20.82,20.82,0,0,1-3-10.76V238.58h-97.61v42.49a4,4,0,0,0,.22,1.12,6.56,6.56,0,0,0,.83,1.71c1,1.44,2,2.81,3,4.11,1.29,1.58,2.59,3.09,3.89,4.5q2.65,2.94,5,5.79a59.18,59.18,0,0,1,5.17,7.43,63.65,63.65,0,0,1,3.76,7.53,31.79,31.79,0,0,1,2.41,12.23v85.58a21,21,0,0,1-3,10.82,28.36,28.36,0,0,1-4.25,5.37,22.87,22.87,0,0,1-7.75,5.19,22.49,22.49,0,0,1-8.45,1.59h-54.24a21.46,21.46,0,0,1-8-1.61,21.82,21.82,0,0,1-7.46-4.93,22.05,22.05,0,0,1-5-7.48,22.8,22.8,0,0,1-1.6-8.49V200.17c0-9.66,2.75-17.31,8.18-22.74s13.56-8.18,24.62-8.18h176.75a64.48,64.48,0,0,1,11.82,1,33.64,33.64,0,0,1,11.92,4.55,25.49,25.49,0,0,1,10.09,12.4,45.77,45.77,0,0,1,2.61,11.23l.1.86.47,210.83a26.94,26.94,0,0,1-2,10.79,30.42,30.42,0,0,1-2.49,4.78l-.1.15a18.1,18.1,0,0,1-9.32,7.16,19.52,19.52,0,0,1-6.26,1.07Z" transform="translate(0 -59.79)"/><path class="cls-2" d="M2096.85,434a25.54,25.54,0,0,1-25.31-25.31V240h-3.21a22.33,22.33,0,0,1-16.2-6.78,28.23,28.23,0,0,1-4.28-5.43,20.82,20.82,0,0,1-3-10.76V192.22a21.6,21.6,0,0,1,1.61-8.05,25.12,25.12,0,0,1,3.18-5.69,22.35,22.35,0,0,1,6.48-5.8,19.82,19.82,0,0,1,10.3-3h5.08v-43.9a25.54,25.54,0,0,1,25.31-25.31h23.38a25.33,25.33,0,0,1,18.3,7.48,24.76,24.76,0,0,1,7.48,17.83v43.9h35a23.11,23.11,0,0,1,12.15,3.56l.1.06a30.21,30.21,0,0,1,6.87,5.91,33.92,33.92,0,0,1,4.48,6.7l.05.1a24.33,24.33,0,0,1,2.6,10.85V246a23.7,23.7,0,0,1-2,9.34,24.86,24.86,0,0,1-5.26,7.79,32.4,32.4,0,0,1-5,4.11,20.94,20.94,0,0,1-11.64,3.6H2146v94.81h16.31a22.1,22.1,0,0,1,9.94,2.38,26,26,0,0,1,6.67,4.81l.11.11a24.72,24.72,0,0,1,5.19,7.74,23.64,23.64,0,0,1,2,9.33v18.24a26.55,26.55,0,0,1-6,17.22,23.51,23.51,0,0,1-18.35,8.56Z" transform="translate(0 -59.79)"/><g class="cls-3"><rect class="cls-4" width="2347.88" height="370.3"/><rect class="cls-5" y="261.76" width="2347.88" height="370.3"/></g></g></g></svg>