<svg id="Layer_1" data-name="Layer 1" xmlns="http://www.w3.org/2000/svg" xmlns:xlink="http://www.w3.org/1999/xlink" viewBox="0 0 1581 884.31"><defs><style>.cls-1,.cls-10,.cls-100,.cls-101,.cls-102,.cls-103,.cls-104,.cls-105,.cls-106,.cls-107,.cls-108,.cls-109,.cls-11,.cls-110,.cls-12,.cls-13,.cls-14,.cls-15,.cls-16,.cls-17,.cls-18,.cls-19,.cls-20,.cls-21,.cls-22,.cls-23,.cls-24,.cls-25,.cls-26,.cls-27,.cls-28,.cls-29,.cls-30,.cls-31,.cls-32,.cls-33,.cls-34,.cls-35,.cls-36,.cls-37,.cls-38,.cls-39,.cls-4,.cls-40,.cls-41,.cls-42,.cls-43,.cls-44,.cls-45,.cls-46,.cls-47,.cls-48,.cls-49,.cls-5,.cls-50,.cls-51,.cls-52,.cls-53,.cls-54,.cls-55,.cls-56,.cls-57,.cls-58,.cls-59,.cls-6,.cls-60,.cls-61,.cls-62,.cls-63,.cls-64,.cls-65,.cls-66,.cls-67,.cls-68,.cls-69,.cls-7,.cls-70,.cls-71,.cls-72,.cls-73,.cls-74,.cls-75,.cls-76,.cls-77,.cls-78,.cls-79,.cls-8,.cls-80,.cls-81,.cls-82,.cls-83,.cls-84,.cls-85,.cls-86,.cls-87,.cls-88,.cls-89,.cls-9,.cls-90,.cls-91,.cls-92,.cls-93,.cls-94,.cls-95,.cls-96,.cls-97,.cls-98,.cls-99{fill:none;}.cls-2{fill:url(#linear-gradient);}.cls-3{clip-path:url(#clip-path);}.cls-10,.cls-100,.cls-101,.cls-102,.cls-103,.cls-104,.cls-105,.cls-106,.cls-107,.cls-108,.cls-109,.cls-11,.cls-110,.cls-12,.cls-13,.cls-14,.cls-15,.cls-16,.cls-17,.cls-18,.cls-19,.cls-20,.cls-21,.cls-22,.cls-23,.cls-24,.cls-25,.cls-26,.cls-27,.cls-28,.cls-29,.cls-30,.cls-31,.cls-32,.cls-33,.cls-34,.cls-35,.cls-36,.cls-37,.cls-38,.cls-39,.cls-4,.cls-40,.cls-41,.cls-42,.cls-43,.cls-44,.cls-45,.cls-46,.cls-47,.cls-48,.cls-49,.cls-5,.cls-50,.cls-51,.cls-52,.cls-53,.cls-54,.cls-55,.cls-56,.cls-57,.cls-58,.cls-59,.cls-6,.cls-60,.cls-61,.cls-62,.cls-63,.cls-64,.cls-65,.cls-66,.cls-67,.cls-68,.cls-69,.cls-7,.cls-70,.cls-71,.cls-72,.cls-73,.cls-74,.cls-75,.cls-76,.cls-77,.cls-78,.cls-79,.cls-8,.cls-80,.cls-81,.cls-82,.cls-83,.cls-84,.cls-85,.cls-86,.cls-87,.cls-88,.cls-89,.cls-9,.cls-90,.cls-91,.cls-92,.cls-93,.cls-94,.cls-95,.cls-96,.cls-97,.cls-98,.cls-99{stroke-miterlimit:10;stroke-width:0.85px;}.cls-4{stroke:url(#linear-gradient-2);}.cls-5{stroke:url(#linear-gradient-3);}.cls-6{stroke:url(#linear-gradient-4);}.cls-7{stroke:url(#linear-gradient-5);}.cls-8{stroke:url(#linear-gradient-6);}.cls-9{stroke:url(#linear-gradient-7);}.cls-10{stroke:url(#linear-gradient-8);}.cls-11{stroke:url(#linear-gradient-9);}.cls-12{stroke:url(#linear-gradient-10);}.cls-13{stroke:url(#linear-gradient-11);}.cls-14{stroke:url(#linear-gradient-12);}.cls-15{stroke:url(#linear-gradient-13);}.cls-16{stroke:url(#linear-gradient-14);}.cls-17{stroke:url(#linear-gradient-15);}.cls-18{stroke:url(#linear-gradient-16);}.cls-19{stroke:url(#linear-gradient-17);}.cls-20{stroke:url(#linear-gradient-18);}.cls-21{stroke:url(#linear-gradient-19);}.cls-22{stroke:url(#linear-gradient-20);}.cls-23{stroke:url(#linear-gradient-21);}.cls-24{stroke:url(#linear-gradient-22);}.cls-25{stroke:url(#linear-gradient-23);}.cls-26{stroke:url(#linear-gradient-24);}.cls-27{stroke:url(#linear-gradient-25);}.cls-28{stroke:url(#linear-gradient-26);}.cls-29{stroke:url(#linear-gradient-27);}.cls-30{stroke:url(#linear-gradient-28);}.cls-31{stroke:url(#linear-gradient-29);}.cls-32{stroke:url(#linear-gradient-30);}.cls-33{stroke:url(#linear-gradient-31);}.cls-34{stroke:url(#linear-gradient-32);}.cls-35{stroke:url(#linear-gradient-33);}.cls-36{stroke:url(#linear-gradient-34);}.cls-37{stroke:url(#linear-gradient-35);}.cls-38{stroke:url(#linear-gradient-36);}.cls-39{stroke:url(#linear-gradient-37);}.cls-40{stroke:url(#linear-gradient-38);}.cls-41{stroke:url(#linear-gradient-39);}.cls-42{stroke:url(#linear-gradient-40);}.cls-43{stroke:url(#linear-gradient-41);}.cls-44{stroke:url(#linear-gradient-42);}.cls-45{stroke:url(#linear-gradient-43);}.cls-46{stroke:url(#linear-gradient-44);}.cls-47{stroke:url(#linear-gradient-45);}.cls-48{stroke:url(#linear-gradient-46);}.cls-49{stroke:url(#linear-gradient-47);}.cls-50{stroke:url(#linear-gradient-48);}.cls-51{stroke:url(#linear-gradient-49);}.cls-52{stroke:url(#linear-gradient-50);}.cls-53{stroke:url(#linear-gradient-51);}.cls-54{stroke:url(#linear-gradient-52);}.cls-55{stroke:url(#linear-gradient-53);}.cls-56{stroke:url(#linear-gradient-54);}.cls-57{stroke:url(#linear-gradient-55);}.cls-58{stroke:url(#linear-gradient-56);}.cls-59{stroke:url(#linear-gradient-57);}.cls-60{stroke:url(#linear-gradient-58);}.cls-61{stroke:url(#linear-gradient-59);}.cls-62{stroke:url(#linear-gradient-60);}.cls-63{stroke:url(#linear-gradient-61);}.cls-64{stroke:url(#linear-gradient-62);}.cls-65{stroke:url(#linear-gradient-63);}.cls-66{stroke:url(#linear-gradient-64);}.cls-67{stroke:url(#linear-gradient-65);}.cls-68{stroke:url(#linear-gradient-66);}.cls-69{stroke:url(#linear-gradient-67);}.cls-70{stroke:url(#linear-gradient-68);}.cls-71{stroke:url(#linear-gradient-69);}.cls-72{stroke:url(#linear-gradient-70);}.cls-73{stroke:url(#linear-gradient-71);}.cls-74{stroke:url(#linear-gradient-72);}.cls-75{stroke:url(#linear-gradient-73);}.cls-76{stroke:url(#linear-gradient-74);}.cls-77{stroke:url(#linear-gradient-75);}.cls-78{stroke:url(#linear-gradient-76);}.cls-79{stroke:url(#linear-gradient-77);}.cls-80{stroke:url(#linear-gradient-78);}.cls-81{stroke:url(#linear-gradient-79);}.cls-82{stroke:url(#linear-gradient-80);}.cls-83{stroke:url(#linear-gradient-81);}.cls-84{stroke:url(#linear-gradient-82);}.cls-85{stroke:url(#linear-gradient-83);}.cls-86{stroke:url(#linear-gradient-84);}.cls-87{stroke:url(#linear-gradient-85);}.cls-88{stroke:url(#linear-gradient-86);}.cls-89{stroke:url(#linear-gradient-87);}.cls-90{stroke:url(#linear-gradient-88);}.cls-91{stroke:url(#linear-gradient-89);}.cls-92{stroke:url(#linear-gradient-90);}.cls-93{stroke:url(#linear-gradient-91);}.cls-94{stroke:url(#linear-gradient-92);}.cls-95{stroke:url(#linear-gradient-93);}.cls-96{stroke:url(#linear-gradient-94);}.cls-97{stroke:url(#linear-gradient-95);}.cls-98{stroke:url(#linear-gradient-96);}.cls-99{stroke:url(#linear-gradient-97);}.cls-100{stroke:url(#linear-gradient-98);}.cls-101{stroke:url(#linear-gradient-99);}.cls-102{stroke:url(#linear-gradient-100);}.cls-103{stroke:url(#linear-gradient-101);}.cls-104{stroke:url(#linear-gradient-102);}.cls-105{stroke:url(#linear-gradient-103);}.cls-106{stroke:url(#linear-gradient-104);}.cls-107{stroke:url(#linear-gradient-105);}.cls-108{stroke:url(#linear-gradient-106);}.cls-109{stroke:url(#linear-gradient-107);}.cls-110{stroke:url(#linear-gradient-108);}</style><linearGradient id="linear-gradient" x1="790.5" y1="885.456" x2="790.5" y2="-3.544" gradientUnits="userSpaceOnUse"><stop offset="0.001" stop-color="#2670b8"/><stop offset="0.045" stop-color="#2164ac"/><stop offset="0.123" stop-color="#1b539c"/><stop offset="0.183" stop-color="#194d96"/><stop offset="0.191" stop-color="#194c93"/><stop offset="0.283" stop-color="#1c3d75"/><stop offset="0.374" stop-color="#1e335f"/><stop offset="0.461" stop-color="#202d51"/><stop offset="0.54" stop-color="#202b4d"/><stop offset="0.573" stop-color="#212a4a"/><stop offset="0.739" stop-color="#232542"/><stop offset="0.999" stop-color="#24243f"/></linearGradient><clipPath id="clip-path"><rect class="cls-1" x="0.267" y="-3.356" width="1580.733" height="888.812"/></clipPath><linearGradient id="linear-gradient-2" x1="24.088" y1="543.057" x2="24.088" y2="521.279" gradientUnits="userSpaceOnUse"><stop offset="0" stop-color="#fff"/><stop offset="0.185" stop-color="#fff" stop-opacity="0.85"/><stop offset="0.452" stop-color="#fff" stop-opacity="0.657"/><stop offset="0.686" stop-color="#fff" stop-opacity="0.517"/><stop offset="0.877" stop-color="#fff" stop-opacity="0.431"/><stop offset="1" stop-color="#fff" stop-opacity="0.4"/></linearGradient><linearGradient id="linear-gradient-3" x1="162.758" y1="543.057" x2="162.758" y2="521.279" xlink:href="#linear-gradient-2"/><linearGradient id="linear-gradient-4" x1="301.429" y1="543.057" x2="301.429" y2="521.279" xlink:href="#linear-gradient-2"/><linearGradient id="linear-gradient-5" x1="440.101" y1="543.057" x2="440.101" y2="521.279" xlink:href="#linear-gradient-2"/><linearGradient id="linear-gradient-6" x1="578.774" y1="543.057" x2="578.774" y2="521.279" xlink:href="#linear-gradient-2"/><linearGradient id="linear-gradient-7" x1="717.449" y1="543.057" x2="717.449" y2="521.279" xlink:href="#linear-gradient-2"/><linearGradient id="linear-gradient-8" x1="858.195" y1="543.057" x2="858.195" y2="521.279" xlink:href="#linear-gradient-2"/><linearGradient id="linear-gradient-9" x1="996.938" y1="543.057" x2="996.938" y2="521.279" xlink:href="#linear-gradient-2"/><linearGradient id="linear-gradient-10" x1="1135.612" y1="543.057" x2="1135.612" y2="521.279" xlink:href="#linear-gradient-2"/><linearGradient id="linear-gradient-11" x1="1274.284" y1="543.057" x2="1274.284" y2="521.279" xlink:href="#linear-gradient-2"/><linearGradient id="linear-gradient-12" x1="1412.955" y1="543.057" x2="1412.955" y2="521.279" xlink:href="#linear-gradient-2"/><linearGradient id="linear-gradient-13" x1="1551.625" y1="543.057" x2="1551.625" y2="521.279" xlink:href="#linear-gradient-2"/><linearGradient id="linear-gradient-14" x1="-3.982" y1="572.806" x2="-3.982" y2="542.394" xlink:href="#linear-gradient-2"/><linearGradient id="linear-gradient-15" x1="139.686" y1="572.806" x2="139.686" y2="542.394" xlink:href="#linear-gradient-2"/><linearGradient id="linear-gradient-16" x1="283.354" y1="572.806" x2="283.354" y2="542.394" xlink:href="#linear-gradient-2"/><linearGradient id="linear-gradient-17" x1="427.024" y1="572.806" x2="427.024" y2="542.394" xlink:href="#linear-gradient-2"/><linearGradient id="linear-gradient-18" x1="570.695" y1="572.806" x2="570.695" y2="542.394" xlink:href="#linear-gradient-2"/><linearGradient id="linear-gradient-19" x1="714.367" y1="572.806" x2="714.367" y2="542.394" xlink:href="#linear-gradient-2"/><linearGradient id="linear-gradient-20" x1="860.932" y1="572.806" x2="860.932" y2="542.394" xlink:href="#linear-gradient-2"/><linearGradient id="linear-gradient-21" x1="1004.699" y1="572.806" x2="1004.699" y2="542.394" xlink:href="#linear-gradient-2"/><linearGradient id="linear-gradient-22" x1="1148.37" y1="572.806" x2="1148.37" y2="542.394" xlink:href="#linear-gradient-2"/><linearGradient id="linear-gradient-23" x1="1292.04" y1="572.806" x2="1292.04" y2="542.394" xlink:href="#linear-gradient-2"/><linearGradient id="linear-gradient-24" x1="1435.708" y1="572.806" x2="1435.708" y2="542.394" xlink:href="#linear-gradient-2"/><linearGradient id="linear-gradient-25" x1="1579.376" y1="572.806" x2="1579.376" y2="542.394" xlink:href="#linear-gradient-2"/><linearGradient id="linear-gradient-26" x1="-5.146" y1="602.368" x2="-5.146" y2="509.313" xlink:href="#linear-gradient-2"/><linearGradient id="linear-gradient-27" x1="138.175" y1="602.368" x2="138.175" y2="509.313" xlink:href="#linear-gradient-2"/><linearGradient id="linear-gradient-28" x1="281.498" y1="602.368" x2="281.498" y2="509.313" xlink:href="#linear-gradient-2"/><linearGradient id="linear-gradient-29" x1="424.822" y1="602.368" x2="424.822" y2="509.313" xlink:href="#linear-gradient-2"/><linearGradient id="linear-gradient-30" x1="568.147" y1="602.368" x2="568.147" y2="509.313" xlink:href="#linear-gradient-2"/><linearGradient id="linear-gradient-31" x1="711.473" y1="602.368" x2="711.473" y2="509.313" xlink:href="#linear-gradient-2"/><linearGradient id="linear-gradient-32" x1="863.651" y1="602.368" x2="863.651" y2="509.313" xlink:href="#linear-gradient-2"/><linearGradient id="linear-gradient-33" x1="1007.269" y1="602.368" x2="1007.269" y2="509.313" xlink:href="#linear-gradient-2"/><linearGradient id="linear-gradient-34" x1="1150.594" y1="602.368" x2="1150.594" y2="509.313" xlink:href="#linear-gradient-2"/><linearGradient id="linear-gradient-35" x1="1293.918" y1="602.368" x2="1293.918" y2="509.313" xlink:href="#linear-gradient-2"/><linearGradient id="linear-gradient-36" x1="1437.241" y1="602.368" x2="1437.241" y2="509.313" xlink:href="#linear-gradient-2"/><linearGradient id="linear-gradient-37" x1="1580.562" y1="602.368" x2="1580.562" y2="509.313" xlink:href="#linear-gradient-2"/><linearGradient id="linear-gradient-38" x1="-69.502" y1="634.041" x2="-69.502" y2="601.518" xlink:href="#linear-gradient-2"/><linearGradient id="linear-gradient-39" x1="85.991" y1="634.041" x2="85.991" y2="601.518" xlink:href="#linear-gradient-2"/><linearGradient id="linear-gradient-40" x1="241.485" y1="634.041" x2="241.485" y2="601.518" xlink:href="#linear-gradient-2"/><linearGradient id="linear-gradient-41" x1="396.98" y1="634.041" x2="396.98" y2="601.518" xlink:href="#linear-gradient-2"/><linearGradient id="linear-gradient-42" x1="552.476" y1="634.041" x2="552.476" y2="601.518" xlink:href="#linear-gradient-2"/><linearGradient id="linear-gradient-43" x1="707.973" y1="634.041" x2="707.973" y2="601.518" xlink:href="#linear-gradient-2"/><linearGradient id="linear-gradient-44" x1="866.565" y1="634.041" x2="866.565" y2="601.518" xlink:href="#linear-gradient-2"/><linearGradient id="linear-gradient-45" x1="1022.164" y1="634.041" x2="1022.164" y2="601.518" xlink:href="#linear-gradient-2"/><linearGradient id="linear-gradient-46" x1="1177.66" y1="634.041" x2="1177.66" y2="601.518" xlink:href="#linear-gradient-2"/><linearGradient id="linear-gradient-47" x1="1333.155" y1="634.041" x2="1333.155" y2="601.518" xlink:href="#linear-gradient-2"/><linearGradient id="linear-gradient-48" x1="1488.649" y1="634.041" x2="1488.649" y2="601.518" xlink:href="#linear-gradient-2"/><linearGradient id="linear-gradient-49" x1="1644.142" y1="634.041" x2="1644.142" y2="601.518" xlink:href="#linear-gradient-2"/><linearGradient id="linear-gradient-50" x1="56.741" y1="667.826" x2="56.741" y2="633.191" xlink:href="#linear-gradient-2"/><linearGradient id="linear-gradient-51" x1="218.666" y1="667.826" x2="218.666" y2="633.191" xlink:href="#linear-gradient-2"/><linearGradient id="linear-gradient-52" x1="380.592" y1="667.826" x2="380.592" y2="633.191" xlink:href="#linear-gradient-2"/><linearGradient id="linear-gradient-53" x1="542.52" y1="667.826" x2="542.52" y2="633.191" xlink:href="#linear-gradient-2"/><linearGradient id="linear-gradient-54" x1="704.449" y1="667.826" x2="704.449" y2="633.191" xlink:href="#linear-gradient-2"/><linearGradient id="linear-gradient-55" x1="869.673" y1="667.826" x2="869.673" y2="633.191" xlink:href="#linear-gradient-2"/><linearGradient id="linear-gradient-56" x1="1031.71" y1="667.826" x2="1031.71" y2="633.191" xlink:href="#linear-gradient-2"/><linearGradient id="linear-gradient-57" x1="1193.637" y1="667.826" x2="1193.637" y2="633.191" xlink:href="#linear-gradient-2"/><linearGradient id="linear-gradient-58" x1="1355.564" y1="667.826" x2="1355.564" y2="633.191" xlink:href="#linear-gradient-2"/><linearGradient id="linear-gradient-59" x1="1517.489" y1="667.826" x2="1517.489" y2="633.191" xlink:href="#linear-gradient-2"/><linearGradient id="linear-gradient-60" x1="1679.413" y1="667.826" x2="1679.413" y2="633.191" xlink:href="#linear-gradient-2"/><linearGradient id="linear-gradient-61" x1="22.479" y1="710.057" x2="22.479" y2="666.976" xlink:href="#linear-gradient-2"/><linearGradient id="linear-gradient-62" x1="191.873" y1="710.057" x2="191.873" y2="666.976" xlink:href="#linear-gradient-2"/><linearGradient id="linear-gradient-63" x1="361.268" y1="710.057" x2="361.268" y2="666.976" xlink:href="#linear-gradient-2"/><linearGradient id="linear-gradient-64" x1="530.664" y1="710.057" x2="530.664" y2="666.976" xlink:href="#linear-gradient-2"/><linearGradient id="linear-gradient-65" x1="700.062" y1="710.057" x2="700.062" y2="666.976" xlink:href="#linear-gradient-2"/><linearGradient id="linear-gradient-66" x1="873.557" y1="710.057" x2="873.557" y2="666.976" xlink:href="#linear-gradient-2"/><linearGradient id="linear-gradient-67" x1="1043.09" y1="710.057" x2="1043.09" y2="666.976" xlink:href="#linear-gradient-2"/><linearGradient id="linear-gradient-68" x1="1212.486" y1="710.057" x2="1212.486" y2="666.976" xlink:href="#linear-gradient-2"/><linearGradient id="linear-gradient-69" x1="1381.881" y1="710.057" x2="1381.881" y2="666.976" xlink:href="#linear-gradient-2"/><linearGradient id="linear-gradient-70" x1="1551.275" y1="710.057" x2="1551.275" y2="666.976" xlink:href="#linear-gradient-2"/><linearGradient id="linear-gradient-71" x1="-15.129" y1="752.288" x2="-15.129" y2="709.207" xlink:href="#linear-gradient-2"/><linearGradient id="linear-gradient-72" x1="162.564" y1="752.288" x2="162.564" y2="709.207" xlink:href="#linear-gradient-2"/><linearGradient id="linear-gradient-73" x1="340.257" y1="752.288" x2="340.257" y2="709.207" xlink:href="#linear-gradient-2"/><linearGradient id="linear-gradient-74" x1="517.952" y1="752.288" x2="517.952" y2="709.207" xlink:href="#linear-gradient-2"/><linearGradient id="linear-gradient-75" x1="695.648" y1="752.288" x2="695.648" y2="709.207" xlink:href="#linear-gradient-2"/><linearGradient id="linear-gradient-76" x1="877.442" y1="752.288" x2="877.442" y2="709.207" xlink:href="#linear-gradient-2"/><linearGradient id="linear-gradient-77" x1="1055.273" y1="752.288" x2="1055.273" y2="709.207" xlink:href="#linear-gradient-2"/><linearGradient id="linear-gradient-78" x1="1232.968" y1="752.288" x2="1232.968" y2="709.207" xlink:href="#linear-gradient-2"/><linearGradient id="linear-gradient-79" x1="1410.661" y1="752.288" x2="1410.661" y2="709.207" xlink:href="#linear-gradient-2"/><linearGradient id="linear-gradient-80" x1="1588.353" y1="752.288" x2="1588.353" y2="709.207" xlink:href="#linear-gradient-2"/><linearGradient id="linear-gradient-81" x1="-57.956" y1="805.076" x2="-57.956" y2="751.437" xlink:href="#linear-gradient-2"/><linearGradient id="linear-gradient-82" x1="129.072" y1="805.076" x2="129.072" y2="751.437" xlink:href="#linear-gradient-2"/><linearGradient id="linear-gradient-83" x1="316.101" y1="805.076" x2="316.101" y2="751.437" xlink:href="#linear-gradient-2"/><linearGradient id="linear-gradient-84" x1="503.132" y1="805.076" x2="503.132" y2="751.437" xlink:href="#linear-gradient-2"/><linearGradient id="linear-gradient-85" x1="690.164" y1="805.076" x2="690.164" y2="751.437" xlink:href="#linear-gradient-2"/><linearGradient id="linear-gradient-86" x1="882.298" y1="805.076" x2="882.298" y2="751.437" xlink:href="#linear-gradient-2"/><linearGradient id="linear-gradient-87" x1="1069.498" y1="805.076" x2="1069.498" y2="751.437" xlink:href="#linear-gradient-2"/><linearGradient id="linear-gradient-88" x1="1256.528" y1="805.076" x2="1256.528" y2="751.437" xlink:href="#linear-gradient-2"/><linearGradient id="linear-gradient-89" x1="1443.558" y1="805.076" x2="1443.558" y2="751.437" xlink:href="#linear-gradient-2"/><linearGradient id="linear-gradient-90" x1="1630.586" y1="805.076" x2="1630.586" y2="751.437" xlink:href="#linear-gradient-2"/><linearGradient id="linear-gradient-91" x1="-107.054" y1="862.088" x2="-107.054" y2="804.226" xlink:href="#linear-gradient-2"/><linearGradient id="linear-gradient-92" x1="90.763" y1="862.088" x2="90.763" y2="804.226" xlink:href="#linear-gradient-2"/><linearGradient id="linear-gradient-93" x1="288.58" y1="862.088" x2="288.58" y2="804.226" xlink:href="#linear-gradient-2"/><linearGradient id="linear-gradient-94" x1="486.398" y1="862.088" x2="486.398" y2="804.226" xlink:href="#linear-gradient-2"/><linearGradient id="linear-gradient-95" x1="684.218" y1="862.088" x2="684.218" y2="804.226" xlink:href="#linear-gradient-2"/><linearGradient id="linear-gradient-96" x1="887.542" y1="862.088" x2="887.542" y2="804.226" xlink:href="#linear-gradient-2"/><linearGradient id="linear-gradient-97" x1="1085.543" y1="862.088" x2="1085.543" y2="804.226" xlink:href="#linear-gradient-2"/><linearGradient id="linear-gradient-98" x1="1283.362" y1="862.088" x2="1283.362" y2="804.226" xlink:href="#linear-gradient-2"/><linearGradient id="linear-gradient-99" x1="1481.179" y1="862.088" x2="1481.179" y2="804.226" xlink:href="#linear-gradient-2"/><linearGradient id="linear-gradient-100" x1="1678.995" y1="862.088" x2="1678.995" y2="804.226" xlink:href="#linear-gradient-2"/><linearGradient id="linear-gradient-101" x1="45.34" y1="933.881" x2="45.34" y2="861.238" xlink:href="#linear-gradient-2"/><linearGradient id="linear-gradient-102" x1="255.812" y1="933.881" x2="255.812" y2="861.238" xlink:href="#linear-gradient-2"/><linearGradient id="linear-gradient-103" x1="466.286" y1="933.881" x2="466.286" y2="861.238" xlink:href="#linear-gradient-2"/><linearGradient id="linear-gradient-104" x1="676.761" y1="933.881" x2="676.761" y2="861.238" xlink:href="#linear-gradient-2"/><linearGradient id="linear-gradient-105" x1="894.146" y1="933.881" x2="894.146" y2="861.238" xlink:href="#linear-gradient-2"/><linearGradient id="linear-gradient-106" x1="1104.849" y1="933.881" x2="1104.849" y2="861.238" xlink:href="#linear-gradient-2"/><linearGradient id="linear-gradient-107" x1="1315.323" y1="933.881" x2="1315.323" y2="861.238" xlink:href="#linear-gradient-2"/><linearGradient id="linear-gradient-108" x1="1525.795" y1="933.881" x2="1525.795" y2="861.238" xlink:href="#linear-gradient-2"/></defs><title>bpbkg2</title><rect class="cls-2" y="-3.544" width="1581" height="889"/><g class="cls-3"><polygon class="cls-4" points="-31.742 521.704 104.869 521.704 84.175 542.632 -56.548 542.632 -31.742 521.704"/><polygon class="cls-5" points="104.869 521.704 241.479 521.704 224.899 542.632 84.175 542.632 104.869 521.704"/><polygon class="cls-6" points="241.479 521.704 378.09 521.704 365.622 542.632 224.899 542.632 241.479 521.704"/><polygon class="cls-7" points="378.09 521.704 514.701 521.704 506.345 542.632 365.622 542.632 378.09 521.704"/><polygon class="cls-8" points="514.701 521.704 651.311 521.704 647.068 542.632 506.345 542.632 514.701 521.704"/><polygon class="cls-9" points="651.311 521.704 787.922 521.704 787.791 542.632 647.068 542.632 651.311 521.704"/><polygon class="cls-10" points="787.922 521.704 924.533 521.704 928.514 542.632 787.791 542.632 787.922 521.704"/><polygon class="cls-11" points="924.533 521.704 1061.143 521.704 1069.237 542.632 928.514 542.632 924.533 521.704"/><polygon class="cls-12" points="1061.143 521.704 1197.754 521.704 1209.96 542.632 1069.237 542.632 1061.143 521.704"/><polygon class="cls-13" points="1197.754 521.704 1334.365 521.704 1350.683 542.632 1209.96 542.632 1197.754 521.704"/><polygon class="cls-14" points="1334.365 521.704 1470.975 521.704 1491.406 542.632 1350.683 542.632 1334.365 521.704"/><polygon class="cls-15" points="1470.975 521.704 1607.586 521.704 1632.129 542.632 1491.406 542.632 1470.975 521.704"/><polygon class="cls-16" points="-56.77 542.819 83.99 542.819 54.76 572.381 -91.808 572.381 -56.77 542.819"/><polygon class="cls-17" points="83.99 542.819 224.75 542.819 201.329 572.381 54.76 572.381 83.99 542.819"/><polygon class="cls-18" points="224.75 542.819 365.51 542.819 347.898 572.381 201.329 572.381 224.75 542.819"/><polygon class="cls-19" points="365.51 542.819 506.27 542.819 494.467 572.381 347.898 572.381 365.51 542.819"/><polygon class="cls-20" points="506.27 542.819 647.03 542.819 641.036 572.381 494.467 572.381 506.27 542.819"/><polygon class="cls-21" points="647.03 542.819 787.79 542.819 787.605 572.381 641.036 572.381 647.03 542.819"/><polygon class="cls-22" points="787.79 542.819 928.55 542.819 934.173 572.381 787.605 572.381 787.79 542.819"/><polygon class="cls-23" points="928.55 542.819 1069.31 542.819 1080.742 572.381 934.173 572.381 928.55 542.819"/><polygon class="cls-24" points="1069.31 542.819 1210.069 542.819 1227.311 572.381 1080.742 572.381 1069.31 542.819"/><polygon class="cls-25" points="1210.069 542.819 1350.829 542.819 1373.88 572.381 1227.311 572.381 1210.069 542.819"/><polygon class="cls-26" points="1350.829 542.819 1491.589 542.819 1520.449 572.381 1373.88 572.381 1350.829 542.819"/><polygon class="cls-27" points="1491.589 542.819 1632.349 542.819 1667.018 572.381 1520.449 572.381 1491.589 542.819"/><polygon class="cls-28" points="-17.559 509.739 116.7 509.739 25.53 601.943 -126.847 601.943 -17.559 509.739"/><polygon class="cls-29" points="116.7 509.739 250.959 509.739 177.908 601.943 25.53 601.943 116.7 509.739"/><polygon class="cls-30" points="250.959 509.739 385.219 509.739 330.286 601.943 177.908 601.943 250.959 509.739"/><polygon class="cls-31" points="385.219 509.739 519.478 509.739 482.664 601.943 330.286 601.943 385.219 509.739"/><polygon class="cls-32" points="519.478 509.739 653.738 509.739 635.042 601.943 482.664 601.943 519.478 509.739"/><polygon class="cls-33" points="653.738 509.739 787.997 509.739 787.419 601.943 635.042 601.943 653.738 509.739"/><polygon class="cls-34" points="787.997 509.739 922.256 509.739 939.797 601.943 787.419 601.943 787.997 509.739"/><polygon class="cls-35" points="922.256 509.739 1056.516 509.739 1092.175 601.943 939.797 601.943 922.256 509.739"/><polygon class="cls-36" points="1056.516 509.739 1190.775 509.739 1244.553 601.943 1092.175 601.943 1056.516 509.739"/><polygon class="cls-37" points="1190.775 509.739 1325.035 509.739 1396.931 601.943 1244.553 601.943 1190.775 509.739"/><polygon class="cls-38" points="1325.035 509.739 1459.294 509.739 1549.308 601.943 1396.931 601.943 1325.035 509.739"/><polygon class="cls-39" points="1459.294 509.739 1593.553 509.739 1701.686 601.943 1549.308 601.943 1459.294 509.739"/><polygon class="cls-40" points="-126.847 601.943 25.53 601.943 -5.787 633.616 -164.389 633.616 -126.847 601.943"/><polygon class="cls-41" points="25.53 601.943 177.908 601.943 152.814 633.616 -5.787 633.616 25.53 601.943"/><polygon class="cls-42" points="177.908 601.943 330.286 601.943 311.416 633.616 152.814 633.616 177.908 601.943"/><polygon class="cls-43" points="330.286 601.943 482.664 601.943 470.018 633.616 311.416 633.616 330.286 601.943"/><polygon class="cls-44" points="482.664 601.943 635.042 601.943 628.619 633.616 470.018 633.616 482.664 601.943"/><polygon class="cls-45" points="635.042 601.943 787.419 601.943 787.221 633.616 628.619 633.616 635.042 601.943"/><polygon class="cls-46" points="787.419 601.943 939.797 601.943 945.823 633.616 787.221 633.616 787.419 601.943"/><polygon class="cls-47" points="939.797 601.943 1092.175 601.943 1104.424 633.616 945.823 633.616 939.797 601.943"/><polygon class="cls-48" points="1092.175 601.943 1244.553 601.943 1263.026 633.616 1104.424 633.616 1092.175 601.943"/><polygon class="cls-49" points="1244.553 601.943 1396.931 601.943 1421.628 633.616 1263.026 633.616 1244.553 601.943"/><polygon class="cls-50" points="1396.931 601.943 1549.308 601.943 1580.229 633.616 1421.628 633.616 1396.931 601.943"/><polygon class="cls-51" points="1549.308 601.943 1701.686 601.943 1738.831 633.616 1580.229 633.616 1549.308 601.943"/><polygon class="cls-52" points="-5.787 633.616 152.814 633.616 126.047 667.401 -39.193 667.401 -5.787 633.616"/><polygon class="cls-53" points="152.814 633.616 311.416 633.616 291.288 667.401 126.047 667.401 152.814 633.616"/><polygon class="cls-54" points="311.416 633.616 470.018 633.616 456.528 667.401 291.288 667.401 311.416 633.616"/><polygon class="cls-55" points="470.018 633.616 628.619 633.616 621.769 667.401 456.528 667.401 470.018 633.616"/><polygon class="cls-56" points="628.619 633.616 787.221 633.616 787.009 667.401 621.769 667.401 628.619 633.616"/><polygon class="cls-57" points="787.221 633.616 945.823 633.616 952.25 667.401 787.009 667.401 787.221 633.616"/><polygon class="cls-58" points="945.823 633.616 1104.424 633.616 1117.49 667.401 952.25 667.401 945.823 633.616"/><polygon class="cls-59" points="1104.424 633.616 1263.026 633.616 1282.731 667.401 1117.49 667.401 1104.424 633.616"/><polygon class="cls-60" points="1263.026 633.616 1421.628 633.616 1447.971 667.401 1282.731 667.401 1263.026 633.616"/><polygon class="cls-61" points="1421.628 633.616 1580.229 633.616 1613.212 667.401 1447.971 667.401 1421.628 633.616"/><polygon class="cls-62" points="1580.229 633.616 1738.831 633.616 1778.452 667.401 1613.212 667.401 1580.229 633.616"/><polygon class="cls-63" points="-39.193 667.401 126.047 667.401 92.589 709.632 -80.95 709.632 -39.193 667.401"/><polygon class="cls-64" points="126.047 667.401 291.288 667.401 266.128 709.632 92.589 709.632 126.047 667.401"/><polygon class="cls-65" points="291.288 667.401 456.528 667.401 439.667 709.632 266.128 709.632 291.288 667.401"/><polygon class="cls-66" points="456.528 667.401 621.769 667.401 613.206 709.632 439.667 709.632 456.528 667.401"/><polygon class="cls-67" points="621.769 667.401 787.009 667.401 786.745 709.632 613.206 709.632 621.769 667.401"/><polygon class="cls-68" points="787.009 667.401 952.25 667.401 960.284 709.632 786.745 709.632 787.009 667.401"/><polygon class="cls-69" points="952.25 667.401 1117.49 667.401 1133.823 709.632 960.284 709.632 952.25 667.401"/><polygon class="cls-70" points="1117.49 667.401 1282.731 667.401 1307.362 709.632 1133.823 709.632 1117.49 667.401"/><polygon class="cls-71" points="1282.731 667.401 1447.971 667.401 1480.901 709.632 1307.362 709.632 1282.731 667.401"/><polygon class="cls-72" points="1447.971 667.401 1613.212 667.401 1654.44 709.632 1480.901 709.632 1447.971 667.401"/><polygon class="cls-73" points="-80.95 709.632 92.589 709.632 59.13 751.863 -122.707 751.863 -80.95 709.632"/><polygon class="cls-74" points="92.589 709.632 266.128 709.632 240.968 751.863 59.13 751.863 92.589 709.632"/><polygon class="cls-75" points="266.128 709.632 439.667 709.632 422.805 751.863 240.968 751.863 266.128 709.632"/><polygon class="cls-76" points="439.667 709.632 613.206 709.632 604.643 751.863 422.805 751.863 439.667 709.632"/><polygon class="cls-77" points="613.206 709.632 786.745 709.632 786.48 751.863 604.643 751.863 613.206 709.632"/><polygon class="cls-78" points="786.745 709.632 960.284 709.632 968.318 751.863 786.48 751.863 786.745 709.632"/><polygon class="cls-79" points="960.284 709.632 1133.823 709.632 1150.155 751.863 968.318 751.863 960.284 709.632"/><polygon class="cls-80" points="1133.823 709.632 1307.362 709.632 1331.993 751.863 1150.155 751.863 1133.823 709.632"/><polygon class="cls-81" points="1307.362 709.632 1480.901 709.632 1513.83 751.863 1331.993 751.863 1307.362 709.632"/><polygon class="cls-82" points="1480.901 709.632 1654.44 709.632 1695.668 751.863 1513.83 751.863 1480.901 709.632"/><polygon class="cls-83" points="-122.707 751.863 59.13 751.863 17.307 804.651 -174.903 804.651 -122.707 751.863"/><polygon class="cls-84" points="59.13 751.863 240.968 751.863 209.518 804.651 17.307 804.651 59.13 751.863"/><polygon class="cls-85" points="240.968 751.863 422.805 751.863 401.728 804.651 209.518 804.651 240.968 751.863"/><polygon class="cls-86" points="422.805 751.863 604.643 751.863 593.939 804.651 401.728 804.651 422.805 751.863"/><polygon class="cls-87" points="604.643 751.863 786.48 751.863 786.15 804.651 593.939 804.651 604.643 751.863"/><polygon class="cls-88" points="786.48 751.863 968.318 751.863 978.36 804.651 786.15 804.651 786.48 751.863"/><polygon class="cls-89" points="968.318 751.863 1150.155 751.863 1170.571 804.651 978.36 804.651 968.318 751.863"/><polygon class="cls-90" points="1150.155 751.863 1331.993 751.863 1362.781 804.651 1170.571 804.651 1150.155 751.863"/><polygon class="cls-91" points="1331.993 751.863 1513.83 751.863 1554.992 804.651 1362.781 804.651 1331.993 751.863"/><polygon class="cls-92" points="1513.83 751.863 1695.668 751.863 1747.203 804.651 1554.992 804.651 1513.83 751.863"/><polygon class="cls-93" points="-174.903 804.651 17.307 804.651 -27.862 861.663 -231.275 861.663 -174.903 804.651"/><polygon class="cls-94" points="17.307 804.651 209.518 804.651 175.552 861.663 -27.862 861.663 17.307 804.651"/><polygon class="cls-95" points="209.518 804.651 401.728 804.651 378.965 861.663 175.552 861.663 209.518 804.651"/><polygon class="cls-96" points="401.728 804.651 593.939 804.651 582.379 861.663 378.965 861.663 401.728 804.651"/><polygon class="cls-97" points="593.939 804.651 786.15 804.651 785.793 861.663 582.379 861.663 593.939 804.651"/><polygon class="cls-98" points="786.15 804.651 978.36 804.651 989.206 861.663 785.793 861.663 786.15 804.651"/><polygon class="cls-99" points="978.36 804.651 1170.571 804.651 1192.62 861.663 989.206 861.663 978.36 804.651"/><polygon class="cls-100" points="1170.571 804.651 1362.781 804.651 1396.033 861.663 1192.62 861.663 1170.571 804.651"/><polygon class="cls-101" points="1362.781 804.651 1554.992 804.651 1599.447 861.663 1396.033 861.663 1362.781 804.651"/><polygon class="cls-102" points="1554.992 804.651 1747.203 804.651 1802.86 861.663 1599.447 861.663 1554.992 804.651"/><polygon class="cls-103" points="-27.862 861.663 175.552 861.663 132.78 933.456 -84.741 933.456 -27.862 861.663"/><polygon class="cls-104" points="175.552 861.663 378.965 861.663 350.301 933.456 132.78 933.456 175.552 861.663"/><polygon class="cls-105" points="378.965 861.663 582.379 861.663 567.822 933.456 350.301 933.456 378.965 861.663"/><polygon class="cls-106" points="582.379 861.663 785.793 861.663 785.343 933.456 567.822 933.456 582.379 861.663"/><polygon class="cls-107" points="785.793 861.663 989.206 861.663 1002.864 933.456 785.343 933.456 785.793 861.663"/><polygon class="cls-108" points="989.206 861.663 1192.62 861.663 1220.385 933.456 1002.864 933.456 989.206 861.663"/><polygon class="cls-109" points="1192.62 861.663 1396.033 861.663 1437.906 933.456 1220.385 933.456 1192.62 861.663"/><polygon class="cls-110" points="1396.033 861.663 1599.447 861.663 1655.427 933.456 1437.906 933.456 1396.033 861.663"/></g></svg>