<svg xmlns="http://www.w3.org/2000/svg" xmlns:xlink="http://www.w3.org/1999/xlink" viewBox="0 0 2612.57 424.57"><defs><style>.cls-1,.cls-10,.cls-100,.cls-101,.cls-102,.cls-103,.cls-104,.cls-105,.cls-106,.cls-107,.cls-108,.cls-109,.cls-11,.cls-110,.cls-111,.cls-112,.cls-113,.cls-114,.cls-115,.cls-116,.cls-117,.cls-118,.cls-119,.cls-12,.cls-120,.cls-121,.cls-122,.cls-13,.cls-14,.cls-15,.cls-16,.cls-17,.cls-18,.cls-19,.cls-20,.cls-21,.cls-22,.cls-23,.cls-24,.cls-25,.cls-26,.cls-27,.cls-28,.cls-29,.cls-3,.cls-30,.cls-31,.cls-32,.cls-33,.cls-34,.cls-35,.cls-36,.cls-37,.cls-38,.cls-39,.cls-4,.cls-40,.cls-41,.cls-42,.cls-43,.cls-44,.cls-45,.cls-46,.cls-47,.cls-48,.cls-49,.cls-5,.cls-50,.cls-51,.cls-52,.cls-53,.cls-54,.cls-55,.cls-56,.cls-57,.cls-58,.cls-59,.cls-6,.cls-60,.cls-61,.cls-62,.cls-63,.cls-64,.cls-65,.cls-66,.cls-67,.cls-68,.cls-69,.cls-7,.cls-70,.cls-71,.cls-72,.cls-73,.cls-74,.cls-75,.cls-76,.cls-77,.cls-78,.cls-79,.cls-8,.cls-80,.cls-81,.cls-82,.cls-83,.cls-84,.cls-85,.cls-86,.cls-87,.cls-88,.cls-89,.cls-9,.cls-90,.cls-91,.cls-92,.cls-93,.cls-94,.cls-95,.cls-96,.cls-97,.cls-98,.cls-99{fill:none;}.cls-2{clip-path:url(#clip-path);}.cls-10,.cls-100,.cls-101,.cls-102,.cls-103,.cls-104,.cls-105,.cls-106,.cls-107,.cls-108,.cls-109,.cls-11,.cls-110,.cls-111,.cls-112,.cls-113,.cls-114,.cls-115,.cls-116,.cls-117,.cls-118,.cls-119,.cls-12,.cls-120,.cls-121,.cls-122,.cls-13,.cls-14,.cls-15,.cls-16,.cls-17,.cls-18,.cls-19,.cls-20,.cls-21,.cls-22,.cls-23,.cls-24,.cls-25,.cls-26,.cls-27,.cls-28,.cls-29,.cls-3,.cls-30,.cls-31,.cls-32,.cls-33,.cls-34,.cls-35,.cls-36,.cls-37,.cls-38,.cls-39,.cls-4,.cls-40,.cls-41,.cls-42,.cls-43,.cls-44,.cls-45,.cls-46,.cls-47,.cls-48,.cls-49,.cls-5,.cls-50,.cls-51,.cls-52,.cls-53,.cls-54,.cls-55,.cls-56,.cls-57,.cls-58,.cls-59,.cls-6,.cls-60,.cls-61,.cls-62,.cls-63,.cls-64,.cls-65,.cls-66,.cls-67,.cls-68,.cls-69,.cls-7,.cls-70,.cls-71,.cls-72,.cls-73,.cls-74,.cls-75,.cls-76,.cls-77,.cls-78,.cls-79,.cls-8,.cls-80,.cls-81,.cls-82,.cls-83,.cls-84,.cls-85,.cls-86,.cls-87,.cls-88,.cls-89,.cls-9,.cls-90,.cls-91,.cls-92,.cls-93,.cls-94,.cls-95,.cls-96,.cls-97,.cls-98,.cls-99{stroke-miterlimit:10;stroke-width:0.85px;}.cls-3{stroke:url(#linear-gradient);}.cls-4{stroke:url(#linear-gradient-2);}.cls-5{stroke:url(#linear-gradient-3);}.cls-6{stroke:url(#linear-gradient-4);}.cls-7{stroke:url(#linear-gradient-5);}.cls-8{stroke:url(#linear-gradient-6);}.cls-9{stroke:url(#linear-gradient-7);}.cls-10{stroke:url(#linear-gradient-8);}.cls-11{stroke:url(#linear-gradient-9);}.cls-12{stroke:url(#linear-gradient-10);}.cls-13{stroke:url(#linear-gradient-11);}.cls-14{stroke:url(#linear-gradient-12);}.cls-15{stroke:url(#linear-gradient-13);}.cls-16{stroke:url(#linear-gradient-14);}.cls-17{stroke:url(#linear-gradient-15);}.cls-18{stroke:url(#linear-gradient-16);}.cls-19{stroke:url(#linear-gradient-17);}.cls-20{stroke:url(#linear-gradient-18);}.cls-21{stroke:url(#linear-gradient-19);}.cls-22{stroke:url(#linear-gradient-20);}.cls-23{stroke:url(#linear-gradient-21);}.cls-24{stroke:url(#linear-gradient-22);}.cls-25{stroke:url(#linear-gradient-23);}.cls-26{stroke:url(#linear-gradient-24);}.cls-27{stroke:url(#linear-gradient-25);}.cls-28{stroke:url(#linear-gradient-26);}.cls-29{stroke:url(#linear-gradient-27);}.cls-30{stroke:url(#linear-gradient-28);}.cls-31{stroke:url(#linear-gradient-29);}.cls-32{stroke:url(#linear-gradient-30);}.cls-33{stroke:url(#linear-gradient-31);}.cls-34{stroke:url(#linear-gradient-32);}.cls-35{stroke:url(#linear-gradient-33);}.cls-36{stroke:url(#linear-gradient-34);}.cls-37{stroke:url(#linear-gradient-35);}.cls-38{stroke:url(#linear-gradient-36);}.cls-39{stroke:url(#linear-gradient-37);}.cls-40{stroke:url(#linear-gradient-38);}.cls-41{stroke:url(#linear-gradient-39);}.cls-42{stroke:url(#linear-gradient-40);}.cls-43{stroke:url(#linear-gradient-41);}.cls-44{stroke:url(#linear-gradient-42);}.cls-45{stroke:url(#linear-gradient-43);}.cls-46{stroke:url(#linear-gradient-44);}.cls-47{stroke:url(#linear-gradient-45);}.cls-48{stroke:url(#linear-gradient-46);}.cls-49{stroke:url(#linear-gradient-47);}.cls-50{stroke:url(#linear-gradient-48);}.cls-51{stroke:url(#linear-gradient-49);}.cls-52{stroke:url(#linear-gradient-50);}.cls-53{stroke:url(#linear-gradient-51);}.cls-54{stroke:url(#linear-gradient-52);}.cls-55{stroke:url(#linear-gradient-53);}.cls-56{stroke:url(#linear-gradient-54);}.cls-57{stroke:url(#linear-gradient-55);}.cls-58{stroke:url(#linear-gradient-56);}.cls-59{stroke:url(#linear-gradient-57);}.cls-60{stroke:url(#linear-gradient-58);}.cls-61{stroke:url(#linear-gradient-59);}.cls-62{stroke:url(#linear-gradient-60);}.cls-63{stroke:url(#linear-gradient-61);}.cls-64{stroke:url(#linear-gradient-62);}.cls-65{stroke:url(#linear-gradient-63);}.cls-66{stroke:url(#linear-gradient-64);}.cls-67{stroke:url(#linear-gradient-65);}.cls-68{stroke:url(#linear-gradient-66);}.cls-69{stroke:url(#linear-gradient-67);}.cls-70{stroke:url(#linear-gradient-68);}.cls-71{stroke:url(#linear-gradient-69);}.cls-72{stroke:url(#linear-gradient-70);}.cls-73{stroke:url(#linear-gradient-71);}.cls-74{stroke:url(#linear-gradient-72);}.cls-75{stroke:url(#linear-gradient-73);}.cls-76{stroke:url(#linear-gradient-74);}.cls-77{stroke:url(#linear-gradient-75);}.cls-78{stroke:url(#linear-gradient-76);}.cls-79{stroke:url(#linear-gradient-77);}.cls-80{stroke:url(#linear-gradient-78);}.cls-81{stroke:url(#linear-gradient-79);}.cls-82{stroke:url(#linear-gradient-80);}.cls-83{stroke:url(#linear-gradient-81);}.cls-84{stroke:url(#linear-gradient-82);}.cls-85{stroke:url(#linear-gradient-83);}.cls-86{stroke:url(#linear-gradient-84);}.cls-87{stroke:url(#linear-gradient-85);}.cls-88{stroke:url(#linear-gradient-86);}.cls-89{stroke:url(#linear-gradient-87);}.cls-90{stroke:url(#linear-gradient-88);}.cls-91{stroke:url(#linear-gradient-89);}.cls-92{stroke:url(#linear-gradient-90);}.cls-93{stroke:url(#linear-gradient-91);}.cls-94{stroke:url(#linear-gradient-92);}.cls-95{stroke:url(#linear-gradient-93);}.cls-96{stroke:url(#linear-gradient-94);}.cls-97{stroke:url(#linear-gradient-95);}.cls-98{stroke:url(#linear-gradient-96);}.cls-99{stroke:url(#linear-gradient-97);}.cls-100{stroke:url(#linear-gradient-98);}.cls-101{stroke:url(#linear-gradient-99);}.cls-102{stroke:url(#linear-gradient-100);}.cls-103{stroke:url(#linear-gradient-101);}.cls-104{stroke:url(#linear-gradient-102);}.cls-105{stroke:url(#linear-gradient-103);}.cls-106{stroke:url(#linear-gradient-104);}.cls-107{stroke:url(#linear-gradient-105);}.cls-108{stroke:url(#linear-gradient-106);}.cls-109{stroke:url(#linear-gradient-107);}.cls-110{stroke:url(#linear-gradient-108);}.cls-111{stroke:url(#linear-gradient-109);}.cls-112{stroke:url(#linear-gradient-110);}.cls-113{stroke:url(#linear-gradient-111);}.cls-114{stroke:url(#linear-gradient-112);}.cls-115{stroke:url(#linear-gradient-113);}.cls-116{stroke:url(#linear-gradient-114);}.cls-117{stroke:url(#linear-gradient-115);}.cls-118{stroke:url(#linear-gradient-116);}.cls-119{stroke:url(#linear-gradient-117);}.cls-120{stroke:url(#linear-gradient-118);}.cls-121{stroke:url(#linear-gradient-119);}.cls-122{stroke:url(#linear-gradient-120);}</style><clipPath id="clip-path" transform="translate(520.95 -512.86)"><rect class="cls-1" x="0.27" y="0.19" width="1580.73" height="888.81"/></clipPath><linearGradient id="linear-gradient" x1="545.03" y1="33.74" x2="545.03" y2="11.97" gradientUnits="userSpaceOnUse"><stop offset="0" stop-color="#fff"/><stop offset="0.19" stop-color="#fff" stop-opacity="0.85"/><stop offset="0.45" stop-color="#fff" stop-opacity="0.66"/><stop offset="0.69" stop-color="#fff" stop-opacity="0.52"/><stop offset="0.88" stop-color="#fff" stop-opacity="0.43"/><stop offset="1" stop-color="#fff" stop-opacity="0.4"/></linearGradient><linearGradient id="linear-gradient-2" x1="683.7" y1="33.74" x2="683.7" y2="11.97" xlink:href="#linear-gradient"/><linearGradient id="linear-gradient-3" x1="822.38" y1="33.74" x2="822.38" y2="11.97" xlink:href="#linear-gradient"/><linearGradient id="linear-gradient-4" x1="961.05" y1="33.74" x2="961.05" y2="11.97" xlink:href="#linear-gradient"/><linearGradient id="linear-gradient-5" x1="1099.72" y1="33.74" x2="1099.72" y2="11.97" xlink:href="#linear-gradient"/><linearGradient id="linear-gradient-6" x1="1238.4" y1="33.74" x2="1238.4" y2="11.97" xlink:href="#linear-gradient"/><linearGradient id="linear-gradient-7" x1="1379.14" y1="33.74" x2="1379.14" y2="11.97" xlink:href="#linear-gradient"/><linearGradient id="linear-gradient-8" x1="1517.88" y1="33.74" x2="1517.88" y2="11.97" xlink:href="#linear-gradient"/><linearGradient id="linear-gradient-9" x1="1656.56" y1="33.74" x2="1656.56" y2="11.97" xlink:href="#linear-gradient"/><linearGradient id="linear-gradient-10" x1="1795.23" y1="33.74" x2="1795.23" y2="11.97" xlink:href="#linear-gradient"/><linearGradient id="linear-gradient-11" x1="1933.9" y1="33.74" x2="1933.9" y2="11.97" xlink:href="#linear-gradient"/><linearGradient id="linear-gradient-12" x1="2072.57" y1="33.74" x2="2072.57" y2="11.97" xlink:href="#linear-gradient"/><linearGradient id="linear-gradient-13" x1="516.96" y1="63.49" x2="516.96" y2="33.08" xlink:href="#linear-gradient"/><linearGradient id="linear-gradient-14" x1="660.63" y1="63.49" x2="660.63" y2="33.08" xlink:href="#linear-gradient"/><linearGradient id="linear-gradient-15" x1="804.3" y1="63.49" x2="804.3" y2="33.08" xlink:href="#linear-gradient"/><linearGradient id="linear-gradient-16" x1="947.97" y1="63.49" x2="947.97" y2="33.08" xlink:href="#linear-gradient"/><linearGradient id="linear-gradient-17" x1="1091.64" y1="63.49" x2="1091.64" y2="33.08" xlink:href="#linear-gradient"/><linearGradient id="linear-gradient-18" x1="1235.31" y1="63.49" x2="1235.31" y2="33.08" xlink:href="#linear-gradient"/><linearGradient id="linear-gradient-19" x1="1381.88" y1="63.49" x2="1381.88" y2="33.08" xlink:href="#linear-gradient"/><linearGradient id="linear-gradient-20" x1="1525.65" y1="63.49" x2="1525.65" y2="33.08" xlink:href="#linear-gradient"/><linearGradient id="linear-gradient-21" x1="1669.32" y1="63.49" x2="1669.32" y2="33.08" xlink:href="#linear-gradient"/><linearGradient id="linear-gradient-22" x1="1812.99" y1="63.49" x2="1812.99" y2="33.08" xlink:href="#linear-gradient"/><linearGradient id="linear-gradient-23" x1="1956.65" y1="63.49" x2="1956.65" y2="33.08" xlink:href="#linear-gradient"/><linearGradient id="linear-gradient-24" x1="2100.32" y1="63.49" x2="2100.32" y2="33.08" xlink:href="#linear-gradient"/><linearGradient id="linear-gradient-25" x1="515.8" y1="93.05" x2="515.8" y2="0" xlink:href="#linear-gradient"/><linearGradient id="linear-gradient-26" x1="659.12" y1="93.05" x2="659.12" y2="0" xlink:href="#linear-gradient"/><linearGradient id="linear-gradient-27" x1="802.44" y1="93.05" x2="802.44" y2="0" xlink:href="#linear-gradient"/><linearGradient id="linear-gradient-28" x1="945.77" y1="93.05" x2="945.77" y2="0" xlink:href="#linear-gradient"/><linearGradient id="linear-gradient-29" x1="1089.09" y1="93.05" x2="1089.09" y2="0" xlink:href="#linear-gradient"/><linearGradient id="linear-gradient-30" x1="1232.42" y1="93.05" x2="1232.42" y2="0" xlink:href="#linear-gradient"/><linearGradient id="linear-gradient-31" x1="1384.6" y1="93.05" x2="1384.6" y2="0" xlink:href="#linear-gradient"/><linearGradient id="linear-gradient-32" x1="1528.22" y1="93.05" x2="1528.22" y2="0" xlink:href="#linear-gradient"/><linearGradient id="linear-gradient-33" x1="1671.54" y1="93.05" x2="1671.54" y2="0" xlink:href="#linear-gradient"/><linearGradient id="linear-gradient-34" x1="1814.86" y1="93.05" x2="1814.86" y2="0" xlink:href="#linear-gradient"/><linearGradient id="linear-gradient-35" x1="1958.19" y1="93.05" x2="1958.19" y2="0" xlink:href="#linear-gradient"/><linearGradient id="linear-gradient-36" x1="2101.51" y1="93.05" x2="2101.51" y2="0" xlink:href="#linear-gradient"/><linearGradient id="linear-gradient-37" x1="451.44" y1="124.73" x2="451.44" y2="92.2" xlink:href="#linear-gradient"/><linearGradient id="linear-gradient-38" x1="606.94" y1="124.73" x2="606.94" y2="92.2" xlink:href="#linear-gradient"/><linearGradient id="linear-gradient-39" x1="762.43" y1="124.73" x2="762.43" y2="92.2" xlink:href="#linear-gradient"/><linearGradient id="linear-gradient-40" x1="917.93" y1="124.73" x2="917.93" y2="92.2" xlink:href="#linear-gradient"/><linearGradient id="linear-gradient-41" x1="1073.42" y1="124.73" x2="1073.42" y2="92.2" xlink:href="#linear-gradient"/><linearGradient id="linear-gradient-42" x1="1228.92" y1="124.73" x2="1228.92" y2="92.2" xlink:href="#linear-gradient"/><linearGradient id="linear-gradient-43" x1="1387.51" y1="124.73" x2="1387.51" y2="92.2" xlink:href="#linear-gradient"/><linearGradient id="linear-gradient-44" x1="1543.11" y1="124.73" x2="1543.11" y2="92.2" xlink:href="#linear-gradient"/><linearGradient id="linear-gradient-45" x1="1698.61" y1="124.73" x2="1698.61" y2="92.2" xlink:href="#linear-gradient"/><linearGradient id="linear-gradient-46" x1="1854.1" y1="124.73" x2="1854.1" y2="92.2" xlink:href="#linear-gradient"/><linearGradient id="linear-gradient-47" x1="2009.6" y1="124.73" x2="2009.6" y2="92.2" xlink:href="#linear-gradient"/><linearGradient id="linear-gradient-48" x1="2165.09" y1="124.73" x2="2165.09" y2="92.2" xlink:href="#linear-gradient"/><linearGradient id="linear-gradient-49" x1="415.76" y1="158.51" x2="415.76" y2="123.88" xlink:href="#linear-gradient"/><linearGradient id="linear-gradient-50" x1="577.69" y1="158.51" x2="577.69" y2="123.88" xlink:href="#linear-gradient"/><linearGradient id="linear-gradient-51" x1="739.61" y1="158.51" x2="739.61" y2="123.88" xlink:href="#linear-gradient"/><linearGradient id="linear-gradient-52" x1="901.54" y1="158.51" x2="901.54" y2="123.88" xlink:href="#linear-gradient"/><linearGradient id="linear-gradient-53" x1="1063.47" y1="158.51" x2="1063.47" y2="123.88" xlink:href="#linear-gradient"/><linearGradient id="linear-gradient-54" x1="1225.4" y1="158.51" x2="1225.4" y2="123.88" xlink:href="#linear-gradient"/><linearGradient id="linear-gradient-55" x1="1390.62" y1="158.51" x2="1390.62" y2="123.88" xlink:href="#linear-gradient"/><linearGradient id="linear-gradient-56" x1="1552.66" y1="158.51" x2="1552.66" y2="123.88" xlink:href="#linear-gradient"/><linearGradient id="linear-gradient-57" x1="1714.58" y1="158.51" x2="1714.58" y2="123.88" xlink:href="#linear-gradient"/><linearGradient id="linear-gradient-58" x1="1876.51" y1="158.51" x2="1876.51" y2="123.88" xlink:href="#linear-gradient"/><linearGradient id="linear-gradient-59" x1="2038.44" y1="158.51" x2="2038.44" y2="123.88" xlink:href="#linear-gradient"/><linearGradient id="linear-gradient-60" x1="2200.36" y1="158.51" x2="2200.36" y2="123.88" xlink:href="#linear-gradient"/><linearGradient id="linear-gradient-61" x1="374.03" y1="200.74" x2="374.03" y2="157.66" xlink:href="#linear-gradient"/><linearGradient id="linear-gradient-62" x1="543.43" y1="200.74" x2="543.43" y2="157.66" xlink:href="#linear-gradient"/><linearGradient id="linear-gradient-63" x1="712.82" y1="200.74" x2="712.82" y2="157.66" xlink:href="#linear-gradient"/><linearGradient id="linear-gradient-64" x1="882.21" y1="200.74" x2="882.21" y2="157.66" xlink:href="#linear-gradient"/><linearGradient id="linear-gradient-65" x1="1051.61" y1="200.74" x2="1051.61" y2="157.66" xlink:href="#linear-gradient"/><linearGradient id="linear-gradient-66" x1="1221.01" y1="200.74" x2="1221.01" y2="157.66" xlink:href="#linear-gradient"/><linearGradient id="linear-gradient-67" x1="1394.5" y1="200.74" x2="1394.5" y2="157.66" xlink:href="#linear-gradient"/><linearGradient id="linear-gradient-68" x1="1564.04" y1="200.74" x2="1564.04" y2="157.66" xlink:href="#linear-gradient"/><linearGradient id="linear-gradient-69" x1="1733.43" y1="200.74" x2="1733.43" y2="157.66" xlink:href="#linear-gradient"/><linearGradient id="linear-gradient-70" x1="1902.83" y1="200.74" x2="1902.83" y2="157.66" xlink:href="#linear-gradient"/><linearGradient id="linear-gradient-71" x1="2072.22" y1="200.74" x2="2072.22" y2="157.66" xlink:href="#linear-gradient"/><linearGradient id="linear-gradient-72" x1="2241.61" y1="200.74" x2="2241.61" y2="157.66" xlink:href="#linear-gradient"/><linearGradient id="linear-gradient-73" x1="328.13" y1="242.97" x2="328.13" y2="199.89" xlink:href="#linear-gradient"/><linearGradient id="linear-gradient-74" x1="505.82" y1="242.97" x2="505.82" y2="199.89" xlink:href="#linear-gradient"/><linearGradient id="linear-gradient-75" x1="683.51" y1="242.97" x2="683.51" y2="199.89" xlink:href="#linear-gradient"/><linearGradient id="linear-gradient-76" x1="861.2" y1="242.97" x2="861.2" y2="199.89" xlink:href="#linear-gradient"/><linearGradient id="linear-gradient-77" x1="1038.9" y1="242.97" x2="1038.9" y2="199.89" xlink:href="#linear-gradient"/><linearGradient id="linear-gradient-78" x1="1216.59" y1="242.97" x2="1216.59" y2="199.89" xlink:href="#linear-gradient"/><linearGradient id="linear-gradient-79" x1="1398.39" y1="242.97" x2="1398.39" y2="199.89" xlink:href="#linear-gradient"/><linearGradient id="linear-gradient-80" x1="1576.22" y1="242.97" x2="1576.22" y2="199.89" xlink:href="#linear-gradient"/><linearGradient id="linear-gradient-81" x1="1753.91" y1="242.97" x2="1753.91" y2="199.89" xlink:href="#linear-gradient"/><linearGradient id="linear-gradient-82" x1="1931.61" y1="242.97" x2="1931.61" y2="199.89" xlink:href="#linear-gradient"/><linearGradient id="linear-gradient-83" x1="2109.3" y1="242.97" x2="2109.3" y2="199.89" xlink:href="#linear-gradient"/><linearGradient id="linear-gradient-84" x1="2286.99" y1="242.97" x2="2286.99" y2="199.89" xlink:href="#linear-gradient"/><linearGradient id="linear-gradient-85" x1="275.96" y1="295.76" x2="275.96" y2="242.12" xlink:href="#linear-gradient"/><linearGradient id="linear-gradient-86" x1="462.99" y1="295.76" x2="462.99" y2="242.12" xlink:href="#linear-gradient"/><linearGradient id="linear-gradient-87" x1="650.02" y1="295.76" x2="650.02" y2="242.12" xlink:href="#linear-gradient"/><linearGradient id="linear-gradient-88" x1="837.05" y1="295.76" x2="837.05" y2="242.12" xlink:href="#linear-gradient"/><linearGradient id="linear-gradient-89" x1="1024.08" y1="295.76" x2="1024.08" y2="242.12" xlink:href="#linear-gradient"/><linearGradient id="linear-gradient-90" x1="1211.11" y1="295.76" x2="1211.11" y2="242.12" xlink:href="#linear-gradient"/><linearGradient id="linear-gradient-91" x1="1403.24" y1="295.76" x2="1403.24" y2="242.12" xlink:href="#linear-gradient"/><linearGradient id="linear-gradient-92" x1="1590.44" y1="295.76" x2="1590.44" y2="242.12" xlink:href="#linear-gradient"/><linearGradient id="linear-gradient-93" x1="1777.47" y1="295.76" x2="1777.47" y2="242.12" xlink:href="#linear-gradient"/><linearGradient id="linear-gradient-94" x1="1964.5" y1="295.76" x2="1964.5" y2="242.12" xlink:href="#linear-gradient"/><linearGradient id="linear-gradient-95" x1="2151.53" y1="295.76" x2="2151.53" y2="242.12" xlink:href="#linear-gradient"/><linearGradient id="linear-gradient-96" x1="2338.56" y1="295.76" x2="2338.56" y2="242.12" xlink:href="#linear-gradient"/><linearGradient id="linear-gradient-97" x1="216.08" y1="352.77" x2="216.08" y2="294.91" xlink:href="#linear-gradient"/><linearGradient id="linear-gradient-98" x1="413.89" y1="352.77" x2="413.89" y2="294.91" xlink:href="#linear-gradient"/><linearGradient id="linear-gradient-99" x1="611.71" y1="352.77" x2="611.71" y2="294.91" xlink:href="#linear-gradient"/><linearGradient id="linear-gradient-100" x1="809.53" y1="352.77" x2="809.53" y2="294.91" xlink:href="#linear-gradient"/><linearGradient id="linear-gradient-101" x1="1007.34" y1="352.77" x2="1007.34" y2="294.91" xlink:href="#linear-gradient"/><linearGradient id="linear-gradient-102" x1="1205.16" y1="352.77" x2="1205.16" y2="294.91" xlink:href="#linear-gradient"/><linearGradient id="linear-gradient-103" x1="1408.49" y1="352.77" x2="1408.49" y2="294.91" xlink:href="#linear-gradient"/><linearGradient id="linear-gradient-104" x1="1606.49" y1="352.77" x2="1606.49" y2="294.91" xlink:href="#linear-gradient"/><linearGradient id="linear-gradient-105" x1="1804.31" y1="352.77" x2="1804.31" y2="294.91" xlink:href="#linear-gradient"/><linearGradient id="linear-gradient-106" x1="2002.13" y1="352.77" x2="2002.13" y2="294.91" xlink:href="#linear-gradient"/><linearGradient id="linear-gradient-107" x1="2199.94" y1="352.77" x2="2199.94" y2="294.91" xlink:href="#linear-gradient"/><linearGradient id="linear-gradient-108" x1="2397.76" y1="352.77" x2="2397.76" y2="294.91" xlink:href="#linear-gradient"/><linearGradient id="linear-gradient-109" x1="145.34" y1="424.57" x2="145.34" y2="351.92" xlink:href="#linear-gradient"/><linearGradient id="linear-gradient-110" x1="355.81" y1="424.57" x2="355.81" y2="351.92" xlink:href="#linear-gradient"/><linearGradient id="linear-gradient-111" x1="566.29" y1="424.57" x2="566.29" y2="351.92" xlink:href="#linear-gradient"/><linearGradient id="linear-gradient-112" x1="776.76" y1="424.57" x2="776.76" y2="351.92" xlink:href="#linear-gradient"/><linearGradient id="linear-gradient-113" x1="987.23" y1="424.57" x2="987.23" y2="351.92" xlink:href="#linear-gradient"/><linearGradient id="linear-gradient-114" x1="1197.71" y1="424.57" x2="1197.71" y2="351.92" xlink:href="#linear-gradient"/><linearGradient id="linear-gradient-115" x1="1415.09" y1="424.57" x2="1415.09" y2="351.92" xlink:href="#linear-gradient"/><linearGradient id="linear-gradient-116" x1="1625.8" y1="424.57" x2="1625.8" y2="351.92" xlink:href="#linear-gradient"/><linearGradient id="linear-gradient-117" x1="1836.27" y1="424.57" x2="1836.27" y2="351.92" xlink:href="#linear-gradient"/><linearGradient id="linear-gradient-118" x1="2046.74" y1="424.57" x2="2046.74" y2="351.92" xlink:href="#linear-gradient"/><linearGradient id="linear-gradient-119" x1="2257.21" y1="424.57" x2="2257.21" y2="351.92" xlink:href="#linear-gradient"/><linearGradient id="linear-gradient-120" x1="2467.68" y1="424.57" x2="2467.68" y2="351.92" xlink:href="#linear-gradient"/></defs><title>grid</title><g id="Layer_2" data-name="Layer 2"><g id="zoom_machine" data-name="zoom machine"><g class="cls-2"><polygon class="cls-3" points="489.2 12.39 625.82 12.39 605.12 33.32 464.4 33.32 489.2 12.39"/><polygon class="cls-4" points="625.82 12.39 762.43 12.39 745.85 33.32 605.12 33.32 625.82 12.39"/><polygon class="cls-5" points="762.43 12.39 899.04 12.39 886.57 33.32 745.85 33.32 762.43 12.39"/><polygon class="cls-6" points="899.04 12.39 1035.65 12.39 1027.29 33.32 886.57 33.32 899.04 12.39"/><polygon class="cls-7" points="1035.65 12.39 1172.26 12.39 1168.01 33.32 1027.29 33.32 1035.65 12.39"/><polygon class="cls-8" points="1172.26 12.39 1308.87 12.39 1308.74 33.32 1168.01 33.32 1172.26 12.39"/><polygon class="cls-9" points="1308.87 12.39 1445.48 12.39 1449.46 33.32 1308.74 33.32 1308.87 12.39"/><polygon class="cls-10" points="1445.48 12.39 1582.09 12.39 1590.18 33.32 1449.46 33.32 1445.48 12.39"/><polygon class="cls-11" points="1582.09 12.39 1718.7 12.39 1730.91 33.32 1590.18 33.32 1582.09 12.39"/><polygon class="cls-12" points="1718.7 12.39 1855.31 12.39 1871.63 33.32 1730.91 33.32 1718.7 12.39"/><polygon class="cls-13" points="1855.31 12.39 1991.92 12.39 2012.35 33.32 1871.63 33.32 1855.31 12.39"/><polygon class="cls-14" points="1991.92 12.39 2128.53 12.39 2153.08 33.32 2012.35 33.32 1991.92 12.39"/><polygon class="cls-15" points="464.18 33.51 604.94 33.51 575.71 63.07 429.14 63.07 464.18 33.51"/><polygon class="cls-16" points="604.94 33.51 745.7 33.51 722.28 63.07 575.71 63.07 604.94 33.51"/><polygon class="cls-17" points="745.7 33.51 886.46 33.51 868.84 63.07 722.28 63.07 745.7 33.51"/><polygon class="cls-18" points="886.46 33.51 1027.22 33.51 1015.41 63.07 868.84 63.07 886.46 33.51"/><polygon class="cls-19" points="1027.22 33.51 1167.98 33.51 1161.98 63.07 1015.41 63.07 1027.22 33.51"/><polygon class="cls-20" points="1167.98 33.51 1308.74 33.51 1308.55 63.07 1161.98 63.07 1167.98 33.51"/><polygon class="cls-21" points="1308.74 33.51 1449.5 33.51 1455.12 63.07 1308.55 63.07 1308.74 33.51"/><polygon class="cls-22" points="1449.5 33.51 1590.26 33.51 1601.69 63.07 1455.12 63.07 1449.5 33.51"/><polygon class="cls-23" points="1590.26 33.51 1731.02 33.51 1748.26 63.07 1601.69 63.07 1590.26 33.51"/><polygon class="cls-24" points="1731.02 33.51 1871.78 33.51 1894.83 63.07 1748.26 63.07 1731.02 33.51"/><polygon class="cls-25" points="1871.78 33.51 2012.54 33.51 2041.39 63.07 1894.83 63.07 1871.78 33.51"/><polygon class="cls-26" points="2012.54 33.51 2153.3 33.51 2187.96 63.07 2041.39 63.07 2012.54 33.51"/><polygon class="cls-27" points="503.39 0.42 637.65 0.42 546.48 92.63 394.1 92.63 503.39 0.42"/><polygon class="cls-28" points="637.65 0.42 771.91 0.42 698.86 92.63 546.48 92.63 637.65 0.42"/><polygon class="cls-29" points="771.91 0.42 906.16 0.42 851.23 92.63 698.86 92.63 771.91 0.42"/><polygon class="cls-30" points="906.16 0.42 1040.42 0.42 1003.61 92.63 851.23 92.63 906.16 0.42"/><polygon class="cls-31" points="1040.42 0.42 1174.68 0.42 1155.99 92.63 1003.61 92.63 1040.42 0.42"/><polygon class="cls-32" points="1174.68 0.42 1308.94 0.42 1308.37 92.63 1155.99 92.63 1174.68 0.42"/><polygon class="cls-33" points="1308.94 0.42 1443.2 0.42 1460.74 92.63 1308.37 92.63 1308.94 0.42"/><polygon class="cls-34" points="1443.2 0.42 1577.46 0.42 1613.12 92.63 1460.74 92.63 1443.2 0.42"/><polygon class="cls-35" points="1577.46 0.42 1711.72 0.42 1765.5 92.63 1613.12 92.63 1577.46 0.42"/><polygon class="cls-36" points="1711.72 0.42 1845.98 0.42 1917.88 92.63 1765.5 92.63 1711.72 0.42"/><polygon class="cls-37" points="1845.98 0.42 1980.24 0.42 2070.26 92.63 1917.88 92.63 1845.98 0.42"/><polygon class="cls-38" points="1980.24 0.42 2114.5 0.42 2222.63 92.63 2070.26 92.63 1980.24 0.42"/><polygon class="cls-39" points="394.1 92.63 546.48 92.63 515.16 124.3 356.56 124.3 394.1 92.63"/><polygon class="cls-40" points="546.48 92.63 698.86 92.63 673.76 124.3 515.16 124.3 546.48 92.63"/><polygon class="cls-41" points="698.86 92.63 851.23 92.63 832.36 124.3 673.76 124.3 698.86 92.63"/><polygon class="cls-42" points="851.23 92.63 1003.61 92.63 990.96 124.3 832.36 124.3 851.23 92.63"/><polygon class="cls-43" points="1003.61 92.63 1155.99 92.63 1149.57 124.3 990.96 124.3 1003.61 92.63"/><polygon class="cls-44" points="1155.99 92.63 1308.37 92.63 1308.17 124.3 1149.57 124.3 1155.99 92.63"/><polygon class="cls-45" points="1308.37 92.63 1460.74 92.63 1466.77 124.3 1308.17 124.3 1308.37 92.63"/><polygon class="cls-46" points="1460.74 92.63 1613.12 92.63 1625.37 124.3 1466.77 124.3 1460.74 92.63"/><polygon class="cls-47" points="1613.12 92.63 1765.5 92.63 1783.97 124.3 1625.37 124.3 1613.12 92.63"/><polygon class="cls-48" points="1765.5 92.63 1917.88 92.63 1942.57 124.3 1783.97 124.3 1765.5 92.63"/><polygon class="cls-49" points="1917.88 92.63 2070.26 92.63 2101.18 124.3 1942.57 124.3 1917.88 92.63"/><polygon class="cls-50" points="2070.26 92.63 2222.63 92.63 2259.78 124.3 2101.18 124.3 2070.26 92.63"/><polygon class="cls-51" points="356.56 124.3 515.16 124.3 481.75 158.09 316.51 158.09 356.56 124.3"/><polygon class="cls-52" points="515.16 124.3 673.76 124.3 646.99 158.09 481.75 158.09 515.16 124.3"/><polygon class="cls-53" points="673.76 124.3 832.36 124.3 812.23 158.09 646.99 158.09 673.76 124.3"/><polygon class="cls-54" points="832.36 124.3 990.96 124.3 977.48 158.09 812.23 158.09 832.36 124.3"/><polygon class="cls-55" points="990.96 124.3 1149.57 124.3 1142.71 158.09 977.48 158.09 990.96 124.3"/><polygon class="cls-56" points="1149.57 124.3 1308.17 124.3 1307.96 158.09 1142.71 158.09 1149.57 124.3"/><polygon class="cls-57" points="1308.17 124.3 1466.77 124.3 1473.2 158.09 1307.96 158.09 1308.17 124.3"/><polygon class="cls-58" points="1466.77 124.3 1625.37 124.3 1638.44 158.09 1473.2 158.09 1466.77 124.3"/><polygon class="cls-59" points="1625.37 124.3 1783.97 124.3 1803.68 158.09 1638.44 158.09 1625.37 124.3"/><polygon class="cls-60" points="1783.97 124.3 1942.57 124.3 1968.92 158.09 1803.68 158.09 1783.97 124.3"/><polygon class="cls-61" points="1942.57 124.3 2101.18 124.3 2134.16 158.09 1968.92 158.09 1942.57 124.3"/><polygon class="cls-62" points="2101.18 124.3 2259.78 124.3 2299.4 158.09 2134.16 158.09 2101.18 124.3"/><polygon class="cls-63" points="316.51 158.09 481.75 158.09 440 200.32 266.46 200.32 316.51 158.09"/><polygon class="cls-64" points="481.75 158.09 646.99 158.09 613.53 200.32 440 200.32 481.75 158.09"/><polygon class="cls-65" points="646.99 158.09 812.23 158.09 787.07 200.32 613.53 200.32 646.99 158.09"/><polygon class="cls-66" points="812.23 158.09 977.48 158.09 960.61 200.32 787.07 200.32 812.23 158.09"/><polygon class="cls-67" points="977.48 158.09 1142.71 158.09 1134.15 200.32 960.61 200.32 977.48 158.09"/><polygon class="cls-68" points="1142.71 158.09 1307.96 158.09 1307.69 200.32 1134.15 200.32 1142.71 158.09"/><polygon class="cls-69" points="1307.96 158.09 1473.2 158.09 1481.23 200.32 1307.69 200.32 1307.96 158.09"/><polygon class="cls-70" points="1473.2 158.09 1638.44 158.09 1654.77 200.32 1481.23 200.32 1473.2 158.09"/><polygon class="cls-71" points="1638.44 158.09 1803.68 158.09 1828.31 200.32 1654.77 200.32 1638.44 158.09"/><polygon class="cls-72" points="1803.68 158.09 1968.92 158.09 2001.85 200.32 1828.31 200.32 1803.68 158.09"/><polygon class="cls-73" points="1968.92 158.09 2134.16 158.09 2175.39 200.32 2001.85 200.32 1968.92 158.09"/><polygon class="cls-74" points="2134.16 158.09 2299.4 158.09 2348.93 200.32 2175.39 200.32 2134.16 158.09"/><polygon class="cls-75" points="266.46 200.32 440 200.32 398.24 242.55 216.4 242.55 266.46 200.32"/><polygon class="cls-76" points="440 200.32 613.53 200.32 580.08 242.55 398.24 242.55 440 200.32"/><polygon class="cls-77" points="613.53 200.32 787.07 200.32 761.91 242.55 580.08 242.55 613.53 200.32"/><polygon class="cls-78" points="787.07 200.32 960.61 200.32 943.75 242.55 761.91 242.55 787.07 200.32"/><polygon class="cls-79" points="960.61 200.32 1134.15 200.32 1125.59 242.55 943.75 242.55 960.61 200.32"/><polygon class="cls-80" points="1134.15 200.32 1307.69 200.32 1307.43 242.55 1125.59 242.55 1134.15 200.32"/><polygon class="cls-81" points="1307.69 200.32 1481.23 200.32 1489.26 242.55 1307.43 242.55 1307.69 200.32"/><polygon class="cls-82" points="1481.23 200.32 1654.77 200.32 1671.1 242.55 1489.26 242.55 1481.23 200.32"/><polygon class="cls-83" points="1654.77 200.32 1828.31 200.32 1852.94 242.55 1671.1 242.55 1654.77 200.32"/><polygon class="cls-84" points="1828.31 200.32 2001.85 200.32 2034.78 242.55 1852.94 242.55 1828.31 200.32"/><polygon class="cls-85" points="2001.85 200.32 2175.39 200.32 2216.61 242.55 2034.78 242.55 2001.85 200.32"/><polygon class="cls-86" points="2175.39 200.32 2348.93 200.32 2398.45 242.55 2216.61 242.55 2175.39 200.32"/><polygon class="cls-87" points="216.4 242.55 398.24 242.55 346.04 295.34 153.83 295.34 216.4 242.55"/><polygon class="cls-88" points="398.24 242.55 580.08 242.55 538.25 295.34 346.04 295.34 398.24 242.55"/><polygon class="cls-89" points="580.08 242.55 761.91 242.55 730.46 295.34 538.25 295.34 580.08 242.55"/><polygon class="cls-90" points="761.91 242.55 943.75 242.55 922.67 295.34 730.46 295.34 761.91 242.55"/><polygon class="cls-91" points="943.75 242.55 1125.59 242.55 1114.88 295.34 922.67 295.34 943.75 242.55"/><polygon class="cls-92" points="1125.59 242.55 1307.43 242.55 1307.1 295.34 1114.88 295.34 1125.59 242.55"/><polygon class="cls-93" points="1307.43 242.55 1489.26 242.55 1499.31 295.34 1307.1 295.34 1307.43 242.55"/><polygon class="cls-94" points="1489.26 242.55 1671.1 242.55 1691.52 295.34 1499.31 295.34 1489.26 242.55"/><polygon class="cls-95" points="1671.1 242.55 1852.94 242.55 1883.73 295.34 1691.52 295.34 1671.1 242.55"/><polygon class="cls-96" points="1852.94 242.55 2034.78 242.55 2075.94 295.34 1883.73 295.34 1852.94 242.55"/><polygon class="cls-97" points="2034.78 242.55 2216.61 242.55 2268.15 295.34 2075.94 295.34 2034.78 242.55"/><polygon class="cls-98" points="2216.61 242.55 2398.45 242.55 2460.36 295.34 2268.15 295.34 2216.61 242.55"/><polygon class="cls-99" points="153.83 295.34 346.04 295.34 289.67 352.35 86.26 352.35 153.83 295.34"/><polygon class="cls-100" points="346.04 295.34 538.25 295.34 493.08 352.35 289.67 352.35 346.04 295.34"/><polygon class="cls-101" points="538.25 295.34 730.46 295.34 696.5 352.35 493.08 352.35 538.25 295.34"/><polygon class="cls-102" points="730.46 295.34 922.67 295.34 899.91 352.35 696.5 352.35 730.46 295.34"/><polygon class="cls-103" points="922.67 295.34 1114.88 295.34 1103.33 352.35 899.91 352.35 922.67 295.34"/><polygon class="cls-104" points="1114.88 295.34 1307.1 295.34 1306.74 352.35 1103.33 352.35 1114.88 295.34"/><polygon class="cls-105" points="1307.1 295.34 1499.31 295.34 1510.15 352.35 1306.74 352.35 1307.1 295.34"/><polygon class="cls-106" points="1499.31 295.34 1691.52 295.34 1713.57 352.35 1510.15 352.35 1499.31 295.34"/><polygon class="cls-107" points="1691.52 295.34 1883.73 295.34 1916.98 352.35 1713.57 352.35 1691.52 295.34"/><polygon class="cls-108" points="1883.73 295.34 2075.94 295.34 2120.39 352.35 1916.98 352.35 1883.73 295.34"/><polygon class="cls-109" points="2075.94 295.34 2268.15 295.34 2323.81 352.35 2120.39 352.35 2075.94 295.34"/><polygon class="cls-110" points="2268.15 295.34 2460.36 295.34 2527.22 352.35 2323.81 352.35 2268.15 295.34"/><polygon class="cls-111" points="86.26 352.35 289.67 352.35 218.68 424.14 1.16 424.14 86.26 352.35"/><polygon class="cls-112" points="289.67 352.35 493.08 352.35 436.2 424.14 218.68 424.14 289.67 352.35"/><polygon class="cls-113" points="493.08 352.35 696.5 352.35 653.73 424.14 436.2 424.14 493.08 352.35"/><polygon class="cls-114" points="696.5 352.35 899.91 352.35 871.25 424.14 653.73 424.14 696.5 352.35"/><polygon class="cls-115" points="899.91 352.35 1103.33 352.35 1088.77 424.14 871.25 424.14 899.91 352.35"/><polygon class="cls-116" points="1103.33 352.35 1306.74 352.35 1306.29 424.14 1088.77 424.14 1103.33 352.35"/><polygon class="cls-117" points="1306.74 352.35 1510.15 352.35 1523.81 424.14 1306.29 424.14 1306.74 352.35"/><polygon class="cls-118" points="1510.15 352.35 1713.57 352.35 1741.33 424.14 1523.81 424.14 1510.15 352.35"/><polygon class="cls-119" points="1713.57 352.35 1916.98 352.35 1958.85 424.14 1741.33 424.14 1713.57 352.35"/><polygon class="cls-120" points="1916.98 352.35 2120.39 352.35 2176.37 424.14 1958.85 424.14 1916.98 352.35"/><polygon class="cls-121" points="2120.39 352.35 2323.81 352.35 2393.89 424.14 2176.37 424.14 2120.39 352.35"/><polygon class="cls-122" points="2323.81 352.35 2527.22 352.35 2611.41 424.14 2393.89 424.14 2323.81 352.35"/></g></g></g></svg>